%TF.GenerationSoftware,KiCad,Pcbnew,8.0.7*%
%TF.CreationDate,2025-01-05T11:55:33+01:00*%
%TF.ProjectId,ADLSC,41444c53-432e-46b6-9963-61645f706362,V1.0*%
%TF.SameCoordinates,Original*%
%TF.FileFunction,Drillmap*%
%TF.FilePolarity,Positive*%
%FSLAX45Y45*%
G04 Gerber Fmt 4.5, Leading zero omitted, Abs format (unit mm)*
G04 Created by KiCad (PCBNEW 8.0.7) date 2025-01-05 11:55:33*
%MOMM*%
%LPD*%
G01*
G04 APERTURE LIST*
%ADD10C,0.050000*%
%ADD11C,0.200000*%
G04 APERTURE END LIST*
D10*
X508000Y-6096000D02*
G75*
G02*
X0Y-5588000I0J508000D01*
G01*
X13208000Y-6096000D02*
X508000Y-6096000D01*
X0Y-508000D02*
G75*
G02*
X508000Y0I508000J0D01*
G01*
X0Y-5588000D02*
X0Y-508000D01*
X13716000Y-5588000D02*
G75*
G02*
X13208000Y-6096000I-508000J0D01*
G01*
X13208000Y0D02*
G75*
G02*
X13716000Y-508000I0J-508000D01*
G01*
X508000Y0D02*
X13208000Y0D01*
X13716000Y-508000D02*
X13716000Y-5588000D01*
D11*
X258277Y-6409984D02*
X258277Y-6209984D01*
X258277Y-6209984D02*
X305896Y-6209984D01*
X305896Y-6209984D02*
X334467Y-6219508D01*
X334467Y-6219508D02*
X353515Y-6238555D01*
X353515Y-6238555D02*
X363039Y-6257603D01*
X363039Y-6257603D02*
X372562Y-6295698D01*
X372562Y-6295698D02*
X372562Y-6324269D01*
X372562Y-6324269D02*
X363039Y-6362365D01*
X363039Y-6362365D02*
X353515Y-6381412D01*
X353515Y-6381412D02*
X334467Y-6400460D01*
X334467Y-6400460D02*
X305896Y-6409984D01*
X305896Y-6409984D02*
X258277Y-6409984D01*
X458277Y-6409984D02*
X458277Y-6276650D01*
X458277Y-6314746D02*
X467801Y-6295698D01*
X467801Y-6295698D02*
X477324Y-6286174D01*
X477324Y-6286174D02*
X496372Y-6276650D01*
X496372Y-6276650D02*
X515420Y-6276650D01*
X582086Y-6409984D02*
X582086Y-6276650D01*
X582086Y-6209984D02*
X572563Y-6219508D01*
X572563Y-6219508D02*
X582086Y-6229031D01*
X582086Y-6229031D02*
X591610Y-6219508D01*
X591610Y-6219508D02*
X582086Y-6209984D01*
X582086Y-6209984D02*
X582086Y-6229031D01*
X705896Y-6409984D02*
X686848Y-6400460D01*
X686848Y-6400460D02*
X677324Y-6381412D01*
X677324Y-6381412D02*
X677324Y-6209984D01*
X810658Y-6409984D02*
X791610Y-6400460D01*
X791610Y-6400460D02*
X782086Y-6381412D01*
X782086Y-6381412D02*
X782086Y-6209984D01*
X1039229Y-6409984D02*
X1039229Y-6209984D01*
X1039229Y-6209984D02*
X1105896Y-6352841D01*
X1105896Y-6352841D02*
X1172563Y-6209984D01*
X1172563Y-6209984D02*
X1172563Y-6409984D01*
X1353515Y-6409984D02*
X1353515Y-6305222D01*
X1353515Y-6305222D02*
X1343991Y-6286174D01*
X1343991Y-6286174D02*
X1324944Y-6276650D01*
X1324944Y-6276650D02*
X1286848Y-6276650D01*
X1286848Y-6276650D02*
X1267801Y-6286174D01*
X1353515Y-6400460D02*
X1334467Y-6409984D01*
X1334467Y-6409984D02*
X1286848Y-6409984D01*
X1286848Y-6409984D02*
X1267801Y-6400460D01*
X1267801Y-6400460D02*
X1258277Y-6381412D01*
X1258277Y-6381412D02*
X1258277Y-6362365D01*
X1258277Y-6362365D02*
X1267801Y-6343317D01*
X1267801Y-6343317D02*
X1286848Y-6333793D01*
X1286848Y-6333793D02*
X1334467Y-6333793D01*
X1334467Y-6333793D02*
X1353515Y-6324269D01*
X1448753Y-6276650D02*
X1448753Y-6476650D01*
X1448753Y-6286174D02*
X1467801Y-6276650D01*
X1467801Y-6276650D02*
X1505896Y-6276650D01*
X1505896Y-6276650D02*
X1524943Y-6286174D01*
X1524943Y-6286174D02*
X1534467Y-6295698D01*
X1534467Y-6295698D02*
X1543991Y-6314746D01*
X1543991Y-6314746D02*
X1543991Y-6371888D01*
X1543991Y-6371888D02*
X1534467Y-6390936D01*
X1534467Y-6390936D02*
X1524943Y-6400460D01*
X1524943Y-6400460D02*
X1505896Y-6409984D01*
X1505896Y-6409984D02*
X1467801Y-6409984D01*
X1467801Y-6409984D02*
X1448753Y-6400460D01*
X1629705Y-6390936D02*
X1639229Y-6400460D01*
X1639229Y-6400460D02*
X1629705Y-6409984D01*
X1629705Y-6409984D02*
X1620182Y-6400460D01*
X1620182Y-6400460D02*
X1629705Y-6390936D01*
X1629705Y-6390936D02*
X1629705Y-6409984D01*
X1629705Y-6286174D02*
X1639229Y-6295698D01*
X1639229Y-6295698D02*
X1629705Y-6305222D01*
X1629705Y-6305222D02*
X1620182Y-6295698D01*
X1620182Y-6295698D02*
X1629705Y-6286174D01*
X1629705Y-6286174D02*
X1629705Y-6305222D01*
M02*
