M48
; DRILL file {KiCad 8.0.7} date 2025-01-05T11:55:34+0100
; FORMAT={-:-/ absolute / metric / decimal}
; #@! TF.CreationDate,2025-01-05T11:55:34+01:00
; #@! TF.GenerationSoftware,Kicad,Pcbnew,8.0.7
; #@! TF.FileFunction,Plated,1,2,PTH
FMAT,2
METRIC
; #@! TA.AperFunction,Plated,PTH,ViaDrill
T1C0.400
; #@! TA.AperFunction,Plated,PTH,ComponentDrill
T2C0.500
; #@! TA.AperFunction,Plated,PTH,ViaDrill
T3C0.800
; #@! TA.AperFunction,Plated,PTH,ComponentDrill
T4C1.000
; #@! TA.AperFunction,Plated,PTH,ComponentDrill
T5C1.400
; #@! TA.AperFunction,Plated,PTH,ComponentDrill
T6C1.520
; #@! TA.AperFunction,Plated,PTH,ComponentDrill
T7C3.200
%
G90
G05
T1
X7.62Y-8.89
X10.16Y-15.24
X11.43Y-8.89
X16.51Y-39.421
X19.05Y-8.89
X21.59Y-8.89
X22.606Y-36.576
X22.606Y-39.624
X22.606Y-44.602
X26.67Y-15.24
X26.67Y-47.625
X27.051Y-23.749
X28.804Y-36.017
X31.394Y-33.02
X32.055Y-30.124
X32.36Y-40.894
X32.918Y-47.803
X37.592Y-2.642
X37.643Y-5.69
X38.202Y-35.103
X38.811Y-41.707
X39.98Y-32.461
X40.538Y-36.119
X42.824Y-44.044
X45.415Y-25.248
X50.394Y-31.852
X52.476Y-7.214
X52.527Y-2.591
X52.883Y-43.332
X52.934Y-17.78
X55.778Y-35.357
X55.982Y-41.961
X56.54Y-28.092
X57.556Y-13.36
X59.487Y-32.715
X60.96Y-33.655
X63.297Y-26.619
X63.602Y-45.923
X64.135Y-23.495
X66.04Y-42.545
X66.294Y-37.795
X68.58Y-33.655
X69.596Y-41.783
X69.85Y-33.02
X71.755Y-30.48
X71.99Y-33.655
X72.39Y-31.75
X72.39Y-42.545
X73.66Y-36.83
X73.66Y-45.72
X74.93Y-34.925
X75.565Y-31.75
X75.565Y-39.37
X78.435Y-35.458
X80.01Y-42.545
X80.213Y-44.653
X81.178Y-17.221
X81.28Y-36.195
X81.28Y-50.8
X85.801Y-36.83
X86.258Y-17.424
X86.563Y-40.945
X92.507Y-36.474
X92.71Y-39.624
X93.624Y-7.214
X101.498Y-11.125
X101.498Y-14.529
X106.477Y-7.62
X106.68Y-36.576
X106.782Y-39.675
X111.506Y-18.999
X111.557Y-13.767
X111.658Y-32.614
X111.963Y-7.569
X113.03Y-10.795
X113.03Y-27.94
X114.96Y-13.665
X115.011Y-11.227
X115.164Y-18.542
X115.316Y-23.368
X121.056Y-21.692
X123.139Y-16.408
X124.562Y-19.05
X128.524Y-31.039
X129.286Y-45.669
X132.486Y-45.72
X132.588Y-30.226
T2
X2.68Y-4.94
X2.68Y-55.74
X3.383Y-3.243
X3.383Y-6.637
X3.383Y-54.043
X3.383Y-57.437
X5.08Y-2.54
X5.08Y-7.34
X5.08Y-53.34
X5.08Y-58.14
X6.777Y-3.243
X6.777Y-6.637
X6.777Y-54.043
X6.777Y-57.437
X7.48Y-4.94
X7.48Y-55.74
X129.68Y-5.08
X129.68Y-55.88
X130.383Y-3.383
X130.383Y-6.777
X130.383Y-54.183
X130.383Y-57.577
X132.08Y-2.68
X132.08Y-7.48
X132.08Y-53.48
X132.08Y-58.28
X133.777Y-3.383
X133.777Y-6.777
X133.777Y-54.183
X133.777Y-57.577
X134.48Y-5.08
X134.48Y-55.88
T3
X41.275Y-10.16
X43.18Y-10.16
X43.18Y-15.24
X45.085Y-10.16
X45.085Y-15.24
X46.99Y-10.16
X46.99Y-12.7
X46.99Y-15.24
X48.895Y-10.16
X48.895Y-12.7
X48.895Y-15.24
X52.705Y-10.16
X59.08Y-31.09
X59.69Y-17.145
X59.69Y-39.37
X66.675Y-17.145
X74.295Y-17.145
X75.565Y-20.955
X75.565Y-27.94
X80.645Y-7.62
X86.36Y-25.4
X86.36Y-32.385
X86.995Y-10.16
X93.345Y-20.955
X98.425Y-34.925
X105.41Y-16.51
T4
X83.82Y-7.62
X83.82Y-10.16
X83.82Y-12.7
X83.82Y-15.24
X83.82Y-17.78
X83.82Y-20.32
X83.82Y-22.86
X83.82Y-25.4
X83.82Y-27.94
X83.82Y-30.48
X83.82Y-33.02
X83.82Y-35.56
X83.82Y-38.1
X83.82Y-40.64
X83.82Y-43.18
X83.82Y-45.72
X83.82Y-48.26
X83.82Y-50.8
X83.82Y-53.34
X109.22Y-7.62
X109.22Y-10.16
X109.22Y-12.7
X109.22Y-15.24
X109.22Y-17.78
X109.22Y-20.32
X109.22Y-22.86
X109.22Y-25.4
X109.22Y-27.94
X109.22Y-30.48
X109.22Y-33.02
X109.22Y-35.56
X109.22Y-38.1
X109.22Y-40.64
X109.22Y-43.18
X109.22Y-45.72
X109.22Y-48.26
X109.22Y-50.8
X109.22Y-53.34
X127.0Y-12.7
X127.0Y-15.24
X127.0Y-17.78
X127.0Y-20.32
X127.0Y-22.86
X127.0Y-25.4
X127.0Y-35.56
X127.0Y-38.1
X127.0Y-40.64
X127.0Y-43.18
X127.0Y-45.72
X127.0Y-48.26
T6
X13.32Y-12.7
X13.32Y-17.78
X13.32Y-22.86
X13.32Y-27.94
X13.32Y-33.02
X13.32Y-38.1
X13.32Y-43.18
X13.32Y-48.26
X20.32Y-12.7
X20.32Y-17.78
X20.32Y-22.86
X20.32Y-27.94
X20.32Y-33.02
X20.32Y-38.1
X20.32Y-43.18
X20.32Y-48.26
T7
X5.08Y-4.94
X5.08Y-55.74
X132.08Y-5.08
X132.08Y-55.88
T5
X35.92Y-25.4G85X35.02Y-25.4
G05
X35.92Y-45.72G85X35.02Y-45.72
G05
X40.52Y-25.4G85X39.62Y-25.4
G05
X40.52Y-45.72G85X39.62Y-45.72
G05
X51.82Y-25.4G85X50.92Y-25.4
G05
X51.82Y-45.72G85X50.92Y-45.72
G05
X56.42Y-25.4G85X55.52Y-25.4
G05
X56.42Y-45.72G85X55.52Y-45.72
G05
M30
