%TF.GenerationSoftware,KiCad,Pcbnew,8.0.7*%
%TF.CreationDate,2025-01-05T11:55:33+01:00*%
%TF.ProjectId,ADLSC,41444c53-432e-46b6-9963-61645f706362,V1.0*%
%TF.SameCoordinates,Original*%
%TF.FileFunction,Drillmap*%
%TF.FilePolarity,Positive*%
%FSLAX45Y45*%
G04 Gerber Fmt 4.5, Leading zero omitted, Abs format (unit mm)*
G04 Created by KiCad (PCBNEW 8.0.7) date 2025-01-05 11:55:33*
%MOMM*%
%LPD*%
G01*
G04 APERTURE LIST*
%ADD10C,0.050000*%
%ADD11C,0.200000*%
%ADD12C,0.100000*%
%ADD13C,0.140000*%
%ADD14C,0.152000*%
%ADD15C,0.320000*%
G04 APERTURE END LIST*
D10*
X508000Y-6096000D02*
G75*
G02*
X0Y-5588000I0J508000D01*
G01*
X13208000Y-6096000D02*
X508000Y-6096000D01*
X0Y-508000D02*
G75*
G02*
X508000Y0I508000J0D01*
G01*
X0Y-5588000D02*
X0Y-508000D01*
X13716000Y-5588000D02*
G75*
G02*
X13208000Y-6096000I-508000J0D01*
G01*
X13208000Y0D02*
G75*
G02*
X13716000Y-508000I0J-508000D01*
G01*
X508000Y0D02*
X13208000Y0D01*
X13716000Y-508000D02*
X13716000Y-5588000D01*
D11*
D12*
X742000Y-869000D02*
X782000Y-909000D01*
X782000Y-869000D02*
X742000Y-909000D01*
X996000Y-1504000D02*
X1036000Y-1544000D01*
X1036000Y-1504000D02*
X996000Y-1544000D01*
X1123000Y-869000D02*
X1163000Y-909000D01*
X1163000Y-869000D02*
X1123000Y-909000D01*
X1631000Y-3922080D02*
X1671000Y-3962080D01*
X1671000Y-3922080D02*
X1631000Y-3962080D01*
X1885000Y-869000D02*
X1925000Y-909000D01*
X1925000Y-869000D02*
X1885000Y-909000D01*
X2139000Y-869000D02*
X2179000Y-909000D01*
X2179000Y-869000D02*
X2139000Y-909000D01*
X2240600Y-3637600D02*
X2280600Y-3677600D01*
X2280600Y-3637600D02*
X2240600Y-3677600D01*
X2240600Y-3942400D02*
X2280600Y-3982400D01*
X2280600Y-3942400D02*
X2240600Y-3982400D01*
X2240600Y-4440240D02*
X2280600Y-4480240D01*
X2280600Y-4440240D02*
X2240600Y-4480240D01*
X2647000Y-1504000D02*
X2687000Y-1544000D01*
X2687000Y-1504000D02*
X2647000Y-1544000D01*
X2647000Y-4742500D02*
X2687000Y-4782500D01*
X2687000Y-4742500D02*
X2647000Y-4782500D01*
X2685100Y-2354900D02*
X2725100Y-2394900D01*
X2725100Y-2354900D02*
X2685100Y-2394900D01*
X2860360Y-3581720D02*
X2900360Y-3621720D01*
X2900360Y-3581720D02*
X2860360Y-3621720D01*
X3119440Y-3282000D02*
X3159440Y-3322000D01*
X3159440Y-3282000D02*
X3119440Y-3322000D01*
X3185480Y-2992440D02*
X3225480Y-3032440D01*
X3225480Y-2992440D02*
X3185480Y-3032440D01*
X3215960Y-4069400D02*
X3255960Y-4109400D01*
X3255960Y-4069400D02*
X3215960Y-4109400D01*
X3271840Y-4760280D02*
X3311840Y-4800280D01*
X3311840Y-4760280D02*
X3271840Y-4800280D01*
X3739200Y-244160D02*
X3779200Y-284160D01*
X3779200Y-244160D02*
X3739200Y-284160D01*
X3744280Y-548960D02*
X3784280Y-588960D01*
X3784280Y-548960D02*
X3744280Y-588960D01*
X3800160Y-3490280D02*
X3840160Y-3530280D01*
X3840160Y-3490280D02*
X3800160Y-3530280D01*
X3861120Y-4150680D02*
X3901120Y-4190680D01*
X3901120Y-4150680D02*
X3861120Y-4190680D01*
X3977960Y-3226120D02*
X4017960Y-3266120D01*
X4017960Y-3226120D02*
X3977960Y-3266120D01*
X4033840Y-3591880D02*
X4073840Y-3631880D01*
X4073840Y-3591880D02*
X4033840Y-3631880D01*
X4262440Y-4384360D02*
X4302440Y-4424360D01*
X4302440Y-4384360D02*
X4262440Y-4424360D01*
X4521520Y-2504760D02*
X4561520Y-2544760D01*
X4561520Y-2504760D02*
X4521520Y-2544760D01*
X5019360Y-3165160D02*
X5059360Y-3205160D01*
X5059360Y-3165160D02*
X5019360Y-3205160D01*
X5227640Y-701360D02*
X5267640Y-741360D01*
X5267640Y-701360D02*
X5227640Y-741360D01*
X5232720Y-239080D02*
X5272720Y-279080D01*
X5272720Y-239080D02*
X5232720Y-279080D01*
X5268280Y-4313240D02*
X5308280Y-4353240D01*
X5308280Y-4313240D02*
X5268280Y-4353240D01*
X5273360Y-1758000D02*
X5313360Y-1798000D01*
X5313360Y-1758000D02*
X5273360Y-1798000D01*
X5557840Y-3515680D02*
X5597840Y-3555680D01*
X5597840Y-3515680D02*
X5557840Y-3555680D01*
X5578160Y-4176080D02*
X5618160Y-4216080D01*
X5618160Y-4176080D02*
X5578160Y-4216080D01*
X5634040Y-2789240D02*
X5674040Y-2829240D01*
X5674040Y-2789240D02*
X5634040Y-2829240D01*
X5735640Y-1316040D02*
X5775640Y-1356040D01*
X5775640Y-1316040D02*
X5735640Y-1356040D01*
X5928680Y-3251520D02*
X5968680Y-3291520D01*
X5968680Y-3251520D02*
X5928680Y-3291520D01*
X6076000Y-3345500D02*
X6116000Y-3385500D01*
X6116000Y-3345500D02*
X6076000Y-3385500D01*
X6309680Y-2641920D02*
X6349680Y-2681920D01*
X6349680Y-2641920D02*
X6309680Y-2681920D01*
X6340160Y-4572320D02*
X6380160Y-4612320D01*
X6380160Y-4572320D02*
X6340160Y-4612320D01*
X6393500Y-2329500D02*
X6433500Y-2369500D01*
X6433500Y-2329500D02*
X6393500Y-2369500D01*
X6584000Y-4234500D02*
X6624000Y-4274500D01*
X6624000Y-4234500D02*
X6584000Y-4274500D01*
X6609400Y-3759520D02*
X6649400Y-3799520D01*
X6649400Y-3759520D02*
X6609400Y-3799520D01*
X6838000Y-3345500D02*
X6878000Y-3385500D01*
X6878000Y-3345500D02*
X6838000Y-3385500D01*
X6939600Y-4158300D02*
X6979600Y-4198300D01*
X6979600Y-4158300D02*
X6939600Y-4198300D01*
X6965000Y-3282000D02*
X7005000Y-3322000D01*
X7005000Y-3282000D02*
X6965000Y-3322000D01*
X7155500Y-3028000D02*
X7195500Y-3068000D01*
X7195500Y-3028000D02*
X7155500Y-3068000D01*
X7179000Y-3345500D02*
X7219000Y-3385500D01*
X7219000Y-3345500D02*
X7179000Y-3385500D01*
X7219000Y-3155000D02*
X7259000Y-3195000D01*
X7259000Y-3155000D02*
X7219000Y-3195000D01*
X7219000Y-4234500D02*
X7259000Y-4274500D01*
X7259000Y-4234500D02*
X7219000Y-4274500D01*
X7346000Y-3663000D02*
X7386000Y-3703000D01*
X7386000Y-3663000D02*
X7346000Y-3703000D01*
X7346000Y-4552000D02*
X7386000Y-4592000D01*
X7386000Y-4552000D02*
X7346000Y-4592000D01*
X7473000Y-3472500D02*
X7513000Y-3512500D01*
X7513000Y-3472500D02*
X7473000Y-3512500D01*
X7536500Y-3155000D02*
X7576500Y-3195000D01*
X7576500Y-3155000D02*
X7536500Y-3195000D01*
X7536500Y-3917000D02*
X7576500Y-3957000D01*
X7576500Y-3917000D02*
X7536500Y-3957000D01*
X7823520Y-3525840D02*
X7863520Y-3565840D01*
X7863520Y-3525840D02*
X7823520Y-3565840D01*
X7981000Y-4234500D02*
X8021000Y-4274500D01*
X8021000Y-4234500D02*
X7981000Y-4274500D01*
X8001320Y-4445320D02*
X8041320Y-4485320D01*
X8041320Y-4445320D02*
X8001320Y-4485320D01*
X8097840Y-1702120D02*
X8137840Y-1742120D01*
X8137840Y-1702120D02*
X8097840Y-1742120D01*
X8108000Y-3599500D02*
X8148000Y-3639500D01*
X8148000Y-3599500D02*
X8108000Y-3639500D01*
X8108000Y-5060000D02*
X8148000Y-5100000D01*
X8148000Y-5060000D02*
X8108000Y-5100000D01*
X8560120Y-3663000D02*
X8600120Y-3703000D01*
X8600120Y-3663000D02*
X8560120Y-3703000D01*
X8605840Y-1722440D02*
X8645840Y-1762440D01*
X8645840Y-1722440D02*
X8605840Y-1762440D01*
X8636320Y-4074480D02*
X8676320Y-4114480D01*
X8676320Y-4074480D02*
X8636320Y-4114480D01*
X9230680Y-3627440D02*
X9270680Y-3667440D01*
X9270680Y-3627440D02*
X9230680Y-3667440D01*
X9251000Y-3942400D02*
X9291000Y-3982400D01*
X9291000Y-3942400D02*
X9251000Y-3982400D01*
X9342440Y-701360D02*
X9382440Y-741360D01*
X9382440Y-701360D02*
X9342440Y-741360D01*
X10129840Y-1092520D02*
X10169840Y-1132520D01*
X10169840Y-1092520D02*
X10129840Y-1132520D01*
X10129840Y-1432880D02*
X10169840Y-1472880D01*
X10169840Y-1432880D02*
X10129840Y-1472880D01*
X10627680Y-742000D02*
X10667680Y-782000D01*
X10667680Y-742000D02*
X10627680Y-782000D01*
X10648000Y-3637600D02*
X10688000Y-3677600D01*
X10688000Y-3637600D02*
X10648000Y-3677600D01*
X10658160Y-3947480D02*
X10698160Y-3987480D01*
X10698160Y-3947480D02*
X10658160Y-3987480D01*
X11130600Y-1879920D02*
X11170600Y-1919920D01*
X11170600Y-1879920D02*
X11130600Y-1919920D01*
X11135680Y-1356680D02*
X11175680Y-1396680D01*
X11175680Y-1356680D02*
X11135680Y-1396680D01*
X11145840Y-3241360D02*
X11185840Y-3281360D01*
X11185840Y-3241360D02*
X11145840Y-3281360D01*
X11176320Y-736920D02*
X11216320Y-776920D01*
X11216320Y-736920D02*
X11176320Y-776920D01*
X11283000Y-1059500D02*
X11323000Y-1099500D01*
X11323000Y-1059500D02*
X11283000Y-1099500D01*
X11283000Y-2774000D02*
X11323000Y-2814000D01*
X11323000Y-2774000D02*
X11283000Y-2814000D01*
X11476040Y-1346520D02*
X11516040Y-1386520D01*
X11516040Y-1346520D02*
X11476040Y-1386520D01*
X11481120Y-1102680D02*
X11521120Y-1142680D01*
X11521120Y-1102680D02*
X11481120Y-1142680D01*
X11496360Y-1834200D02*
X11536360Y-1874200D01*
X11536360Y-1834200D02*
X11496360Y-1874200D01*
X11511600Y-2316800D02*
X11551600Y-2356800D01*
X11551600Y-2316800D02*
X11511600Y-2356800D01*
X12085640Y-2149160D02*
X12125640Y-2189160D01*
X12125640Y-2149160D02*
X12085640Y-2189160D01*
X12293920Y-1620840D02*
X12333920Y-1660840D01*
X12333920Y-1620840D02*
X12293920Y-1660840D01*
X12436160Y-1885000D02*
X12476160Y-1925000D01*
X12476160Y-1885000D02*
X12436160Y-1925000D01*
X12832400Y-3083880D02*
X12872400Y-3123880D01*
X12872400Y-3083880D02*
X12832400Y-3123880D01*
X12908600Y-4546920D02*
X12948600Y-4586920D01*
X12948600Y-4546920D02*
X12908600Y-4586920D01*
X13228640Y-4552000D02*
X13268640Y-4592000D01*
X13268640Y-4552000D02*
X13228640Y-4592000D01*
X13238800Y-3002600D02*
X13278800Y-3042600D01*
X13278800Y-3002600D02*
X13238800Y-3042600D01*
X293000Y-494000D02*
G75*
G02*
X243000Y-494000I-25000J0D01*
G01*
X243000Y-494000D02*
G75*
G02*
X293000Y-494000I25000J0D01*
G01*
X293000Y-5574000D02*
G75*
G02*
X243000Y-5574000I-25000J0D01*
G01*
X243000Y-5574000D02*
G75*
G02*
X293000Y-5574000I25000J0D01*
G01*
X363294Y-324294D02*
G75*
G02*
X313294Y-324294I-25000J0D01*
G01*
X313294Y-324294D02*
G75*
G02*
X363294Y-324294I25000J0D01*
G01*
X363294Y-663706D02*
G75*
G02*
X313294Y-663706I-25000J0D01*
G01*
X313294Y-663706D02*
G75*
G02*
X363294Y-663706I25000J0D01*
G01*
X363294Y-5404294D02*
G75*
G02*
X313294Y-5404294I-25000J0D01*
G01*
X313294Y-5404294D02*
G75*
G02*
X363294Y-5404294I25000J0D01*
G01*
X363294Y-5743706D02*
G75*
G02*
X313294Y-5743706I-25000J0D01*
G01*
X313294Y-5743706D02*
G75*
G02*
X363294Y-5743706I25000J0D01*
G01*
X533000Y-254000D02*
G75*
G02*
X483000Y-254000I-25000J0D01*
G01*
X483000Y-254000D02*
G75*
G02*
X533000Y-254000I25000J0D01*
G01*
X533000Y-734000D02*
G75*
G02*
X483000Y-734000I-25000J0D01*
G01*
X483000Y-734000D02*
G75*
G02*
X533000Y-734000I25000J0D01*
G01*
X533000Y-5334000D02*
G75*
G02*
X483000Y-5334000I-25000J0D01*
G01*
X483000Y-5334000D02*
G75*
G02*
X533000Y-5334000I25000J0D01*
G01*
X533000Y-5814000D02*
G75*
G02*
X483000Y-5814000I-25000J0D01*
G01*
X483000Y-5814000D02*
G75*
G02*
X533000Y-5814000I25000J0D01*
G01*
X702706Y-324294D02*
G75*
G02*
X652706Y-324294I-25000J0D01*
G01*
X652706Y-324294D02*
G75*
G02*
X702706Y-324294I25000J0D01*
G01*
X702706Y-663706D02*
G75*
G02*
X652706Y-663706I-25000J0D01*
G01*
X652706Y-663706D02*
G75*
G02*
X702706Y-663706I25000J0D01*
G01*
X702706Y-5404294D02*
G75*
G02*
X652706Y-5404294I-25000J0D01*
G01*
X652706Y-5404294D02*
G75*
G02*
X702706Y-5404294I25000J0D01*
G01*
X702706Y-5743706D02*
G75*
G02*
X652706Y-5743706I-25000J0D01*
G01*
X652706Y-5743706D02*
G75*
G02*
X702706Y-5743706I25000J0D01*
G01*
X773000Y-494000D02*
G75*
G02*
X723000Y-494000I-25000J0D01*
G01*
X723000Y-494000D02*
G75*
G02*
X773000Y-494000I25000J0D01*
G01*
X773000Y-5574000D02*
G75*
G02*
X723000Y-5574000I-25000J0D01*
G01*
X723000Y-5574000D02*
G75*
G02*
X773000Y-5574000I25000J0D01*
G01*
X12993000Y-508000D02*
G75*
G02*
X12943000Y-508000I-25000J0D01*
G01*
X12943000Y-508000D02*
G75*
G02*
X12993000Y-508000I25000J0D01*
G01*
X12993000Y-5588000D02*
G75*
G02*
X12943000Y-5588000I-25000J0D01*
G01*
X12943000Y-5588000D02*
G75*
G02*
X12993000Y-5588000I25000J0D01*
G01*
X13063294Y-338294D02*
G75*
G02*
X13013294Y-338294I-25000J0D01*
G01*
X13013294Y-338294D02*
G75*
G02*
X13063294Y-338294I25000J0D01*
G01*
X13063294Y-677706D02*
G75*
G02*
X13013294Y-677706I-25000J0D01*
G01*
X13013294Y-677706D02*
G75*
G02*
X13063294Y-677706I25000J0D01*
G01*
X13063294Y-5418294D02*
G75*
G02*
X13013294Y-5418294I-25000J0D01*
G01*
X13013294Y-5418294D02*
G75*
G02*
X13063294Y-5418294I25000J0D01*
G01*
X13063294Y-5757706D02*
G75*
G02*
X13013294Y-5757706I-25000J0D01*
G01*
X13013294Y-5757706D02*
G75*
G02*
X13063294Y-5757706I25000J0D01*
G01*
X13233000Y-268000D02*
G75*
G02*
X13183000Y-268000I-25000J0D01*
G01*
X13183000Y-268000D02*
G75*
G02*
X13233000Y-268000I25000J0D01*
G01*
X13233000Y-748000D02*
G75*
G02*
X13183000Y-748000I-25000J0D01*
G01*
X13183000Y-748000D02*
G75*
G02*
X13233000Y-748000I25000J0D01*
G01*
X13233000Y-5348000D02*
G75*
G02*
X13183000Y-5348000I-25000J0D01*
G01*
X13183000Y-5348000D02*
G75*
G02*
X13233000Y-5348000I25000J0D01*
G01*
X13233000Y-5828000D02*
G75*
G02*
X13183000Y-5828000I-25000J0D01*
G01*
X13183000Y-5828000D02*
G75*
G02*
X13233000Y-5828000I25000J0D01*
G01*
X13402706Y-338294D02*
G75*
G02*
X13352706Y-338294I-25000J0D01*
G01*
X13352706Y-338294D02*
G75*
G02*
X13402706Y-338294I25000J0D01*
G01*
X13402706Y-677706D02*
G75*
G02*
X13352706Y-677706I-25000J0D01*
G01*
X13352706Y-677706D02*
G75*
G02*
X13402706Y-677706I25000J0D01*
G01*
X13402706Y-5418294D02*
G75*
G02*
X13352706Y-5418294I-25000J0D01*
G01*
X13352706Y-5418294D02*
G75*
G02*
X13402706Y-5418294I25000J0D01*
G01*
X13402706Y-5757706D02*
G75*
G02*
X13352706Y-5757706I-25000J0D01*
G01*
X13352706Y-5757706D02*
G75*
G02*
X13402706Y-5757706I25000J0D01*
G01*
X13473000Y-508000D02*
G75*
G02*
X13423000Y-508000I-25000J0D01*
G01*
X13423000Y-508000D02*
G75*
G02*
X13473000Y-508000I25000J0D01*
G01*
X13473000Y-5588000D02*
G75*
G02*
X13423000Y-5588000I-25000J0D01*
G01*
X13423000Y-5588000D02*
G75*
G02*
X13473000Y-5588000I25000J0D01*
G01*
X4127500Y-976000D02*
X4127500Y-1056000D01*
X4087500Y-1016000D02*
X4167500Y-1016000D01*
X4318000Y-976000D02*
X4318000Y-1056000D01*
X4278000Y-1016000D02*
X4358000Y-1016000D01*
X4318000Y-1484000D02*
X4318000Y-1564000D01*
X4278000Y-1524000D02*
X4358000Y-1524000D01*
X4508500Y-976000D02*
X4508500Y-1056000D01*
X4468500Y-1016000D02*
X4548500Y-1016000D01*
X4508500Y-1484000D02*
X4508500Y-1564000D01*
X4468500Y-1524000D02*
X4548500Y-1524000D01*
X4699000Y-976000D02*
X4699000Y-1056000D01*
X4659000Y-1016000D02*
X4739000Y-1016000D01*
X4699000Y-1230000D02*
X4699000Y-1310000D01*
X4659000Y-1270000D02*
X4739000Y-1270000D01*
X4699000Y-1484000D02*
X4699000Y-1564000D01*
X4659000Y-1524000D02*
X4739000Y-1524000D01*
X4889500Y-976000D02*
X4889500Y-1056000D01*
X4849500Y-1016000D02*
X4929500Y-1016000D01*
X4889500Y-1230000D02*
X4889500Y-1310000D01*
X4849500Y-1270000D02*
X4929500Y-1270000D01*
X4889500Y-1484000D02*
X4889500Y-1564000D01*
X4849500Y-1524000D02*
X4929500Y-1524000D01*
X5270500Y-976000D02*
X5270500Y-1056000D01*
X5230500Y-1016000D02*
X5310500Y-1016000D01*
X5908040Y-3068960D02*
X5908040Y-3148960D01*
X5868040Y-3108960D02*
X5948040Y-3108960D01*
X5969000Y-1674500D02*
X5969000Y-1754500D01*
X5929000Y-1714500D02*
X6009000Y-1714500D01*
X5969000Y-3897000D02*
X5969000Y-3977000D01*
X5929000Y-3937000D02*
X6009000Y-3937000D01*
X6667500Y-1674500D02*
X6667500Y-1754500D01*
X6627500Y-1714500D02*
X6707500Y-1714500D01*
X7429500Y-1674500D02*
X7429500Y-1754500D01*
X7389500Y-1714500D02*
X7469500Y-1714500D01*
X7556500Y-2055500D02*
X7556500Y-2135500D01*
X7516500Y-2095500D02*
X7596500Y-2095500D01*
X7556500Y-2754000D02*
X7556500Y-2834000D01*
X7516500Y-2794000D02*
X7596500Y-2794000D01*
X8064500Y-722000D02*
X8064500Y-802000D01*
X8024500Y-762000D02*
X8104500Y-762000D01*
X8636000Y-2500000D02*
X8636000Y-2580000D01*
X8596000Y-2540000D02*
X8676000Y-2540000D01*
X8636000Y-3198500D02*
X8636000Y-3278500D01*
X8596000Y-3238500D02*
X8676000Y-3238500D01*
X8699500Y-976000D02*
X8699500Y-1056000D01*
X8659500Y-1016000D02*
X8739500Y-1016000D01*
X9334500Y-2055500D02*
X9334500Y-2135500D01*
X9294500Y-2095500D02*
X9374500Y-2095500D01*
X9842500Y-3452500D02*
X9842500Y-3532500D01*
X9802500Y-3492500D02*
X9882500Y-3492500D01*
X10541000Y-1611000D02*
X10541000Y-1691000D01*
X10501000Y-1651000D02*
X10581000Y-1651000D01*
X8417356Y-797356D02*
X8417356Y-726644D01*
X8346644Y-726644D01*
X8346644Y-797356D01*
X8417356Y-797356D01*
X8417356Y-1051356D02*
X8417356Y-980644D01*
X8346644Y-980644D01*
X8346644Y-1051356D01*
X8417356Y-1051356D01*
X8417356Y-1305356D02*
X8417356Y-1234644D01*
X8346644Y-1234644D01*
X8346644Y-1305356D01*
X8417356Y-1305356D01*
X8417356Y-1559356D02*
X8417356Y-1488644D01*
X8346644Y-1488644D01*
X8346644Y-1559356D01*
X8417356Y-1559356D01*
X8417356Y-1813356D02*
X8417356Y-1742644D01*
X8346644Y-1742644D01*
X8346644Y-1813356D01*
X8417356Y-1813356D01*
X8417356Y-2067356D02*
X8417356Y-1996644D01*
X8346644Y-1996644D01*
X8346644Y-2067356D01*
X8417356Y-2067356D01*
X8417356Y-2321356D02*
X8417356Y-2250644D01*
X8346644Y-2250644D01*
X8346644Y-2321356D01*
X8417356Y-2321356D01*
X8417356Y-2575356D02*
X8417356Y-2504644D01*
X8346644Y-2504644D01*
X8346644Y-2575356D01*
X8417356Y-2575356D01*
X8417356Y-2829356D02*
X8417356Y-2758644D01*
X8346644Y-2758644D01*
X8346644Y-2829356D01*
X8417356Y-2829356D01*
X8417356Y-3083356D02*
X8417356Y-3012644D01*
X8346644Y-3012644D01*
X8346644Y-3083356D01*
X8417356Y-3083356D01*
X8417356Y-3337356D02*
X8417356Y-3266644D01*
X8346644Y-3266644D01*
X8346644Y-3337356D01*
X8417356Y-3337356D01*
X8417356Y-3591356D02*
X8417356Y-3520644D01*
X8346644Y-3520644D01*
X8346644Y-3591356D01*
X8417356Y-3591356D01*
X8417356Y-3845356D02*
X8417356Y-3774644D01*
X8346644Y-3774644D01*
X8346644Y-3845356D01*
X8417356Y-3845356D01*
X8417356Y-4099356D02*
X8417356Y-4028644D01*
X8346644Y-4028644D01*
X8346644Y-4099356D01*
X8417356Y-4099356D01*
X8417356Y-4353356D02*
X8417356Y-4282644D01*
X8346644Y-4282644D01*
X8346644Y-4353356D01*
X8417356Y-4353356D01*
X8417356Y-4607356D02*
X8417356Y-4536644D01*
X8346644Y-4536644D01*
X8346644Y-4607356D01*
X8417356Y-4607356D01*
X8417356Y-4861356D02*
X8417356Y-4790644D01*
X8346644Y-4790644D01*
X8346644Y-4861356D01*
X8417356Y-4861356D01*
X8417356Y-5115356D02*
X8417356Y-5044644D01*
X8346644Y-5044644D01*
X8346644Y-5115356D01*
X8417356Y-5115356D01*
X8417356Y-5369356D02*
X8417356Y-5298644D01*
X8346644Y-5298644D01*
X8346644Y-5369356D01*
X8417356Y-5369356D01*
X10957356Y-797356D02*
X10957356Y-726644D01*
X10886644Y-726644D01*
X10886644Y-797356D01*
X10957356Y-797356D01*
X10957356Y-1051356D02*
X10957356Y-980644D01*
X10886644Y-980644D01*
X10886644Y-1051356D01*
X10957356Y-1051356D01*
X10957356Y-1305356D02*
X10957356Y-1234644D01*
X10886644Y-1234644D01*
X10886644Y-1305356D01*
X10957356Y-1305356D01*
X10957356Y-1559356D02*
X10957356Y-1488644D01*
X10886644Y-1488644D01*
X10886644Y-1559356D01*
X10957356Y-1559356D01*
X10957356Y-1813356D02*
X10957356Y-1742644D01*
X10886644Y-1742644D01*
X10886644Y-1813356D01*
X10957356Y-1813356D01*
X10957356Y-2067356D02*
X10957356Y-1996644D01*
X10886644Y-1996644D01*
X10886644Y-2067356D01*
X10957356Y-2067356D01*
X10957356Y-2321356D02*
X10957356Y-2250644D01*
X10886644Y-2250644D01*
X10886644Y-2321356D01*
X10957356Y-2321356D01*
X10957356Y-2575356D02*
X10957356Y-2504644D01*
X10886644Y-2504644D01*
X10886644Y-2575356D01*
X10957356Y-2575356D01*
X10957356Y-2829356D02*
X10957356Y-2758644D01*
X10886644Y-2758644D01*
X10886644Y-2829356D01*
X10957356Y-2829356D01*
X10957356Y-3083356D02*
X10957356Y-3012644D01*
X10886644Y-3012644D01*
X10886644Y-3083356D01*
X10957356Y-3083356D01*
X10957356Y-3337356D02*
X10957356Y-3266644D01*
X10886644Y-3266644D01*
X10886644Y-3337356D01*
X10957356Y-3337356D01*
X10957356Y-3591356D02*
X10957356Y-3520644D01*
X10886644Y-3520644D01*
X10886644Y-3591356D01*
X10957356Y-3591356D01*
X10957356Y-3845356D02*
X10957356Y-3774644D01*
X10886644Y-3774644D01*
X10886644Y-3845356D01*
X10957356Y-3845356D01*
X10957356Y-4099356D02*
X10957356Y-4028644D01*
X10886644Y-4028644D01*
X10886644Y-4099356D01*
X10957356Y-4099356D01*
X10957356Y-4353356D02*
X10957356Y-4282644D01*
X10886644Y-4282644D01*
X10886644Y-4353356D01*
X10957356Y-4353356D01*
X10957356Y-4607356D02*
X10957356Y-4536644D01*
X10886644Y-4536644D01*
X10886644Y-4607356D01*
X10957356Y-4607356D01*
X10957356Y-4861356D02*
X10957356Y-4790644D01*
X10886644Y-4790644D01*
X10886644Y-4861356D01*
X10957356Y-4861356D01*
X10957356Y-5115356D02*
X10957356Y-5044644D01*
X10886644Y-5044644D01*
X10886644Y-5115356D01*
X10957356Y-5115356D01*
X10957356Y-5369356D02*
X10957356Y-5298644D01*
X10886644Y-5298644D01*
X10886644Y-5369356D01*
X10957356Y-5369356D01*
X12735356Y-1305356D02*
X12735356Y-1234644D01*
X12664644Y-1234644D01*
X12664644Y-1305356D01*
X12735356Y-1305356D01*
X12735356Y-1559356D02*
X12735356Y-1488644D01*
X12664644Y-1488644D01*
X12664644Y-1559356D01*
X12735356Y-1559356D01*
X12735356Y-1813356D02*
X12735356Y-1742644D01*
X12664644Y-1742644D01*
X12664644Y-1813356D01*
X12735356Y-1813356D01*
X12735356Y-2067356D02*
X12735356Y-1996644D01*
X12664644Y-1996644D01*
X12664644Y-2067356D01*
X12735356Y-2067356D01*
X12735356Y-2321356D02*
X12735356Y-2250644D01*
X12664644Y-2250644D01*
X12664644Y-2321356D01*
X12735356Y-2321356D01*
X12735356Y-2575356D02*
X12735356Y-2504644D01*
X12664644Y-2504644D01*
X12664644Y-2575356D01*
X12735356Y-2575356D01*
X12735356Y-3591356D02*
X12735356Y-3520644D01*
X12664644Y-3520644D01*
X12664644Y-3591356D01*
X12735356Y-3591356D01*
X12735356Y-3845356D02*
X12735356Y-3774644D01*
X12664644Y-3774644D01*
X12664644Y-3845356D01*
X12735356Y-3845356D01*
X12735356Y-4099356D02*
X12735356Y-4028644D01*
X12664644Y-4028644D01*
X12664644Y-4099356D01*
X12735356Y-4099356D01*
X12735356Y-4353356D02*
X12735356Y-4282644D01*
X12664644Y-4282644D01*
X12664644Y-4353356D01*
X12735356Y-4353356D01*
X12735356Y-4607356D02*
X12735356Y-4536644D01*
X12664644Y-4536644D01*
X12664644Y-4607356D01*
X12735356Y-4607356D01*
X12735356Y-4861356D02*
X12735356Y-4790644D01*
X12664644Y-4790644D01*
X12664644Y-4861356D01*
X12735356Y-4861356D01*
D13*
X3547000Y-2610000D02*
X3617000Y-2540000D01*
X3547000Y-2470000D01*
X3477000Y-2540000D01*
X3547000Y-2610000D01*
D12*
X3592000Y-2470000D02*
X3502000Y-2470000D01*
X3502000Y-2610000D02*
G75*
G02*
X3502000Y-2470000I0J70000D01*
G01*
X3502000Y-2610000D02*
X3592000Y-2610000D01*
X3592000Y-2610000D02*
G75*
G03*
X3592000Y-2470000I0J70000D01*
G01*
D13*
X3547000Y-4642000D02*
X3617000Y-4572000D01*
X3547000Y-4502000D01*
X3477000Y-4572000D01*
X3547000Y-4642000D01*
D12*
X3592000Y-4502000D02*
X3502000Y-4502000D01*
X3502000Y-4642000D02*
G75*
G02*
X3502000Y-4502000I0J70000D01*
G01*
X3502000Y-4642000D02*
X3592000Y-4642000D01*
X3592000Y-4642000D02*
G75*
G03*
X3592000Y-4502000I0J70000D01*
G01*
D13*
X4007000Y-2610000D02*
X4077000Y-2540000D01*
X4007000Y-2470000D01*
X3937000Y-2540000D01*
X4007000Y-2610000D01*
D12*
X4052000Y-2470000D02*
X3962000Y-2470000D01*
X3962000Y-2610000D02*
G75*
G02*
X3962000Y-2470000I0J70000D01*
G01*
X3962000Y-2610000D02*
X4052000Y-2610000D01*
X4052000Y-2610000D02*
G75*
G03*
X4052000Y-2470000I0J70000D01*
G01*
D13*
X4007000Y-4642000D02*
X4077000Y-4572000D01*
X4007000Y-4502000D01*
X3937000Y-4572000D01*
X4007000Y-4642000D01*
D12*
X4052000Y-4502000D02*
X3962000Y-4502000D01*
X3962000Y-4642000D02*
G75*
G02*
X3962000Y-4502000I0J70000D01*
G01*
X3962000Y-4642000D02*
X4052000Y-4642000D01*
X4052000Y-4642000D02*
G75*
G03*
X4052000Y-4502000I0J70000D01*
G01*
D13*
X5137000Y-2610000D02*
X5207000Y-2540000D01*
X5137000Y-2470000D01*
X5067000Y-2540000D01*
X5137000Y-2610000D01*
D12*
X5182000Y-2470000D02*
X5092000Y-2470000D01*
X5092000Y-2610000D02*
G75*
G02*
X5092000Y-2470000I0J70000D01*
G01*
X5092000Y-2610000D02*
X5182000Y-2610000D01*
X5182000Y-2610000D02*
G75*
G03*
X5182000Y-2470000I0J70000D01*
G01*
D13*
X5137000Y-4642000D02*
X5207000Y-4572000D01*
X5137000Y-4502000D01*
X5067000Y-4572000D01*
X5137000Y-4642000D01*
D12*
X5182000Y-4502000D02*
X5092000Y-4502000D01*
X5092000Y-4642000D02*
G75*
G02*
X5092000Y-4502000I0J70000D01*
G01*
X5092000Y-4642000D02*
X5182000Y-4642000D01*
X5182000Y-4642000D02*
G75*
G03*
X5182000Y-4502000I0J70000D01*
G01*
D13*
X5597000Y-2610000D02*
X5667000Y-2540000D01*
X5597000Y-2470000D01*
X5527000Y-2540000D01*
X5597000Y-2610000D01*
D12*
X5642000Y-2470000D02*
X5552000Y-2470000D01*
X5552000Y-2610000D02*
G75*
G02*
X5552000Y-2470000I0J70000D01*
G01*
X5552000Y-2610000D02*
X5642000Y-2610000D01*
X5642000Y-2610000D02*
G75*
G03*
X5642000Y-2470000I0J70000D01*
G01*
D13*
X5597000Y-4642000D02*
X5667000Y-4572000D01*
X5597000Y-4502000D01*
X5527000Y-4572000D01*
X5597000Y-4642000D01*
D12*
X5642000Y-4502000D02*
X5552000Y-4502000D01*
X5552000Y-4642000D02*
G75*
G02*
X5552000Y-4502000I0J70000D01*
G01*
X5552000Y-4642000D02*
X5642000Y-4642000D01*
X5642000Y-4642000D02*
G75*
G03*
X5642000Y-4502000I0J70000D01*
G01*
D14*
X1256000Y-1194000D02*
X1408000Y-1346000D01*
X1408000Y-1194000D02*
X1256000Y-1346000D01*
X1408000Y-1270000D02*
G75*
G02*
X1256000Y-1270000I-76000J0D01*
G01*
X1256000Y-1270000D02*
G75*
G02*
X1408000Y-1270000I76000J0D01*
G01*
X1256000Y-1702000D02*
X1408000Y-1854000D01*
X1408000Y-1702000D02*
X1256000Y-1854000D01*
X1408000Y-1778000D02*
G75*
G02*
X1256000Y-1778000I-76000J0D01*
G01*
X1256000Y-1778000D02*
G75*
G02*
X1408000Y-1778000I76000J0D01*
G01*
X1256000Y-2210000D02*
X1408000Y-2362000D01*
X1408000Y-2210000D02*
X1256000Y-2362000D01*
X1408000Y-2286000D02*
G75*
G02*
X1256000Y-2286000I-76000J0D01*
G01*
X1256000Y-2286000D02*
G75*
G02*
X1408000Y-2286000I76000J0D01*
G01*
X1256000Y-2718000D02*
X1408000Y-2870000D01*
X1408000Y-2718000D02*
X1256000Y-2870000D01*
X1408000Y-2794000D02*
G75*
G02*
X1256000Y-2794000I-76000J0D01*
G01*
X1256000Y-2794000D02*
G75*
G02*
X1408000Y-2794000I76000J0D01*
G01*
X1256000Y-3226000D02*
X1408000Y-3378000D01*
X1408000Y-3226000D02*
X1256000Y-3378000D01*
X1408000Y-3302000D02*
G75*
G02*
X1256000Y-3302000I-76000J0D01*
G01*
X1256000Y-3302000D02*
G75*
G02*
X1408000Y-3302000I76000J0D01*
G01*
X1256000Y-3734000D02*
X1408000Y-3886000D01*
X1408000Y-3734000D02*
X1256000Y-3886000D01*
X1408000Y-3810000D02*
G75*
G02*
X1256000Y-3810000I-76000J0D01*
G01*
X1256000Y-3810000D02*
G75*
G02*
X1408000Y-3810000I76000J0D01*
G01*
X1256000Y-4242000D02*
X1408000Y-4394000D01*
X1408000Y-4242000D02*
X1256000Y-4394000D01*
X1408000Y-4318000D02*
G75*
G02*
X1256000Y-4318000I-76000J0D01*
G01*
X1256000Y-4318000D02*
G75*
G02*
X1408000Y-4318000I76000J0D01*
G01*
X1256000Y-4750000D02*
X1408000Y-4902000D01*
X1408000Y-4750000D02*
X1256000Y-4902000D01*
X1408000Y-4826000D02*
G75*
G02*
X1256000Y-4826000I-76000J0D01*
G01*
X1256000Y-4826000D02*
G75*
G02*
X1408000Y-4826000I76000J0D01*
G01*
X1956000Y-1194000D02*
X2108000Y-1346000D01*
X2108000Y-1194000D02*
X1956000Y-1346000D01*
X2108000Y-1270000D02*
G75*
G02*
X1956000Y-1270000I-76000J0D01*
G01*
X1956000Y-1270000D02*
G75*
G02*
X2108000Y-1270000I76000J0D01*
G01*
X1956000Y-1702000D02*
X2108000Y-1854000D01*
X2108000Y-1702000D02*
X1956000Y-1854000D01*
X2108000Y-1778000D02*
G75*
G02*
X1956000Y-1778000I-76000J0D01*
G01*
X1956000Y-1778000D02*
G75*
G02*
X2108000Y-1778000I76000J0D01*
G01*
X1956000Y-2210000D02*
X2108000Y-2362000D01*
X2108000Y-2210000D02*
X1956000Y-2362000D01*
X2108000Y-2286000D02*
G75*
G02*
X1956000Y-2286000I-76000J0D01*
G01*
X1956000Y-2286000D02*
G75*
G02*
X2108000Y-2286000I76000J0D01*
G01*
X1956000Y-2718000D02*
X2108000Y-2870000D01*
X2108000Y-2718000D02*
X1956000Y-2870000D01*
X2108000Y-2794000D02*
G75*
G02*
X1956000Y-2794000I-76000J0D01*
G01*
X1956000Y-2794000D02*
G75*
G02*
X2108000Y-2794000I76000J0D01*
G01*
X1956000Y-3226000D02*
X2108000Y-3378000D01*
X2108000Y-3226000D02*
X1956000Y-3378000D01*
X2108000Y-3302000D02*
G75*
G02*
X1956000Y-3302000I-76000J0D01*
G01*
X1956000Y-3302000D02*
G75*
G02*
X2108000Y-3302000I76000J0D01*
G01*
X1956000Y-3734000D02*
X2108000Y-3886000D01*
X2108000Y-3734000D02*
X1956000Y-3886000D01*
X2108000Y-3810000D02*
G75*
G02*
X1956000Y-3810000I-76000J0D01*
G01*
X1956000Y-3810000D02*
G75*
G02*
X2108000Y-3810000I76000J0D01*
G01*
X1956000Y-4242000D02*
X2108000Y-4394000D01*
X2108000Y-4242000D02*
X1956000Y-4394000D01*
X2108000Y-4318000D02*
G75*
G02*
X1956000Y-4318000I-76000J0D01*
G01*
X1956000Y-4318000D02*
G75*
G02*
X2108000Y-4318000I76000J0D01*
G01*
X1956000Y-4750000D02*
X2108000Y-4902000D01*
X2108000Y-4750000D02*
X1956000Y-4902000D01*
X2108000Y-4826000D02*
G75*
G02*
X1956000Y-4826000I-76000J0D01*
G01*
X1956000Y-4826000D02*
G75*
G02*
X2108000Y-4826000I76000J0D01*
G01*
D15*
X348000Y-334000D02*
X668000Y-654000D01*
X668000Y-334000D02*
X348000Y-654000D01*
X508000Y-334000D02*
X508000Y-654000D01*
X348000Y-494000D02*
X668000Y-494000D01*
X348000Y-5414000D02*
X668000Y-5734000D01*
X668000Y-5414000D02*
X348000Y-5734000D01*
X508000Y-5414000D02*
X508000Y-5734000D01*
X348000Y-5574000D02*
X668000Y-5574000D01*
X13048000Y-348000D02*
X13368000Y-668000D01*
X13368000Y-348000D02*
X13048000Y-668000D01*
X13208000Y-348000D02*
X13208000Y-668000D01*
X13048000Y-508000D02*
X13368000Y-508000D01*
X13048000Y-5428000D02*
X13368000Y-5748000D01*
X13368000Y-5428000D02*
X13048000Y-5748000D01*
X13208000Y-5428000D02*
X13208000Y-5748000D01*
X13048000Y-5588000D02*
X13368000Y-5588000D01*
D11*
X258277Y-6409984D02*
X258277Y-6209984D01*
X258277Y-6209984D02*
X305896Y-6209984D01*
X305896Y-6209984D02*
X334467Y-6219508D01*
X334467Y-6219508D02*
X353515Y-6238555D01*
X353515Y-6238555D02*
X363039Y-6257603D01*
X363039Y-6257603D02*
X372562Y-6295698D01*
X372562Y-6295698D02*
X372562Y-6324269D01*
X372562Y-6324269D02*
X363039Y-6362365D01*
X363039Y-6362365D02*
X353515Y-6381412D01*
X353515Y-6381412D02*
X334467Y-6400460D01*
X334467Y-6400460D02*
X305896Y-6409984D01*
X305896Y-6409984D02*
X258277Y-6409984D01*
X458277Y-6409984D02*
X458277Y-6276650D01*
X458277Y-6314746D02*
X467801Y-6295698D01*
X467801Y-6295698D02*
X477324Y-6286174D01*
X477324Y-6286174D02*
X496372Y-6276650D01*
X496372Y-6276650D02*
X515420Y-6276650D01*
X582086Y-6409984D02*
X582086Y-6276650D01*
X582086Y-6209984D02*
X572563Y-6219508D01*
X572563Y-6219508D02*
X582086Y-6229031D01*
X582086Y-6229031D02*
X591610Y-6219508D01*
X591610Y-6219508D02*
X582086Y-6209984D01*
X582086Y-6209984D02*
X582086Y-6229031D01*
X705896Y-6409984D02*
X686848Y-6400460D01*
X686848Y-6400460D02*
X677324Y-6381412D01*
X677324Y-6381412D02*
X677324Y-6209984D01*
X810658Y-6409984D02*
X791610Y-6400460D01*
X791610Y-6400460D02*
X782086Y-6381412D01*
X782086Y-6381412D02*
X782086Y-6209984D01*
X1039229Y-6409984D02*
X1039229Y-6209984D01*
X1039229Y-6209984D02*
X1105896Y-6352841D01*
X1105896Y-6352841D02*
X1172563Y-6209984D01*
X1172563Y-6209984D02*
X1172563Y-6409984D01*
X1353515Y-6409984D02*
X1353515Y-6305222D01*
X1353515Y-6305222D02*
X1343991Y-6286174D01*
X1343991Y-6286174D02*
X1324944Y-6276650D01*
X1324944Y-6276650D02*
X1286848Y-6276650D01*
X1286848Y-6276650D02*
X1267801Y-6286174D01*
X1353515Y-6400460D02*
X1334467Y-6409984D01*
X1334467Y-6409984D02*
X1286848Y-6409984D01*
X1286848Y-6409984D02*
X1267801Y-6400460D01*
X1267801Y-6400460D02*
X1258277Y-6381412D01*
X1258277Y-6381412D02*
X1258277Y-6362365D01*
X1258277Y-6362365D02*
X1267801Y-6343317D01*
X1267801Y-6343317D02*
X1286848Y-6333793D01*
X1286848Y-6333793D02*
X1334467Y-6333793D01*
X1334467Y-6333793D02*
X1353515Y-6324269D01*
X1448753Y-6276650D02*
X1448753Y-6476650D01*
X1448753Y-6286174D02*
X1467801Y-6276650D01*
X1467801Y-6276650D02*
X1505896Y-6276650D01*
X1505896Y-6276650D02*
X1524943Y-6286174D01*
X1524943Y-6286174D02*
X1534467Y-6295698D01*
X1534467Y-6295698D02*
X1543991Y-6314746D01*
X1543991Y-6314746D02*
X1543991Y-6371888D01*
X1543991Y-6371888D02*
X1534467Y-6390936D01*
X1534467Y-6390936D02*
X1524943Y-6400460D01*
X1524943Y-6400460D02*
X1505896Y-6409984D01*
X1505896Y-6409984D02*
X1467801Y-6409984D01*
X1467801Y-6409984D02*
X1448753Y-6400460D01*
X1629705Y-6390936D02*
X1639229Y-6400460D01*
X1639229Y-6400460D02*
X1629705Y-6409984D01*
X1629705Y-6409984D02*
X1620182Y-6400460D01*
X1620182Y-6400460D02*
X1629705Y-6390936D01*
X1629705Y-6390936D02*
X1629705Y-6409984D01*
X1629705Y-6286174D02*
X1639229Y-6295698D01*
X1639229Y-6295698D02*
X1629705Y-6305222D01*
X1629705Y-6305222D02*
X1620182Y-6295698D01*
X1620182Y-6295698D02*
X1629705Y-6286174D01*
X1629705Y-6286174D02*
X1629705Y-6305222D01*
D12*
X-42500Y-6718500D02*
X-2500Y-6758500D01*
X-2500Y-6718500D02*
X-42500Y-6758500D01*
D11*
X296372Y-6629984D02*
X315420Y-6629984D01*
X315420Y-6629984D02*
X334467Y-6639508D01*
X334467Y-6639508D02*
X343991Y-6649031D01*
X343991Y-6649031D02*
X353515Y-6668079D01*
X353515Y-6668079D02*
X363039Y-6706174D01*
X363039Y-6706174D02*
X363039Y-6753793D01*
X363039Y-6753793D02*
X353515Y-6791888D01*
X353515Y-6791888D02*
X343991Y-6810936D01*
X343991Y-6810936D02*
X334467Y-6820460D01*
X334467Y-6820460D02*
X315420Y-6829984D01*
X315420Y-6829984D02*
X296372Y-6829984D01*
X296372Y-6829984D02*
X277324Y-6820460D01*
X277324Y-6820460D02*
X267801Y-6810936D01*
X267801Y-6810936D02*
X258277Y-6791888D01*
X258277Y-6791888D02*
X248753Y-6753793D01*
X248753Y-6753793D02*
X248753Y-6706174D01*
X248753Y-6706174D02*
X258277Y-6668079D01*
X258277Y-6668079D02*
X267801Y-6649031D01*
X267801Y-6649031D02*
X277324Y-6639508D01*
X277324Y-6639508D02*
X296372Y-6629984D01*
X448753Y-6810936D02*
X458277Y-6820460D01*
X458277Y-6820460D02*
X448753Y-6829984D01*
X448753Y-6829984D02*
X439229Y-6820460D01*
X439229Y-6820460D02*
X448753Y-6810936D01*
X448753Y-6810936D02*
X448753Y-6829984D01*
X629705Y-6696650D02*
X629705Y-6829984D01*
X582086Y-6620460D02*
X534467Y-6763317D01*
X534467Y-6763317D02*
X658277Y-6763317D01*
X772562Y-6629984D02*
X791610Y-6629984D01*
X791610Y-6629984D02*
X810658Y-6639508D01*
X810658Y-6639508D02*
X820182Y-6649031D01*
X820182Y-6649031D02*
X829705Y-6668079D01*
X829705Y-6668079D02*
X839229Y-6706174D01*
X839229Y-6706174D02*
X839229Y-6753793D01*
X839229Y-6753793D02*
X829705Y-6791888D01*
X829705Y-6791888D02*
X820182Y-6810936D01*
X820182Y-6810936D02*
X810658Y-6820460D01*
X810658Y-6820460D02*
X791610Y-6829984D01*
X791610Y-6829984D02*
X772562Y-6829984D01*
X772562Y-6829984D02*
X753515Y-6820460D01*
X753515Y-6820460D02*
X743991Y-6810936D01*
X743991Y-6810936D02*
X734467Y-6791888D01*
X734467Y-6791888D02*
X724943Y-6753793D01*
X724943Y-6753793D02*
X724943Y-6706174D01*
X724943Y-6706174D02*
X734467Y-6668079D01*
X734467Y-6668079D02*
X743991Y-6649031D01*
X743991Y-6649031D02*
X753515Y-6639508D01*
X753515Y-6639508D02*
X772562Y-6629984D01*
X963039Y-6629984D02*
X982086Y-6629984D01*
X982086Y-6629984D02*
X1001134Y-6639508D01*
X1001134Y-6639508D02*
X1010658Y-6649031D01*
X1010658Y-6649031D02*
X1020182Y-6668079D01*
X1020182Y-6668079D02*
X1029705Y-6706174D01*
X1029705Y-6706174D02*
X1029705Y-6753793D01*
X1029705Y-6753793D02*
X1020182Y-6791888D01*
X1020182Y-6791888D02*
X1010658Y-6810936D01*
X1010658Y-6810936D02*
X1001134Y-6820460D01*
X1001134Y-6820460D02*
X982086Y-6829984D01*
X982086Y-6829984D02*
X963039Y-6829984D01*
X963039Y-6829984D02*
X943991Y-6820460D01*
X943991Y-6820460D02*
X934467Y-6810936D01*
X934467Y-6810936D02*
X924943Y-6791888D01*
X924943Y-6791888D02*
X915420Y-6753793D01*
X915420Y-6753793D02*
X915420Y-6706174D01*
X915420Y-6706174D02*
X924943Y-6668079D01*
X924943Y-6668079D02*
X934467Y-6649031D01*
X934467Y-6649031D02*
X943991Y-6639508D01*
X943991Y-6639508D02*
X963039Y-6629984D01*
X1115420Y-6829984D02*
X1115420Y-6696650D01*
X1115420Y-6715698D02*
X1124944Y-6706174D01*
X1124944Y-6706174D02*
X1143991Y-6696650D01*
X1143991Y-6696650D02*
X1172563Y-6696650D01*
X1172563Y-6696650D02*
X1191610Y-6706174D01*
X1191610Y-6706174D02*
X1201134Y-6725222D01*
X1201134Y-6725222D02*
X1201134Y-6829984D01*
X1201134Y-6725222D02*
X1210658Y-6706174D01*
X1210658Y-6706174D02*
X1229705Y-6696650D01*
X1229705Y-6696650D02*
X1258277Y-6696650D01*
X1258277Y-6696650D02*
X1277325Y-6706174D01*
X1277325Y-6706174D02*
X1286848Y-6725222D01*
X1286848Y-6725222D02*
X1286848Y-6829984D01*
X1382086Y-6829984D02*
X1382086Y-6696650D01*
X1382086Y-6715698D02*
X1391610Y-6706174D01*
X1391610Y-6706174D02*
X1410658Y-6696650D01*
X1410658Y-6696650D02*
X1439229Y-6696650D01*
X1439229Y-6696650D02*
X1458277Y-6706174D01*
X1458277Y-6706174D02*
X1467801Y-6725222D01*
X1467801Y-6725222D02*
X1467801Y-6829984D01*
X1467801Y-6725222D02*
X1477324Y-6706174D01*
X1477324Y-6706174D02*
X1496372Y-6696650D01*
X1496372Y-6696650D02*
X1524943Y-6696650D01*
X1524943Y-6696650D02*
X1543991Y-6706174D01*
X1543991Y-6706174D02*
X1553515Y-6725222D01*
X1553515Y-6725222D02*
X1553515Y-6829984D01*
X1943991Y-6620460D02*
X1772563Y-6877603D01*
X2201134Y-6629984D02*
X2220182Y-6629984D01*
X2220182Y-6629984D02*
X2239229Y-6639508D01*
X2239229Y-6639508D02*
X2248753Y-6649031D01*
X2248753Y-6649031D02*
X2258277Y-6668079D01*
X2258277Y-6668079D02*
X2267801Y-6706174D01*
X2267801Y-6706174D02*
X2267801Y-6753793D01*
X2267801Y-6753793D02*
X2258277Y-6791888D01*
X2258277Y-6791888D02*
X2248753Y-6810936D01*
X2248753Y-6810936D02*
X2239229Y-6820460D01*
X2239229Y-6820460D02*
X2220182Y-6829984D01*
X2220182Y-6829984D02*
X2201134Y-6829984D01*
X2201134Y-6829984D02*
X2182087Y-6820460D01*
X2182087Y-6820460D02*
X2172563Y-6810936D01*
X2172563Y-6810936D02*
X2163039Y-6791888D01*
X2163039Y-6791888D02*
X2153515Y-6753793D01*
X2153515Y-6753793D02*
X2153515Y-6706174D01*
X2153515Y-6706174D02*
X2163039Y-6668079D01*
X2163039Y-6668079D02*
X2172563Y-6649031D01*
X2172563Y-6649031D02*
X2182087Y-6639508D01*
X2182087Y-6639508D02*
X2201134Y-6629984D01*
X2353515Y-6810936D02*
X2363039Y-6820460D01*
X2363039Y-6820460D02*
X2353515Y-6829984D01*
X2353515Y-6829984D02*
X2343991Y-6820460D01*
X2343991Y-6820460D02*
X2353515Y-6810936D01*
X2353515Y-6810936D02*
X2353515Y-6829984D01*
X2486848Y-6629984D02*
X2505896Y-6629984D01*
X2505896Y-6629984D02*
X2524944Y-6639508D01*
X2524944Y-6639508D02*
X2534468Y-6649031D01*
X2534468Y-6649031D02*
X2543991Y-6668079D01*
X2543991Y-6668079D02*
X2553515Y-6706174D01*
X2553515Y-6706174D02*
X2553515Y-6753793D01*
X2553515Y-6753793D02*
X2543991Y-6791888D01*
X2543991Y-6791888D02*
X2534468Y-6810936D01*
X2534468Y-6810936D02*
X2524944Y-6820460D01*
X2524944Y-6820460D02*
X2505896Y-6829984D01*
X2505896Y-6829984D02*
X2486848Y-6829984D01*
X2486848Y-6829984D02*
X2467801Y-6820460D01*
X2467801Y-6820460D02*
X2458277Y-6810936D01*
X2458277Y-6810936D02*
X2448753Y-6791888D01*
X2448753Y-6791888D02*
X2439229Y-6753793D01*
X2439229Y-6753793D02*
X2439229Y-6706174D01*
X2439229Y-6706174D02*
X2448753Y-6668079D01*
X2448753Y-6668079D02*
X2458277Y-6649031D01*
X2458277Y-6649031D02*
X2467801Y-6639508D01*
X2467801Y-6639508D02*
X2486848Y-6629984D01*
X2743991Y-6829984D02*
X2629706Y-6829984D01*
X2686848Y-6829984D02*
X2686848Y-6629984D01*
X2686848Y-6629984D02*
X2667801Y-6658555D01*
X2667801Y-6658555D02*
X2648753Y-6677603D01*
X2648753Y-6677603D02*
X2629706Y-6687127D01*
X2924944Y-6629984D02*
X2829706Y-6629984D01*
X2829706Y-6629984D02*
X2820182Y-6725222D01*
X2820182Y-6725222D02*
X2829706Y-6715698D01*
X2829706Y-6715698D02*
X2848753Y-6706174D01*
X2848753Y-6706174D02*
X2896372Y-6706174D01*
X2896372Y-6706174D02*
X2915420Y-6715698D01*
X2915420Y-6715698D02*
X2924944Y-6725222D01*
X2924944Y-6725222D02*
X2934467Y-6744269D01*
X2934467Y-6744269D02*
X2934467Y-6791888D01*
X2934467Y-6791888D02*
X2924944Y-6810936D01*
X2924944Y-6810936D02*
X2915420Y-6820460D01*
X2915420Y-6820460D02*
X2896372Y-6829984D01*
X2896372Y-6829984D02*
X2848753Y-6829984D01*
X2848753Y-6829984D02*
X2829706Y-6820460D01*
X2829706Y-6820460D02*
X2820182Y-6810936D01*
X3001134Y-6629984D02*
X3134467Y-6629984D01*
X3134467Y-6629984D02*
X3048753Y-6829984D01*
X3201134Y-6629984D02*
X3201134Y-6668079D01*
X3277325Y-6629984D02*
X3277325Y-6668079D01*
X3572563Y-6906174D02*
X3563039Y-6896650D01*
X3563039Y-6896650D02*
X3543991Y-6868079D01*
X3543991Y-6868079D02*
X3534468Y-6849031D01*
X3534468Y-6849031D02*
X3524944Y-6820460D01*
X3524944Y-6820460D02*
X3515420Y-6772841D01*
X3515420Y-6772841D02*
X3515420Y-6734746D01*
X3515420Y-6734746D02*
X3524944Y-6687127D01*
X3524944Y-6687127D02*
X3534468Y-6658555D01*
X3534468Y-6658555D02*
X3543991Y-6639508D01*
X3543991Y-6639508D02*
X3563039Y-6610936D01*
X3563039Y-6610936D02*
X3572563Y-6601412D01*
X3677325Y-6715698D02*
X3658277Y-6706174D01*
X3658277Y-6706174D02*
X3648753Y-6696650D01*
X3648753Y-6696650D02*
X3639229Y-6677603D01*
X3639229Y-6677603D02*
X3639229Y-6668079D01*
X3639229Y-6668079D02*
X3648753Y-6649031D01*
X3648753Y-6649031D02*
X3658277Y-6639508D01*
X3658277Y-6639508D02*
X3677325Y-6629984D01*
X3677325Y-6629984D02*
X3715420Y-6629984D01*
X3715420Y-6629984D02*
X3734468Y-6639508D01*
X3734468Y-6639508D02*
X3743991Y-6649031D01*
X3743991Y-6649031D02*
X3753515Y-6668079D01*
X3753515Y-6668079D02*
X3753515Y-6677603D01*
X3753515Y-6677603D02*
X3743991Y-6696650D01*
X3743991Y-6696650D02*
X3734468Y-6706174D01*
X3734468Y-6706174D02*
X3715420Y-6715698D01*
X3715420Y-6715698D02*
X3677325Y-6715698D01*
X3677325Y-6715698D02*
X3658277Y-6725222D01*
X3658277Y-6725222D02*
X3648753Y-6734746D01*
X3648753Y-6734746D02*
X3639229Y-6753793D01*
X3639229Y-6753793D02*
X3639229Y-6791888D01*
X3639229Y-6791888D02*
X3648753Y-6810936D01*
X3648753Y-6810936D02*
X3658277Y-6820460D01*
X3658277Y-6820460D02*
X3677325Y-6829984D01*
X3677325Y-6829984D02*
X3715420Y-6829984D01*
X3715420Y-6829984D02*
X3734468Y-6820460D01*
X3734468Y-6820460D02*
X3743991Y-6810936D01*
X3743991Y-6810936D02*
X3753515Y-6791888D01*
X3753515Y-6791888D02*
X3753515Y-6753793D01*
X3753515Y-6753793D02*
X3743991Y-6734746D01*
X3743991Y-6734746D02*
X3734468Y-6725222D01*
X3734468Y-6725222D02*
X3715420Y-6715698D01*
X3820182Y-6629984D02*
X3953515Y-6629984D01*
X3953515Y-6629984D02*
X3867801Y-6829984D01*
X4182087Y-6829984D02*
X4182087Y-6629984D01*
X4267801Y-6829984D02*
X4267801Y-6725222D01*
X4267801Y-6725222D02*
X4258277Y-6706174D01*
X4258277Y-6706174D02*
X4239230Y-6696650D01*
X4239230Y-6696650D02*
X4210658Y-6696650D01*
X4210658Y-6696650D02*
X4191610Y-6706174D01*
X4191610Y-6706174D02*
X4182087Y-6715698D01*
X4391611Y-6829984D02*
X4372563Y-6820460D01*
X4372563Y-6820460D02*
X4363039Y-6810936D01*
X4363039Y-6810936D02*
X4353515Y-6791888D01*
X4353515Y-6791888D02*
X4353515Y-6734746D01*
X4353515Y-6734746D02*
X4363039Y-6715698D01*
X4363039Y-6715698D02*
X4372563Y-6706174D01*
X4372563Y-6706174D02*
X4391611Y-6696650D01*
X4391611Y-6696650D02*
X4420182Y-6696650D01*
X4420182Y-6696650D02*
X4439230Y-6706174D01*
X4439230Y-6706174D02*
X4448753Y-6715698D01*
X4448753Y-6715698D02*
X4458277Y-6734746D01*
X4458277Y-6734746D02*
X4458277Y-6791888D01*
X4458277Y-6791888D02*
X4448753Y-6810936D01*
X4448753Y-6810936D02*
X4439230Y-6820460D01*
X4439230Y-6820460D02*
X4420182Y-6829984D01*
X4420182Y-6829984D02*
X4391611Y-6829984D01*
X4572563Y-6829984D02*
X4553515Y-6820460D01*
X4553515Y-6820460D02*
X4543992Y-6801412D01*
X4543992Y-6801412D02*
X4543992Y-6629984D01*
X4724944Y-6820460D02*
X4705896Y-6829984D01*
X4705896Y-6829984D02*
X4667801Y-6829984D01*
X4667801Y-6829984D02*
X4648753Y-6820460D01*
X4648753Y-6820460D02*
X4639230Y-6801412D01*
X4639230Y-6801412D02*
X4639230Y-6725222D01*
X4639230Y-6725222D02*
X4648753Y-6706174D01*
X4648753Y-6706174D02*
X4667801Y-6696650D01*
X4667801Y-6696650D02*
X4705896Y-6696650D01*
X4705896Y-6696650D02*
X4724944Y-6706174D01*
X4724944Y-6706174D02*
X4734468Y-6725222D01*
X4734468Y-6725222D02*
X4734468Y-6744269D01*
X4734468Y-6744269D02*
X4639230Y-6763317D01*
X4810658Y-6820460D02*
X4829706Y-6829984D01*
X4829706Y-6829984D02*
X4867801Y-6829984D01*
X4867801Y-6829984D02*
X4886849Y-6820460D01*
X4886849Y-6820460D02*
X4896373Y-6801412D01*
X4896373Y-6801412D02*
X4896373Y-6791888D01*
X4896373Y-6791888D02*
X4886849Y-6772841D01*
X4886849Y-6772841D02*
X4867801Y-6763317D01*
X4867801Y-6763317D02*
X4839230Y-6763317D01*
X4839230Y-6763317D02*
X4820182Y-6753793D01*
X4820182Y-6753793D02*
X4810658Y-6734746D01*
X4810658Y-6734746D02*
X4810658Y-6725222D01*
X4810658Y-6725222D02*
X4820182Y-6706174D01*
X4820182Y-6706174D02*
X4839230Y-6696650D01*
X4839230Y-6696650D02*
X4867801Y-6696650D01*
X4867801Y-6696650D02*
X4886849Y-6706174D01*
X4963039Y-6906174D02*
X4972563Y-6896650D01*
X4972563Y-6896650D02*
X4991611Y-6868079D01*
X4991611Y-6868079D02*
X5001134Y-6849031D01*
X5001134Y-6849031D02*
X5010658Y-6820460D01*
X5010658Y-6820460D02*
X5020182Y-6772841D01*
X5020182Y-6772841D02*
X5020182Y-6734746D01*
X5020182Y-6734746D02*
X5010658Y-6687127D01*
X5010658Y-6687127D02*
X5001134Y-6658555D01*
X5001134Y-6658555D02*
X4991611Y-6639508D01*
X4991611Y-6639508D02*
X4972563Y-6610936D01*
X4972563Y-6610936D02*
X4963039Y-6601412D01*
D12*
X-2500Y-7002500D02*
G75*
G02*
X-52500Y-7002500I-25000J0D01*
G01*
X-52500Y-7002500D02*
G75*
G02*
X-2500Y-7002500I25000J0D01*
G01*
D11*
X296372Y-6893984D02*
X315420Y-6893984D01*
X315420Y-6893984D02*
X334467Y-6903508D01*
X334467Y-6903508D02*
X343991Y-6913031D01*
X343991Y-6913031D02*
X353515Y-6932079D01*
X353515Y-6932079D02*
X363039Y-6970174D01*
X363039Y-6970174D02*
X363039Y-7017793D01*
X363039Y-7017793D02*
X353515Y-7055888D01*
X353515Y-7055888D02*
X343991Y-7074936D01*
X343991Y-7074936D02*
X334467Y-7084460D01*
X334467Y-7084460D02*
X315420Y-7093984D01*
X315420Y-7093984D02*
X296372Y-7093984D01*
X296372Y-7093984D02*
X277324Y-7084460D01*
X277324Y-7084460D02*
X267801Y-7074936D01*
X267801Y-7074936D02*
X258277Y-7055888D01*
X258277Y-7055888D02*
X248753Y-7017793D01*
X248753Y-7017793D02*
X248753Y-6970174D01*
X248753Y-6970174D02*
X258277Y-6932079D01*
X258277Y-6932079D02*
X267801Y-6913031D01*
X267801Y-6913031D02*
X277324Y-6903508D01*
X277324Y-6903508D02*
X296372Y-6893984D01*
X448753Y-7074936D02*
X458277Y-7084460D01*
X458277Y-7084460D02*
X448753Y-7093984D01*
X448753Y-7093984D02*
X439229Y-7084460D01*
X439229Y-7084460D02*
X448753Y-7074936D01*
X448753Y-7074936D02*
X448753Y-7093984D01*
X639229Y-6893984D02*
X543991Y-6893984D01*
X543991Y-6893984D02*
X534467Y-6989222D01*
X534467Y-6989222D02*
X543991Y-6979698D01*
X543991Y-6979698D02*
X563039Y-6970174D01*
X563039Y-6970174D02*
X610658Y-6970174D01*
X610658Y-6970174D02*
X629705Y-6979698D01*
X629705Y-6979698D02*
X639229Y-6989222D01*
X639229Y-6989222D02*
X648753Y-7008269D01*
X648753Y-7008269D02*
X648753Y-7055888D01*
X648753Y-7055888D02*
X639229Y-7074936D01*
X639229Y-7074936D02*
X629705Y-7084460D01*
X629705Y-7084460D02*
X610658Y-7093984D01*
X610658Y-7093984D02*
X563039Y-7093984D01*
X563039Y-7093984D02*
X543991Y-7084460D01*
X543991Y-7084460D02*
X534467Y-7074936D01*
X772562Y-6893984D02*
X791610Y-6893984D01*
X791610Y-6893984D02*
X810658Y-6903508D01*
X810658Y-6903508D02*
X820182Y-6913031D01*
X820182Y-6913031D02*
X829705Y-6932079D01*
X829705Y-6932079D02*
X839229Y-6970174D01*
X839229Y-6970174D02*
X839229Y-7017793D01*
X839229Y-7017793D02*
X829705Y-7055888D01*
X829705Y-7055888D02*
X820182Y-7074936D01*
X820182Y-7074936D02*
X810658Y-7084460D01*
X810658Y-7084460D02*
X791610Y-7093984D01*
X791610Y-7093984D02*
X772562Y-7093984D01*
X772562Y-7093984D02*
X753515Y-7084460D01*
X753515Y-7084460D02*
X743991Y-7074936D01*
X743991Y-7074936D02*
X734467Y-7055888D01*
X734467Y-7055888D02*
X724943Y-7017793D01*
X724943Y-7017793D02*
X724943Y-6970174D01*
X724943Y-6970174D02*
X734467Y-6932079D01*
X734467Y-6932079D02*
X743991Y-6913031D01*
X743991Y-6913031D02*
X753515Y-6903508D01*
X753515Y-6903508D02*
X772562Y-6893984D01*
X963039Y-6893984D02*
X982086Y-6893984D01*
X982086Y-6893984D02*
X1001134Y-6903508D01*
X1001134Y-6903508D02*
X1010658Y-6913031D01*
X1010658Y-6913031D02*
X1020182Y-6932079D01*
X1020182Y-6932079D02*
X1029705Y-6970174D01*
X1029705Y-6970174D02*
X1029705Y-7017793D01*
X1029705Y-7017793D02*
X1020182Y-7055888D01*
X1020182Y-7055888D02*
X1010658Y-7074936D01*
X1010658Y-7074936D02*
X1001134Y-7084460D01*
X1001134Y-7084460D02*
X982086Y-7093984D01*
X982086Y-7093984D02*
X963039Y-7093984D01*
X963039Y-7093984D02*
X943991Y-7084460D01*
X943991Y-7084460D02*
X934467Y-7074936D01*
X934467Y-7074936D02*
X924943Y-7055888D01*
X924943Y-7055888D02*
X915420Y-7017793D01*
X915420Y-7017793D02*
X915420Y-6970174D01*
X915420Y-6970174D02*
X924943Y-6932079D01*
X924943Y-6932079D02*
X934467Y-6913031D01*
X934467Y-6913031D02*
X943991Y-6903508D01*
X943991Y-6903508D02*
X963039Y-6893984D01*
X1115420Y-7093984D02*
X1115420Y-6960650D01*
X1115420Y-6979698D02*
X1124944Y-6970174D01*
X1124944Y-6970174D02*
X1143991Y-6960650D01*
X1143991Y-6960650D02*
X1172563Y-6960650D01*
X1172563Y-6960650D02*
X1191610Y-6970174D01*
X1191610Y-6970174D02*
X1201134Y-6989222D01*
X1201134Y-6989222D02*
X1201134Y-7093984D01*
X1201134Y-6989222D02*
X1210658Y-6970174D01*
X1210658Y-6970174D02*
X1229705Y-6960650D01*
X1229705Y-6960650D02*
X1258277Y-6960650D01*
X1258277Y-6960650D02*
X1277325Y-6970174D01*
X1277325Y-6970174D02*
X1286848Y-6989222D01*
X1286848Y-6989222D02*
X1286848Y-7093984D01*
X1382086Y-7093984D02*
X1382086Y-6960650D01*
X1382086Y-6979698D02*
X1391610Y-6970174D01*
X1391610Y-6970174D02*
X1410658Y-6960650D01*
X1410658Y-6960650D02*
X1439229Y-6960650D01*
X1439229Y-6960650D02*
X1458277Y-6970174D01*
X1458277Y-6970174D02*
X1467801Y-6989222D01*
X1467801Y-6989222D02*
X1467801Y-7093984D01*
X1467801Y-6989222D02*
X1477324Y-6970174D01*
X1477324Y-6970174D02*
X1496372Y-6960650D01*
X1496372Y-6960650D02*
X1524943Y-6960650D01*
X1524943Y-6960650D02*
X1543991Y-6970174D01*
X1543991Y-6970174D02*
X1553515Y-6989222D01*
X1553515Y-6989222D02*
X1553515Y-7093984D01*
X1943991Y-6884460D02*
X1772563Y-7141603D01*
X2201134Y-6893984D02*
X2220182Y-6893984D01*
X2220182Y-6893984D02*
X2239229Y-6903508D01*
X2239229Y-6903508D02*
X2248753Y-6913031D01*
X2248753Y-6913031D02*
X2258277Y-6932079D01*
X2258277Y-6932079D02*
X2267801Y-6970174D01*
X2267801Y-6970174D02*
X2267801Y-7017793D01*
X2267801Y-7017793D02*
X2258277Y-7055888D01*
X2258277Y-7055888D02*
X2248753Y-7074936D01*
X2248753Y-7074936D02*
X2239229Y-7084460D01*
X2239229Y-7084460D02*
X2220182Y-7093984D01*
X2220182Y-7093984D02*
X2201134Y-7093984D01*
X2201134Y-7093984D02*
X2182087Y-7084460D01*
X2182087Y-7084460D02*
X2172563Y-7074936D01*
X2172563Y-7074936D02*
X2163039Y-7055888D01*
X2163039Y-7055888D02*
X2153515Y-7017793D01*
X2153515Y-7017793D02*
X2153515Y-6970174D01*
X2153515Y-6970174D02*
X2163039Y-6932079D01*
X2163039Y-6932079D02*
X2172563Y-6913031D01*
X2172563Y-6913031D02*
X2182087Y-6903508D01*
X2182087Y-6903508D02*
X2201134Y-6893984D01*
X2353515Y-7074936D02*
X2363039Y-7084460D01*
X2363039Y-7084460D02*
X2353515Y-7093984D01*
X2353515Y-7093984D02*
X2343991Y-7084460D01*
X2343991Y-7084460D02*
X2353515Y-7074936D01*
X2353515Y-7074936D02*
X2353515Y-7093984D01*
X2486848Y-6893984D02*
X2505896Y-6893984D01*
X2505896Y-6893984D02*
X2524944Y-6903508D01*
X2524944Y-6903508D02*
X2534468Y-6913031D01*
X2534468Y-6913031D02*
X2543991Y-6932079D01*
X2543991Y-6932079D02*
X2553515Y-6970174D01*
X2553515Y-6970174D02*
X2553515Y-7017793D01*
X2553515Y-7017793D02*
X2543991Y-7055888D01*
X2543991Y-7055888D02*
X2534468Y-7074936D01*
X2534468Y-7074936D02*
X2524944Y-7084460D01*
X2524944Y-7084460D02*
X2505896Y-7093984D01*
X2505896Y-7093984D02*
X2486848Y-7093984D01*
X2486848Y-7093984D02*
X2467801Y-7084460D01*
X2467801Y-7084460D02*
X2458277Y-7074936D01*
X2458277Y-7074936D02*
X2448753Y-7055888D01*
X2448753Y-7055888D02*
X2439229Y-7017793D01*
X2439229Y-7017793D02*
X2439229Y-6970174D01*
X2439229Y-6970174D02*
X2448753Y-6932079D01*
X2448753Y-6932079D02*
X2458277Y-6913031D01*
X2458277Y-6913031D02*
X2467801Y-6903508D01*
X2467801Y-6903508D02*
X2486848Y-6893984D01*
X2743991Y-7093984D02*
X2629706Y-7093984D01*
X2686848Y-7093984D02*
X2686848Y-6893984D01*
X2686848Y-6893984D02*
X2667801Y-6922555D01*
X2667801Y-6922555D02*
X2648753Y-6941603D01*
X2648753Y-6941603D02*
X2629706Y-6951127D01*
X2839229Y-7093984D02*
X2877325Y-7093984D01*
X2877325Y-7093984D02*
X2896372Y-7084460D01*
X2896372Y-7084460D02*
X2905896Y-7074936D01*
X2905896Y-7074936D02*
X2924944Y-7046365D01*
X2924944Y-7046365D02*
X2934467Y-7008269D01*
X2934467Y-7008269D02*
X2934467Y-6932079D01*
X2934467Y-6932079D02*
X2924944Y-6913031D01*
X2924944Y-6913031D02*
X2915420Y-6903508D01*
X2915420Y-6903508D02*
X2896372Y-6893984D01*
X2896372Y-6893984D02*
X2858277Y-6893984D01*
X2858277Y-6893984D02*
X2839229Y-6903508D01*
X2839229Y-6903508D02*
X2829706Y-6913031D01*
X2829706Y-6913031D02*
X2820182Y-6932079D01*
X2820182Y-6932079D02*
X2820182Y-6979698D01*
X2820182Y-6979698D02*
X2829706Y-6998746D01*
X2829706Y-6998746D02*
X2839229Y-7008269D01*
X2839229Y-7008269D02*
X2858277Y-7017793D01*
X2858277Y-7017793D02*
X2896372Y-7017793D01*
X2896372Y-7017793D02*
X2915420Y-7008269D01*
X2915420Y-7008269D02*
X2924944Y-6998746D01*
X2924944Y-6998746D02*
X2934467Y-6979698D01*
X3001134Y-6893984D02*
X3134467Y-6893984D01*
X3134467Y-6893984D02*
X3048753Y-7093984D01*
X3201134Y-6893984D02*
X3201134Y-6932079D01*
X3277325Y-6893984D02*
X3277325Y-6932079D01*
X3572563Y-7170174D02*
X3563039Y-7160650D01*
X3563039Y-7160650D02*
X3543991Y-7132079D01*
X3543991Y-7132079D02*
X3534468Y-7113031D01*
X3534468Y-7113031D02*
X3524944Y-7084460D01*
X3524944Y-7084460D02*
X3515420Y-7036841D01*
X3515420Y-7036841D02*
X3515420Y-6998746D01*
X3515420Y-6998746D02*
X3524944Y-6951127D01*
X3524944Y-6951127D02*
X3534468Y-6922555D01*
X3534468Y-6922555D02*
X3543991Y-6903508D01*
X3543991Y-6903508D02*
X3563039Y-6874936D01*
X3563039Y-6874936D02*
X3572563Y-6865412D01*
X3629706Y-6893984D02*
X3753515Y-6893984D01*
X3753515Y-6893984D02*
X3686848Y-6970174D01*
X3686848Y-6970174D02*
X3715420Y-6970174D01*
X3715420Y-6970174D02*
X3734468Y-6979698D01*
X3734468Y-6979698D02*
X3743991Y-6989222D01*
X3743991Y-6989222D02*
X3753515Y-7008269D01*
X3753515Y-7008269D02*
X3753515Y-7055888D01*
X3753515Y-7055888D02*
X3743991Y-7074936D01*
X3743991Y-7074936D02*
X3734468Y-7084460D01*
X3734468Y-7084460D02*
X3715420Y-7093984D01*
X3715420Y-7093984D02*
X3658277Y-7093984D01*
X3658277Y-7093984D02*
X3639229Y-7084460D01*
X3639229Y-7084460D02*
X3629706Y-7074936D01*
X3829706Y-6913031D02*
X3839229Y-6903508D01*
X3839229Y-6903508D02*
X3858277Y-6893984D01*
X3858277Y-6893984D02*
X3905896Y-6893984D01*
X3905896Y-6893984D02*
X3924944Y-6903508D01*
X3924944Y-6903508D02*
X3934468Y-6913031D01*
X3934468Y-6913031D02*
X3943991Y-6932079D01*
X3943991Y-6932079D02*
X3943991Y-6951127D01*
X3943991Y-6951127D02*
X3934468Y-6979698D01*
X3934468Y-6979698D02*
X3820182Y-7093984D01*
X3820182Y-7093984D02*
X3943991Y-7093984D01*
X4182087Y-7093984D02*
X4182087Y-6893984D01*
X4267801Y-7093984D02*
X4267801Y-6989222D01*
X4267801Y-6989222D02*
X4258277Y-6970174D01*
X4258277Y-6970174D02*
X4239230Y-6960650D01*
X4239230Y-6960650D02*
X4210658Y-6960650D01*
X4210658Y-6960650D02*
X4191610Y-6970174D01*
X4191610Y-6970174D02*
X4182087Y-6979698D01*
X4391611Y-7093984D02*
X4372563Y-7084460D01*
X4372563Y-7084460D02*
X4363039Y-7074936D01*
X4363039Y-7074936D02*
X4353515Y-7055888D01*
X4353515Y-7055888D02*
X4353515Y-6998746D01*
X4353515Y-6998746D02*
X4363039Y-6979698D01*
X4363039Y-6979698D02*
X4372563Y-6970174D01*
X4372563Y-6970174D02*
X4391611Y-6960650D01*
X4391611Y-6960650D02*
X4420182Y-6960650D01*
X4420182Y-6960650D02*
X4439230Y-6970174D01*
X4439230Y-6970174D02*
X4448753Y-6979698D01*
X4448753Y-6979698D02*
X4458277Y-6998746D01*
X4458277Y-6998746D02*
X4458277Y-7055888D01*
X4458277Y-7055888D02*
X4448753Y-7074936D01*
X4448753Y-7074936D02*
X4439230Y-7084460D01*
X4439230Y-7084460D02*
X4420182Y-7093984D01*
X4420182Y-7093984D02*
X4391611Y-7093984D01*
X4572563Y-7093984D02*
X4553515Y-7084460D01*
X4553515Y-7084460D02*
X4543992Y-7065412D01*
X4543992Y-7065412D02*
X4543992Y-6893984D01*
X4724944Y-7084460D02*
X4705896Y-7093984D01*
X4705896Y-7093984D02*
X4667801Y-7093984D01*
X4667801Y-7093984D02*
X4648753Y-7084460D01*
X4648753Y-7084460D02*
X4639230Y-7065412D01*
X4639230Y-7065412D02*
X4639230Y-6989222D01*
X4639230Y-6989222D02*
X4648753Y-6970174D01*
X4648753Y-6970174D02*
X4667801Y-6960650D01*
X4667801Y-6960650D02*
X4705896Y-6960650D01*
X4705896Y-6960650D02*
X4724944Y-6970174D01*
X4724944Y-6970174D02*
X4734468Y-6989222D01*
X4734468Y-6989222D02*
X4734468Y-7008269D01*
X4734468Y-7008269D02*
X4639230Y-7027317D01*
X4810658Y-7084460D02*
X4829706Y-7093984D01*
X4829706Y-7093984D02*
X4867801Y-7093984D01*
X4867801Y-7093984D02*
X4886849Y-7084460D01*
X4886849Y-7084460D02*
X4896373Y-7065412D01*
X4896373Y-7065412D02*
X4896373Y-7055888D01*
X4896373Y-7055888D02*
X4886849Y-7036841D01*
X4886849Y-7036841D02*
X4867801Y-7027317D01*
X4867801Y-7027317D02*
X4839230Y-7027317D01*
X4839230Y-7027317D02*
X4820182Y-7017793D01*
X4820182Y-7017793D02*
X4810658Y-6998746D01*
X4810658Y-6998746D02*
X4810658Y-6989222D01*
X4810658Y-6989222D02*
X4820182Y-6970174D01*
X4820182Y-6970174D02*
X4839230Y-6960650D01*
X4839230Y-6960650D02*
X4867801Y-6960650D01*
X4867801Y-6960650D02*
X4886849Y-6970174D01*
X4963039Y-7170174D02*
X4972563Y-7160650D01*
X4972563Y-7160650D02*
X4991611Y-7132079D01*
X4991611Y-7132079D02*
X5001134Y-7113031D01*
X5001134Y-7113031D02*
X5010658Y-7084460D01*
X5010658Y-7084460D02*
X5020182Y-7036841D01*
X5020182Y-7036841D02*
X5020182Y-6998746D01*
X5020182Y-6998746D02*
X5010658Y-6951127D01*
X5010658Y-6951127D02*
X5001134Y-6922555D01*
X5001134Y-6922555D02*
X4991611Y-6903508D01*
X4991611Y-6903508D02*
X4972563Y-6874936D01*
X4972563Y-6874936D02*
X4963039Y-6865412D01*
D12*
X-42500Y-7226500D02*
X-42500Y-7306500D01*
X-82500Y-7266500D02*
X-2500Y-7266500D01*
D11*
X296372Y-7157984D02*
X315420Y-7157984D01*
X315420Y-7157984D02*
X334467Y-7167508D01*
X334467Y-7167508D02*
X343991Y-7177031D01*
X343991Y-7177031D02*
X353515Y-7196079D01*
X353515Y-7196079D02*
X363039Y-7234174D01*
X363039Y-7234174D02*
X363039Y-7281793D01*
X363039Y-7281793D02*
X353515Y-7319888D01*
X353515Y-7319888D02*
X343991Y-7338936D01*
X343991Y-7338936D02*
X334467Y-7348460D01*
X334467Y-7348460D02*
X315420Y-7357984D01*
X315420Y-7357984D02*
X296372Y-7357984D01*
X296372Y-7357984D02*
X277324Y-7348460D01*
X277324Y-7348460D02*
X267801Y-7338936D01*
X267801Y-7338936D02*
X258277Y-7319888D01*
X258277Y-7319888D02*
X248753Y-7281793D01*
X248753Y-7281793D02*
X248753Y-7234174D01*
X248753Y-7234174D02*
X258277Y-7196079D01*
X258277Y-7196079D02*
X267801Y-7177031D01*
X267801Y-7177031D02*
X277324Y-7167508D01*
X277324Y-7167508D02*
X296372Y-7157984D01*
X448753Y-7338936D02*
X458277Y-7348460D01*
X458277Y-7348460D02*
X448753Y-7357984D01*
X448753Y-7357984D02*
X439229Y-7348460D01*
X439229Y-7348460D02*
X448753Y-7338936D01*
X448753Y-7338936D02*
X448753Y-7357984D01*
X572563Y-7243698D02*
X553515Y-7234174D01*
X553515Y-7234174D02*
X543991Y-7224650D01*
X543991Y-7224650D02*
X534467Y-7205603D01*
X534467Y-7205603D02*
X534467Y-7196079D01*
X534467Y-7196079D02*
X543991Y-7177031D01*
X543991Y-7177031D02*
X553515Y-7167508D01*
X553515Y-7167508D02*
X572563Y-7157984D01*
X572563Y-7157984D02*
X610658Y-7157984D01*
X610658Y-7157984D02*
X629705Y-7167508D01*
X629705Y-7167508D02*
X639229Y-7177031D01*
X639229Y-7177031D02*
X648753Y-7196079D01*
X648753Y-7196079D02*
X648753Y-7205603D01*
X648753Y-7205603D02*
X639229Y-7224650D01*
X639229Y-7224650D02*
X629705Y-7234174D01*
X629705Y-7234174D02*
X610658Y-7243698D01*
X610658Y-7243698D02*
X572563Y-7243698D01*
X572563Y-7243698D02*
X553515Y-7253222D01*
X553515Y-7253222D02*
X543991Y-7262746D01*
X543991Y-7262746D02*
X534467Y-7281793D01*
X534467Y-7281793D02*
X534467Y-7319888D01*
X534467Y-7319888D02*
X543991Y-7338936D01*
X543991Y-7338936D02*
X553515Y-7348460D01*
X553515Y-7348460D02*
X572563Y-7357984D01*
X572563Y-7357984D02*
X610658Y-7357984D01*
X610658Y-7357984D02*
X629705Y-7348460D01*
X629705Y-7348460D02*
X639229Y-7338936D01*
X639229Y-7338936D02*
X648753Y-7319888D01*
X648753Y-7319888D02*
X648753Y-7281793D01*
X648753Y-7281793D02*
X639229Y-7262746D01*
X639229Y-7262746D02*
X629705Y-7253222D01*
X629705Y-7253222D02*
X610658Y-7243698D01*
X772562Y-7157984D02*
X791610Y-7157984D01*
X791610Y-7157984D02*
X810658Y-7167508D01*
X810658Y-7167508D02*
X820182Y-7177031D01*
X820182Y-7177031D02*
X829705Y-7196079D01*
X829705Y-7196079D02*
X839229Y-7234174D01*
X839229Y-7234174D02*
X839229Y-7281793D01*
X839229Y-7281793D02*
X829705Y-7319888D01*
X829705Y-7319888D02*
X820182Y-7338936D01*
X820182Y-7338936D02*
X810658Y-7348460D01*
X810658Y-7348460D02*
X791610Y-7357984D01*
X791610Y-7357984D02*
X772562Y-7357984D01*
X772562Y-7357984D02*
X753515Y-7348460D01*
X753515Y-7348460D02*
X743991Y-7338936D01*
X743991Y-7338936D02*
X734467Y-7319888D01*
X734467Y-7319888D02*
X724943Y-7281793D01*
X724943Y-7281793D02*
X724943Y-7234174D01*
X724943Y-7234174D02*
X734467Y-7196079D01*
X734467Y-7196079D02*
X743991Y-7177031D01*
X743991Y-7177031D02*
X753515Y-7167508D01*
X753515Y-7167508D02*
X772562Y-7157984D01*
X963039Y-7157984D02*
X982086Y-7157984D01*
X982086Y-7157984D02*
X1001134Y-7167508D01*
X1001134Y-7167508D02*
X1010658Y-7177031D01*
X1010658Y-7177031D02*
X1020182Y-7196079D01*
X1020182Y-7196079D02*
X1029705Y-7234174D01*
X1029705Y-7234174D02*
X1029705Y-7281793D01*
X1029705Y-7281793D02*
X1020182Y-7319888D01*
X1020182Y-7319888D02*
X1010658Y-7338936D01*
X1010658Y-7338936D02*
X1001134Y-7348460D01*
X1001134Y-7348460D02*
X982086Y-7357984D01*
X982086Y-7357984D02*
X963039Y-7357984D01*
X963039Y-7357984D02*
X943991Y-7348460D01*
X943991Y-7348460D02*
X934467Y-7338936D01*
X934467Y-7338936D02*
X924943Y-7319888D01*
X924943Y-7319888D02*
X915420Y-7281793D01*
X915420Y-7281793D02*
X915420Y-7234174D01*
X915420Y-7234174D02*
X924943Y-7196079D01*
X924943Y-7196079D02*
X934467Y-7177031D01*
X934467Y-7177031D02*
X943991Y-7167508D01*
X943991Y-7167508D02*
X963039Y-7157984D01*
X1115420Y-7357984D02*
X1115420Y-7224650D01*
X1115420Y-7243698D02*
X1124944Y-7234174D01*
X1124944Y-7234174D02*
X1143991Y-7224650D01*
X1143991Y-7224650D02*
X1172563Y-7224650D01*
X1172563Y-7224650D02*
X1191610Y-7234174D01*
X1191610Y-7234174D02*
X1201134Y-7253222D01*
X1201134Y-7253222D02*
X1201134Y-7357984D01*
X1201134Y-7253222D02*
X1210658Y-7234174D01*
X1210658Y-7234174D02*
X1229705Y-7224650D01*
X1229705Y-7224650D02*
X1258277Y-7224650D01*
X1258277Y-7224650D02*
X1277325Y-7234174D01*
X1277325Y-7234174D02*
X1286848Y-7253222D01*
X1286848Y-7253222D02*
X1286848Y-7357984D01*
X1382086Y-7357984D02*
X1382086Y-7224650D01*
X1382086Y-7243698D02*
X1391610Y-7234174D01*
X1391610Y-7234174D02*
X1410658Y-7224650D01*
X1410658Y-7224650D02*
X1439229Y-7224650D01*
X1439229Y-7224650D02*
X1458277Y-7234174D01*
X1458277Y-7234174D02*
X1467801Y-7253222D01*
X1467801Y-7253222D02*
X1467801Y-7357984D01*
X1467801Y-7253222D02*
X1477324Y-7234174D01*
X1477324Y-7234174D02*
X1496372Y-7224650D01*
X1496372Y-7224650D02*
X1524943Y-7224650D01*
X1524943Y-7224650D02*
X1543991Y-7234174D01*
X1543991Y-7234174D02*
X1553515Y-7253222D01*
X1553515Y-7253222D02*
X1553515Y-7357984D01*
X1943991Y-7148460D02*
X1772563Y-7405603D01*
X2201134Y-7157984D02*
X2220182Y-7157984D01*
X2220182Y-7157984D02*
X2239229Y-7167508D01*
X2239229Y-7167508D02*
X2248753Y-7177031D01*
X2248753Y-7177031D02*
X2258277Y-7196079D01*
X2258277Y-7196079D02*
X2267801Y-7234174D01*
X2267801Y-7234174D02*
X2267801Y-7281793D01*
X2267801Y-7281793D02*
X2258277Y-7319888D01*
X2258277Y-7319888D02*
X2248753Y-7338936D01*
X2248753Y-7338936D02*
X2239229Y-7348460D01*
X2239229Y-7348460D02*
X2220182Y-7357984D01*
X2220182Y-7357984D02*
X2201134Y-7357984D01*
X2201134Y-7357984D02*
X2182087Y-7348460D01*
X2182087Y-7348460D02*
X2172563Y-7338936D01*
X2172563Y-7338936D02*
X2163039Y-7319888D01*
X2163039Y-7319888D02*
X2153515Y-7281793D01*
X2153515Y-7281793D02*
X2153515Y-7234174D01*
X2153515Y-7234174D02*
X2163039Y-7196079D01*
X2163039Y-7196079D02*
X2172563Y-7177031D01*
X2172563Y-7177031D02*
X2182087Y-7167508D01*
X2182087Y-7167508D02*
X2201134Y-7157984D01*
X2353515Y-7338936D02*
X2363039Y-7348460D01*
X2363039Y-7348460D02*
X2353515Y-7357984D01*
X2353515Y-7357984D02*
X2343991Y-7348460D01*
X2343991Y-7348460D02*
X2353515Y-7338936D01*
X2353515Y-7338936D02*
X2353515Y-7357984D01*
X2486848Y-7157984D02*
X2505896Y-7157984D01*
X2505896Y-7157984D02*
X2524944Y-7167508D01*
X2524944Y-7167508D02*
X2534468Y-7177031D01*
X2534468Y-7177031D02*
X2543991Y-7196079D01*
X2543991Y-7196079D02*
X2553515Y-7234174D01*
X2553515Y-7234174D02*
X2553515Y-7281793D01*
X2553515Y-7281793D02*
X2543991Y-7319888D01*
X2543991Y-7319888D02*
X2534468Y-7338936D01*
X2534468Y-7338936D02*
X2524944Y-7348460D01*
X2524944Y-7348460D02*
X2505896Y-7357984D01*
X2505896Y-7357984D02*
X2486848Y-7357984D01*
X2486848Y-7357984D02*
X2467801Y-7348460D01*
X2467801Y-7348460D02*
X2458277Y-7338936D01*
X2458277Y-7338936D02*
X2448753Y-7319888D01*
X2448753Y-7319888D02*
X2439229Y-7281793D01*
X2439229Y-7281793D02*
X2439229Y-7234174D01*
X2439229Y-7234174D02*
X2448753Y-7196079D01*
X2448753Y-7196079D02*
X2458277Y-7177031D01*
X2458277Y-7177031D02*
X2467801Y-7167508D01*
X2467801Y-7167508D02*
X2486848Y-7157984D01*
X2620182Y-7157984D02*
X2743991Y-7157984D01*
X2743991Y-7157984D02*
X2677325Y-7234174D01*
X2677325Y-7234174D02*
X2705896Y-7234174D01*
X2705896Y-7234174D02*
X2724944Y-7243698D01*
X2724944Y-7243698D02*
X2734468Y-7253222D01*
X2734468Y-7253222D02*
X2743991Y-7272269D01*
X2743991Y-7272269D02*
X2743991Y-7319888D01*
X2743991Y-7319888D02*
X2734468Y-7338936D01*
X2734468Y-7338936D02*
X2724944Y-7348460D01*
X2724944Y-7348460D02*
X2705896Y-7357984D01*
X2705896Y-7357984D02*
X2648753Y-7357984D01*
X2648753Y-7357984D02*
X2629706Y-7348460D01*
X2629706Y-7348460D02*
X2620182Y-7338936D01*
X2934467Y-7357984D02*
X2820182Y-7357984D01*
X2877325Y-7357984D02*
X2877325Y-7157984D01*
X2877325Y-7157984D02*
X2858277Y-7186555D01*
X2858277Y-7186555D02*
X2839229Y-7205603D01*
X2839229Y-7205603D02*
X2820182Y-7215127D01*
X3115420Y-7157984D02*
X3020182Y-7157984D01*
X3020182Y-7157984D02*
X3010658Y-7253222D01*
X3010658Y-7253222D02*
X3020182Y-7243698D01*
X3020182Y-7243698D02*
X3039229Y-7234174D01*
X3039229Y-7234174D02*
X3086848Y-7234174D01*
X3086848Y-7234174D02*
X3105896Y-7243698D01*
X3105896Y-7243698D02*
X3115420Y-7253222D01*
X3115420Y-7253222D02*
X3124944Y-7272269D01*
X3124944Y-7272269D02*
X3124944Y-7319888D01*
X3124944Y-7319888D02*
X3115420Y-7338936D01*
X3115420Y-7338936D02*
X3105896Y-7348460D01*
X3105896Y-7348460D02*
X3086848Y-7357984D01*
X3086848Y-7357984D02*
X3039229Y-7357984D01*
X3039229Y-7357984D02*
X3020182Y-7348460D01*
X3020182Y-7348460D02*
X3010658Y-7338936D01*
X3201134Y-7157984D02*
X3201134Y-7196079D01*
X3277325Y-7157984D02*
X3277325Y-7196079D01*
X3572563Y-7434174D02*
X3563039Y-7424650D01*
X3563039Y-7424650D02*
X3543991Y-7396079D01*
X3543991Y-7396079D02*
X3534468Y-7377031D01*
X3534468Y-7377031D02*
X3524944Y-7348460D01*
X3524944Y-7348460D02*
X3515420Y-7300841D01*
X3515420Y-7300841D02*
X3515420Y-7262746D01*
X3515420Y-7262746D02*
X3524944Y-7215127D01*
X3524944Y-7215127D02*
X3534468Y-7186555D01*
X3534468Y-7186555D02*
X3543991Y-7167508D01*
X3543991Y-7167508D02*
X3563039Y-7138936D01*
X3563039Y-7138936D02*
X3572563Y-7129412D01*
X3639229Y-7177031D02*
X3648753Y-7167508D01*
X3648753Y-7167508D02*
X3667801Y-7157984D01*
X3667801Y-7157984D02*
X3715420Y-7157984D01*
X3715420Y-7157984D02*
X3734468Y-7167508D01*
X3734468Y-7167508D02*
X3743991Y-7177031D01*
X3743991Y-7177031D02*
X3753515Y-7196079D01*
X3753515Y-7196079D02*
X3753515Y-7215127D01*
X3753515Y-7215127D02*
X3743991Y-7243698D01*
X3743991Y-7243698D02*
X3629706Y-7357984D01*
X3629706Y-7357984D02*
X3753515Y-7357984D01*
X3924944Y-7157984D02*
X3886848Y-7157984D01*
X3886848Y-7157984D02*
X3867801Y-7167508D01*
X3867801Y-7167508D02*
X3858277Y-7177031D01*
X3858277Y-7177031D02*
X3839229Y-7205603D01*
X3839229Y-7205603D02*
X3829706Y-7243698D01*
X3829706Y-7243698D02*
X3829706Y-7319888D01*
X3829706Y-7319888D02*
X3839229Y-7338936D01*
X3839229Y-7338936D02*
X3848753Y-7348460D01*
X3848753Y-7348460D02*
X3867801Y-7357984D01*
X3867801Y-7357984D02*
X3905896Y-7357984D01*
X3905896Y-7357984D02*
X3924944Y-7348460D01*
X3924944Y-7348460D02*
X3934468Y-7338936D01*
X3934468Y-7338936D02*
X3943991Y-7319888D01*
X3943991Y-7319888D02*
X3943991Y-7272269D01*
X3943991Y-7272269D02*
X3934468Y-7253222D01*
X3934468Y-7253222D02*
X3924944Y-7243698D01*
X3924944Y-7243698D02*
X3905896Y-7234174D01*
X3905896Y-7234174D02*
X3867801Y-7234174D01*
X3867801Y-7234174D02*
X3848753Y-7243698D01*
X3848753Y-7243698D02*
X3839229Y-7253222D01*
X3839229Y-7253222D02*
X3829706Y-7272269D01*
X4182087Y-7357984D02*
X4182087Y-7157984D01*
X4267801Y-7357984D02*
X4267801Y-7253222D01*
X4267801Y-7253222D02*
X4258277Y-7234174D01*
X4258277Y-7234174D02*
X4239230Y-7224650D01*
X4239230Y-7224650D02*
X4210658Y-7224650D01*
X4210658Y-7224650D02*
X4191610Y-7234174D01*
X4191610Y-7234174D02*
X4182087Y-7243698D01*
X4391611Y-7357984D02*
X4372563Y-7348460D01*
X4372563Y-7348460D02*
X4363039Y-7338936D01*
X4363039Y-7338936D02*
X4353515Y-7319888D01*
X4353515Y-7319888D02*
X4353515Y-7262746D01*
X4353515Y-7262746D02*
X4363039Y-7243698D01*
X4363039Y-7243698D02*
X4372563Y-7234174D01*
X4372563Y-7234174D02*
X4391611Y-7224650D01*
X4391611Y-7224650D02*
X4420182Y-7224650D01*
X4420182Y-7224650D02*
X4439230Y-7234174D01*
X4439230Y-7234174D02*
X4448753Y-7243698D01*
X4448753Y-7243698D02*
X4458277Y-7262746D01*
X4458277Y-7262746D02*
X4458277Y-7319888D01*
X4458277Y-7319888D02*
X4448753Y-7338936D01*
X4448753Y-7338936D02*
X4439230Y-7348460D01*
X4439230Y-7348460D02*
X4420182Y-7357984D01*
X4420182Y-7357984D02*
X4391611Y-7357984D01*
X4572563Y-7357984D02*
X4553515Y-7348460D01*
X4553515Y-7348460D02*
X4543992Y-7329412D01*
X4543992Y-7329412D02*
X4543992Y-7157984D01*
X4724944Y-7348460D02*
X4705896Y-7357984D01*
X4705896Y-7357984D02*
X4667801Y-7357984D01*
X4667801Y-7357984D02*
X4648753Y-7348460D01*
X4648753Y-7348460D02*
X4639230Y-7329412D01*
X4639230Y-7329412D02*
X4639230Y-7253222D01*
X4639230Y-7253222D02*
X4648753Y-7234174D01*
X4648753Y-7234174D02*
X4667801Y-7224650D01*
X4667801Y-7224650D02*
X4705896Y-7224650D01*
X4705896Y-7224650D02*
X4724944Y-7234174D01*
X4724944Y-7234174D02*
X4734468Y-7253222D01*
X4734468Y-7253222D02*
X4734468Y-7272269D01*
X4734468Y-7272269D02*
X4639230Y-7291317D01*
X4810658Y-7348460D02*
X4829706Y-7357984D01*
X4829706Y-7357984D02*
X4867801Y-7357984D01*
X4867801Y-7357984D02*
X4886849Y-7348460D01*
X4886849Y-7348460D02*
X4896373Y-7329412D01*
X4896373Y-7329412D02*
X4896373Y-7319888D01*
X4896373Y-7319888D02*
X4886849Y-7300841D01*
X4886849Y-7300841D02*
X4867801Y-7291317D01*
X4867801Y-7291317D02*
X4839230Y-7291317D01*
X4839230Y-7291317D02*
X4820182Y-7281793D01*
X4820182Y-7281793D02*
X4810658Y-7262746D01*
X4810658Y-7262746D02*
X4810658Y-7253222D01*
X4810658Y-7253222D02*
X4820182Y-7234174D01*
X4820182Y-7234174D02*
X4839230Y-7224650D01*
X4839230Y-7224650D02*
X4867801Y-7224650D01*
X4867801Y-7224650D02*
X4886849Y-7234174D01*
X4963039Y-7434174D02*
X4972563Y-7424650D01*
X4972563Y-7424650D02*
X4991611Y-7396079D01*
X4991611Y-7396079D02*
X5001134Y-7377031D01*
X5001134Y-7377031D02*
X5010658Y-7348460D01*
X5010658Y-7348460D02*
X5020182Y-7300841D01*
X5020182Y-7300841D02*
X5020182Y-7262746D01*
X5020182Y-7262746D02*
X5010658Y-7215127D01*
X5010658Y-7215127D02*
X5001134Y-7186555D01*
X5001134Y-7186555D02*
X4991611Y-7167508D01*
X4991611Y-7167508D02*
X4972563Y-7138936D01*
X4972563Y-7138936D02*
X4963039Y-7129412D01*
D12*
X-17144Y-7565856D02*
X-17144Y-7495144D01*
X-87856Y-7495144D01*
X-87856Y-7565856D01*
X-17144Y-7565856D01*
D11*
X363039Y-7621984D02*
X248753Y-7621984D01*
X305896Y-7621984D02*
X305896Y-7421984D01*
X305896Y-7421984D02*
X286848Y-7450555D01*
X286848Y-7450555D02*
X267801Y-7469603D01*
X267801Y-7469603D02*
X248753Y-7479127D01*
X448753Y-7602936D02*
X458277Y-7612460D01*
X458277Y-7612460D02*
X448753Y-7621984D01*
X448753Y-7621984D02*
X439229Y-7612460D01*
X439229Y-7612460D02*
X448753Y-7602936D01*
X448753Y-7602936D02*
X448753Y-7621984D01*
X582086Y-7421984D02*
X601134Y-7421984D01*
X601134Y-7421984D02*
X620182Y-7431508D01*
X620182Y-7431508D02*
X629705Y-7441031D01*
X629705Y-7441031D02*
X639229Y-7460079D01*
X639229Y-7460079D02*
X648753Y-7498174D01*
X648753Y-7498174D02*
X648753Y-7545793D01*
X648753Y-7545793D02*
X639229Y-7583888D01*
X639229Y-7583888D02*
X629705Y-7602936D01*
X629705Y-7602936D02*
X620182Y-7612460D01*
X620182Y-7612460D02*
X601134Y-7621984D01*
X601134Y-7621984D02*
X582086Y-7621984D01*
X582086Y-7621984D02*
X563039Y-7612460D01*
X563039Y-7612460D02*
X553515Y-7602936D01*
X553515Y-7602936D02*
X543991Y-7583888D01*
X543991Y-7583888D02*
X534467Y-7545793D01*
X534467Y-7545793D02*
X534467Y-7498174D01*
X534467Y-7498174D02*
X543991Y-7460079D01*
X543991Y-7460079D02*
X553515Y-7441031D01*
X553515Y-7441031D02*
X563039Y-7431508D01*
X563039Y-7431508D02*
X582086Y-7421984D01*
X772562Y-7421984D02*
X791610Y-7421984D01*
X791610Y-7421984D02*
X810658Y-7431508D01*
X810658Y-7431508D02*
X820182Y-7441031D01*
X820182Y-7441031D02*
X829705Y-7460079D01*
X829705Y-7460079D02*
X839229Y-7498174D01*
X839229Y-7498174D02*
X839229Y-7545793D01*
X839229Y-7545793D02*
X829705Y-7583888D01*
X829705Y-7583888D02*
X820182Y-7602936D01*
X820182Y-7602936D02*
X810658Y-7612460D01*
X810658Y-7612460D02*
X791610Y-7621984D01*
X791610Y-7621984D02*
X772562Y-7621984D01*
X772562Y-7621984D02*
X753515Y-7612460D01*
X753515Y-7612460D02*
X743991Y-7602936D01*
X743991Y-7602936D02*
X734467Y-7583888D01*
X734467Y-7583888D02*
X724943Y-7545793D01*
X724943Y-7545793D02*
X724943Y-7498174D01*
X724943Y-7498174D02*
X734467Y-7460079D01*
X734467Y-7460079D02*
X743991Y-7441031D01*
X743991Y-7441031D02*
X753515Y-7431508D01*
X753515Y-7431508D02*
X772562Y-7421984D01*
X963039Y-7421984D02*
X982086Y-7421984D01*
X982086Y-7421984D02*
X1001134Y-7431508D01*
X1001134Y-7431508D02*
X1010658Y-7441031D01*
X1010658Y-7441031D02*
X1020182Y-7460079D01*
X1020182Y-7460079D02*
X1029705Y-7498174D01*
X1029705Y-7498174D02*
X1029705Y-7545793D01*
X1029705Y-7545793D02*
X1020182Y-7583888D01*
X1020182Y-7583888D02*
X1010658Y-7602936D01*
X1010658Y-7602936D02*
X1001134Y-7612460D01*
X1001134Y-7612460D02*
X982086Y-7621984D01*
X982086Y-7621984D02*
X963039Y-7621984D01*
X963039Y-7621984D02*
X943991Y-7612460D01*
X943991Y-7612460D02*
X934467Y-7602936D01*
X934467Y-7602936D02*
X924943Y-7583888D01*
X924943Y-7583888D02*
X915420Y-7545793D01*
X915420Y-7545793D02*
X915420Y-7498174D01*
X915420Y-7498174D02*
X924943Y-7460079D01*
X924943Y-7460079D02*
X934467Y-7441031D01*
X934467Y-7441031D02*
X943991Y-7431508D01*
X943991Y-7431508D02*
X963039Y-7421984D01*
X1115420Y-7621984D02*
X1115420Y-7488650D01*
X1115420Y-7507698D02*
X1124944Y-7498174D01*
X1124944Y-7498174D02*
X1143991Y-7488650D01*
X1143991Y-7488650D02*
X1172563Y-7488650D01*
X1172563Y-7488650D02*
X1191610Y-7498174D01*
X1191610Y-7498174D02*
X1201134Y-7517222D01*
X1201134Y-7517222D02*
X1201134Y-7621984D01*
X1201134Y-7517222D02*
X1210658Y-7498174D01*
X1210658Y-7498174D02*
X1229705Y-7488650D01*
X1229705Y-7488650D02*
X1258277Y-7488650D01*
X1258277Y-7488650D02*
X1277325Y-7498174D01*
X1277325Y-7498174D02*
X1286848Y-7517222D01*
X1286848Y-7517222D02*
X1286848Y-7621984D01*
X1382086Y-7621984D02*
X1382086Y-7488650D01*
X1382086Y-7507698D02*
X1391610Y-7498174D01*
X1391610Y-7498174D02*
X1410658Y-7488650D01*
X1410658Y-7488650D02*
X1439229Y-7488650D01*
X1439229Y-7488650D02*
X1458277Y-7498174D01*
X1458277Y-7498174D02*
X1467801Y-7517222D01*
X1467801Y-7517222D02*
X1467801Y-7621984D01*
X1467801Y-7517222D02*
X1477324Y-7498174D01*
X1477324Y-7498174D02*
X1496372Y-7488650D01*
X1496372Y-7488650D02*
X1524943Y-7488650D01*
X1524943Y-7488650D02*
X1543991Y-7498174D01*
X1543991Y-7498174D02*
X1553515Y-7517222D01*
X1553515Y-7517222D02*
X1553515Y-7621984D01*
X1943991Y-7412460D02*
X1772563Y-7669603D01*
X2201134Y-7421984D02*
X2220182Y-7421984D01*
X2220182Y-7421984D02*
X2239229Y-7431508D01*
X2239229Y-7431508D02*
X2248753Y-7441031D01*
X2248753Y-7441031D02*
X2258277Y-7460079D01*
X2258277Y-7460079D02*
X2267801Y-7498174D01*
X2267801Y-7498174D02*
X2267801Y-7545793D01*
X2267801Y-7545793D02*
X2258277Y-7583888D01*
X2258277Y-7583888D02*
X2248753Y-7602936D01*
X2248753Y-7602936D02*
X2239229Y-7612460D01*
X2239229Y-7612460D02*
X2220182Y-7621984D01*
X2220182Y-7621984D02*
X2201134Y-7621984D01*
X2201134Y-7621984D02*
X2182087Y-7612460D01*
X2182087Y-7612460D02*
X2172563Y-7602936D01*
X2172563Y-7602936D02*
X2163039Y-7583888D01*
X2163039Y-7583888D02*
X2153515Y-7545793D01*
X2153515Y-7545793D02*
X2153515Y-7498174D01*
X2153515Y-7498174D02*
X2163039Y-7460079D01*
X2163039Y-7460079D02*
X2172563Y-7441031D01*
X2172563Y-7441031D02*
X2182087Y-7431508D01*
X2182087Y-7431508D02*
X2201134Y-7421984D01*
X2353515Y-7602936D02*
X2363039Y-7612460D01*
X2363039Y-7612460D02*
X2353515Y-7621984D01*
X2353515Y-7621984D02*
X2343991Y-7612460D01*
X2343991Y-7612460D02*
X2353515Y-7602936D01*
X2353515Y-7602936D02*
X2353515Y-7621984D01*
X2486848Y-7421984D02*
X2505896Y-7421984D01*
X2505896Y-7421984D02*
X2524944Y-7431508D01*
X2524944Y-7431508D02*
X2534468Y-7441031D01*
X2534468Y-7441031D02*
X2543991Y-7460079D01*
X2543991Y-7460079D02*
X2553515Y-7498174D01*
X2553515Y-7498174D02*
X2553515Y-7545793D01*
X2553515Y-7545793D02*
X2543991Y-7583888D01*
X2543991Y-7583888D02*
X2534468Y-7602936D01*
X2534468Y-7602936D02*
X2524944Y-7612460D01*
X2524944Y-7612460D02*
X2505896Y-7621984D01*
X2505896Y-7621984D02*
X2486848Y-7621984D01*
X2486848Y-7621984D02*
X2467801Y-7612460D01*
X2467801Y-7612460D02*
X2458277Y-7602936D01*
X2458277Y-7602936D02*
X2448753Y-7583888D01*
X2448753Y-7583888D02*
X2439229Y-7545793D01*
X2439229Y-7545793D02*
X2439229Y-7498174D01*
X2439229Y-7498174D02*
X2448753Y-7460079D01*
X2448753Y-7460079D02*
X2458277Y-7441031D01*
X2458277Y-7441031D02*
X2467801Y-7431508D01*
X2467801Y-7431508D02*
X2486848Y-7421984D01*
X2620182Y-7421984D02*
X2743991Y-7421984D01*
X2743991Y-7421984D02*
X2677325Y-7498174D01*
X2677325Y-7498174D02*
X2705896Y-7498174D01*
X2705896Y-7498174D02*
X2724944Y-7507698D01*
X2724944Y-7507698D02*
X2734468Y-7517222D01*
X2734468Y-7517222D02*
X2743991Y-7536269D01*
X2743991Y-7536269D02*
X2743991Y-7583888D01*
X2743991Y-7583888D02*
X2734468Y-7602936D01*
X2734468Y-7602936D02*
X2724944Y-7612460D01*
X2724944Y-7612460D02*
X2705896Y-7621984D01*
X2705896Y-7621984D02*
X2648753Y-7621984D01*
X2648753Y-7621984D02*
X2629706Y-7612460D01*
X2629706Y-7612460D02*
X2620182Y-7602936D01*
X2839229Y-7621984D02*
X2877325Y-7621984D01*
X2877325Y-7621984D02*
X2896372Y-7612460D01*
X2896372Y-7612460D02*
X2905896Y-7602936D01*
X2905896Y-7602936D02*
X2924944Y-7574365D01*
X2924944Y-7574365D02*
X2934467Y-7536269D01*
X2934467Y-7536269D02*
X2934467Y-7460079D01*
X2934467Y-7460079D02*
X2924944Y-7441031D01*
X2924944Y-7441031D02*
X2915420Y-7431508D01*
X2915420Y-7431508D02*
X2896372Y-7421984D01*
X2896372Y-7421984D02*
X2858277Y-7421984D01*
X2858277Y-7421984D02*
X2839229Y-7431508D01*
X2839229Y-7431508D02*
X2829706Y-7441031D01*
X2829706Y-7441031D02*
X2820182Y-7460079D01*
X2820182Y-7460079D02*
X2820182Y-7507698D01*
X2820182Y-7507698D02*
X2829706Y-7526746D01*
X2829706Y-7526746D02*
X2839229Y-7536269D01*
X2839229Y-7536269D02*
X2858277Y-7545793D01*
X2858277Y-7545793D02*
X2896372Y-7545793D01*
X2896372Y-7545793D02*
X2915420Y-7536269D01*
X2915420Y-7536269D02*
X2924944Y-7526746D01*
X2924944Y-7526746D02*
X2934467Y-7507698D01*
X3105896Y-7488650D02*
X3105896Y-7621984D01*
X3058277Y-7412460D02*
X3010658Y-7555317D01*
X3010658Y-7555317D02*
X3134467Y-7555317D01*
X3201134Y-7421984D02*
X3201134Y-7460079D01*
X3277325Y-7421984D02*
X3277325Y-7460079D01*
X3572563Y-7698174D02*
X3563039Y-7688650D01*
X3563039Y-7688650D02*
X3543991Y-7660079D01*
X3543991Y-7660079D02*
X3534468Y-7641031D01*
X3534468Y-7641031D02*
X3524944Y-7612460D01*
X3524944Y-7612460D02*
X3515420Y-7564841D01*
X3515420Y-7564841D02*
X3515420Y-7526746D01*
X3515420Y-7526746D02*
X3524944Y-7479127D01*
X3524944Y-7479127D02*
X3534468Y-7450555D01*
X3534468Y-7450555D02*
X3543991Y-7431508D01*
X3543991Y-7431508D02*
X3563039Y-7402936D01*
X3563039Y-7402936D02*
X3572563Y-7393412D01*
X3743991Y-7421984D02*
X3648753Y-7421984D01*
X3648753Y-7421984D02*
X3639229Y-7517222D01*
X3639229Y-7517222D02*
X3648753Y-7507698D01*
X3648753Y-7507698D02*
X3667801Y-7498174D01*
X3667801Y-7498174D02*
X3715420Y-7498174D01*
X3715420Y-7498174D02*
X3734468Y-7507698D01*
X3734468Y-7507698D02*
X3743991Y-7517222D01*
X3743991Y-7517222D02*
X3753515Y-7536269D01*
X3753515Y-7536269D02*
X3753515Y-7583888D01*
X3753515Y-7583888D02*
X3743991Y-7602936D01*
X3743991Y-7602936D02*
X3734468Y-7612460D01*
X3734468Y-7612460D02*
X3715420Y-7621984D01*
X3715420Y-7621984D02*
X3667801Y-7621984D01*
X3667801Y-7621984D02*
X3648753Y-7612460D01*
X3648753Y-7612460D02*
X3639229Y-7602936D01*
X3877325Y-7421984D02*
X3896372Y-7421984D01*
X3896372Y-7421984D02*
X3915420Y-7431508D01*
X3915420Y-7431508D02*
X3924944Y-7441031D01*
X3924944Y-7441031D02*
X3934468Y-7460079D01*
X3934468Y-7460079D02*
X3943991Y-7498174D01*
X3943991Y-7498174D02*
X3943991Y-7545793D01*
X3943991Y-7545793D02*
X3934468Y-7583888D01*
X3934468Y-7583888D02*
X3924944Y-7602936D01*
X3924944Y-7602936D02*
X3915420Y-7612460D01*
X3915420Y-7612460D02*
X3896372Y-7621984D01*
X3896372Y-7621984D02*
X3877325Y-7621984D01*
X3877325Y-7621984D02*
X3858277Y-7612460D01*
X3858277Y-7612460D02*
X3848753Y-7602936D01*
X3848753Y-7602936D02*
X3839229Y-7583888D01*
X3839229Y-7583888D02*
X3829706Y-7545793D01*
X3829706Y-7545793D02*
X3829706Y-7498174D01*
X3829706Y-7498174D02*
X3839229Y-7460079D01*
X3839229Y-7460079D02*
X3848753Y-7441031D01*
X3848753Y-7441031D02*
X3858277Y-7431508D01*
X3858277Y-7431508D02*
X3877325Y-7421984D01*
X4182087Y-7621984D02*
X4182087Y-7421984D01*
X4267801Y-7621984D02*
X4267801Y-7517222D01*
X4267801Y-7517222D02*
X4258277Y-7498174D01*
X4258277Y-7498174D02*
X4239230Y-7488650D01*
X4239230Y-7488650D02*
X4210658Y-7488650D01*
X4210658Y-7488650D02*
X4191610Y-7498174D01*
X4191610Y-7498174D02*
X4182087Y-7507698D01*
X4391611Y-7621984D02*
X4372563Y-7612460D01*
X4372563Y-7612460D02*
X4363039Y-7602936D01*
X4363039Y-7602936D02*
X4353515Y-7583888D01*
X4353515Y-7583888D02*
X4353515Y-7526746D01*
X4353515Y-7526746D02*
X4363039Y-7507698D01*
X4363039Y-7507698D02*
X4372563Y-7498174D01*
X4372563Y-7498174D02*
X4391611Y-7488650D01*
X4391611Y-7488650D02*
X4420182Y-7488650D01*
X4420182Y-7488650D02*
X4439230Y-7498174D01*
X4439230Y-7498174D02*
X4448753Y-7507698D01*
X4448753Y-7507698D02*
X4458277Y-7526746D01*
X4458277Y-7526746D02*
X4458277Y-7583888D01*
X4458277Y-7583888D02*
X4448753Y-7602936D01*
X4448753Y-7602936D02*
X4439230Y-7612460D01*
X4439230Y-7612460D02*
X4420182Y-7621984D01*
X4420182Y-7621984D02*
X4391611Y-7621984D01*
X4572563Y-7621984D02*
X4553515Y-7612460D01*
X4553515Y-7612460D02*
X4543992Y-7593412D01*
X4543992Y-7593412D02*
X4543992Y-7421984D01*
X4724944Y-7612460D02*
X4705896Y-7621984D01*
X4705896Y-7621984D02*
X4667801Y-7621984D01*
X4667801Y-7621984D02*
X4648753Y-7612460D01*
X4648753Y-7612460D02*
X4639230Y-7593412D01*
X4639230Y-7593412D02*
X4639230Y-7517222D01*
X4639230Y-7517222D02*
X4648753Y-7498174D01*
X4648753Y-7498174D02*
X4667801Y-7488650D01*
X4667801Y-7488650D02*
X4705896Y-7488650D01*
X4705896Y-7488650D02*
X4724944Y-7498174D01*
X4724944Y-7498174D02*
X4734468Y-7517222D01*
X4734468Y-7517222D02*
X4734468Y-7536269D01*
X4734468Y-7536269D02*
X4639230Y-7555317D01*
X4810658Y-7612460D02*
X4829706Y-7621984D01*
X4829706Y-7621984D02*
X4867801Y-7621984D01*
X4867801Y-7621984D02*
X4886849Y-7612460D01*
X4886849Y-7612460D02*
X4896373Y-7593412D01*
X4896373Y-7593412D02*
X4896373Y-7583888D01*
X4896373Y-7583888D02*
X4886849Y-7564841D01*
X4886849Y-7564841D02*
X4867801Y-7555317D01*
X4867801Y-7555317D02*
X4839230Y-7555317D01*
X4839230Y-7555317D02*
X4820182Y-7545793D01*
X4820182Y-7545793D02*
X4810658Y-7526746D01*
X4810658Y-7526746D02*
X4810658Y-7517222D01*
X4810658Y-7517222D02*
X4820182Y-7498174D01*
X4820182Y-7498174D02*
X4839230Y-7488650D01*
X4839230Y-7488650D02*
X4867801Y-7488650D01*
X4867801Y-7488650D02*
X4886849Y-7498174D01*
X4963039Y-7698174D02*
X4972563Y-7688650D01*
X4972563Y-7688650D02*
X4991611Y-7660079D01*
X4991611Y-7660079D02*
X5001134Y-7641031D01*
X5001134Y-7641031D02*
X5010658Y-7612460D01*
X5010658Y-7612460D02*
X5020182Y-7564841D01*
X5020182Y-7564841D02*
X5020182Y-7526746D01*
X5020182Y-7526746D02*
X5010658Y-7479127D01*
X5010658Y-7479127D02*
X5001134Y-7450555D01*
X5001134Y-7450555D02*
X4991611Y-7431508D01*
X4991611Y-7431508D02*
X4972563Y-7402936D01*
X4972563Y-7402936D02*
X4963039Y-7393412D01*
D13*
X-72500Y-7864500D02*
X-2500Y-7794500D01*
X-72500Y-7724500D01*
X-142500Y-7794500D01*
X-72500Y-7864500D01*
D11*
X363039Y-7885984D02*
X248753Y-7885984D01*
X305896Y-7885984D02*
X305896Y-7685984D01*
X305896Y-7685984D02*
X286848Y-7714555D01*
X286848Y-7714555D02*
X267801Y-7733603D01*
X267801Y-7733603D02*
X248753Y-7743127D01*
X448753Y-7866936D02*
X458277Y-7876460D01*
X458277Y-7876460D02*
X448753Y-7885984D01*
X448753Y-7885984D02*
X439229Y-7876460D01*
X439229Y-7876460D02*
X448753Y-7866936D01*
X448753Y-7866936D02*
X448753Y-7885984D01*
X629705Y-7752650D02*
X629705Y-7885984D01*
X582086Y-7676460D02*
X534467Y-7819317D01*
X534467Y-7819317D02*
X658277Y-7819317D01*
X772562Y-7685984D02*
X791610Y-7685984D01*
X791610Y-7685984D02*
X810658Y-7695508D01*
X810658Y-7695508D02*
X820182Y-7705031D01*
X820182Y-7705031D02*
X829705Y-7724079D01*
X829705Y-7724079D02*
X839229Y-7762174D01*
X839229Y-7762174D02*
X839229Y-7809793D01*
X839229Y-7809793D02*
X829705Y-7847888D01*
X829705Y-7847888D02*
X820182Y-7866936D01*
X820182Y-7866936D02*
X810658Y-7876460D01*
X810658Y-7876460D02*
X791610Y-7885984D01*
X791610Y-7885984D02*
X772562Y-7885984D01*
X772562Y-7885984D02*
X753515Y-7876460D01*
X753515Y-7876460D02*
X743991Y-7866936D01*
X743991Y-7866936D02*
X734467Y-7847888D01*
X734467Y-7847888D02*
X724943Y-7809793D01*
X724943Y-7809793D02*
X724943Y-7762174D01*
X724943Y-7762174D02*
X734467Y-7724079D01*
X734467Y-7724079D02*
X743991Y-7705031D01*
X743991Y-7705031D02*
X753515Y-7695508D01*
X753515Y-7695508D02*
X772562Y-7685984D01*
X963039Y-7685984D02*
X982086Y-7685984D01*
X982086Y-7685984D02*
X1001134Y-7695508D01*
X1001134Y-7695508D02*
X1010658Y-7705031D01*
X1010658Y-7705031D02*
X1020182Y-7724079D01*
X1020182Y-7724079D02*
X1029705Y-7762174D01*
X1029705Y-7762174D02*
X1029705Y-7809793D01*
X1029705Y-7809793D02*
X1020182Y-7847888D01*
X1020182Y-7847888D02*
X1010658Y-7866936D01*
X1010658Y-7866936D02*
X1001134Y-7876460D01*
X1001134Y-7876460D02*
X982086Y-7885984D01*
X982086Y-7885984D02*
X963039Y-7885984D01*
X963039Y-7885984D02*
X943991Y-7876460D01*
X943991Y-7876460D02*
X934467Y-7866936D01*
X934467Y-7866936D02*
X924943Y-7847888D01*
X924943Y-7847888D02*
X915420Y-7809793D01*
X915420Y-7809793D02*
X915420Y-7762174D01*
X915420Y-7762174D02*
X924943Y-7724079D01*
X924943Y-7724079D02*
X934467Y-7705031D01*
X934467Y-7705031D02*
X943991Y-7695508D01*
X943991Y-7695508D02*
X963039Y-7685984D01*
X1115420Y-7885984D02*
X1115420Y-7752650D01*
X1115420Y-7771698D02*
X1124944Y-7762174D01*
X1124944Y-7762174D02*
X1143991Y-7752650D01*
X1143991Y-7752650D02*
X1172563Y-7752650D01*
X1172563Y-7752650D02*
X1191610Y-7762174D01*
X1191610Y-7762174D02*
X1201134Y-7781222D01*
X1201134Y-7781222D02*
X1201134Y-7885984D01*
X1201134Y-7781222D02*
X1210658Y-7762174D01*
X1210658Y-7762174D02*
X1229705Y-7752650D01*
X1229705Y-7752650D02*
X1258277Y-7752650D01*
X1258277Y-7752650D02*
X1277325Y-7762174D01*
X1277325Y-7762174D02*
X1286848Y-7781222D01*
X1286848Y-7781222D02*
X1286848Y-7885984D01*
X1382086Y-7885984D02*
X1382086Y-7752650D01*
X1382086Y-7771698D02*
X1391610Y-7762174D01*
X1391610Y-7762174D02*
X1410658Y-7752650D01*
X1410658Y-7752650D02*
X1439229Y-7752650D01*
X1439229Y-7752650D02*
X1458277Y-7762174D01*
X1458277Y-7762174D02*
X1467801Y-7781222D01*
X1467801Y-7781222D02*
X1467801Y-7885984D01*
X1467801Y-7781222D02*
X1477324Y-7762174D01*
X1477324Y-7762174D02*
X1496372Y-7752650D01*
X1496372Y-7752650D02*
X1524943Y-7752650D01*
X1524943Y-7752650D02*
X1543991Y-7762174D01*
X1543991Y-7762174D02*
X1553515Y-7781222D01*
X1553515Y-7781222D02*
X1553515Y-7885984D01*
X1943991Y-7676460D02*
X1772563Y-7933603D01*
X2201134Y-7685984D02*
X2220182Y-7685984D01*
X2220182Y-7685984D02*
X2239229Y-7695508D01*
X2239229Y-7695508D02*
X2248753Y-7705031D01*
X2248753Y-7705031D02*
X2258277Y-7724079D01*
X2258277Y-7724079D02*
X2267801Y-7762174D01*
X2267801Y-7762174D02*
X2267801Y-7809793D01*
X2267801Y-7809793D02*
X2258277Y-7847888D01*
X2258277Y-7847888D02*
X2248753Y-7866936D01*
X2248753Y-7866936D02*
X2239229Y-7876460D01*
X2239229Y-7876460D02*
X2220182Y-7885984D01*
X2220182Y-7885984D02*
X2201134Y-7885984D01*
X2201134Y-7885984D02*
X2182087Y-7876460D01*
X2182087Y-7876460D02*
X2172563Y-7866936D01*
X2172563Y-7866936D02*
X2163039Y-7847888D01*
X2163039Y-7847888D02*
X2153515Y-7809793D01*
X2153515Y-7809793D02*
X2153515Y-7762174D01*
X2153515Y-7762174D02*
X2163039Y-7724079D01*
X2163039Y-7724079D02*
X2172563Y-7705031D01*
X2172563Y-7705031D02*
X2182087Y-7695508D01*
X2182087Y-7695508D02*
X2201134Y-7685984D01*
X2353515Y-7866936D02*
X2363039Y-7876460D01*
X2363039Y-7876460D02*
X2353515Y-7885984D01*
X2353515Y-7885984D02*
X2343991Y-7876460D01*
X2343991Y-7876460D02*
X2353515Y-7866936D01*
X2353515Y-7866936D02*
X2353515Y-7885984D01*
X2486848Y-7685984D02*
X2505896Y-7685984D01*
X2505896Y-7685984D02*
X2524944Y-7695508D01*
X2524944Y-7695508D02*
X2534468Y-7705031D01*
X2534468Y-7705031D02*
X2543991Y-7724079D01*
X2543991Y-7724079D02*
X2553515Y-7762174D01*
X2553515Y-7762174D02*
X2553515Y-7809793D01*
X2553515Y-7809793D02*
X2543991Y-7847888D01*
X2543991Y-7847888D02*
X2534468Y-7866936D01*
X2534468Y-7866936D02*
X2524944Y-7876460D01*
X2524944Y-7876460D02*
X2505896Y-7885984D01*
X2505896Y-7885984D02*
X2486848Y-7885984D01*
X2486848Y-7885984D02*
X2467801Y-7876460D01*
X2467801Y-7876460D02*
X2458277Y-7866936D01*
X2458277Y-7866936D02*
X2448753Y-7847888D01*
X2448753Y-7847888D02*
X2439229Y-7809793D01*
X2439229Y-7809793D02*
X2439229Y-7762174D01*
X2439229Y-7762174D02*
X2448753Y-7724079D01*
X2448753Y-7724079D02*
X2458277Y-7705031D01*
X2458277Y-7705031D02*
X2467801Y-7695508D01*
X2467801Y-7695508D02*
X2486848Y-7685984D01*
X2734468Y-7685984D02*
X2639229Y-7685984D01*
X2639229Y-7685984D02*
X2629706Y-7781222D01*
X2629706Y-7781222D02*
X2639229Y-7771698D01*
X2639229Y-7771698D02*
X2658277Y-7762174D01*
X2658277Y-7762174D02*
X2705896Y-7762174D01*
X2705896Y-7762174D02*
X2724944Y-7771698D01*
X2724944Y-7771698D02*
X2734468Y-7781222D01*
X2734468Y-7781222D02*
X2743991Y-7800269D01*
X2743991Y-7800269D02*
X2743991Y-7847888D01*
X2743991Y-7847888D02*
X2734468Y-7866936D01*
X2734468Y-7866936D02*
X2724944Y-7876460D01*
X2724944Y-7876460D02*
X2705896Y-7885984D01*
X2705896Y-7885984D02*
X2658277Y-7885984D01*
X2658277Y-7885984D02*
X2639229Y-7876460D01*
X2639229Y-7876460D02*
X2629706Y-7866936D01*
X2924944Y-7685984D02*
X2829706Y-7685984D01*
X2829706Y-7685984D02*
X2820182Y-7781222D01*
X2820182Y-7781222D02*
X2829706Y-7771698D01*
X2829706Y-7771698D02*
X2848753Y-7762174D01*
X2848753Y-7762174D02*
X2896372Y-7762174D01*
X2896372Y-7762174D02*
X2915420Y-7771698D01*
X2915420Y-7771698D02*
X2924944Y-7781222D01*
X2924944Y-7781222D02*
X2934467Y-7800269D01*
X2934467Y-7800269D02*
X2934467Y-7847888D01*
X2934467Y-7847888D02*
X2924944Y-7866936D01*
X2924944Y-7866936D02*
X2915420Y-7876460D01*
X2915420Y-7876460D02*
X2896372Y-7885984D01*
X2896372Y-7885984D02*
X2848753Y-7885984D01*
X2848753Y-7885984D02*
X2829706Y-7876460D01*
X2829706Y-7876460D02*
X2820182Y-7866936D01*
X3124944Y-7885984D02*
X3010658Y-7885984D01*
X3067801Y-7885984D02*
X3067801Y-7685984D01*
X3067801Y-7685984D02*
X3048753Y-7714555D01*
X3048753Y-7714555D02*
X3029706Y-7733603D01*
X3029706Y-7733603D02*
X3010658Y-7743127D01*
X3201134Y-7685984D02*
X3201134Y-7724079D01*
X3277325Y-7685984D02*
X3277325Y-7724079D01*
X3572563Y-7962174D02*
X3563039Y-7952650D01*
X3563039Y-7952650D02*
X3543991Y-7924079D01*
X3543991Y-7924079D02*
X3534468Y-7905031D01*
X3534468Y-7905031D02*
X3524944Y-7876460D01*
X3524944Y-7876460D02*
X3515420Y-7828841D01*
X3515420Y-7828841D02*
X3515420Y-7790746D01*
X3515420Y-7790746D02*
X3524944Y-7743127D01*
X3524944Y-7743127D02*
X3534468Y-7714555D01*
X3534468Y-7714555D02*
X3543991Y-7695508D01*
X3543991Y-7695508D02*
X3563039Y-7666936D01*
X3563039Y-7666936D02*
X3572563Y-7657412D01*
X3686848Y-7685984D02*
X3705896Y-7685984D01*
X3705896Y-7685984D02*
X3724944Y-7695508D01*
X3724944Y-7695508D02*
X3734468Y-7705031D01*
X3734468Y-7705031D02*
X3743991Y-7724079D01*
X3743991Y-7724079D02*
X3753515Y-7762174D01*
X3753515Y-7762174D02*
X3753515Y-7809793D01*
X3753515Y-7809793D02*
X3743991Y-7847888D01*
X3743991Y-7847888D02*
X3734468Y-7866936D01*
X3734468Y-7866936D02*
X3724944Y-7876460D01*
X3724944Y-7876460D02*
X3705896Y-7885984D01*
X3705896Y-7885984D02*
X3686848Y-7885984D01*
X3686848Y-7885984D02*
X3667801Y-7876460D01*
X3667801Y-7876460D02*
X3658277Y-7866936D01*
X3658277Y-7866936D02*
X3648753Y-7847888D01*
X3648753Y-7847888D02*
X3639229Y-7809793D01*
X3639229Y-7809793D02*
X3639229Y-7762174D01*
X3639229Y-7762174D02*
X3648753Y-7724079D01*
X3648753Y-7724079D02*
X3658277Y-7705031D01*
X3658277Y-7705031D02*
X3667801Y-7695508D01*
X3667801Y-7695508D02*
X3686848Y-7685984D01*
X3991610Y-7885984D02*
X3991610Y-7685984D01*
X4077325Y-7885984D02*
X4077325Y-7781222D01*
X4077325Y-7781222D02*
X4067801Y-7762174D01*
X4067801Y-7762174D02*
X4048753Y-7752650D01*
X4048753Y-7752650D02*
X4020182Y-7752650D01*
X4020182Y-7752650D02*
X4001134Y-7762174D01*
X4001134Y-7762174D02*
X3991610Y-7771698D01*
X4201134Y-7885984D02*
X4182087Y-7876460D01*
X4182087Y-7876460D02*
X4172563Y-7866936D01*
X4172563Y-7866936D02*
X4163039Y-7847888D01*
X4163039Y-7847888D02*
X4163039Y-7790746D01*
X4163039Y-7790746D02*
X4172563Y-7771698D01*
X4172563Y-7771698D02*
X4182087Y-7762174D01*
X4182087Y-7762174D02*
X4201134Y-7752650D01*
X4201134Y-7752650D02*
X4229706Y-7752650D01*
X4229706Y-7752650D02*
X4248753Y-7762174D01*
X4248753Y-7762174D02*
X4258277Y-7771698D01*
X4258277Y-7771698D02*
X4267801Y-7790746D01*
X4267801Y-7790746D02*
X4267801Y-7847888D01*
X4267801Y-7847888D02*
X4258277Y-7866936D01*
X4258277Y-7866936D02*
X4248753Y-7876460D01*
X4248753Y-7876460D02*
X4229706Y-7885984D01*
X4229706Y-7885984D02*
X4201134Y-7885984D01*
X4382087Y-7885984D02*
X4363039Y-7876460D01*
X4363039Y-7876460D02*
X4353515Y-7857412D01*
X4353515Y-7857412D02*
X4353515Y-7685984D01*
X4534468Y-7876460D02*
X4515420Y-7885984D01*
X4515420Y-7885984D02*
X4477325Y-7885984D01*
X4477325Y-7885984D02*
X4458277Y-7876460D01*
X4458277Y-7876460D02*
X4448753Y-7857412D01*
X4448753Y-7857412D02*
X4448753Y-7781222D01*
X4448753Y-7781222D02*
X4458277Y-7762174D01*
X4458277Y-7762174D02*
X4477325Y-7752650D01*
X4477325Y-7752650D02*
X4515420Y-7752650D01*
X4515420Y-7752650D02*
X4534468Y-7762174D01*
X4534468Y-7762174D02*
X4543992Y-7781222D01*
X4543992Y-7781222D02*
X4543992Y-7800269D01*
X4543992Y-7800269D02*
X4448753Y-7819317D01*
X4620182Y-7876460D02*
X4639230Y-7885984D01*
X4639230Y-7885984D02*
X4677325Y-7885984D01*
X4677325Y-7885984D02*
X4696373Y-7876460D01*
X4696373Y-7876460D02*
X4705896Y-7857412D01*
X4705896Y-7857412D02*
X4705896Y-7847888D01*
X4705896Y-7847888D02*
X4696373Y-7828841D01*
X4696373Y-7828841D02*
X4677325Y-7819317D01*
X4677325Y-7819317D02*
X4648753Y-7819317D01*
X4648753Y-7819317D02*
X4629706Y-7809793D01*
X4629706Y-7809793D02*
X4620182Y-7790746D01*
X4620182Y-7790746D02*
X4620182Y-7781222D01*
X4620182Y-7781222D02*
X4629706Y-7762174D01*
X4629706Y-7762174D02*
X4648753Y-7752650D01*
X4648753Y-7752650D02*
X4677325Y-7752650D01*
X4677325Y-7752650D02*
X4696373Y-7762174D01*
X4943992Y-7809793D02*
X5096373Y-7809793D01*
X5020182Y-7885984D02*
X5020182Y-7733603D01*
X5372563Y-7771698D02*
X5353515Y-7762174D01*
X5353515Y-7762174D02*
X5343992Y-7752650D01*
X5343992Y-7752650D02*
X5334468Y-7733603D01*
X5334468Y-7733603D02*
X5334468Y-7724079D01*
X5334468Y-7724079D02*
X5343992Y-7705031D01*
X5343992Y-7705031D02*
X5353515Y-7695508D01*
X5353515Y-7695508D02*
X5372563Y-7685984D01*
X5372563Y-7685984D02*
X5410658Y-7685984D01*
X5410658Y-7685984D02*
X5429706Y-7695508D01*
X5429706Y-7695508D02*
X5439230Y-7705031D01*
X5439230Y-7705031D02*
X5448754Y-7724079D01*
X5448754Y-7724079D02*
X5448754Y-7733603D01*
X5448754Y-7733603D02*
X5439230Y-7752650D01*
X5439230Y-7752650D02*
X5429706Y-7762174D01*
X5429706Y-7762174D02*
X5410658Y-7771698D01*
X5410658Y-7771698D02*
X5372563Y-7771698D01*
X5372563Y-7771698D02*
X5353515Y-7781222D01*
X5353515Y-7781222D02*
X5343992Y-7790746D01*
X5343992Y-7790746D02*
X5334468Y-7809793D01*
X5334468Y-7809793D02*
X5334468Y-7847888D01*
X5334468Y-7847888D02*
X5343992Y-7866936D01*
X5343992Y-7866936D02*
X5353515Y-7876460D01*
X5353515Y-7876460D02*
X5372563Y-7885984D01*
X5372563Y-7885984D02*
X5410658Y-7885984D01*
X5410658Y-7885984D02*
X5429706Y-7876460D01*
X5429706Y-7876460D02*
X5439230Y-7866936D01*
X5439230Y-7866936D02*
X5448754Y-7847888D01*
X5448754Y-7847888D02*
X5448754Y-7809793D01*
X5448754Y-7809793D02*
X5439230Y-7790746D01*
X5439230Y-7790746D02*
X5429706Y-7781222D01*
X5429706Y-7781222D02*
X5410658Y-7771698D01*
X5677325Y-7876460D02*
X5696373Y-7885984D01*
X5696373Y-7885984D02*
X5734468Y-7885984D01*
X5734468Y-7885984D02*
X5753515Y-7876460D01*
X5753515Y-7876460D02*
X5763039Y-7857412D01*
X5763039Y-7857412D02*
X5763039Y-7847888D01*
X5763039Y-7847888D02*
X5753515Y-7828841D01*
X5753515Y-7828841D02*
X5734468Y-7819317D01*
X5734468Y-7819317D02*
X5705896Y-7819317D01*
X5705896Y-7819317D02*
X5686849Y-7809793D01*
X5686849Y-7809793D02*
X5677325Y-7790746D01*
X5677325Y-7790746D02*
X5677325Y-7781222D01*
X5677325Y-7781222D02*
X5686849Y-7762174D01*
X5686849Y-7762174D02*
X5705896Y-7752650D01*
X5705896Y-7752650D02*
X5734468Y-7752650D01*
X5734468Y-7752650D02*
X5753515Y-7762174D01*
X5877325Y-7885984D02*
X5858277Y-7876460D01*
X5858277Y-7876460D02*
X5848754Y-7857412D01*
X5848754Y-7857412D02*
X5848754Y-7685984D01*
X5982087Y-7885984D02*
X5963039Y-7876460D01*
X5963039Y-7876460D02*
X5953515Y-7866936D01*
X5953515Y-7866936D02*
X5943992Y-7847888D01*
X5943992Y-7847888D02*
X5943992Y-7790746D01*
X5943992Y-7790746D02*
X5953515Y-7771698D01*
X5953515Y-7771698D02*
X5963039Y-7762174D01*
X5963039Y-7762174D02*
X5982087Y-7752650D01*
X5982087Y-7752650D02*
X6010658Y-7752650D01*
X6010658Y-7752650D02*
X6029706Y-7762174D01*
X6029706Y-7762174D02*
X6039230Y-7771698D01*
X6039230Y-7771698D02*
X6048754Y-7790746D01*
X6048754Y-7790746D02*
X6048754Y-7847888D01*
X6048754Y-7847888D02*
X6039230Y-7866936D01*
X6039230Y-7866936D02*
X6029706Y-7876460D01*
X6029706Y-7876460D02*
X6010658Y-7885984D01*
X6010658Y-7885984D02*
X5982087Y-7885984D01*
X6105896Y-7752650D02*
X6182087Y-7752650D01*
X6134468Y-7685984D02*
X6134468Y-7857412D01*
X6134468Y-7857412D02*
X6143992Y-7876460D01*
X6143992Y-7876460D02*
X6163039Y-7885984D01*
X6163039Y-7885984D02*
X6182087Y-7885984D01*
X6239230Y-7876460D02*
X6258277Y-7885984D01*
X6258277Y-7885984D02*
X6296373Y-7885984D01*
X6296373Y-7885984D02*
X6315420Y-7876460D01*
X6315420Y-7876460D02*
X6324944Y-7857412D01*
X6324944Y-7857412D02*
X6324944Y-7847888D01*
X6324944Y-7847888D02*
X6315420Y-7828841D01*
X6315420Y-7828841D02*
X6296373Y-7819317D01*
X6296373Y-7819317D02*
X6267801Y-7819317D01*
X6267801Y-7819317D02*
X6248754Y-7809793D01*
X6248754Y-7809793D02*
X6239230Y-7790746D01*
X6239230Y-7790746D02*
X6239230Y-7781222D01*
X6239230Y-7781222D02*
X6248754Y-7762174D01*
X6248754Y-7762174D02*
X6267801Y-7752650D01*
X6267801Y-7752650D02*
X6296373Y-7752650D01*
X6296373Y-7752650D02*
X6315420Y-7762174D01*
X6391611Y-7962174D02*
X6401135Y-7952650D01*
X6401135Y-7952650D02*
X6420182Y-7924079D01*
X6420182Y-7924079D02*
X6429706Y-7905031D01*
X6429706Y-7905031D02*
X6439230Y-7876460D01*
X6439230Y-7876460D02*
X6448754Y-7828841D01*
X6448754Y-7828841D02*
X6448754Y-7790746D01*
X6448754Y-7790746D02*
X6439230Y-7743127D01*
X6439230Y-7743127D02*
X6429706Y-7714555D01*
X6429706Y-7714555D02*
X6420182Y-7695508D01*
X6420182Y-7695508D02*
X6401135Y-7666936D01*
X6401135Y-7666936D02*
X6391611Y-7657412D01*
D14*
X-154500Y-7982500D02*
X-2500Y-8134500D01*
X-2500Y-7982500D02*
X-154500Y-8134500D01*
X-2500Y-8058500D02*
G75*
G02*
X-154500Y-8058500I-76000J0D01*
G01*
X-154500Y-8058500D02*
G75*
G02*
X-2500Y-8058500I76000J0D01*
G01*
D11*
X363039Y-8149984D02*
X248753Y-8149984D01*
X305896Y-8149984D02*
X305896Y-7949984D01*
X305896Y-7949984D02*
X286848Y-7978555D01*
X286848Y-7978555D02*
X267801Y-7997603D01*
X267801Y-7997603D02*
X248753Y-8007127D01*
X448753Y-8130936D02*
X458277Y-8140460D01*
X458277Y-8140460D02*
X448753Y-8149984D01*
X448753Y-8149984D02*
X439229Y-8140460D01*
X439229Y-8140460D02*
X448753Y-8130936D01*
X448753Y-8130936D02*
X448753Y-8149984D01*
X639229Y-7949984D02*
X543991Y-7949984D01*
X543991Y-7949984D02*
X534467Y-8045222D01*
X534467Y-8045222D02*
X543991Y-8035698D01*
X543991Y-8035698D02*
X563039Y-8026174D01*
X563039Y-8026174D02*
X610658Y-8026174D01*
X610658Y-8026174D02*
X629705Y-8035698D01*
X629705Y-8035698D02*
X639229Y-8045222D01*
X639229Y-8045222D02*
X648753Y-8064269D01*
X648753Y-8064269D02*
X648753Y-8111888D01*
X648753Y-8111888D02*
X639229Y-8130936D01*
X639229Y-8130936D02*
X629705Y-8140460D01*
X629705Y-8140460D02*
X610658Y-8149984D01*
X610658Y-8149984D02*
X563039Y-8149984D01*
X563039Y-8149984D02*
X543991Y-8140460D01*
X543991Y-8140460D02*
X534467Y-8130936D01*
X724943Y-7969031D02*
X734467Y-7959508D01*
X734467Y-7959508D02*
X753515Y-7949984D01*
X753515Y-7949984D02*
X801134Y-7949984D01*
X801134Y-7949984D02*
X820182Y-7959508D01*
X820182Y-7959508D02*
X829705Y-7969031D01*
X829705Y-7969031D02*
X839229Y-7988079D01*
X839229Y-7988079D02*
X839229Y-8007127D01*
X839229Y-8007127D02*
X829705Y-8035698D01*
X829705Y-8035698D02*
X715420Y-8149984D01*
X715420Y-8149984D02*
X839229Y-8149984D01*
X963039Y-7949984D02*
X982086Y-7949984D01*
X982086Y-7949984D02*
X1001134Y-7959508D01*
X1001134Y-7959508D02*
X1010658Y-7969031D01*
X1010658Y-7969031D02*
X1020182Y-7988079D01*
X1020182Y-7988079D02*
X1029705Y-8026174D01*
X1029705Y-8026174D02*
X1029705Y-8073793D01*
X1029705Y-8073793D02*
X1020182Y-8111888D01*
X1020182Y-8111888D02*
X1010658Y-8130936D01*
X1010658Y-8130936D02*
X1001134Y-8140460D01*
X1001134Y-8140460D02*
X982086Y-8149984D01*
X982086Y-8149984D02*
X963039Y-8149984D01*
X963039Y-8149984D02*
X943991Y-8140460D01*
X943991Y-8140460D02*
X934467Y-8130936D01*
X934467Y-8130936D02*
X924943Y-8111888D01*
X924943Y-8111888D02*
X915420Y-8073793D01*
X915420Y-8073793D02*
X915420Y-8026174D01*
X915420Y-8026174D02*
X924943Y-7988079D01*
X924943Y-7988079D02*
X934467Y-7969031D01*
X934467Y-7969031D02*
X943991Y-7959508D01*
X943991Y-7959508D02*
X963039Y-7949984D01*
X1115420Y-8149984D02*
X1115420Y-8016650D01*
X1115420Y-8035698D02*
X1124944Y-8026174D01*
X1124944Y-8026174D02*
X1143991Y-8016650D01*
X1143991Y-8016650D02*
X1172563Y-8016650D01*
X1172563Y-8016650D02*
X1191610Y-8026174D01*
X1191610Y-8026174D02*
X1201134Y-8045222D01*
X1201134Y-8045222D02*
X1201134Y-8149984D01*
X1201134Y-8045222D02*
X1210658Y-8026174D01*
X1210658Y-8026174D02*
X1229705Y-8016650D01*
X1229705Y-8016650D02*
X1258277Y-8016650D01*
X1258277Y-8016650D02*
X1277325Y-8026174D01*
X1277325Y-8026174D02*
X1286848Y-8045222D01*
X1286848Y-8045222D02*
X1286848Y-8149984D01*
X1382086Y-8149984D02*
X1382086Y-8016650D01*
X1382086Y-8035698D02*
X1391610Y-8026174D01*
X1391610Y-8026174D02*
X1410658Y-8016650D01*
X1410658Y-8016650D02*
X1439229Y-8016650D01*
X1439229Y-8016650D02*
X1458277Y-8026174D01*
X1458277Y-8026174D02*
X1467801Y-8045222D01*
X1467801Y-8045222D02*
X1467801Y-8149984D01*
X1467801Y-8045222D02*
X1477324Y-8026174D01*
X1477324Y-8026174D02*
X1496372Y-8016650D01*
X1496372Y-8016650D02*
X1524943Y-8016650D01*
X1524943Y-8016650D02*
X1543991Y-8026174D01*
X1543991Y-8026174D02*
X1553515Y-8045222D01*
X1553515Y-8045222D02*
X1553515Y-8149984D01*
X1943991Y-7940460D02*
X1772563Y-8197603D01*
X2201134Y-7949984D02*
X2220182Y-7949984D01*
X2220182Y-7949984D02*
X2239229Y-7959508D01*
X2239229Y-7959508D02*
X2248753Y-7969031D01*
X2248753Y-7969031D02*
X2258277Y-7988079D01*
X2258277Y-7988079D02*
X2267801Y-8026174D01*
X2267801Y-8026174D02*
X2267801Y-8073793D01*
X2267801Y-8073793D02*
X2258277Y-8111888D01*
X2258277Y-8111888D02*
X2248753Y-8130936D01*
X2248753Y-8130936D02*
X2239229Y-8140460D01*
X2239229Y-8140460D02*
X2220182Y-8149984D01*
X2220182Y-8149984D02*
X2201134Y-8149984D01*
X2201134Y-8149984D02*
X2182087Y-8140460D01*
X2182087Y-8140460D02*
X2172563Y-8130936D01*
X2172563Y-8130936D02*
X2163039Y-8111888D01*
X2163039Y-8111888D02*
X2153515Y-8073793D01*
X2153515Y-8073793D02*
X2153515Y-8026174D01*
X2153515Y-8026174D02*
X2163039Y-7988079D01*
X2163039Y-7988079D02*
X2172563Y-7969031D01*
X2172563Y-7969031D02*
X2182087Y-7959508D01*
X2182087Y-7959508D02*
X2201134Y-7949984D01*
X2353515Y-8130936D02*
X2363039Y-8140460D01*
X2363039Y-8140460D02*
X2353515Y-8149984D01*
X2353515Y-8149984D02*
X2343991Y-8140460D01*
X2343991Y-8140460D02*
X2353515Y-8130936D01*
X2353515Y-8130936D02*
X2353515Y-8149984D01*
X2486848Y-7949984D02*
X2505896Y-7949984D01*
X2505896Y-7949984D02*
X2524944Y-7959508D01*
X2524944Y-7959508D02*
X2534468Y-7969031D01*
X2534468Y-7969031D02*
X2543991Y-7988079D01*
X2543991Y-7988079D02*
X2553515Y-8026174D01*
X2553515Y-8026174D02*
X2553515Y-8073793D01*
X2553515Y-8073793D02*
X2543991Y-8111888D01*
X2543991Y-8111888D02*
X2534468Y-8130936D01*
X2534468Y-8130936D02*
X2524944Y-8140460D01*
X2524944Y-8140460D02*
X2505896Y-8149984D01*
X2505896Y-8149984D02*
X2486848Y-8149984D01*
X2486848Y-8149984D02*
X2467801Y-8140460D01*
X2467801Y-8140460D02*
X2458277Y-8130936D01*
X2458277Y-8130936D02*
X2448753Y-8111888D01*
X2448753Y-8111888D02*
X2439229Y-8073793D01*
X2439229Y-8073793D02*
X2439229Y-8026174D01*
X2439229Y-8026174D02*
X2448753Y-7988079D01*
X2448753Y-7988079D02*
X2458277Y-7969031D01*
X2458277Y-7969031D02*
X2467801Y-7959508D01*
X2467801Y-7959508D02*
X2486848Y-7949984D01*
X2734468Y-7949984D02*
X2639229Y-7949984D01*
X2639229Y-7949984D02*
X2629706Y-8045222D01*
X2629706Y-8045222D02*
X2639229Y-8035698D01*
X2639229Y-8035698D02*
X2658277Y-8026174D01*
X2658277Y-8026174D02*
X2705896Y-8026174D01*
X2705896Y-8026174D02*
X2724944Y-8035698D01*
X2724944Y-8035698D02*
X2734468Y-8045222D01*
X2734468Y-8045222D02*
X2743991Y-8064269D01*
X2743991Y-8064269D02*
X2743991Y-8111888D01*
X2743991Y-8111888D02*
X2734468Y-8130936D01*
X2734468Y-8130936D02*
X2724944Y-8140460D01*
X2724944Y-8140460D02*
X2705896Y-8149984D01*
X2705896Y-8149984D02*
X2658277Y-8149984D01*
X2658277Y-8149984D02*
X2639229Y-8140460D01*
X2639229Y-8140460D02*
X2629706Y-8130936D01*
X2839229Y-8149984D02*
X2877325Y-8149984D01*
X2877325Y-8149984D02*
X2896372Y-8140460D01*
X2896372Y-8140460D02*
X2905896Y-8130936D01*
X2905896Y-8130936D02*
X2924944Y-8102365D01*
X2924944Y-8102365D02*
X2934467Y-8064269D01*
X2934467Y-8064269D02*
X2934467Y-7988079D01*
X2934467Y-7988079D02*
X2924944Y-7969031D01*
X2924944Y-7969031D02*
X2915420Y-7959508D01*
X2915420Y-7959508D02*
X2896372Y-7949984D01*
X2896372Y-7949984D02*
X2858277Y-7949984D01*
X2858277Y-7949984D02*
X2839229Y-7959508D01*
X2839229Y-7959508D02*
X2829706Y-7969031D01*
X2829706Y-7969031D02*
X2820182Y-7988079D01*
X2820182Y-7988079D02*
X2820182Y-8035698D01*
X2820182Y-8035698D02*
X2829706Y-8054746D01*
X2829706Y-8054746D02*
X2839229Y-8064269D01*
X2839229Y-8064269D02*
X2858277Y-8073793D01*
X2858277Y-8073793D02*
X2896372Y-8073793D01*
X2896372Y-8073793D02*
X2915420Y-8064269D01*
X2915420Y-8064269D02*
X2924944Y-8054746D01*
X2924944Y-8054746D02*
X2934467Y-8035698D01*
X3048753Y-8035698D02*
X3029706Y-8026174D01*
X3029706Y-8026174D02*
X3020182Y-8016650D01*
X3020182Y-8016650D02*
X3010658Y-7997603D01*
X3010658Y-7997603D02*
X3010658Y-7988079D01*
X3010658Y-7988079D02*
X3020182Y-7969031D01*
X3020182Y-7969031D02*
X3029706Y-7959508D01*
X3029706Y-7959508D02*
X3048753Y-7949984D01*
X3048753Y-7949984D02*
X3086848Y-7949984D01*
X3086848Y-7949984D02*
X3105896Y-7959508D01*
X3105896Y-7959508D02*
X3115420Y-7969031D01*
X3115420Y-7969031D02*
X3124944Y-7988079D01*
X3124944Y-7988079D02*
X3124944Y-7997603D01*
X3124944Y-7997603D02*
X3115420Y-8016650D01*
X3115420Y-8016650D02*
X3105896Y-8026174D01*
X3105896Y-8026174D02*
X3086848Y-8035698D01*
X3086848Y-8035698D02*
X3048753Y-8035698D01*
X3048753Y-8035698D02*
X3029706Y-8045222D01*
X3029706Y-8045222D02*
X3020182Y-8054746D01*
X3020182Y-8054746D02*
X3010658Y-8073793D01*
X3010658Y-8073793D02*
X3010658Y-8111888D01*
X3010658Y-8111888D02*
X3020182Y-8130936D01*
X3020182Y-8130936D02*
X3029706Y-8140460D01*
X3029706Y-8140460D02*
X3048753Y-8149984D01*
X3048753Y-8149984D02*
X3086848Y-8149984D01*
X3086848Y-8149984D02*
X3105896Y-8140460D01*
X3105896Y-8140460D02*
X3115420Y-8130936D01*
X3115420Y-8130936D02*
X3124944Y-8111888D01*
X3124944Y-8111888D02*
X3124944Y-8073793D01*
X3124944Y-8073793D02*
X3115420Y-8054746D01*
X3115420Y-8054746D02*
X3105896Y-8045222D01*
X3105896Y-8045222D02*
X3086848Y-8035698D01*
X3201134Y-7949984D02*
X3201134Y-7988079D01*
X3277325Y-7949984D02*
X3277325Y-7988079D01*
X3572563Y-8226174D02*
X3563039Y-8216650D01*
X3563039Y-8216650D02*
X3543991Y-8188079D01*
X3543991Y-8188079D02*
X3534468Y-8169031D01*
X3534468Y-8169031D02*
X3524944Y-8140460D01*
X3524944Y-8140460D02*
X3515420Y-8092841D01*
X3515420Y-8092841D02*
X3515420Y-8054746D01*
X3515420Y-8054746D02*
X3524944Y-8007127D01*
X3524944Y-8007127D02*
X3534468Y-7978555D01*
X3534468Y-7978555D02*
X3543991Y-7959508D01*
X3543991Y-7959508D02*
X3563039Y-7930936D01*
X3563039Y-7930936D02*
X3572563Y-7921412D01*
X3753515Y-8149984D02*
X3639229Y-8149984D01*
X3696372Y-8149984D02*
X3696372Y-7949984D01*
X3696372Y-7949984D02*
X3677325Y-7978555D01*
X3677325Y-7978555D02*
X3658277Y-7997603D01*
X3658277Y-7997603D02*
X3639229Y-8007127D01*
X3924944Y-7949984D02*
X3886848Y-7949984D01*
X3886848Y-7949984D02*
X3867801Y-7959508D01*
X3867801Y-7959508D02*
X3858277Y-7969031D01*
X3858277Y-7969031D02*
X3839229Y-7997603D01*
X3839229Y-7997603D02*
X3829706Y-8035698D01*
X3829706Y-8035698D02*
X3829706Y-8111888D01*
X3829706Y-8111888D02*
X3839229Y-8130936D01*
X3839229Y-8130936D02*
X3848753Y-8140460D01*
X3848753Y-8140460D02*
X3867801Y-8149984D01*
X3867801Y-8149984D02*
X3905896Y-8149984D01*
X3905896Y-8149984D02*
X3924944Y-8140460D01*
X3924944Y-8140460D02*
X3934468Y-8130936D01*
X3934468Y-8130936D02*
X3943991Y-8111888D01*
X3943991Y-8111888D02*
X3943991Y-8064269D01*
X3943991Y-8064269D02*
X3934468Y-8045222D01*
X3934468Y-8045222D02*
X3924944Y-8035698D01*
X3924944Y-8035698D02*
X3905896Y-8026174D01*
X3905896Y-8026174D02*
X3867801Y-8026174D01*
X3867801Y-8026174D02*
X3848753Y-8035698D01*
X3848753Y-8035698D02*
X3839229Y-8045222D01*
X3839229Y-8045222D02*
X3829706Y-8064269D01*
X4182087Y-8149984D02*
X4182087Y-7949984D01*
X4267801Y-8149984D02*
X4267801Y-8045222D01*
X4267801Y-8045222D02*
X4258277Y-8026174D01*
X4258277Y-8026174D02*
X4239230Y-8016650D01*
X4239230Y-8016650D02*
X4210658Y-8016650D01*
X4210658Y-8016650D02*
X4191610Y-8026174D01*
X4191610Y-8026174D02*
X4182087Y-8035698D01*
X4391611Y-8149984D02*
X4372563Y-8140460D01*
X4372563Y-8140460D02*
X4363039Y-8130936D01*
X4363039Y-8130936D02*
X4353515Y-8111888D01*
X4353515Y-8111888D02*
X4353515Y-8054746D01*
X4353515Y-8054746D02*
X4363039Y-8035698D01*
X4363039Y-8035698D02*
X4372563Y-8026174D01*
X4372563Y-8026174D02*
X4391611Y-8016650D01*
X4391611Y-8016650D02*
X4420182Y-8016650D01*
X4420182Y-8016650D02*
X4439230Y-8026174D01*
X4439230Y-8026174D02*
X4448753Y-8035698D01*
X4448753Y-8035698D02*
X4458277Y-8054746D01*
X4458277Y-8054746D02*
X4458277Y-8111888D01*
X4458277Y-8111888D02*
X4448753Y-8130936D01*
X4448753Y-8130936D02*
X4439230Y-8140460D01*
X4439230Y-8140460D02*
X4420182Y-8149984D01*
X4420182Y-8149984D02*
X4391611Y-8149984D01*
X4572563Y-8149984D02*
X4553515Y-8140460D01*
X4553515Y-8140460D02*
X4543992Y-8121412D01*
X4543992Y-8121412D02*
X4543992Y-7949984D01*
X4724944Y-8140460D02*
X4705896Y-8149984D01*
X4705896Y-8149984D02*
X4667801Y-8149984D01*
X4667801Y-8149984D02*
X4648753Y-8140460D01*
X4648753Y-8140460D02*
X4639230Y-8121412D01*
X4639230Y-8121412D02*
X4639230Y-8045222D01*
X4639230Y-8045222D02*
X4648753Y-8026174D01*
X4648753Y-8026174D02*
X4667801Y-8016650D01*
X4667801Y-8016650D02*
X4705896Y-8016650D01*
X4705896Y-8016650D02*
X4724944Y-8026174D01*
X4724944Y-8026174D02*
X4734468Y-8045222D01*
X4734468Y-8045222D02*
X4734468Y-8064269D01*
X4734468Y-8064269D02*
X4639230Y-8083317D01*
X4810658Y-8140460D02*
X4829706Y-8149984D01*
X4829706Y-8149984D02*
X4867801Y-8149984D01*
X4867801Y-8149984D02*
X4886849Y-8140460D01*
X4886849Y-8140460D02*
X4896373Y-8121412D01*
X4896373Y-8121412D02*
X4896373Y-8111888D01*
X4896373Y-8111888D02*
X4886849Y-8092841D01*
X4886849Y-8092841D02*
X4867801Y-8083317D01*
X4867801Y-8083317D02*
X4839230Y-8083317D01*
X4839230Y-8083317D02*
X4820182Y-8073793D01*
X4820182Y-8073793D02*
X4810658Y-8054746D01*
X4810658Y-8054746D02*
X4810658Y-8045222D01*
X4810658Y-8045222D02*
X4820182Y-8026174D01*
X4820182Y-8026174D02*
X4839230Y-8016650D01*
X4839230Y-8016650D02*
X4867801Y-8016650D01*
X4867801Y-8016650D02*
X4886849Y-8026174D01*
X4963039Y-8226174D02*
X4972563Y-8216650D01*
X4972563Y-8216650D02*
X4991611Y-8188079D01*
X4991611Y-8188079D02*
X5001134Y-8169031D01*
X5001134Y-8169031D02*
X5010658Y-8140460D01*
X5010658Y-8140460D02*
X5020182Y-8092841D01*
X5020182Y-8092841D02*
X5020182Y-8054746D01*
X5020182Y-8054746D02*
X5010658Y-8007127D01*
X5010658Y-8007127D02*
X5001134Y-7978555D01*
X5001134Y-7978555D02*
X4991611Y-7959508D01*
X4991611Y-7959508D02*
X4972563Y-7930936D01*
X4972563Y-7930936D02*
X4963039Y-7921412D01*
X-202500Y-8230500D02*
X-2500Y-8430500D01*
X-2500Y-8230500D02*
X-202500Y-8430500D01*
X-102500Y-8230500D02*
X-102500Y-8430500D01*
X-202500Y-8330500D02*
X-2500Y-8330500D01*
X239229Y-8221984D02*
X363039Y-8221984D01*
X363039Y-8221984D02*
X296372Y-8298174D01*
X296372Y-8298174D02*
X324944Y-8298174D01*
X324944Y-8298174D02*
X343991Y-8307698D01*
X343991Y-8307698D02*
X353515Y-8317222D01*
X353515Y-8317222D02*
X363039Y-8336269D01*
X363039Y-8336269D02*
X363039Y-8383888D01*
X363039Y-8383888D02*
X353515Y-8402936D01*
X353515Y-8402936D02*
X343991Y-8412460D01*
X343991Y-8412460D02*
X324944Y-8421984D01*
X324944Y-8421984D02*
X267801Y-8421984D01*
X267801Y-8421984D02*
X248753Y-8412460D01*
X248753Y-8412460D02*
X239229Y-8402936D01*
X448753Y-8402936D02*
X458277Y-8412460D01*
X458277Y-8412460D02*
X448753Y-8421984D01*
X448753Y-8421984D02*
X439229Y-8412460D01*
X439229Y-8412460D02*
X448753Y-8402936D01*
X448753Y-8402936D02*
X448753Y-8421984D01*
X534467Y-8241031D02*
X543991Y-8231508D01*
X543991Y-8231508D02*
X563039Y-8221984D01*
X563039Y-8221984D02*
X610658Y-8221984D01*
X610658Y-8221984D02*
X629705Y-8231508D01*
X629705Y-8231508D02*
X639229Y-8241031D01*
X639229Y-8241031D02*
X648753Y-8260079D01*
X648753Y-8260079D02*
X648753Y-8279127D01*
X648753Y-8279127D02*
X639229Y-8307698D01*
X639229Y-8307698D02*
X524944Y-8421984D01*
X524944Y-8421984D02*
X648753Y-8421984D01*
X772562Y-8221984D02*
X791610Y-8221984D01*
X791610Y-8221984D02*
X810658Y-8231508D01*
X810658Y-8231508D02*
X820182Y-8241031D01*
X820182Y-8241031D02*
X829705Y-8260079D01*
X829705Y-8260079D02*
X839229Y-8298174D01*
X839229Y-8298174D02*
X839229Y-8345793D01*
X839229Y-8345793D02*
X829705Y-8383888D01*
X829705Y-8383888D02*
X820182Y-8402936D01*
X820182Y-8402936D02*
X810658Y-8412460D01*
X810658Y-8412460D02*
X791610Y-8421984D01*
X791610Y-8421984D02*
X772562Y-8421984D01*
X772562Y-8421984D02*
X753515Y-8412460D01*
X753515Y-8412460D02*
X743991Y-8402936D01*
X743991Y-8402936D02*
X734467Y-8383888D01*
X734467Y-8383888D02*
X724943Y-8345793D01*
X724943Y-8345793D02*
X724943Y-8298174D01*
X724943Y-8298174D02*
X734467Y-8260079D01*
X734467Y-8260079D02*
X743991Y-8241031D01*
X743991Y-8241031D02*
X753515Y-8231508D01*
X753515Y-8231508D02*
X772562Y-8221984D01*
X963039Y-8221984D02*
X982086Y-8221984D01*
X982086Y-8221984D02*
X1001134Y-8231508D01*
X1001134Y-8231508D02*
X1010658Y-8241031D01*
X1010658Y-8241031D02*
X1020182Y-8260079D01*
X1020182Y-8260079D02*
X1029705Y-8298174D01*
X1029705Y-8298174D02*
X1029705Y-8345793D01*
X1029705Y-8345793D02*
X1020182Y-8383888D01*
X1020182Y-8383888D02*
X1010658Y-8402936D01*
X1010658Y-8402936D02*
X1001134Y-8412460D01*
X1001134Y-8412460D02*
X982086Y-8421984D01*
X982086Y-8421984D02*
X963039Y-8421984D01*
X963039Y-8421984D02*
X943991Y-8412460D01*
X943991Y-8412460D02*
X934467Y-8402936D01*
X934467Y-8402936D02*
X924943Y-8383888D01*
X924943Y-8383888D02*
X915420Y-8345793D01*
X915420Y-8345793D02*
X915420Y-8298174D01*
X915420Y-8298174D02*
X924943Y-8260079D01*
X924943Y-8260079D02*
X934467Y-8241031D01*
X934467Y-8241031D02*
X943991Y-8231508D01*
X943991Y-8231508D02*
X963039Y-8221984D01*
X1115420Y-8421984D02*
X1115420Y-8288650D01*
X1115420Y-8307698D02*
X1124944Y-8298174D01*
X1124944Y-8298174D02*
X1143991Y-8288650D01*
X1143991Y-8288650D02*
X1172563Y-8288650D01*
X1172563Y-8288650D02*
X1191610Y-8298174D01*
X1191610Y-8298174D02*
X1201134Y-8317222D01*
X1201134Y-8317222D02*
X1201134Y-8421984D01*
X1201134Y-8317222D02*
X1210658Y-8298174D01*
X1210658Y-8298174D02*
X1229705Y-8288650D01*
X1229705Y-8288650D02*
X1258277Y-8288650D01*
X1258277Y-8288650D02*
X1277325Y-8298174D01*
X1277325Y-8298174D02*
X1286848Y-8317222D01*
X1286848Y-8317222D02*
X1286848Y-8421984D01*
X1382086Y-8421984D02*
X1382086Y-8288650D01*
X1382086Y-8307698D02*
X1391610Y-8298174D01*
X1391610Y-8298174D02*
X1410658Y-8288650D01*
X1410658Y-8288650D02*
X1439229Y-8288650D01*
X1439229Y-8288650D02*
X1458277Y-8298174D01*
X1458277Y-8298174D02*
X1467801Y-8317222D01*
X1467801Y-8317222D02*
X1467801Y-8421984D01*
X1467801Y-8317222D02*
X1477324Y-8298174D01*
X1477324Y-8298174D02*
X1496372Y-8288650D01*
X1496372Y-8288650D02*
X1524943Y-8288650D01*
X1524943Y-8288650D02*
X1543991Y-8298174D01*
X1543991Y-8298174D02*
X1553515Y-8317222D01*
X1553515Y-8317222D02*
X1553515Y-8421984D01*
X1943991Y-8212460D02*
X1772563Y-8469603D01*
X2201134Y-8221984D02*
X2220182Y-8221984D01*
X2220182Y-8221984D02*
X2239229Y-8231508D01*
X2239229Y-8231508D02*
X2248753Y-8241031D01*
X2248753Y-8241031D02*
X2258277Y-8260079D01*
X2258277Y-8260079D02*
X2267801Y-8298174D01*
X2267801Y-8298174D02*
X2267801Y-8345793D01*
X2267801Y-8345793D02*
X2258277Y-8383888D01*
X2258277Y-8383888D02*
X2248753Y-8402936D01*
X2248753Y-8402936D02*
X2239229Y-8412460D01*
X2239229Y-8412460D02*
X2220182Y-8421984D01*
X2220182Y-8421984D02*
X2201134Y-8421984D01*
X2201134Y-8421984D02*
X2182087Y-8412460D01*
X2182087Y-8412460D02*
X2172563Y-8402936D01*
X2172563Y-8402936D02*
X2163039Y-8383888D01*
X2163039Y-8383888D02*
X2153515Y-8345793D01*
X2153515Y-8345793D02*
X2153515Y-8298174D01*
X2153515Y-8298174D02*
X2163039Y-8260079D01*
X2163039Y-8260079D02*
X2172563Y-8241031D01*
X2172563Y-8241031D02*
X2182087Y-8231508D01*
X2182087Y-8231508D02*
X2201134Y-8221984D01*
X2353515Y-8402936D02*
X2363039Y-8412460D01*
X2363039Y-8412460D02*
X2353515Y-8421984D01*
X2353515Y-8421984D02*
X2343991Y-8412460D01*
X2343991Y-8412460D02*
X2353515Y-8402936D01*
X2353515Y-8402936D02*
X2353515Y-8421984D01*
X2553515Y-8421984D02*
X2439229Y-8421984D01*
X2496372Y-8421984D02*
X2496372Y-8221984D01*
X2496372Y-8221984D02*
X2477325Y-8250555D01*
X2477325Y-8250555D02*
X2458277Y-8269603D01*
X2458277Y-8269603D02*
X2439229Y-8279127D01*
X2629706Y-8241031D02*
X2639229Y-8231508D01*
X2639229Y-8231508D02*
X2658277Y-8221984D01*
X2658277Y-8221984D02*
X2705896Y-8221984D01*
X2705896Y-8221984D02*
X2724944Y-8231508D01*
X2724944Y-8231508D02*
X2734468Y-8241031D01*
X2734468Y-8241031D02*
X2743991Y-8260079D01*
X2743991Y-8260079D02*
X2743991Y-8279127D01*
X2743991Y-8279127D02*
X2734468Y-8307698D01*
X2734468Y-8307698D02*
X2620182Y-8421984D01*
X2620182Y-8421984D02*
X2743991Y-8421984D01*
X2915420Y-8221984D02*
X2877325Y-8221984D01*
X2877325Y-8221984D02*
X2858277Y-8231508D01*
X2858277Y-8231508D02*
X2848753Y-8241031D01*
X2848753Y-8241031D02*
X2829706Y-8269603D01*
X2829706Y-8269603D02*
X2820182Y-8307698D01*
X2820182Y-8307698D02*
X2820182Y-8383888D01*
X2820182Y-8383888D02*
X2829706Y-8402936D01*
X2829706Y-8402936D02*
X2839229Y-8412460D01*
X2839229Y-8412460D02*
X2858277Y-8421984D01*
X2858277Y-8421984D02*
X2896372Y-8421984D01*
X2896372Y-8421984D02*
X2915420Y-8412460D01*
X2915420Y-8412460D02*
X2924944Y-8402936D01*
X2924944Y-8402936D02*
X2934467Y-8383888D01*
X2934467Y-8383888D02*
X2934467Y-8336269D01*
X2934467Y-8336269D02*
X2924944Y-8317222D01*
X2924944Y-8317222D02*
X2915420Y-8307698D01*
X2915420Y-8307698D02*
X2896372Y-8298174D01*
X2896372Y-8298174D02*
X2858277Y-8298174D01*
X2858277Y-8298174D02*
X2839229Y-8307698D01*
X2839229Y-8307698D02*
X2829706Y-8317222D01*
X2829706Y-8317222D02*
X2820182Y-8336269D01*
X3058277Y-8221984D02*
X3077325Y-8221984D01*
X3077325Y-8221984D02*
X3096372Y-8231508D01*
X3096372Y-8231508D02*
X3105896Y-8241031D01*
X3105896Y-8241031D02*
X3115420Y-8260079D01*
X3115420Y-8260079D02*
X3124944Y-8298174D01*
X3124944Y-8298174D02*
X3124944Y-8345793D01*
X3124944Y-8345793D02*
X3115420Y-8383888D01*
X3115420Y-8383888D02*
X3105896Y-8402936D01*
X3105896Y-8402936D02*
X3096372Y-8412460D01*
X3096372Y-8412460D02*
X3077325Y-8421984D01*
X3077325Y-8421984D02*
X3058277Y-8421984D01*
X3058277Y-8421984D02*
X3039229Y-8412460D01*
X3039229Y-8412460D02*
X3029706Y-8402936D01*
X3029706Y-8402936D02*
X3020182Y-8383888D01*
X3020182Y-8383888D02*
X3010658Y-8345793D01*
X3010658Y-8345793D02*
X3010658Y-8298174D01*
X3010658Y-8298174D02*
X3020182Y-8260079D01*
X3020182Y-8260079D02*
X3029706Y-8241031D01*
X3029706Y-8241031D02*
X3039229Y-8231508D01*
X3039229Y-8231508D02*
X3058277Y-8221984D01*
X3201134Y-8221984D02*
X3201134Y-8260079D01*
X3277325Y-8221984D02*
X3277325Y-8260079D01*
X3572563Y-8498174D02*
X3563039Y-8488650D01*
X3563039Y-8488650D02*
X3543991Y-8460079D01*
X3543991Y-8460079D02*
X3534468Y-8441031D01*
X3534468Y-8441031D02*
X3524944Y-8412460D01*
X3524944Y-8412460D02*
X3515420Y-8364841D01*
X3515420Y-8364841D02*
X3515420Y-8326746D01*
X3515420Y-8326746D02*
X3524944Y-8279127D01*
X3524944Y-8279127D02*
X3534468Y-8250555D01*
X3534468Y-8250555D02*
X3543991Y-8231508D01*
X3543991Y-8231508D02*
X3563039Y-8202936D01*
X3563039Y-8202936D02*
X3572563Y-8193412D01*
X3734468Y-8288650D02*
X3734468Y-8421984D01*
X3686848Y-8212460D02*
X3639229Y-8355317D01*
X3639229Y-8355317D02*
X3763039Y-8355317D01*
X3991610Y-8421984D02*
X3991610Y-8221984D01*
X4077325Y-8421984D02*
X4077325Y-8317222D01*
X4077325Y-8317222D02*
X4067801Y-8298174D01*
X4067801Y-8298174D02*
X4048753Y-8288650D01*
X4048753Y-8288650D02*
X4020182Y-8288650D01*
X4020182Y-8288650D02*
X4001134Y-8298174D01*
X4001134Y-8298174D02*
X3991610Y-8307698D01*
X4201134Y-8421984D02*
X4182087Y-8412460D01*
X4182087Y-8412460D02*
X4172563Y-8402936D01*
X4172563Y-8402936D02*
X4163039Y-8383888D01*
X4163039Y-8383888D02*
X4163039Y-8326746D01*
X4163039Y-8326746D02*
X4172563Y-8307698D01*
X4172563Y-8307698D02*
X4182087Y-8298174D01*
X4182087Y-8298174D02*
X4201134Y-8288650D01*
X4201134Y-8288650D02*
X4229706Y-8288650D01*
X4229706Y-8288650D02*
X4248753Y-8298174D01*
X4248753Y-8298174D02*
X4258277Y-8307698D01*
X4258277Y-8307698D02*
X4267801Y-8326746D01*
X4267801Y-8326746D02*
X4267801Y-8383888D01*
X4267801Y-8383888D02*
X4258277Y-8402936D01*
X4258277Y-8402936D02*
X4248753Y-8412460D01*
X4248753Y-8412460D02*
X4229706Y-8421984D01*
X4229706Y-8421984D02*
X4201134Y-8421984D01*
X4382087Y-8421984D02*
X4363039Y-8412460D01*
X4363039Y-8412460D02*
X4353515Y-8393412D01*
X4353515Y-8393412D02*
X4353515Y-8221984D01*
X4534468Y-8412460D02*
X4515420Y-8421984D01*
X4515420Y-8421984D02*
X4477325Y-8421984D01*
X4477325Y-8421984D02*
X4458277Y-8412460D01*
X4458277Y-8412460D02*
X4448753Y-8393412D01*
X4448753Y-8393412D02*
X4448753Y-8317222D01*
X4448753Y-8317222D02*
X4458277Y-8298174D01*
X4458277Y-8298174D02*
X4477325Y-8288650D01*
X4477325Y-8288650D02*
X4515420Y-8288650D01*
X4515420Y-8288650D02*
X4534468Y-8298174D01*
X4534468Y-8298174D02*
X4543992Y-8317222D01*
X4543992Y-8317222D02*
X4543992Y-8336269D01*
X4543992Y-8336269D02*
X4448753Y-8355317D01*
X4620182Y-8412460D02*
X4639230Y-8421984D01*
X4639230Y-8421984D02*
X4677325Y-8421984D01*
X4677325Y-8421984D02*
X4696373Y-8412460D01*
X4696373Y-8412460D02*
X4705896Y-8393412D01*
X4705896Y-8393412D02*
X4705896Y-8383888D01*
X4705896Y-8383888D02*
X4696373Y-8364841D01*
X4696373Y-8364841D02*
X4677325Y-8355317D01*
X4677325Y-8355317D02*
X4648753Y-8355317D01*
X4648753Y-8355317D02*
X4629706Y-8345793D01*
X4629706Y-8345793D02*
X4620182Y-8326746D01*
X4620182Y-8326746D02*
X4620182Y-8317222D01*
X4620182Y-8317222D02*
X4629706Y-8298174D01*
X4629706Y-8298174D02*
X4648753Y-8288650D01*
X4648753Y-8288650D02*
X4677325Y-8288650D01*
X4677325Y-8288650D02*
X4696373Y-8298174D01*
X4772563Y-8498174D02*
X4782087Y-8488650D01*
X4782087Y-8488650D02*
X4801134Y-8460079D01*
X4801134Y-8460079D02*
X4810658Y-8441031D01*
X4810658Y-8441031D02*
X4820182Y-8412460D01*
X4820182Y-8412460D02*
X4829706Y-8364841D01*
X4829706Y-8364841D02*
X4829706Y-8326746D01*
X4829706Y-8326746D02*
X4820182Y-8279127D01*
X4820182Y-8279127D02*
X4810658Y-8250555D01*
X4810658Y-8250555D02*
X4801134Y-8231508D01*
X4801134Y-8231508D02*
X4782087Y-8202936D01*
X4782087Y-8202936D02*
X4772563Y-8193412D01*
M02*
