G04 #@! TF.GenerationSoftware,KiCad,Pcbnew,8.0.7*
G04 #@! TF.CreationDate,2025-01-05T11:55:31+01:00*
G04 #@! TF.ProjectId,ADLSC,41444c53-432e-46b6-9963-61645f706362,V1.0*
G04 #@! TF.SameCoordinates,Original*
G04 #@! TF.FileFunction,Legend,Bot*
G04 #@! TF.FilePolarity,Positive*
%FSLAX46Y46*%
G04 Gerber Fmt 4.6, Leading zero omitted, Abs format (unit mm)*
G04 Created by KiCad (PCBNEW 8.0.7) date 2025-01-05 11:55:31*
%MOMM*%
%LPD*%
G01*
G04 APERTURE LIST*
%ADD10C,0.150000*%
%ADD11C,3.000000*%
%ADD12R,3.000000X3.000000*%
%ADD13O,4.000000X3.000000*%
%ADD14O,1.700000X1.700000*%
%ADD15R,1.700000X1.700000*%
%ADD16O,2.100000X1.700000*%
%ADD17R,2.100000X1.700000*%
%ADD18C,0.800000*%
%ADD19C,6.400000*%
G04 APERTURE END LIST*
D10*
X80461173Y-53107628D02*
X80461173Y-51607628D01*
X79818316Y-53107628D02*
X79818316Y-52321914D01*
X79818316Y-52321914D02*
X79889744Y-52179057D01*
X79889744Y-52179057D02*
X80032601Y-52107628D01*
X80032601Y-52107628D02*
X80246887Y-52107628D01*
X80246887Y-52107628D02*
X80389744Y-52179057D01*
X80389744Y-52179057D02*
X80461173Y-52250485D01*
X79318315Y-52107628D02*
X78746887Y-52107628D01*
X79104030Y-51607628D02*
X79104030Y-52893342D01*
X79104030Y-52893342D02*
X79032601Y-53036200D01*
X79032601Y-53036200D02*
X78889744Y-53107628D01*
X78889744Y-53107628D02*
X78746887Y-53107628D01*
X78461172Y-52107628D02*
X77889744Y-52107628D01*
X78246887Y-51607628D02*
X78246887Y-52893342D01*
X78246887Y-52893342D02*
X78175458Y-53036200D01*
X78175458Y-53036200D02*
X78032601Y-53107628D01*
X78032601Y-53107628D02*
X77889744Y-53107628D01*
X77389744Y-52107628D02*
X77389744Y-53607628D01*
X77389744Y-52179057D02*
X77246887Y-52107628D01*
X77246887Y-52107628D02*
X76961172Y-52107628D01*
X76961172Y-52107628D02*
X76818315Y-52179057D01*
X76818315Y-52179057D02*
X76746887Y-52250485D01*
X76746887Y-52250485D02*
X76675458Y-52393342D01*
X76675458Y-52393342D02*
X76675458Y-52821914D01*
X76675458Y-52821914D02*
X76746887Y-52964771D01*
X76746887Y-52964771D02*
X76818315Y-53036200D01*
X76818315Y-53036200D02*
X76961172Y-53107628D01*
X76961172Y-53107628D02*
X77246887Y-53107628D01*
X77246887Y-53107628D02*
X77389744Y-53036200D01*
X76104029Y-53036200D02*
X75961172Y-53107628D01*
X75961172Y-53107628D02*
X75675458Y-53107628D01*
X75675458Y-53107628D02*
X75532601Y-53036200D01*
X75532601Y-53036200D02*
X75461172Y-52893342D01*
X75461172Y-52893342D02*
X75461172Y-52821914D01*
X75461172Y-52821914D02*
X75532601Y-52679057D01*
X75532601Y-52679057D02*
X75675458Y-52607628D01*
X75675458Y-52607628D02*
X75889744Y-52607628D01*
X75889744Y-52607628D02*
X76032601Y-52536200D01*
X76032601Y-52536200D02*
X76104029Y-52393342D01*
X76104029Y-52393342D02*
X76104029Y-52321914D01*
X76104029Y-52321914D02*
X76032601Y-52179057D01*
X76032601Y-52179057D02*
X75889744Y-52107628D01*
X75889744Y-52107628D02*
X75675458Y-52107628D01*
X75675458Y-52107628D02*
X75532601Y-52179057D01*
X74818315Y-52964771D02*
X74746886Y-53036200D01*
X74746886Y-53036200D02*
X74818315Y-53107628D01*
X74818315Y-53107628D02*
X74889743Y-53036200D01*
X74889743Y-53036200D02*
X74818315Y-52964771D01*
X74818315Y-52964771D02*
X74818315Y-53107628D01*
X74818315Y-52179057D02*
X74746886Y-52250485D01*
X74746886Y-52250485D02*
X74818315Y-52321914D01*
X74818315Y-52321914D02*
X74889743Y-52250485D01*
X74889743Y-52250485D02*
X74818315Y-52179057D01*
X74818315Y-52179057D02*
X74818315Y-52321914D01*
X73032600Y-51536200D02*
X74318314Y-53464771D01*
X71461171Y-51536200D02*
X72746885Y-53464771D01*
X70389742Y-53036200D02*
X70532599Y-53107628D01*
X70532599Y-53107628D02*
X70818314Y-53107628D01*
X70818314Y-53107628D02*
X70961171Y-53036200D01*
X70961171Y-53036200D02*
X71032599Y-52893342D01*
X71032599Y-52893342D02*
X71032599Y-52321914D01*
X71032599Y-52321914D02*
X70961171Y-52179057D01*
X70961171Y-52179057D02*
X70818314Y-52107628D01*
X70818314Y-52107628D02*
X70532599Y-52107628D01*
X70532599Y-52107628D02*
X70389742Y-52179057D01*
X70389742Y-52179057D02*
X70318314Y-52321914D01*
X70318314Y-52321914D02*
X70318314Y-52464771D01*
X70318314Y-52464771D02*
X71032599Y-52607628D01*
X69675457Y-52107628D02*
X69675457Y-53107628D01*
X69675457Y-52250485D02*
X69604028Y-52179057D01*
X69604028Y-52179057D02*
X69461171Y-52107628D01*
X69461171Y-52107628D02*
X69246885Y-52107628D01*
X69246885Y-52107628D02*
X69104028Y-52179057D01*
X69104028Y-52179057D02*
X69032600Y-52321914D01*
X69032600Y-52321914D02*
X69032600Y-53107628D01*
X68318314Y-52964771D02*
X68246885Y-53036200D01*
X68246885Y-53036200D02*
X68318314Y-53107628D01*
X68318314Y-53107628D02*
X68389742Y-53036200D01*
X68389742Y-53036200D02*
X68318314Y-52964771D01*
X68318314Y-52964771D02*
X68318314Y-53107628D01*
X67746885Y-52107628D02*
X67461171Y-53107628D01*
X67461171Y-53107628D02*
X67175456Y-52393342D01*
X67175456Y-52393342D02*
X66889742Y-53107628D01*
X66889742Y-53107628D02*
X66604028Y-52107628D01*
X66032599Y-53107628D02*
X66032599Y-52107628D01*
X66032599Y-51607628D02*
X66104027Y-51679057D01*
X66104027Y-51679057D02*
X66032599Y-51750485D01*
X66032599Y-51750485D02*
X65961170Y-51679057D01*
X65961170Y-51679057D02*
X66032599Y-51607628D01*
X66032599Y-51607628D02*
X66032599Y-51750485D01*
X65318313Y-53107628D02*
X65318313Y-51607628D01*
X65175456Y-52536200D02*
X64746884Y-53107628D01*
X64746884Y-52107628D02*
X65318313Y-52679057D01*
X64104027Y-53107628D02*
X64104027Y-52107628D01*
X64104027Y-51607628D02*
X64175455Y-51679057D01*
X64175455Y-51679057D02*
X64104027Y-51750485D01*
X64104027Y-51750485D02*
X64032598Y-51679057D01*
X64032598Y-51679057D02*
X64104027Y-51607628D01*
X64104027Y-51607628D02*
X64104027Y-51750485D01*
X63389741Y-52107628D02*
X63389741Y-53607628D01*
X63389741Y-52179057D02*
X63246884Y-52107628D01*
X63246884Y-52107628D02*
X62961169Y-52107628D01*
X62961169Y-52107628D02*
X62818312Y-52179057D01*
X62818312Y-52179057D02*
X62746884Y-52250485D01*
X62746884Y-52250485D02*
X62675455Y-52393342D01*
X62675455Y-52393342D02*
X62675455Y-52821914D01*
X62675455Y-52821914D02*
X62746884Y-52964771D01*
X62746884Y-52964771D02*
X62818312Y-53036200D01*
X62818312Y-53036200D02*
X62961169Y-53107628D01*
X62961169Y-53107628D02*
X63246884Y-53107628D01*
X63246884Y-53107628D02*
X63389741Y-53036200D01*
X61461169Y-53036200D02*
X61604026Y-53107628D01*
X61604026Y-53107628D02*
X61889741Y-53107628D01*
X61889741Y-53107628D02*
X62032598Y-53036200D01*
X62032598Y-53036200D02*
X62104026Y-52893342D01*
X62104026Y-52893342D02*
X62104026Y-52321914D01*
X62104026Y-52321914D02*
X62032598Y-52179057D01*
X62032598Y-52179057D02*
X61889741Y-52107628D01*
X61889741Y-52107628D02*
X61604026Y-52107628D01*
X61604026Y-52107628D02*
X61461169Y-52179057D01*
X61461169Y-52179057D02*
X61389741Y-52321914D01*
X61389741Y-52321914D02*
X61389741Y-52464771D01*
X61389741Y-52464771D02*
X62104026Y-52607628D01*
X60104027Y-53107628D02*
X60104027Y-51607628D01*
X60104027Y-53036200D02*
X60246884Y-53107628D01*
X60246884Y-53107628D02*
X60532598Y-53107628D01*
X60532598Y-53107628D02*
X60675455Y-53036200D01*
X60675455Y-53036200D02*
X60746884Y-52964771D01*
X60746884Y-52964771D02*
X60818312Y-52821914D01*
X60818312Y-52821914D02*
X60818312Y-52393342D01*
X60818312Y-52393342D02*
X60746884Y-52250485D01*
X60746884Y-52250485D02*
X60675455Y-52179057D01*
X60675455Y-52179057D02*
X60532598Y-52107628D01*
X60532598Y-52107628D02*
X60246884Y-52107628D01*
X60246884Y-52107628D02*
X60104027Y-52179057D01*
X59389741Y-53107628D02*
X59389741Y-52107628D01*
X59389741Y-51607628D02*
X59461169Y-51679057D01*
X59461169Y-51679057D02*
X59389741Y-51750485D01*
X59389741Y-51750485D02*
X59318312Y-51679057D01*
X59318312Y-51679057D02*
X59389741Y-51607628D01*
X59389741Y-51607628D02*
X59389741Y-51750485D01*
X58032598Y-53107628D02*
X58032598Y-52321914D01*
X58032598Y-52321914D02*
X58104026Y-52179057D01*
X58104026Y-52179057D02*
X58246883Y-52107628D01*
X58246883Y-52107628D02*
X58532598Y-52107628D01*
X58532598Y-52107628D02*
X58675455Y-52179057D01*
X58032598Y-53036200D02*
X58175455Y-53107628D01*
X58175455Y-53107628D02*
X58532598Y-53107628D01*
X58532598Y-53107628D02*
X58675455Y-53036200D01*
X58675455Y-53036200D02*
X58746883Y-52893342D01*
X58746883Y-52893342D02*
X58746883Y-52750485D01*
X58746883Y-52750485D02*
X58675455Y-52607628D01*
X58675455Y-52607628D02*
X58532598Y-52536200D01*
X58532598Y-52536200D02*
X58175455Y-52536200D01*
X58175455Y-52536200D02*
X58032598Y-52464771D01*
X57318312Y-52964771D02*
X57246883Y-53036200D01*
X57246883Y-53036200D02*
X57318312Y-53107628D01*
X57318312Y-53107628D02*
X57389740Y-53036200D01*
X57389740Y-53036200D02*
X57318312Y-52964771D01*
X57318312Y-52964771D02*
X57318312Y-53107628D01*
X56389740Y-53107628D02*
X56532597Y-53036200D01*
X56532597Y-53036200D02*
X56604026Y-52964771D01*
X56604026Y-52964771D02*
X56675454Y-52821914D01*
X56675454Y-52821914D02*
X56675454Y-52393342D01*
X56675454Y-52393342D02*
X56604026Y-52250485D01*
X56604026Y-52250485D02*
X56532597Y-52179057D01*
X56532597Y-52179057D02*
X56389740Y-52107628D01*
X56389740Y-52107628D02*
X56175454Y-52107628D01*
X56175454Y-52107628D02*
X56032597Y-52179057D01*
X56032597Y-52179057D02*
X55961169Y-52250485D01*
X55961169Y-52250485D02*
X55889740Y-52393342D01*
X55889740Y-52393342D02*
X55889740Y-52821914D01*
X55889740Y-52821914D02*
X55961169Y-52964771D01*
X55961169Y-52964771D02*
X56032597Y-53036200D01*
X56032597Y-53036200D02*
X56175454Y-53107628D01*
X56175454Y-53107628D02*
X56389740Y-53107628D01*
X55246883Y-53107628D02*
X55246883Y-52107628D01*
X55246883Y-52393342D02*
X55175454Y-52250485D01*
X55175454Y-52250485D02*
X55104026Y-52179057D01*
X55104026Y-52179057D02*
X54961168Y-52107628D01*
X54961168Y-52107628D02*
X54818311Y-52107628D01*
X53675455Y-52107628D02*
X53675455Y-53321914D01*
X53675455Y-53321914D02*
X53746883Y-53464771D01*
X53746883Y-53464771D02*
X53818312Y-53536200D01*
X53818312Y-53536200D02*
X53961169Y-53607628D01*
X53961169Y-53607628D02*
X54175455Y-53607628D01*
X54175455Y-53607628D02*
X54318312Y-53536200D01*
X53675455Y-53036200D02*
X53818312Y-53107628D01*
X53818312Y-53107628D02*
X54104026Y-53107628D01*
X54104026Y-53107628D02*
X54246883Y-53036200D01*
X54246883Y-53036200D02*
X54318312Y-52964771D01*
X54318312Y-52964771D02*
X54389740Y-52821914D01*
X54389740Y-52821914D02*
X54389740Y-52393342D01*
X54389740Y-52393342D02*
X54318312Y-52250485D01*
X54318312Y-52250485D02*
X54246883Y-52179057D01*
X54246883Y-52179057D02*
X54104026Y-52107628D01*
X54104026Y-52107628D02*
X53818312Y-52107628D01*
X53818312Y-52107628D02*
X53675455Y-52179057D01*
X51889740Y-51536200D02*
X53175454Y-53464771D01*
X51532597Y-52107628D02*
X51246883Y-53107628D01*
X51246883Y-53107628D02*
X50961168Y-52393342D01*
X50961168Y-52393342D02*
X50675454Y-53107628D01*
X50675454Y-53107628D02*
X50389740Y-52107628D01*
X49818311Y-53107628D02*
X49818311Y-52107628D01*
X49818311Y-51607628D02*
X49889739Y-51679057D01*
X49889739Y-51679057D02*
X49818311Y-51750485D01*
X49818311Y-51750485D02*
X49746882Y-51679057D01*
X49746882Y-51679057D02*
X49818311Y-51607628D01*
X49818311Y-51607628D02*
X49818311Y-51750485D01*
X49104025Y-53107628D02*
X49104025Y-51607628D01*
X48961168Y-52536200D02*
X48532596Y-53107628D01*
X48532596Y-52107628D02*
X49104025Y-52679057D01*
X47889739Y-53107628D02*
X47889739Y-52107628D01*
X47889739Y-51607628D02*
X47961167Y-51679057D01*
X47961167Y-51679057D02*
X47889739Y-51750485D01*
X47889739Y-51750485D02*
X47818310Y-51679057D01*
X47818310Y-51679057D02*
X47889739Y-51607628D01*
X47889739Y-51607628D02*
X47889739Y-51750485D01*
X46104024Y-51536200D02*
X47389738Y-53464771D01*
X44889738Y-53107628D02*
X45604024Y-53107628D01*
X45604024Y-53107628D02*
X45604024Y-51607628D01*
X44389738Y-53107628D02*
X44389738Y-52107628D01*
X44389738Y-51607628D02*
X44461166Y-51679057D01*
X44461166Y-51679057D02*
X44389738Y-51750485D01*
X44389738Y-51750485D02*
X44318309Y-51679057D01*
X44318309Y-51679057D02*
X44389738Y-51607628D01*
X44389738Y-51607628D02*
X44389738Y-51750485D01*
X43032595Y-52107628D02*
X43032595Y-53321914D01*
X43032595Y-53321914D02*
X43104023Y-53464771D01*
X43104023Y-53464771D02*
X43175452Y-53536200D01*
X43175452Y-53536200D02*
X43318309Y-53607628D01*
X43318309Y-53607628D02*
X43532595Y-53607628D01*
X43532595Y-53607628D02*
X43675452Y-53536200D01*
X43032595Y-53036200D02*
X43175452Y-53107628D01*
X43175452Y-53107628D02*
X43461166Y-53107628D01*
X43461166Y-53107628D02*
X43604023Y-53036200D01*
X43604023Y-53036200D02*
X43675452Y-52964771D01*
X43675452Y-52964771D02*
X43746880Y-52821914D01*
X43746880Y-52821914D02*
X43746880Y-52393342D01*
X43746880Y-52393342D02*
X43675452Y-52250485D01*
X43675452Y-52250485D02*
X43604023Y-52179057D01*
X43604023Y-52179057D02*
X43461166Y-52107628D01*
X43461166Y-52107628D02*
X43175452Y-52107628D01*
X43175452Y-52107628D02*
X43032595Y-52179057D01*
X42318309Y-53107628D02*
X42318309Y-51607628D01*
X41675452Y-53107628D02*
X41675452Y-52321914D01*
X41675452Y-52321914D02*
X41746880Y-52179057D01*
X41746880Y-52179057D02*
X41889737Y-52107628D01*
X41889737Y-52107628D02*
X42104023Y-52107628D01*
X42104023Y-52107628D02*
X42246880Y-52179057D01*
X42246880Y-52179057D02*
X42318309Y-52250485D01*
X41175451Y-52107628D02*
X40604023Y-52107628D01*
X40961166Y-51607628D02*
X40961166Y-52893342D01*
X40961166Y-52893342D02*
X40889737Y-53036200D01*
X40889737Y-53036200D02*
X40746880Y-53107628D01*
X40746880Y-53107628D02*
X40604023Y-53107628D01*
X40104023Y-52536200D02*
X38961166Y-52536200D01*
X37675451Y-53036200D02*
X37818308Y-53107628D01*
X37818308Y-53107628D02*
X38104023Y-53107628D01*
X38104023Y-53107628D02*
X38246880Y-53036200D01*
X38246880Y-53036200D02*
X38318308Y-52893342D01*
X38318308Y-52893342D02*
X38318308Y-52321914D01*
X38318308Y-52321914D02*
X38246880Y-52179057D01*
X38246880Y-52179057D02*
X38104023Y-52107628D01*
X38104023Y-52107628D02*
X37818308Y-52107628D01*
X37818308Y-52107628D02*
X37675451Y-52179057D01*
X37675451Y-52179057D02*
X37604023Y-52321914D01*
X37604023Y-52321914D02*
X37604023Y-52464771D01*
X37604023Y-52464771D02*
X38318308Y-52607628D01*
X36961166Y-53107628D02*
X36961166Y-52107628D01*
X36961166Y-52250485D02*
X36889737Y-52179057D01*
X36889737Y-52179057D02*
X36746880Y-52107628D01*
X36746880Y-52107628D02*
X36532594Y-52107628D01*
X36532594Y-52107628D02*
X36389737Y-52179057D01*
X36389737Y-52179057D02*
X36318309Y-52321914D01*
X36318309Y-52321914D02*
X36318309Y-53107628D01*
X36318309Y-52321914D02*
X36246880Y-52179057D01*
X36246880Y-52179057D02*
X36104023Y-52107628D01*
X36104023Y-52107628D02*
X35889737Y-52107628D01*
X35889737Y-52107628D02*
X35746880Y-52179057D01*
X35746880Y-52179057D02*
X35675451Y-52321914D01*
X35675451Y-52321914D02*
X35675451Y-53107628D01*
X34961166Y-53107628D02*
X34961166Y-52107628D01*
X34961166Y-51607628D02*
X35032594Y-51679057D01*
X35032594Y-51679057D02*
X34961166Y-51750485D01*
X34961166Y-51750485D02*
X34889737Y-51679057D01*
X34889737Y-51679057D02*
X34961166Y-51607628D01*
X34961166Y-51607628D02*
X34961166Y-51750485D01*
X34461165Y-52107628D02*
X33889737Y-52107628D01*
X34246880Y-51607628D02*
X34246880Y-52893342D01*
X34246880Y-52893342D02*
X34175451Y-53036200D01*
X34175451Y-53036200D02*
X34032594Y-53107628D01*
X34032594Y-53107628D02*
X33889737Y-53107628D01*
X33604022Y-52107628D02*
X33032594Y-52107628D01*
X33389737Y-51607628D02*
X33389737Y-52893342D01*
X33389737Y-52893342D02*
X33318308Y-53036200D01*
X33318308Y-53036200D02*
X33175451Y-53107628D01*
X33175451Y-53107628D02*
X33032594Y-53107628D01*
X32532594Y-53107628D02*
X32532594Y-52107628D01*
X32532594Y-51607628D02*
X32604022Y-51679057D01*
X32604022Y-51679057D02*
X32532594Y-51750485D01*
X32532594Y-51750485D02*
X32461165Y-51679057D01*
X32461165Y-51679057D02*
X32532594Y-51607628D01*
X32532594Y-51607628D02*
X32532594Y-51750485D01*
X31818308Y-52107628D02*
X31818308Y-53107628D01*
X31818308Y-52250485D02*
X31746879Y-52179057D01*
X31746879Y-52179057D02*
X31604022Y-52107628D01*
X31604022Y-52107628D02*
X31389736Y-52107628D01*
X31389736Y-52107628D02*
X31246879Y-52179057D01*
X31246879Y-52179057D02*
X31175451Y-52321914D01*
X31175451Y-52321914D02*
X31175451Y-53107628D01*
X29818308Y-52107628D02*
X29818308Y-53321914D01*
X29818308Y-53321914D02*
X29889736Y-53464771D01*
X29889736Y-53464771D02*
X29961165Y-53536200D01*
X29961165Y-53536200D02*
X30104022Y-53607628D01*
X30104022Y-53607628D02*
X30318308Y-53607628D01*
X30318308Y-53607628D02*
X30461165Y-53536200D01*
X29818308Y-53036200D02*
X29961165Y-53107628D01*
X29961165Y-53107628D02*
X30246879Y-53107628D01*
X30246879Y-53107628D02*
X30389736Y-53036200D01*
X30389736Y-53036200D02*
X30461165Y-52964771D01*
X30461165Y-52964771D02*
X30532593Y-52821914D01*
X30532593Y-52821914D02*
X30532593Y-52393342D01*
X30532593Y-52393342D02*
X30461165Y-52250485D01*
X30461165Y-52250485D02*
X30389736Y-52179057D01*
X30389736Y-52179057D02*
X30246879Y-52107628D01*
X30246879Y-52107628D02*
X29961165Y-52107628D01*
X29961165Y-52107628D02*
X29818308Y-52179057D01*
X29461165Y-53250485D02*
X28318307Y-53250485D01*
X27318308Y-53107628D02*
X27318308Y-51607628D01*
X27318308Y-53036200D02*
X27461165Y-53107628D01*
X27461165Y-53107628D02*
X27746879Y-53107628D01*
X27746879Y-53107628D02*
X27889736Y-53036200D01*
X27889736Y-53036200D02*
X27961165Y-52964771D01*
X27961165Y-52964771D02*
X28032593Y-52821914D01*
X28032593Y-52821914D02*
X28032593Y-52393342D01*
X28032593Y-52393342D02*
X27961165Y-52250485D01*
X27961165Y-52250485D02*
X27889736Y-52179057D01*
X27889736Y-52179057D02*
X27746879Y-52107628D01*
X27746879Y-52107628D02*
X27461165Y-52107628D01*
X27461165Y-52107628D02*
X27318308Y-52179057D01*
X26604022Y-53107628D02*
X26604022Y-52107628D01*
X26604022Y-51607628D02*
X26675450Y-51679057D01*
X26675450Y-51679057D02*
X26604022Y-51750485D01*
X26604022Y-51750485D02*
X26532593Y-51679057D01*
X26532593Y-51679057D02*
X26604022Y-51607628D01*
X26604022Y-51607628D02*
X26604022Y-51750485D01*
X25675450Y-53107628D02*
X25818307Y-53036200D01*
X25818307Y-53036200D02*
X25889736Y-52964771D01*
X25889736Y-52964771D02*
X25961164Y-52821914D01*
X25961164Y-52821914D02*
X25961164Y-52393342D01*
X25961164Y-52393342D02*
X25889736Y-52250485D01*
X25889736Y-52250485D02*
X25818307Y-52179057D01*
X25818307Y-52179057D02*
X25675450Y-52107628D01*
X25675450Y-52107628D02*
X25461164Y-52107628D01*
X25461164Y-52107628D02*
X25318307Y-52179057D01*
X25318307Y-52179057D02*
X25246879Y-52250485D01*
X25246879Y-52250485D02*
X25175450Y-52393342D01*
X25175450Y-52393342D02*
X25175450Y-52821914D01*
X25175450Y-52821914D02*
X25246879Y-52964771D01*
X25246879Y-52964771D02*
X25318307Y-53036200D01*
X25318307Y-53036200D02*
X25461164Y-53107628D01*
X25461164Y-53107628D02*
X25675450Y-53107628D01*
X23889736Y-53107628D02*
X23889736Y-51607628D01*
X23889736Y-53036200D02*
X24032593Y-53107628D01*
X24032593Y-53107628D02*
X24318307Y-53107628D01*
X24318307Y-53107628D02*
X24461164Y-53036200D01*
X24461164Y-53036200D02*
X24532593Y-52964771D01*
X24532593Y-52964771D02*
X24604021Y-52821914D01*
X24604021Y-52821914D02*
X24604021Y-52393342D01*
X24604021Y-52393342D02*
X24532593Y-52250485D01*
X24532593Y-52250485D02*
X24461164Y-52179057D01*
X24461164Y-52179057D02*
X24318307Y-52107628D01*
X24318307Y-52107628D02*
X24032593Y-52107628D01*
X24032593Y-52107628D02*
X23889736Y-52179057D01*
X22604021Y-53036200D02*
X22746878Y-53107628D01*
X22746878Y-53107628D02*
X23032593Y-53107628D01*
X23032593Y-53107628D02*
X23175450Y-53036200D01*
X23175450Y-53036200D02*
X23246878Y-52893342D01*
X23246878Y-52893342D02*
X23246878Y-52321914D01*
X23246878Y-52321914D02*
X23175450Y-52179057D01*
X23175450Y-52179057D02*
X23032593Y-52107628D01*
X23032593Y-52107628D02*
X22746878Y-52107628D01*
X22746878Y-52107628D02*
X22604021Y-52179057D01*
X22604021Y-52179057D02*
X22532593Y-52321914D01*
X22532593Y-52321914D02*
X22532593Y-52464771D01*
X22532593Y-52464771D02*
X23246878Y-52607628D01*
X80532601Y-54022544D02*
X80532601Y-54308258D01*
X79961173Y-54022544D02*
X79961173Y-54308258D01*
X79389744Y-55093973D02*
X78675459Y-55093973D01*
X79532601Y-55522544D02*
X79032601Y-54022544D01*
X79032601Y-54022544D02*
X78532601Y-55522544D01*
X76675459Y-55522544D02*
X76818316Y-55451116D01*
X76818316Y-55451116D02*
X76889745Y-55308258D01*
X76889745Y-55308258D02*
X76889745Y-54022544D01*
X76104031Y-55522544D02*
X76104031Y-54522544D01*
X76104031Y-54022544D02*
X76175459Y-54093973D01*
X76175459Y-54093973D02*
X76104031Y-54165401D01*
X76104031Y-54165401D02*
X76032602Y-54093973D01*
X76032602Y-54093973D02*
X76104031Y-54022544D01*
X76104031Y-54022544D02*
X76104031Y-54165401D01*
X74746888Y-54522544D02*
X74746888Y-55736830D01*
X74746888Y-55736830D02*
X74818316Y-55879687D01*
X74818316Y-55879687D02*
X74889745Y-55951116D01*
X74889745Y-55951116D02*
X75032602Y-56022544D01*
X75032602Y-56022544D02*
X75246888Y-56022544D01*
X75246888Y-56022544D02*
X75389745Y-55951116D01*
X74746888Y-55451116D02*
X74889745Y-55522544D01*
X74889745Y-55522544D02*
X75175459Y-55522544D01*
X75175459Y-55522544D02*
X75318316Y-55451116D01*
X75318316Y-55451116D02*
X75389745Y-55379687D01*
X75389745Y-55379687D02*
X75461173Y-55236830D01*
X75461173Y-55236830D02*
X75461173Y-54808258D01*
X75461173Y-54808258D02*
X75389745Y-54665401D01*
X75389745Y-54665401D02*
X75318316Y-54593973D01*
X75318316Y-54593973D02*
X75175459Y-54522544D01*
X75175459Y-54522544D02*
X74889745Y-54522544D01*
X74889745Y-54522544D02*
X74746888Y-54593973D01*
X74032602Y-55522544D02*
X74032602Y-54022544D01*
X73389745Y-55522544D02*
X73389745Y-54736830D01*
X73389745Y-54736830D02*
X73461173Y-54593973D01*
X73461173Y-54593973D02*
X73604030Y-54522544D01*
X73604030Y-54522544D02*
X73818316Y-54522544D01*
X73818316Y-54522544D02*
X73961173Y-54593973D01*
X73961173Y-54593973D02*
X74032602Y-54665401D01*
X72889744Y-54522544D02*
X72318316Y-54522544D01*
X72675459Y-54022544D02*
X72675459Y-55308258D01*
X72675459Y-55308258D02*
X72604030Y-55451116D01*
X72604030Y-55451116D02*
X72461173Y-55522544D01*
X72461173Y-55522544D02*
X72318316Y-55522544D01*
X71818316Y-54951116D02*
X70675459Y-54951116D01*
X69389744Y-55451116D02*
X69532601Y-55522544D01*
X69532601Y-55522544D02*
X69818316Y-55522544D01*
X69818316Y-55522544D02*
X69961173Y-55451116D01*
X69961173Y-55451116D02*
X70032601Y-55308258D01*
X70032601Y-55308258D02*
X70032601Y-54736830D01*
X70032601Y-54736830D02*
X69961173Y-54593973D01*
X69961173Y-54593973D02*
X69818316Y-54522544D01*
X69818316Y-54522544D02*
X69532601Y-54522544D01*
X69532601Y-54522544D02*
X69389744Y-54593973D01*
X69389744Y-54593973D02*
X69318316Y-54736830D01*
X69318316Y-54736830D02*
X69318316Y-54879687D01*
X69318316Y-54879687D02*
X70032601Y-55022544D01*
X68675459Y-55522544D02*
X68675459Y-54522544D01*
X68675459Y-54665401D02*
X68604030Y-54593973D01*
X68604030Y-54593973D02*
X68461173Y-54522544D01*
X68461173Y-54522544D02*
X68246887Y-54522544D01*
X68246887Y-54522544D02*
X68104030Y-54593973D01*
X68104030Y-54593973D02*
X68032602Y-54736830D01*
X68032602Y-54736830D02*
X68032602Y-55522544D01*
X68032602Y-54736830D02*
X67961173Y-54593973D01*
X67961173Y-54593973D02*
X67818316Y-54522544D01*
X67818316Y-54522544D02*
X67604030Y-54522544D01*
X67604030Y-54522544D02*
X67461173Y-54593973D01*
X67461173Y-54593973D02*
X67389744Y-54736830D01*
X67389744Y-54736830D02*
X67389744Y-55522544D01*
X66675459Y-55522544D02*
X66675459Y-54522544D01*
X66675459Y-54022544D02*
X66746887Y-54093973D01*
X66746887Y-54093973D02*
X66675459Y-54165401D01*
X66675459Y-54165401D02*
X66604030Y-54093973D01*
X66604030Y-54093973D02*
X66675459Y-54022544D01*
X66675459Y-54022544D02*
X66675459Y-54165401D01*
X66175458Y-54522544D02*
X65604030Y-54522544D01*
X65961173Y-54022544D02*
X65961173Y-55308258D01*
X65961173Y-55308258D02*
X65889744Y-55451116D01*
X65889744Y-55451116D02*
X65746887Y-55522544D01*
X65746887Y-55522544D02*
X65604030Y-55522544D01*
X65318315Y-54522544D02*
X64746887Y-54522544D01*
X65104030Y-54022544D02*
X65104030Y-55308258D01*
X65104030Y-55308258D02*
X65032601Y-55451116D01*
X65032601Y-55451116D02*
X64889744Y-55522544D01*
X64889744Y-55522544D02*
X64746887Y-55522544D01*
X64246887Y-55522544D02*
X64246887Y-54522544D01*
X64246887Y-54022544D02*
X64318315Y-54093973D01*
X64318315Y-54093973D02*
X64246887Y-54165401D01*
X64246887Y-54165401D02*
X64175458Y-54093973D01*
X64175458Y-54093973D02*
X64246887Y-54022544D01*
X64246887Y-54022544D02*
X64246887Y-54165401D01*
X63532601Y-54522544D02*
X63532601Y-55522544D01*
X63532601Y-54665401D02*
X63461172Y-54593973D01*
X63461172Y-54593973D02*
X63318315Y-54522544D01*
X63318315Y-54522544D02*
X63104029Y-54522544D01*
X63104029Y-54522544D02*
X62961172Y-54593973D01*
X62961172Y-54593973D02*
X62889744Y-54736830D01*
X62889744Y-54736830D02*
X62889744Y-55522544D01*
X61532601Y-54522544D02*
X61532601Y-55736830D01*
X61532601Y-55736830D02*
X61604029Y-55879687D01*
X61604029Y-55879687D02*
X61675458Y-55951116D01*
X61675458Y-55951116D02*
X61818315Y-56022544D01*
X61818315Y-56022544D02*
X62032601Y-56022544D01*
X62032601Y-56022544D02*
X62175458Y-55951116D01*
X61532601Y-55451116D02*
X61675458Y-55522544D01*
X61675458Y-55522544D02*
X61961172Y-55522544D01*
X61961172Y-55522544D02*
X62104029Y-55451116D01*
X62104029Y-55451116D02*
X62175458Y-55379687D01*
X62175458Y-55379687D02*
X62246886Y-55236830D01*
X62246886Y-55236830D02*
X62246886Y-54808258D01*
X62246886Y-54808258D02*
X62175458Y-54665401D01*
X62175458Y-54665401D02*
X62104029Y-54593973D01*
X62104029Y-54593973D02*
X61961172Y-54522544D01*
X61961172Y-54522544D02*
X61675458Y-54522544D01*
X61675458Y-54522544D02*
X61532601Y-54593973D01*
X59032601Y-55522544D02*
X59032601Y-54022544D01*
X59032601Y-55451116D02*
X59175458Y-55522544D01*
X59175458Y-55522544D02*
X59461172Y-55522544D01*
X59461172Y-55522544D02*
X59604029Y-55451116D01*
X59604029Y-55451116D02*
X59675458Y-55379687D01*
X59675458Y-55379687D02*
X59746886Y-55236830D01*
X59746886Y-55236830D02*
X59746886Y-54808258D01*
X59746886Y-54808258D02*
X59675458Y-54665401D01*
X59675458Y-54665401D02*
X59604029Y-54593973D01*
X59604029Y-54593973D02*
X59461172Y-54522544D01*
X59461172Y-54522544D02*
X59175458Y-54522544D01*
X59175458Y-54522544D02*
X59032601Y-54593973D01*
X58318315Y-55522544D02*
X58318315Y-54522544D01*
X58318315Y-54022544D02*
X58389743Y-54093973D01*
X58389743Y-54093973D02*
X58318315Y-54165401D01*
X58318315Y-54165401D02*
X58246886Y-54093973D01*
X58246886Y-54093973D02*
X58318315Y-54022544D01*
X58318315Y-54022544D02*
X58318315Y-54165401D01*
X57389743Y-55522544D02*
X57532600Y-55451116D01*
X57532600Y-55451116D02*
X57604029Y-55379687D01*
X57604029Y-55379687D02*
X57675457Y-55236830D01*
X57675457Y-55236830D02*
X57675457Y-54808258D01*
X57675457Y-54808258D02*
X57604029Y-54665401D01*
X57604029Y-54665401D02*
X57532600Y-54593973D01*
X57532600Y-54593973D02*
X57389743Y-54522544D01*
X57389743Y-54522544D02*
X57175457Y-54522544D01*
X57175457Y-54522544D02*
X57032600Y-54593973D01*
X57032600Y-54593973D02*
X56961172Y-54665401D01*
X56961172Y-54665401D02*
X56889743Y-54808258D01*
X56889743Y-54808258D02*
X56889743Y-55236830D01*
X56889743Y-55236830D02*
X56961172Y-55379687D01*
X56961172Y-55379687D02*
X57032600Y-55451116D01*
X57032600Y-55451116D02*
X57175457Y-55522544D01*
X57175457Y-55522544D02*
X57389743Y-55522544D01*
X55604029Y-55522544D02*
X55604029Y-54022544D01*
X55604029Y-55451116D02*
X55746886Y-55522544D01*
X55746886Y-55522544D02*
X56032600Y-55522544D01*
X56032600Y-55522544D02*
X56175457Y-55451116D01*
X56175457Y-55451116D02*
X56246886Y-55379687D01*
X56246886Y-55379687D02*
X56318314Y-55236830D01*
X56318314Y-55236830D02*
X56318314Y-54808258D01*
X56318314Y-54808258D02*
X56246886Y-54665401D01*
X56246886Y-54665401D02*
X56175457Y-54593973D01*
X56175457Y-54593973D02*
X56032600Y-54522544D01*
X56032600Y-54522544D02*
X55746886Y-54522544D01*
X55746886Y-54522544D02*
X55604029Y-54593973D01*
X54318314Y-55451116D02*
X54461171Y-55522544D01*
X54461171Y-55522544D02*
X54746886Y-55522544D01*
X54746886Y-55522544D02*
X54889743Y-55451116D01*
X54889743Y-55451116D02*
X54961171Y-55308258D01*
X54961171Y-55308258D02*
X54961171Y-54736830D01*
X54961171Y-54736830D02*
X54889743Y-54593973D01*
X54889743Y-54593973D02*
X54746886Y-54522544D01*
X54746886Y-54522544D02*
X54461171Y-54522544D01*
X54461171Y-54522544D02*
X54318314Y-54593973D01*
X54318314Y-54593973D02*
X54246886Y-54736830D01*
X54246886Y-54736830D02*
X54246886Y-54879687D01*
X54246886Y-54879687D02*
X54961171Y-55022544D01*
X52032600Y-56093973D02*
X52104029Y-56022544D01*
X52104029Y-56022544D02*
X52246886Y-55808258D01*
X52246886Y-55808258D02*
X52318315Y-55665401D01*
X52318315Y-55665401D02*
X52389743Y-55451116D01*
X52389743Y-55451116D02*
X52461172Y-55093973D01*
X52461172Y-55093973D02*
X52461172Y-54808258D01*
X52461172Y-54808258D02*
X52389743Y-54451116D01*
X52389743Y-54451116D02*
X52318315Y-54236830D01*
X52318315Y-54236830D02*
X52246886Y-54093973D01*
X52246886Y-54093973D02*
X52104029Y-53879687D01*
X52104029Y-53879687D02*
X52032600Y-53808258D01*
X50746886Y-55522544D02*
X51461172Y-55522544D01*
X51461172Y-55522544D02*
X51461172Y-54022544D01*
X50246886Y-54736830D02*
X49746886Y-54736830D01*
X49532600Y-55522544D02*
X50246886Y-55522544D01*
X50246886Y-55522544D02*
X50246886Y-54022544D01*
X50246886Y-54022544D02*
X49532600Y-54022544D01*
X48889743Y-55522544D02*
X48889743Y-54022544D01*
X48889743Y-54022544D02*
X48532600Y-54022544D01*
X48532600Y-54022544D02*
X48318314Y-54093973D01*
X48318314Y-54093973D02*
X48175457Y-54236830D01*
X48175457Y-54236830D02*
X48104028Y-54379687D01*
X48104028Y-54379687D02*
X48032600Y-54665401D01*
X48032600Y-54665401D02*
X48032600Y-54879687D01*
X48032600Y-54879687D02*
X48104028Y-55165401D01*
X48104028Y-55165401D02*
X48175457Y-55308258D01*
X48175457Y-55308258D02*
X48318314Y-55451116D01*
X48318314Y-55451116D02*
X48532600Y-55522544D01*
X48532600Y-55522544D02*
X48889743Y-55522544D01*
X47532600Y-56093973D02*
X47461171Y-56022544D01*
X47461171Y-56022544D02*
X47318314Y-55808258D01*
X47318314Y-55808258D02*
X47246886Y-55665401D01*
X47246886Y-55665401D02*
X47175457Y-55451116D01*
X47175457Y-55451116D02*
X47104028Y-55093973D01*
X47104028Y-55093973D02*
X47104028Y-54808258D01*
X47104028Y-54808258D02*
X47175457Y-54451116D01*
X47175457Y-54451116D02*
X47246886Y-54236830D01*
X47246886Y-54236830D02*
X47318314Y-54093973D01*
X47318314Y-54093973D02*
X47461171Y-53879687D01*
X47461171Y-53879687D02*
X47532600Y-53808258D01*
X45246886Y-55522544D02*
X45246886Y-54522544D01*
X45246886Y-54022544D02*
X45318314Y-54093973D01*
X45318314Y-54093973D02*
X45246886Y-54165401D01*
X45246886Y-54165401D02*
X45175457Y-54093973D01*
X45175457Y-54093973D02*
X45246886Y-54022544D01*
X45246886Y-54022544D02*
X45246886Y-54165401D01*
X44604028Y-55451116D02*
X44461171Y-55522544D01*
X44461171Y-55522544D02*
X44175457Y-55522544D01*
X44175457Y-55522544D02*
X44032600Y-55451116D01*
X44032600Y-55451116D02*
X43961171Y-55308258D01*
X43961171Y-55308258D02*
X43961171Y-55236830D01*
X43961171Y-55236830D02*
X44032600Y-55093973D01*
X44032600Y-55093973D02*
X44175457Y-55022544D01*
X44175457Y-55022544D02*
X44389743Y-55022544D01*
X44389743Y-55022544D02*
X44532600Y-54951116D01*
X44532600Y-54951116D02*
X44604028Y-54808258D01*
X44604028Y-54808258D02*
X44604028Y-54736830D01*
X44604028Y-54736830D02*
X44532600Y-54593973D01*
X44532600Y-54593973D02*
X44389743Y-54522544D01*
X44389743Y-54522544D02*
X44175457Y-54522544D01*
X44175457Y-54522544D02*
X44032600Y-54593973D01*
X41532600Y-55522544D02*
X41532600Y-54736830D01*
X41532600Y-54736830D02*
X41604028Y-54593973D01*
X41604028Y-54593973D02*
X41746885Y-54522544D01*
X41746885Y-54522544D02*
X42032600Y-54522544D01*
X42032600Y-54522544D02*
X42175457Y-54593973D01*
X41532600Y-55451116D02*
X41675457Y-55522544D01*
X41675457Y-55522544D02*
X42032600Y-55522544D01*
X42032600Y-55522544D02*
X42175457Y-55451116D01*
X42175457Y-55451116D02*
X42246885Y-55308258D01*
X42246885Y-55308258D02*
X42246885Y-55165401D01*
X42246885Y-55165401D02*
X42175457Y-55022544D01*
X42175457Y-55022544D02*
X42032600Y-54951116D01*
X42032600Y-54951116D02*
X41675457Y-54951116D01*
X41675457Y-54951116D02*
X41532600Y-54879687D01*
X39746885Y-55451116D02*
X39604028Y-55522544D01*
X39604028Y-55522544D02*
X39318314Y-55522544D01*
X39318314Y-55522544D02*
X39175457Y-55451116D01*
X39175457Y-55451116D02*
X39104028Y-55308258D01*
X39104028Y-55308258D02*
X39104028Y-55236830D01*
X39104028Y-55236830D02*
X39175457Y-55093973D01*
X39175457Y-55093973D02*
X39318314Y-55022544D01*
X39318314Y-55022544D02*
X39532600Y-55022544D01*
X39532600Y-55022544D02*
X39675457Y-54951116D01*
X39675457Y-54951116D02*
X39746885Y-54808258D01*
X39746885Y-54808258D02*
X39746885Y-54736830D01*
X39746885Y-54736830D02*
X39675457Y-54593973D01*
X39675457Y-54593973D02*
X39532600Y-54522544D01*
X39532600Y-54522544D02*
X39318314Y-54522544D01*
X39318314Y-54522544D02*
X39175457Y-54593973D01*
X37889742Y-55451116D02*
X38032599Y-55522544D01*
X38032599Y-55522544D02*
X38318314Y-55522544D01*
X38318314Y-55522544D02*
X38461171Y-55451116D01*
X38461171Y-55451116D02*
X38532599Y-55308258D01*
X38532599Y-55308258D02*
X38532599Y-54736830D01*
X38532599Y-54736830D02*
X38461171Y-54593973D01*
X38461171Y-54593973D02*
X38318314Y-54522544D01*
X38318314Y-54522544D02*
X38032599Y-54522544D01*
X38032599Y-54522544D02*
X37889742Y-54593973D01*
X37889742Y-54593973D02*
X37818314Y-54736830D01*
X37818314Y-54736830D02*
X37818314Y-54879687D01*
X37818314Y-54879687D02*
X38532599Y-55022544D01*
X37175457Y-55522544D02*
X37175457Y-54522544D01*
X37175457Y-54665401D02*
X37104028Y-54593973D01*
X37104028Y-54593973D02*
X36961171Y-54522544D01*
X36961171Y-54522544D02*
X36746885Y-54522544D01*
X36746885Y-54522544D02*
X36604028Y-54593973D01*
X36604028Y-54593973D02*
X36532600Y-54736830D01*
X36532600Y-54736830D02*
X36532600Y-55522544D01*
X36532600Y-54736830D02*
X36461171Y-54593973D01*
X36461171Y-54593973D02*
X36318314Y-54522544D01*
X36318314Y-54522544D02*
X36104028Y-54522544D01*
X36104028Y-54522544D02*
X35961171Y-54593973D01*
X35961171Y-54593973D02*
X35889742Y-54736830D01*
X35889742Y-54736830D02*
X35889742Y-55522544D01*
X35175457Y-55522544D02*
X35175457Y-54522544D01*
X35175457Y-54022544D02*
X35246885Y-54093973D01*
X35246885Y-54093973D02*
X35175457Y-54165401D01*
X35175457Y-54165401D02*
X35104028Y-54093973D01*
X35104028Y-54093973D02*
X35175457Y-54022544D01*
X35175457Y-54022544D02*
X35175457Y-54165401D01*
X33818314Y-55451116D02*
X33961171Y-55522544D01*
X33961171Y-55522544D02*
X34246885Y-55522544D01*
X34246885Y-55522544D02*
X34389742Y-55451116D01*
X34389742Y-55451116D02*
X34461171Y-55379687D01*
X34461171Y-55379687D02*
X34532599Y-55236830D01*
X34532599Y-55236830D02*
X34532599Y-54808258D01*
X34532599Y-54808258D02*
X34461171Y-54665401D01*
X34461171Y-54665401D02*
X34389742Y-54593973D01*
X34389742Y-54593973D02*
X34246885Y-54522544D01*
X34246885Y-54522544D02*
X33961171Y-54522544D01*
X33961171Y-54522544D02*
X33818314Y-54593973D01*
X32961171Y-55522544D02*
X33104028Y-55451116D01*
X33104028Y-55451116D02*
X33175457Y-55379687D01*
X33175457Y-55379687D02*
X33246885Y-55236830D01*
X33246885Y-55236830D02*
X33246885Y-54808258D01*
X33246885Y-54808258D02*
X33175457Y-54665401D01*
X33175457Y-54665401D02*
X33104028Y-54593973D01*
X33104028Y-54593973D02*
X32961171Y-54522544D01*
X32961171Y-54522544D02*
X32746885Y-54522544D01*
X32746885Y-54522544D02*
X32604028Y-54593973D01*
X32604028Y-54593973D02*
X32532600Y-54665401D01*
X32532600Y-54665401D02*
X32461171Y-54808258D01*
X32461171Y-54808258D02*
X32461171Y-55236830D01*
X32461171Y-55236830D02*
X32532600Y-55379687D01*
X32532600Y-55379687D02*
X32604028Y-55451116D01*
X32604028Y-55451116D02*
X32746885Y-55522544D01*
X32746885Y-55522544D02*
X32961171Y-55522544D01*
X31818314Y-54522544D02*
X31818314Y-55522544D01*
X31818314Y-54665401D02*
X31746885Y-54593973D01*
X31746885Y-54593973D02*
X31604028Y-54522544D01*
X31604028Y-54522544D02*
X31389742Y-54522544D01*
X31389742Y-54522544D02*
X31246885Y-54593973D01*
X31246885Y-54593973D02*
X31175457Y-54736830D01*
X31175457Y-54736830D02*
X31175457Y-55522544D01*
X29818314Y-55522544D02*
X29818314Y-54022544D01*
X29818314Y-55451116D02*
X29961171Y-55522544D01*
X29961171Y-55522544D02*
X30246885Y-55522544D01*
X30246885Y-55522544D02*
X30389742Y-55451116D01*
X30389742Y-55451116D02*
X30461171Y-55379687D01*
X30461171Y-55379687D02*
X30532599Y-55236830D01*
X30532599Y-55236830D02*
X30532599Y-54808258D01*
X30532599Y-54808258D02*
X30461171Y-54665401D01*
X30461171Y-54665401D02*
X30389742Y-54593973D01*
X30389742Y-54593973D02*
X30246885Y-54522544D01*
X30246885Y-54522544D02*
X29961171Y-54522544D01*
X29961171Y-54522544D02*
X29818314Y-54593973D01*
X28461171Y-54522544D02*
X28461171Y-55522544D01*
X29104028Y-54522544D02*
X29104028Y-55308258D01*
X29104028Y-55308258D02*
X29032599Y-55451116D01*
X29032599Y-55451116D02*
X28889742Y-55522544D01*
X28889742Y-55522544D02*
X28675456Y-55522544D01*
X28675456Y-55522544D02*
X28532599Y-55451116D01*
X28532599Y-55451116D02*
X28461171Y-55379687D01*
X27104028Y-55451116D02*
X27246885Y-55522544D01*
X27246885Y-55522544D02*
X27532599Y-55522544D01*
X27532599Y-55522544D02*
X27675456Y-55451116D01*
X27675456Y-55451116D02*
X27746885Y-55379687D01*
X27746885Y-55379687D02*
X27818313Y-55236830D01*
X27818313Y-55236830D02*
X27818313Y-54808258D01*
X27818313Y-54808258D02*
X27746885Y-54665401D01*
X27746885Y-54665401D02*
X27675456Y-54593973D01*
X27675456Y-54593973D02*
X27532599Y-54522544D01*
X27532599Y-54522544D02*
X27246885Y-54522544D01*
X27246885Y-54522544D02*
X27104028Y-54593973D01*
X26675456Y-54522544D02*
X26104028Y-54522544D01*
X26461171Y-54022544D02*
X26461171Y-55308258D01*
X26461171Y-55308258D02*
X26389742Y-55451116D01*
X26389742Y-55451116D02*
X26246885Y-55522544D01*
X26246885Y-55522544D02*
X26104028Y-55522544D01*
X25389742Y-55522544D02*
X25532599Y-55451116D01*
X25532599Y-55451116D02*
X25604028Y-55379687D01*
X25604028Y-55379687D02*
X25675456Y-55236830D01*
X25675456Y-55236830D02*
X25675456Y-54808258D01*
X25675456Y-54808258D02*
X25604028Y-54665401D01*
X25604028Y-54665401D02*
X25532599Y-54593973D01*
X25532599Y-54593973D02*
X25389742Y-54522544D01*
X25389742Y-54522544D02*
X25175456Y-54522544D01*
X25175456Y-54522544D02*
X25032599Y-54593973D01*
X25032599Y-54593973D02*
X24961171Y-54665401D01*
X24961171Y-54665401D02*
X24889742Y-54808258D01*
X24889742Y-54808258D02*
X24889742Y-55236830D01*
X24889742Y-55236830D02*
X24961171Y-55379687D01*
X24961171Y-55379687D02*
X25032599Y-55451116D01*
X25032599Y-55451116D02*
X25175456Y-55522544D01*
X25175456Y-55522544D02*
X25389742Y-55522544D01*
X24246885Y-55522544D02*
X24246885Y-54522544D01*
X24246885Y-54808258D02*
X24175456Y-54665401D01*
X24175456Y-54665401D02*
X24104028Y-54593973D01*
X24104028Y-54593973D02*
X23961170Y-54522544D01*
X23961170Y-54522544D02*
X23818313Y-54522544D01*
X79818316Y-57937460D02*
X79818316Y-56437460D01*
X79818316Y-57866032D02*
X79961173Y-57937460D01*
X79961173Y-57937460D02*
X80246887Y-57937460D01*
X80246887Y-57937460D02*
X80389744Y-57866032D01*
X80389744Y-57866032D02*
X80461173Y-57794603D01*
X80461173Y-57794603D02*
X80532601Y-57651746D01*
X80532601Y-57651746D02*
X80532601Y-57223174D01*
X80532601Y-57223174D02*
X80461173Y-57080317D01*
X80461173Y-57080317D02*
X80389744Y-57008889D01*
X80389744Y-57008889D02*
X80246887Y-56937460D01*
X80246887Y-56937460D02*
X79961173Y-56937460D01*
X79961173Y-56937460D02*
X79818316Y-57008889D01*
X78532601Y-57866032D02*
X78675458Y-57937460D01*
X78675458Y-57937460D02*
X78961173Y-57937460D01*
X78961173Y-57937460D02*
X79104030Y-57866032D01*
X79104030Y-57866032D02*
X79175458Y-57723174D01*
X79175458Y-57723174D02*
X79175458Y-57151746D01*
X79175458Y-57151746D02*
X79104030Y-57008889D01*
X79104030Y-57008889D02*
X78961173Y-56937460D01*
X78961173Y-56937460D02*
X78675458Y-56937460D01*
X78675458Y-56937460D02*
X78532601Y-57008889D01*
X78532601Y-57008889D02*
X78461173Y-57151746D01*
X78461173Y-57151746D02*
X78461173Y-57294603D01*
X78461173Y-57294603D02*
X79175458Y-57437460D01*
X77961173Y-56937460D02*
X77604030Y-57937460D01*
X77604030Y-57937460D02*
X77246887Y-56937460D01*
X76675459Y-57937460D02*
X76675459Y-56937460D01*
X76675459Y-56437460D02*
X76746887Y-56508889D01*
X76746887Y-56508889D02*
X76675459Y-56580317D01*
X76675459Y-56580317D02*
X76604030Y-56508889D01*
X76604030Y-56508889D02*
X76675459Y-56437460D01*
X76675459Y-56437460D02*
X76675459Y-56580317D01*
X75318316Y-57866032D02*
X75461173Y-57937460D01*
X75461173Y-57937460D02*
X75746887Y-57937460D01*
X75746887Y-57937460D02*
X75889744Y-57866032D01*
X75889744Y-57866032D02*
X75961173Y-57794603D01*
X75961173Y-57794603D02*
X76032601Y-57651746D01*
X76032601Y-57651746D02*
X76032601Y-57223174D01*
X76032601Y-57223174D02*
X75961173Y-57080317D01*
X75961173Y-57080317D02*
X75889744Y-57008889D01*
X75889744Y-57008889D02*
X75746887Y-56937460D01*
X75746887Y-56937460D02*
X75461173Y-56937460D01*
X75461173Y-56937460D02*
X75318316Y-57008889D01*
X74104030Y-57866032D02*
X74246887Y-57937460D01*
X74246887Y-57937460D02*
X74532602Y-57937460D01*
X74532602Y-57937460D02*
X74675459Y-57866032D01*
X74675459Y-57866032D02*
X74746887Y-57723174D01*
X74746887Y-57723174D02*
X74746887Y-57151746D01*
X74746887Y-57151746D02*
X74675459Y-57008889D01*
X74675459Y-57008889D02*
X74532602Y-56937460D01*
X74532602Y-56937460D02*
X74246887Y-56937460D01*
X74246887Y-56937460D02*
X74104030Y-57008889D01*
X74104030Y-57008889D02*
X74032602Y-57151746D01*
X74032602Y-57151746D02*
X74032602Y-57294603D01*
X74032602Y-57294603D02*
X74746887Y-57437460D01*
X72461173Y-56937460D02*
X71889745Y-56937460D01*
X72246888Y-56437460D02*
X72246888Y-57723174D01*
X72246888Y-57723174D02*
X72175459Y-57866032D01*
X72175459Y-57866032D02*
X72032602Y-57937460D01*
X72032602Y-57937460D02*
X71889745Y-57937460D01*
X71389745Y-57937460D02*
X71389745Y-56437460D01*
X70746888Y-57937460D02*
X70746888Y-57151746D01*
X70746888Y-57151746D02*
X70818316Y-57008889D01*
X70818316Y-57008889D02*
X70961173Y-56937460D01*
X70961173Y-56937460D02*
X71175459Y-56937460D01*
X71175459Y-56937460D02*
X71318316Y-57008889D01*
X71318316Y-57008889D02*
X71389745Y-57080317D01*
X69389745Y-57937460D02*
X69389745Y-57151746D01*
X69389745Y-57151746D02*
X69461173Y-57008889D01*
X69461173Y-57008889D02*
X69604030Y-56937460D01*
X69604030Y-56937460D02*
X69889745Y-56937460D01*
X69889745Y-56937460D02*
X70032602Y-57008889D01*
X69389745Y-57866032D02*
X69532602Y-57937460D01*
X69532602Y-57937460D02*
X69889745Y-57937460D01*
X69889745Y-57937460D02*
X70032602Y-57866032D01*
X70032602Y-57866032D02*
X70104030Y-57723174D01*
X70104030Y-57723174D02*
X70104030Y-57580317D01*
X70104030Y-57580317D02*
X70032602Y-57437460D01*
X70032602Y-57437460D02*
X69889745Y-57366032D01*
X69889745Y-57366032D02*
X69532602Y-57366032D01*
X69532602Y-57366032D02*
X69389745Y-57294603D01*
X68889744Y-56937460D02*
X68318316Y-56937460D01*
X68675459Y-56437460D02*
X68675459Y-57723174D01*
X68675459Y-57723174D02*
X68604030Y-57866032D01*
X68604030Y-57866032D02*
X68461173Y-57937460D01*
X68461173Y-57937460D02*
X68318316Y-57937460D01*
X66104030Y-57866032D02*
X66246887Y-57937460D01*
X66246887Y-57937460D02*
X66532602Y-57937460D01*
X66532602Y-57937460D02*
X66675459Y-57866032D01*
X66675459Y-57866032D02*
X66746887Y-57723174D01*
X66746887Y-57723174D02*
X66746887Y-57151746D01*
X66746887Y-57151746D02*
X66675459Y-57008889D01*
X66675459Y-57008889D02*
X66532602Y-56937460D01*
X66532602Y-56937460D02*
X66246887Y-56937460D01*
X66246887Y-56937460D02*
X66104030Y-57008889D01*
X66104030Y-57008889D02*
X66032602Y-57151746D01*
X66032602Y-57151746D02*
X66032602Y-57294603D01*
X66032602Y-57294603D02*
X66746887Y-57437460D01*
X65389745Y-57937460D02*
X65389745Y-56937460D01*
X65389745Y-57080317D02*
X65318316Y-57008889D01*
X65318316Y-57008889D02*
X65175459Y-56937460D01*
X65175459Y-56937460D02*
X64961173Y-56937460D01*
X64961173Y-56937460D02*
X64818316Y-57008889D01*
X64818316Y-57008889D02*
X64746888Y-57151746D01*
X64746888Y-57151746D02*
X64746888Y-57937460D01*
X64746888Y-57151746D02*
X64675459Y-57008889D01*
X64675459Y-57008889D02*
X64532602Y-56937460D01*
X64532602Y-56937460D02*
X64318316Y-56937460D01*
X64318316Y-56937460D02*
X64175459Y-57008889D01*
X64175459Y-57008889D02*
X64104030Y-57151746D01*
X64104030Y-57151746D02*
X64104030Y-57937460D01*
X63389745Y-57937460D02*
X63389745Y-56937460D01*
X63389745Y-56437460D02*
X63461173Y-56508889D01*
X63461173Y-56508889D02*
X63389745Y-56580317D01*
X63389745Y-56580317D02*
X63318316Y-56508889D01*
X63318316Y-56508889D02*
X63389745Y-56437460D01*
X63389745Y-56437460D02*
X63389745Y-56580317D01*
X62889744Y-56937460D02*
X62318316Y-56937460D01*
X62675459Y-56437460D02*
X62675459Y-57723174D01*
X62675459Y-57723174D02*
X62604030Y-57866032D01*
X62604030Y-57866032D02*
X62461173Y-57937460D01*
X62461173Y-57937460D02*
X62318316Y-57937460D01*
X61889744Y-57866032D02*
X61746887Y-57937460D01*
X61746887Y-57937460D02*
X61461173Y-57937460D01*
X61461173Y-57937460D02*
X61318316Y-57866032D01*
X61318316Y-57866032D02*
X61246887Y-57723174D01*
X61246887Y-57723174D02*
X61246887Y-57651746D01*
X61246887Y-57651746D02*
X61318316Y-57508889D01*
X61318316Y-57508889D02*
X61461173Y-57437460D01*
X61461173Y-57437460D02*
X61675459Y-57437460D01*
X61675459Y-57437460D02*
X61818316Y-57366032D01*
X61818316Y-57366032D02*
X61889744Y-57223174D01*
X61889744Y-57223174D02*
X61889744Y-57151746D01*
X61889744Y-57151746D02*
X61818316Y-57008889D01*
X61818316Y-57008889D02*
X61675459Y-56937460D01*
X61675459Y-56937460D02*
X61461173Y-56937460D01*
X61461173Y-56937460D02*
X61318316Y-57008889D01*
X59246887Y-57937460D02*
X59389744Y-57866032D01*
X59389744Y-57866032D02*
X59461173Y-57723174D01*
X59461173Y-57723174D02*
X59461173Y-56437460D01*
X58675459Y-57937460D02*
X58675459Y-56937460D01*
X58675459Y-56437460D02*
X58746887Y-56508889D01*
X58746887Y-56508889D02*
X58675459Y-56580317D01*
X58675459Y-56580317D02*
X58604030Y-56508889D01*
X58604030Y-56508889D02*
X58675459Y-56437460D01*
X58675459Y-56437460D02*
X58675459Y-56580317D01*
X57318316Y-56937460D02*
X57318316Y-58151746D01*
X57318316Y-58151746D02*
X57389744Y-58294603D01*
X57389744Y-58294603D02*
X57461173Y-58366032D01*
X57461173Y-58366032D02*
X57604030Y-58437460D01*
X57604030Y-58437460D02*
X57818316Y-58437460D01*
X57818316Y-58437460D02*
X57961173Y-58366032D01*
X57318316Y-57866032D02*
X57461173Y-57937460D01*
X57461173Y-57937460D02*
X57746887Y-57937460D01*
X57746887Y-57937460D02*
X57889744Y-57866032D01*
X57889744Y-57866032D02*
X57961173Y-57794603D01*
X57961173Y-57794603D02*
X58032601Y-57651746D01*
X58032601Y-57651746D02*
X58032601Y-57223174D01*
X58032601Y-57223174D02*
X57961173Y-57080317D01*
X57961173Y-57080317D02*
X57889744Y-57008889D01*
X57889744Y-57008889D02*
X57746887Y-56937460D01*
X57746887Y-56937460D02*
X57461173Y-56937460D01*
X57461173Y-56937460D02*
X57318316Y-57008889D01*
X56604030Y-57937460D02*
X56604030Y-56437460D01*
X55961173Y-57937460D02*
X55961173Y-57151746D01*
X55961173Y-57151746D02*
X56032601Y-57008889D01*
X56032601Y-57008889D02*
X56175458Y-56937460D01*
X56175458Y-56937460D02*
X56389744Y-56937460D01*
X56389744Y-56937460D02*
X56532601Y-57008889D01*
X56532601Y-57008889D02*
X56604030Y-57080317D01*
X55461172Y-56937460D02*
X54889744Y-56937460D01*
X55246887Y-56437460D02*
X55246887Y-57723174D01*
X55246887Y-57723174D02*
X55175458Y-57866032D01*
X55175458Y-57866032D02*
X55032601Y-57937460D01*
X55032601Y-57937460D02*
X54889744Y-57937460D01*
X53389744Y-56937460D02*
X53104030Y-57937460D01*
X53104030Y-57937460D02*
X52818315Y-57223174D01*
X52818315Y-57223174D02*
X52532601Y-57937460D01*
X52532601Y-57937460D02*
X52246887Y-56937460D01*
X51675458Y-57937460D02*
X51675458Y-56437460D01*
X51032601Y-57937460D02*
X51032601Y-57151746D01*
X51032601Y-57151746D02*
X51104029Y-57008889D01*
X51104029Y-57008889D02*
X51246886Y-56937460D01*
X51246886Y-56937460D02*
X51461172Y-56937460D01*
X51461172Y-56937460D02*
X51604029Y-57008889D01*
X51604029Y-57008889D02*
X51675458Y-57080317D01*
X49746886Y-57866032D02*
X49889743Y-57937460D01*
X49889743Y-57937460D02*
X50175458Y-57937460D01*
X50175458Y-57937460D02*
X50318315Y-57866032D01*
X50318315Y-57866032D02*
X50389743Y-57723174D01*
X50389743Y-57723174D02*
X50389743Y-57151746D01*
X50389743Y-57151746D02*
X50318315Y-57008889D01*
X50318315Y-57008889D02*
X50175458Y-56937460D01*
X50175458Y-56937460D02*
X49889743Y-56937460D01*
X49889743Y-56937460D02*
X49746886Y-57008889D01*
X49746886Y-57008889D02*
X49675458Y-57151746D01*
X49675458Y-57151746D02*
X49675458Y-57294603D01*
X49675458Y-57294603D02*
X50389743Y-57437460D01*
X49032601Y-56937460D02*
X49032601Y-57937460D01*
X49032601Y-57080317D02*
X48961172Y-57008889D01*
X48961172Y-57008889D02*
X48818315Y-56937460D01*
X48818315Y-56937460D02*
X48604029Y-56937460D01*
X48604029Y-56937460D02*
X48461172Y-57008889D01*
X48461172Y-57008889D02*
X48389744Y-57151746D01*
X48389744Y-57151746D02*
X48389744Y-57937460D01*
X45889744Y-57866032D02*
X46032601Y-57937460D01*
X46032601Y-57937460D02*
X46318315Y-57937460D01*
X46318315Y-57937460D02*
X46461172Y-57866032D01*
X46461172Y-57866032D02*
X46532601Y-57794603D01*
X46532601Y-57794603D02*
X46604029Y-57651746D01*
X46604029Y-57651746D02*
X46604029Y-57223174D01*
X46604029Y-57223174D02*
X46532601Y-57080317D01*
X46532601Y-57080317D02*
X46461172Y-57008889D01*
X46461172Y-57008889D02*
X46318315Y-56937460D01*
X46318315Y-56937460D02*
X46032601Y-56937460D01*
X46032601Y-56937460D02*
X45889744Y-57008889D01*
X44604030Y-56937460D02*
X44604030Y-57937460D01*
X45246887Y-56937460D02*
X45246887Y-57723174D01*
X45246887Y-57723174D02*
X45175458Y-57866032D01*
X45175458Y-57866032D02*
X45032601Y-57937460D01*
X45032601Y-57937460D02*
X44818315Y-57937460D01*
X44818315Y-57937460D02*
X44675458Y-57866032D01*
X44675458Y-57866032D02*
X44604030Y-57794603D01*
X43889744Y-57937460D02*
X43889744Y-56937460D01*
X43889744Y-57223174D02*
X43818315Y-57080317D01*
X43818315Y-57080317D02*
X43746887Y-57008889D01*
X43746887Y-57008889D02*
X43604029Y-56937460D01*
X43604029Y-56937460D02*
X43461172Y-56937460D01*
X42961173Y-57937460D02*
X42961173Y-56937460D01*
X42961173Y-57223174D02*
X42889744Y-57080317D01*
X42889744Y-57080317D02*
X42818316Y-57008889D01*
X42818316Y-57008889D02*
X42675458Y-56937460D01*
X42675458Y-56937460D02*
X42532601Y-56937460D01*
X41461173Y-57866032D02*
X41604030Y-57937460D01*
X41604030Y-57937460D02*
X41889745Y-57937460D01*
X41889745Y-57937460D02*
X42032602Y-57866032D01*
X42032602Y-57866032D02*
X42104030Y-57723174D01*
X42104030Y-57723174D02*
X42104030Y-57151746D01*
X42104030Y-57151746D02*
X42032602Y-57008889D01*
X42032602Y-57008889D02*
X41889745Y-56937460D01*
X41889745Y-56937460D02*
X41604030Y-56937460D01*
X41604030Y-56937460D02*
X41461173Y-57008889D01*
X41461173Y-57008889D02*
X41389745Y-57151746D01*
X41389745Y-57151746D02*
X41389745Y-57294603D01*
X41389745Y-57294603D02*
X42104030Y-57437460D01*
X40746888Y-56937460D02*
X40746888Y-57937460D01*
X40746888Y-57080317D02*
X40675459Y-57008889D01*
X40675459Y-57008889D02*
X40532602Y-56937460D01*
X40532602Y-56937460D02*
X40318316Y-56937460D01*
X40318316Y-56937460D02*
X40175459Y-57008889D01*
X40175459Y-57008889D02*
X40104031Y-57151746D01*
X40104031Y-57151746D02*
X40104031Y-57937460D01*
X39604030Y-56937460D02*
X39032602Y-56937460D01*
X39389745Y-56437460D02*
X39389745Y-57723174D01*
X39389745Y-57723174D02*
X39318316Y-57866032D01*
X39318316Y-57866032D02*
X39175459Y-57937460D01*
X39175459Y-57937460D02*
X39032602Y-57937460D01*
X37604030Y-56937460D02*
X37032602Y-56937460D01*
X37389745Y-57937460D02*
X37389745Y-56651746D01*
X37389745Y-56651746D02*
X37318316Y-56508889D01*
X37318316Y-56508889D02*
X37175459Y-56437460D01*
X37175459Y-56437460D02*
X37032602Y-56437460D01*
X36318316Y-57937460D02*
X36461173Y-57866032D01*
X36461173Y-57866032D02*
X36532602Y-57723174D01*
X36532602Y-57723174D02*
X36532602Y-56437460D01*
X35532602Y-57937460D02*
X35675459Y-57866032D01*
X35675459Y-57866032D02*
X35746888Y-57794603D01*
X35746888Y-57794603D02*
X35818316Y-57651746D01*
X35818316Y-57651746D02*
X35818316Y-57223174D01*
X35818316Y-57223174D02*
X35746888Y-57080317D01*
X35746888Y-57080317D02*
X35675459Y-57008889D01*
X35675459Y-57008889D02*
X35532602Y-56937460D01*
X35532602Y-56937460D02*
X35318316Y-56937460D01*
X35318316Y-56937460D02*
X35175459Y-57008889D01*
X35175459Y-57008889D02*
X35104031Y-57080317D01*
X35104031Y-57080317D02*
X35032602Y-57223174D01*
X35032602Y-57223174D02*
X35032602Y-57651746D01*
X35032602Y-57651746D02*
X35104031Y-57794603D01*
X35104031Y-57794603D02*
X35175459Y-57866032D01*
X35175459Y-57866032D02*
X35318316Y-57937460D01*
X35318316Y-57937460D02*
X35532602Y-57937460D01*
X34532602Y-56937460D02*
X34246888Y-57937460D01*
X34246888Y-57937460D02*
X33961173Y-57223174D01*
X33961173Y-57223174D02*
X33675459Y-57937460D01*
X33675459Y-57937460D02*
X33389745Y-56937460D01*
X32889744Y-57866032D02*
X32746887Y-57937460D01*
X32746887Y-57937460D02*
X32461173Y-57937460D01*
X32461173Y-57937460D02*
X32318316Y-57866032D01*
X32318316Y-57866032D02*
X32246887Y-57723174D01*
X32246887Y-57723174D02*
X32246887Y-57651746D01*
X32246887Y-57651746D02*
X32318316Y-57508889D01*
X32318316Y-57508889D02*
X32461173Y-57437460D01*
X32461173Y-57437460D02*
X32675459Y-57437460D01*
X32675459Y-57437460D02*
X32818316Y-57366032D01*
X32818316Y-57366032D02*
X32889744Y-57223174D01*
X32889744Y-57223174D02*
X32889744Y-57151746D01*
X32889744Y-57151746D02*
X32818316Y-57008889D01*
X32818316Y-57008889D02*
X32675459Y-56937460D01*
X32675459Y-56937460D02*
X32461173Y-56937460D01*
X32461173Y-56937460D02*
X32318316Y-57008889D01*
X30675458Y-56937460D02*
X30104030Y-56937460D01*
X30461173Y-56437460D02*
X30461173Y-57723174D01*
X30461173Y-57723174D02*
X30389744Y-57866032D01*
X30389744Y-57866032D02*
X30246887Y-57937460D01*
X30246887Y-57937460D02*
X30104030Y-57937460D01*
X29604030Y-57937460D02*
X29604030Y-56437460D01*
X28961173Y-57937460D02*
X28961173Y-57151746D01*
X28961173Y-57151746D02*
X29032601Y-57008889D01*
X29032601Y-57008889D02*
X29175458Y-56937460D01*
X29175458Y-56937460D02*
X29389744Y-56937460D01*
X29389744Y-56937460D02*
X29532601Y-57008889D01*
X29532601Y-57008889D02*
X29604030Y-57080317D01*
X28246887Y-57937460D02*
X28246887Y-56937460D01*
X28246887Y-57223174D02*
X28175458Y-57080317D01*
X28175458Y-57080317D02*
X28104030Y-57008889D01*
X28104030Y-57008889D02*
X27961172Y-56937460D01*
X27961172Y-56937460D02*
X27818315Y-56937460D01*
X27104030Y-57937460D02*
X27246887Y-57866032D01*
X27246887Y-57866032D02*
X27318316Y-57794603D01*
X27318316Y-57794603D02*
X27389744Y-57651746D01*
X27389744Y-57651746D02*
X27389744Y-57223174D01*
X27389744Y-57223174D02*
X27318316Y-57080317D01*
X27318316Y-57080317D02*
X27246887Y-57008889D01*
X27246887Y-57008889D02*
X27104030Y-56937460D01*
X27104030Y-56937460D02*
X26889744Y-56937460D01*
X26889744Y-56937460D02*
X26746887Y-57008889D01*
X26746887Y-57008889D02*
X26675459Y-57080317D01*
X26675459Y-57080317D02*
X26604030Y-57223174D01*
X26604030Y-57223174D02*
X26604030Y-57651746D01*
X26604030Y-57651746D02*
X26675459Y-57794603D01*
X26675459Y-57794603D02*
X26746887Y-57866032D01*
X26746887Y-57866032D02*
X26889744Y-57937460D01*
X26889744Y-57937460D02*
X27104030Y-57937460D01*
X25318316Y-56937460D02*
X25318316Y-57937460D01*
X25961173Y-56937460D02*
X25961173Y-57723174D01*
X25961173Y-57723174D02*
X25889744Y-57866032D01*
X25889744Y-57866032D02*
X25746887Y-57937460D01*
X25746887Y-57937460D02*
X25532601Y-57937460D01*
X25532601Y-57937460D02*
X25389744Y-57866032D01*
X25389744Y-57866032D02*
X25318316Y-57794603D01*
X23961173Y-56937460D02*
X23961173Y-58151746D01*
X23961173Y-58151746D02*
X24032601Y-58294603D01*
X24032601Y-58294603D02*
X24104030Y-58366032D01*
X24104030Y-58366032D02*
X24246887Y-58437460D01*
X24246887Y-58437460D02*
X24461173Y-58437460D01*
X24461173Y-58437460D02*
X24604030Y-58366032D01*
X23961173Y-57866032D02*
X24104030Y-57937460D01*
X24104030Y-57937460D02*
X24389744Y-57937460D01*
X24389744Y-57937460D02*
X24532601Y-57866032D01*
X24532601Y-57866032D02*
X24604030Y-57794603D01*
X24604030Y-57794603D02*
X24675458Y-57651746D01*
X24675458Y-57651746D02*
X24675458Y-57223174D01*
X24675458Y-57223174D02*
X24604030Y-57080317D01*
X24604030Y-57080317D02*
X24532601Y-57008889D01*
X24532601Y-57008889D02*
X24389744Y-56937460D01*
X24389744Y-56937460D02*
X24104030Y-56937460D01*
X24104030Y-56937460D02*
X23961173Y-57008889D01*
X23246887Y-57937460D02*
X23246887Y-56437460D01*
X22604030Y-57937460D02*
X22604030Y-57151746D01*
X22604030Y-57151746D02*
X22675458Y-57008889D01*
X22675458Y-57008889D02*
X22818315Y-56937460D01*
X22818315Y-56937460D02*
X23032601Y-56937460D01*
X23032601Y-56937460D02*
X23175458Y-57008889D01*
X23175458Y-57008889D02*
X23246887Y-57080317D01*
X20746887Y-57937460D02*
X20746887Y-56937460D01*
X20746887Y-56437460D02*
X20818315Y-56508889D01*
X20818315Y-56508889D02*
X20746887Y-56580317D01*
X20746887Y-56580317D02*
X20675458Y-56508889D01*
X20675458Y-56508889D02*
X20746887Y-56437460D01*
X20746887Y-56437460D02*
X20746887Y-56580317D01*
X20246886Y-56937460D02*
X19675458Y-56937460D01*
X20032601Y-56437460D02*
X20032601Y-57723174D01*
X20032601Y-57723174D02*
X19961172Y-57866032D01*
X19961172Y-57866032D02*
X19818315Y-57937460D01*
X19818315Y-57937460D02*
X19675458Y-57937460D01*
X19175458Y-57794603D02*
X19104029Y-57866032D01*
X19104029Y-57866032D02*
X19175458Y-57937460D01*
X19175458Y-57937460D02*
X19246886Y-57866032D01*
X19246886Y-57866032D02*
X19175458Y-57794603D01*
X19175458Y-57794603D02*
X19175458Y-57937460D01*
X18532600Y-56437460D02*
X18532600Y-56723174D01*
X17961172Y-56437460D02*
X17961172Y-56723174D01*
%LPC*%
D11*
X20320000Y-12700000D03*
D12*
X13320000Y-12700000D03*
D11*
X20320000Y-17780000D03*
X13320000Y-17780000D03*
D13*
X35470000Y-45720000D03*
X40070000Y-45720000D03*
X51370000Y-45720000D03*
X55970000Y-45720000D03*
D11*
X13320000Y-48260000D03*
X20320000Y-48260000D03*
D12*
X13320000Y-43180000D03*
D11*
X20320000Y-43180000D03*
X13320000Y-27940000D03*
X20320000Y-27940000D03*
D12*
X13320000Y-22860000D03*
D11*
X20320000Y-22860000D03*
D14*
X127000000Y-25400000D03*
X127000000Y-22860000D03*
X127000000Y-20320000D03*
X127000000Y-17780000D03*
X127000000Y-15240000D03*
D15*
X127000000Y-12700000D03*
D13*
X35470000Y-25400000D03*
X40070000Y-25400000D03*
X51370000Y-25400000D03*
X55970000Y-25400000D03*
D16*
X109220000Y-7620000D03*
X109220000Y-10160000D03*
X109220000Y-12700000D03*
X109220000Y-15240000D03*
X109220000Y-17780000D03*
X109220000Y-20320000D03*
X109220000Y-22860000D03*
X109220000Y-25400000D03*
X109220000Y-27940000D03*
X109220000Y-30480000D03*
X109220000Y-33020000D03*
X109220000Y-35560000D03*
X109220000Y-38100000D03*
X109220000Y-40640000D03*
X109220000Y-43180000D03*
X109220000Y-45720000D03*
X109220000Y-48260000D03*
X109220000Y-50800000D03*
X109220000Y-53340000D03*
X83820000Y-53340000D03*
X83820000Y-50800000D03*
X83820000Y-48260000D03*
X83820000Y-45720000D03*
X83820000Y-43180000D03*
X83820000Y-40640000D03*
X83820000Y-38100000D03*
X83820000Y-35560000D03*
X83820000Y-33020000D03*
X83820000Y-30480000D03*
X83820000Y-27940000D03*
X83820000Y-25400000D03*
X83820000Y-22860000D03*
X83820000Y-20320000D03*
X83820000Y-17780000D03*
X83820000Y-15240000D03*
X83820000Y-12700000D03*
X83820000Y-10160000D03*
D17*
X83820000Y-7620000D03*
D18*
X129680000Y-55880000D03*
X130382944Y-54182944D03*
X130382944Y-57577056D03*
X132080000Y-53480000D03*
D19*
X132080000Y-55880000D03*
D18*
X132080000Y-58280000D03*
X133777056Y-54182944D03*
X133777056Y-57577056D03*
X134480000Y-55880000D03*
D14*
X127000000Y-48260000D03*
X127000000Y-45720000D03*
X127000000Y-43180000D03*
X127000000Y-40640000D03*
X127000000Y-38100000D03*
D15*
X127000000Y-35560000D03*
D18*
X129680000Y-5080000D03*
X130382944Y-3382944D03*
X130382944Y-6777056D03*
X132080000Y-2680000D03*
D19*
X132080000Y-5080000D03*
D18*
X132080000Y-7480000D03*
X133777056Y-3382944D03*
X133777056Y-6777056D03*
X134480000Y-5080000D03*
X2680000Y-4940000D03*
X3382944Y-3242944D03*
X3382944Y-6637056D03*
X5080000Y-2540000D03*
D19*
X5080000Y-4940000D03*
D18*
X5080000Y-7340000D03*
X6777056Y-3242944D03*
X6777056Y-6637056D03*
X7480000Y-4940000D03*
D11*
X20320000Y-33020000D03*
D12*
X13320000Y-33020000D03*
D11*
X20320000Y-38100000D03*
X13320000Y-38100000D03*
D18*
X2680000Y-55740000D03*
X3382944Y-54042944D03*
X3382944Y-57437056D03*
X5080000Y-53340000D03*
D19*
X5080000Y-55740000D03*
D18*
X5080000Y-58140000D03*
X6777056Y-54042944D03*
X6777056Y-57437056D03*
X7480000Y-55740000D03*
%LPD*%
M02*
