G04 #@! TF.GenerationSoftware,KiCad,Pcbnew,8.0.7*
G04 #@! TF.CreationDate,2025-01-05T11:55:31+01:00*
G04 #@! TF.ProjectId,ADLSC,41444c53-432e-46b6-9963-61645f706362,V1.0*
G04 #@! TF.SameCoordinates,Original*
G04 #@! TF.FileFunction,Copper,L2,Bot*
G04 #@! TF.FilePolarity,Positive*
%FSLAX46Y46*%
G04 Gerber Fmt 4.6, Leading zero omitted, Abs format (unit mm)*
G04 Created by KiCad (PCBNEW 8.0.7) date 2025-01-05 11:55:31*
%MOMM*%
%LPD*%
G01*
G04 APERTURE LIST*
G04 #@! TA.AperFunction,ComponentPad*
%ADD10C,3.000000*%
G04 #@! TD*
G04 #@! TA.AperFunction,ComponentPad*
%ADD11R,3.000000X3.000000*%
G04 #@! TD*
G04 #@! TA.AperFunction,ComponentPad*
%ADD12O,4.000000X3.000000*%
G04 #@! TD*
G04 #@! TA.AperFunction,ComponentPad*
%ADD13O,1.700000X1.700000*%
G04 #@! TD*
G04 #@! TA.AperFunction,ComponentPad*
%ADD14R,1.700000X1.700000*%
G04 #@! TD*
G04 #@! TA.AperFunction,ComponentPad*
%ADD15O,2.100000X1.700000*%
G04 #@! TD*
G04 #@! TA.AperFunction,ComponentPad*
%ADD16R,2.100000X1.700000*%
G04 #@! TD*
G04 #@! TA.AperFunction,ComponentPad*
%ADD17C,0.800000*%
G04 #@! TD*
G04 #@! TA.AperFunction,ComponentPad*
%ADD18C,6.400000*%
G04 #@! TD*
G04 #@! TA.AperFunction,ViaPad*
%ADD19C,0.800000*%
G04 #@! TD*
G04 #@! TA.AperFunction,ViaPad*
%ADD20C,1.600000*%
G04 #@! TD*
G04 #@! TA.AperFunction,Conductor*
%ADD21C,0.440000*%
G04 #@! TD*
G04 APERTURE END LIST*
D10*
X20320000Y-12700000D03*
D11*
X13320000Y-12700000D03*
D10*
X20320000Y-17780000D03*
X13320000Y-17780000D03*
D12*
X35470000Y-45720000D03*
X40070000Y-45720000D03*
X51370000Y-45720000D03*
X55970000Y-45720000D03*
D10*
X13320000Y-48260000D03*
X20320000Y-48260000D03*
D11*
X13320000Y-43180000D03*
D10*
X20320000Y-43180000D03*
X13320000Y-27940000D03*
X20320000Y-27940000D03*
D11*
X13320000Y-22860000D03*
D10*
X20320000Y-22860000D03*
D13*
X127000000Y-25400000D03*
X127000000Y-22860000D03*
X127000000Y-20320000D03*
X127000000Y-17780000D03*
X127000000Y-15240000D03*
D14*
X127000000Y-12700000D03*
D12*
X35470000Y-25400000D03*
X40070000Y-25400000D03*
X51370000Y-25400000D03*
X55970000Y-25400000D03*
D15*
X109220000Y-7620000D03*
X109220000Y-10160000D03*
X109220000Y-12700000D03*
X109220000Y-15240000D03*
X109220000Y-17780000D03*
X109220000Y-20320000D03*
X109220000Y-22860000D03*
X109220000Y-25400000D03*
X109220000Y-27940000D03*
X109220000Y-30480000D03*
X109220000Y-33020000D03*
X109220000Y-35560000D03*
X109220000Y-38100000D03*
X109220000Y-40640000D03*
X109220000Y-43180000D03*
X109220000Y-45720000D03*
X109220000Y-48260000D03*
X109220000Y-50800000D03*
X109220000Y-53340000D03*
X83820000Y-53340000D03*
X83820000Y-50800000D03*
X83820000Y-48260000D03*
X83820000Y-45720000D03*
X83820000Y-43180000D03*
X83820000Y-40640000D03*
X83820000Y-38100000D03*
X83820000Y-35560000D03*
X83820000Y-33020000D03*
X83820000Y-30480000D03*
X83820000Y-27940000D03*
X83820000Y-25400000D03*
X83820000Y-22860000D03*
X83820000Y-20320000D03*
X83820000Y-17780000D03*
X83820000Y-15240000D03*
X83820000Y-12700000D03*
X83820000Y-10160000D03*
D16*
X83820000Y-7620000D03*
D17*
X129680000Y-55880000D03*
X130382944Y-54182944D03*
X130382944Y-57577056D03*
X132080000Y-53480000D03*
D18*
X132080000Y-55880000D03*
D17*
X132080000Y-58280000D03*
X133777056Y-54182944D03*
X133777056Y-57577056D03*
X134480000Y-55880000D03*
D13*
X127000000Y-48260000D03*
X127000000Y-45720000D03*
X127000000Y-43180000D03*
X127000000Y-40640000D03*
X127000000Y-38100000D03*
D14*
X127000000Y-35560000D03*
D17*
X129680000Y-5080000D03*
X130382944Y-3382944D03*
X130382944Y-6777056D03*
X132080000Y-2680000D03*
D18*
X132080000Y-5080000D03*
D17*
X132080000Y-7480000D03*
X133777056Y-3382944D03*
X133777056Y-6777056D03*
X134480000Y-5080000D03*
X2680000Y-4940000D03*
X3382944Y-3242944D03*
X3382944Y-6637056D03*
X5080000Y-2540000D03*
D18*
X5080000Y-4940000D03*
D17*
X5080000Y-7340000D03*
X6777056Y-3242944D03*
X6777056Y-6637056D03*
X7480000Y-4940000D03*
D10*
X20320000Y-33020000D03*
D11*
X13320000Y-33020000D03*
D10*
X20320000Y-38100000D03*
X13320000Y-38100000D03*
D17*
X2680000Y-55740000D03*
X3382944Y-54042944D03*
X3382944Y-57437056D03*
X5080000Y-53340000D03*
D18*
X5080000Y-55740000D03*
D17*
X5080000Y-58140000D03*
X6777056Y-54042944D03*
X6777056Y-57437056D03*
X7480000Y-55740000D03*
D19*
X111963200Y-7569200D03*
X81280000Y-50800000D03*
X81280000Y-36195000D03*
X111506000Y-18999200D03*
X52933600Y-17780000D03*
X128524000Y-31038800D03*
X22606000Y-39624000D03*
X66294000Y-37795200D03*
X22606000Y-44602400D03*
X92710000Y-39624000D03*
D20*
X86360000Y-32385000D03*
D19*
X38201600Y-35102800D03*
D20*
X66675000Y-17145000D03*
D19*
X39979600Y-32461200D03*
D20*
X86360000Y-25400000D03*
D19*
X32359600Y-40894000D03*
X32918400Y-47802800D03*
X81178400Y-17221200D03*
X56540400Y-28092400D03*
X111556800Y-13766800D03*
D20*
X59080400Y-31089600D03*
D19*
X93624400Y-7213600D03*
D20*
X75565000Y-20955000D03*
D19*
X71755000Y-30480000D03*
D20*
X46990000Y-10160000D03*
D19*
X106476800Y-7620000D03*
X45415200Y-25247600D03*
X22606000Y-36576000D03*
X86563200Y-40944800D03*
X32054800Y-30124400D03*
X73660000Y-36830000D03*
X52882800Y-43332400D03*
D20*
X86995000Y-10160000D03*
X46990000Y-12700000D03*
D19*
X21590000Y-8890000D03*
X115011200Y-11226800D03*
D20*
X43180000Y-10160000D03*
D19*
X55981600Y-41960800D03*
X40538400Y-36118800D03*
X27051000Y-23749000D03*
X63601600Y-45923200D03*
X72390000Y-42545000D03*
X55778400Y-35356800D03*
D20*
X52705000Y-10160000D03*
D19*
X57556400Y-13360400D03*
X106680000Y-36576000D03*
X38811200Y-41706800D03*
X16510000Y-39420800D03*
X115163600Y-18542000D03*
X50393600Y-31851600D03*
D20*
X98425000Y-34925000D03*
D19*
X106781600Y-39674800D03*
D20*
X75565000Y-27940000D03*
X59690000Y-17145000D03*
D19*
X114960400Y-13665200D03*
X73660000Y-45720000D03*
X124561600Y-19050000D03*
X85801200Y-36830000D03*
X121056400Y-21691600D03*
X37642800Y-5689600D03*
X31394400Y-33020000D03*
D20*
X45085000Y-15240000D03*
D19*
X52476400Y-7213600D03*
D20*
X80645000Y-7620000D03*
D19*
X129286000Y-45669200D03*
D20*
X93345000Y-20955000D03*
D19*
X92506800Y-36474400D03*
X86258400Y-17424400D03*
D20*
X48895000Y-15240000D03*
D19*
X101498400Y-11125200D03*
D20*
X48895000Y-10160000D03*
X41275000Y-10160000D03*
X74295000Y-17145000D03*
D19*
X63296800Y-26619200D03*
X101498400Y-14528800D03*
X37592000Y-2641600D03*
X26670000Y-15240000D03*
X115316000Y-23368000D03*
D20*
X105410000Y-16510000D03*
D19*
X10160000Y-15240000D03*
X42824400Y-44043600D03*
D20*
X45085000Y-10160000D03*
X59690000Y-39370000D03*
D19*
X132486400Y-45720000D03*
X26670000Y-47625000D03*
X78435200Y-35458400D03*
X123139200Y-16408400D03*
X52527200Y-2590800D03*
X19050000Y-8890000D03*
X80213200Y-44653200D03*
D20*
X43180000Y-15240000D03*
D19*
X28803600Y-36017200D03*
X7620000Y-8890000D03*
D20*
X46990000Y-15240000D03*
X48895000Y-12700000D03*
D19*
X11430000Y-8890000D03*
X111658400Y-32613600D03*
X132588000Y-30226000D03*
X69596000Y-41783000D03*
X75565000Y-39370000D03*
X64135000Y-23495000D03*
X66040000Y-42545000D03*
X80010000Y-42545000D03*
X113030000Y-27940000D03*
X113030000Y-10795000D03*
X59486800Y-32715200D03*
X75565000Y-31750000D03*
X72390000Y-31750000D03*
X69850000Y-33020000D03*
X60960000Y-33655000D03*
X74930000Y-34925000D03*
X68580000Y-33655000D03*
X71990000Y-33655000D03*
D21*
X72009000Y-39370000D02*
X69596000Y-41783000D01*
X75565000Y-39370000D02*
X72009000Y-39370000D01*
X67310000Y-43815000D02*
X78740000Y-43815000D01*
X78740000Y-43815000D02*
X80010000Y-42545000D01*
X71120000Y-37465000D02*
X66040000Y-42545000D01*
X66040000Y-42545000D02*
X67310000Y-43815000D01*
X64135000Y-23495000D02*
X64135000Y-25360366D01*
X64135000Y-25360366D02*
X71120000Y-32345366D01*
X71120000Y-32345366D02*
X71120000Y-37465000D01*
X113030000Y-10795000D02*
X113030000Y-27940000D01*
X59606600Y-32835000D02*
X69665000Y-32835000D01*
X69665000Y-32835000D02*
X69850000Y-33020000D01*
X59486800Y-32715200D02*
X59606600Y-32835000D01*
X75565000Y-31750000D02*
X72390000Y-31750000D01*
X60960000Y-33655000D02*
X68580000Y-33655000D01*
X74930000Y-34925000D02*
X73260000Y-34925000D01*
X73260000Y-34925000D02*
X71990000Y-33655000D01*
G04 #@! TA.AperFunction,Conductor*
G36*
X76143039Y-520185D02*
G01*
X76188794Y-572989D01*
X76200000Y-624500D01*
X76200000Y-6350000D01*
X82214227Y-6350000D01*
X82281266Y-6369685D01*
X82327021Y-6422489D01*
X82336965Y-6491647D01*
X82327915Y-6518841D01*
X82329303Y-6519359D01*
X82275908Y-6662517D01*
X82274029Y-6680000D01*
X82269501Y-6722123D01*
X82269500Y-6722135D01*
X82269500Y-8517870D01*
X82269501Y-8517876D01*
X82275908Y-8577483D01*
X82326202Y-8712328D01*
X82326206Y-8712335D01*
X82412452Y-8827544D01*
X82412455Y-8827547D01*
X82527664Y-8913793D01*
X82527671Y-8913797D01*
X82659082Y-8962810D01*
X82715016Y-9004681D01*
X82739433Y-9070145D01*
X82724582Y-9138418D01*
X82703431Y-9166673D01*
X82589889Y-9280215D01*
X82464951Y-9452179D01*
X82368444Y-9641585D01*
X82302753Y-9843760D01*
X82269500Y-10053713D01*
X82269500Y-10266286D01*
X82294910Y-10426722D01*
X82302754Y-10476243D01*
X82345155Y-10606740D01*
X82368444Y-10678414D01*
X82464951Y-10867820D01*
X82589890Y-11039786D01*
X82740213Y-11190109D01*
X82912182Y-11315050D01*
X82920946Y-11319516D01*
X82971742Y-11367491D01*
X82988536Y-11435312D01*
X82965998Y-11501447D01*
X82920946Y-11540484D01*
X82912182Y-11544949D01*
X82740213Y-11669890D01*
X82589890Y-11820213D01*
X82464951Y-11992179D01*
X82368444Y-12181585D01*
X82302753Y-12383760D01*
X82269500Y-12593713D01*
X82269500Y-12806286D01*
X82302753Y-13016239D01*
X82368444Y-13218414D01*
X82464951Y-13407820D01*
X82589890Y-13579786D01*
X82740213Y-13730109D01*
X82912182Y-13855050D01*
X82920946Y-13859516D01*
X82971742Y-13907491D01*
X82988536Y-13975312D01*
X82965998Y-14041447D01*
X82920946Y-14080484D01*
X82912182Y-14084949D01*
X82740213Y-14209890D01*
X82589890Y-14360213D01*
X82464951Y-14532179D01*
X82368444Y-14721585D01*
X82302753Y-14923760D01*
X82289952Y-15004586D01*
X82269500Y-15133713D01*
X82269500Y-15346287D01*
X82302754Y-15556243D01*
X82350654Y-15703664D01*
X82368444Y-15758414D01*
X82464951Y-15947820D01*
X82589890Y-16119786D01*
X82740213Y-16270109D01*
X82912182Y-16395050D01*
X82920946Y-16399516D01*
X82971742Y-16447491D01*
X82988536Y-16515312D01*
X82965998Y-16581447D01*
X82920946Y-16620484D01*
X82912182Y-16624949D01*
X82740213Y-16749890D01*
X82589890Y-16900213D01*
X82464951Y-17072179D01*
X82368444Y-17261585D01*
X82302753Y-17463760D01*
X82297874Y-17494566D01*
X82269500Y-17673713D01*
X82269500Y-17886287D01*
X82302754Y-18096243D01*
X82350654Y-18243664D01*
X82368444Y-18298414D01*
X82464951Y-18487820D01*
X82589890Y-18659786D01*
X82740213Y-18810109D01*
X82912182Y-18935050D01*
X82920946Y-18939516D01*
X82971742Y-18987491D01*
X82988536Y-19055312D01*
X82965998Y-19121447D01*
X82920946Y-19160484D01*
X82912182Y-19164949D01*
X82740213Y-19289890D01*
X82589890Y-19440213D01*
X82464951Y-19612179D01*
X82368444Y-19801585D01*
X82302753Y-20003760D01*
X82289952Y-20084586D01*
X82269500Y-20213713D01*
X82269500Y-20426287D01*
X82302754Y-20636243D01*
X82350654Y-20783664D01*
X82368444Y-20838414D01*
X82464951Y-21027820D01*
X82589890Y-21199786D01*
X82740213Y-21350109D01*
X82912182Y-21475050D01*
X82920946Y-21479516D01*
X82971742Y-21527491D01*
X82988536Y-21595312D01*
X82965998Y-21661447D01*
X82920946Y-21700484D01*
X82912182Y-21704949D01*
X82740213Y-21829890D01*
X82589890Y-21980213D01*
X82464951Y-22152179D01*
X82368444Y-22341585D01*
X82302753Y-22543760D01*
X82269500Y-22753713D01*
X82269500Y-22966286D01*
X82294910Y-23126722D01*
X82302754Y-23176243D01*
X82350598Y-23323492D01*
X82368444Y-23378414D01*
X82464951Y-23567820D01*
X82589890Y-23739786D01*
X82740213Y-23890109D01*
X82912182Y-24015050D01*
X82920946Y-24019516D01*
X82971742Y-24067491D01*
X82988536Y-24135312D01*
X82965998Y-24201447D01*
X82920946Y-24240484D01*
X82912182Y-24244949D01*
X82740213Y-24369890D01*
X82589890Y-24520213D01*
X82464951Y-24692179D01*
X82368444Y-24881585D01*
X82302753Y-25083760D01*
X82269500Y-25293713D01*
X82269500Y-25506286D01*
X82300441Y-25701644D01*
X82302754Y-25716243D01*
X82350654Y-25863664D01*
X82368444Y-25918414D01*
X82464951Y-26107820D01*
X82589890Y-26279786D01*
X82740213Y-26430109D01*
X82912182Y-26555050D01*
X82920946Y-26559516D01*
X82971742Y-26607491D01*
X82988536Y-26675312D01*
X82965998Y-26741447D01*
X82920946Y-26780484D01*
X82912182Y-26784949D01*
X82740213Y-26909890D01*
X82589890Y-27060213D01*
X82464951Y-27232179D01*
X82368444Y-27421585D01*
X82302753Y-27623760D01*
X82297863Y-27654637D01*
X82269500Y-27833713D01*
X82269500Y-28046287D01*
X82302754Y-28256243D01*
X82357415Y-28424472D01*
X82368444Y-28458414D01*
X82464951Y-28647820D01*
X82589890Y-28819786D01*
X82740213Y-28970109D01*
X82912182Y-29095050D01*
X82920946Y-29099516D01*
X82971742Y-29147491D01*
X82988536Y-29215312D01*
X82965998Y-29281447D01*
X82920946Y-29320484D01*
X82912182Y-29324949D01*
X82740213Y-29449890D01*
X82589890Y-29600213D01*
X82464951Y-29772179D01*
X82368444Y-29961585D01*
X82302753Y-30163760D01*
X82269500Y-30373713D01*
X82269500Y-30586287D01*
X82302754Y-30796243D01*
X82357863Y-30965851D01*
X82368444Y-30998414D01*
X82464951Y-31187820D01*
X82589890Y-31359786D01*
X82740213Y-31510109D01*
X82912182Y-31635050D01*
X82920946Y-31639516D01*
X82971742Y-31687491D01*
X82988536Y-31755312D01*
X82965998Y-31821447D01*
X82920946Y-31860484D01*
X82912182Y-31864949D01*
X82740213Y-31989890D01*
X82589890Y-32140213D01*
X82464951Y-32312179D01*
X82368444Y-32501585D01*
X82302753Y-32703760D01*
X82269500Y-32913713D01*
X82269500Y-33126286D01*
X82294910Y-33286722D01*
X82302754Y-33336243D01*
X82355751Y-33499351D01*
X82368444Y-33538414D01*
X82464951Y-33727820D01*
X82589890Y-33899786D01*
X82740213Y-34050109D01*
X82912182Y-34175050D01*
X82920946Y-34179516D01*
X82971742Y-34227491D01*
X82988536Y-34295312D01*
X82965998Y-34361447D01*
X82920946Y-34400484D01*
X82912182Y-34404949D01*
X82740213Y-34529890D01*
X82589890Y-34680213D01*
X82464951Y-34852179D01*
X82368444Y-35041585D01*
X82302753Y-35243760D01*
X82269500Y-35453713D01*
X82269500Y-35666286D01*
X82302753Y-35876239D01*
X82368444Y-36078414D01*
X82464951Y-36267820D01*
X82589890Y-36439786D01*
X82740213Y-36590109D01*
X82912182Y-36715050D01*
X82920946Y-36719516D01*
X82971742Y-36767491D01*
X82988536Y-36835312D01*
X82965998Y-36901447D01*
X82920946Y-36940484D01*
X82912182Y-36944949D01*
X82740213Y-37069890D01*
X82589890Y-37220213D01*
X82464951Y-37392179D01*
X82368444Y-37581585D01*
X82302753Y-37783760D01*
X82280495Y-37924292D01*
X82269500Y-37993713D01*
X82269500Y-38206287D01*
X82302754Y-38416243D01*
X82357863Y-38585851D01*
X82368444Y-38618414D01*
X82464951Y-38807820D01*
X82589890Y-38979786D01*
X82740213Y-39130109D01*
X82912179Y-39255048D01*
X82912181Y-39255049D01*
X82912184Y-39255051D01*
X82921493Y-39259794D01*
X82972290Y-39307766D01*
X82989087Y-39375587D01*
X82966552Y-39441722D01*
X82921502Y-39480762D01*
X82912443Y-39485378D01*
X82740540Y-39610272D01*
X82740535Y-39610276D01*
X82590276Y-39760535D01*
X82590272Y-39760540D01*
X82465379Y-39932442D01*
X82368904Y-40121782D01*
X82303242Y-40323870D01*
X82303242Y-40323873D01*
X82292769Y-40390000D01*
X83386988Y-40390000D01*
X83354075Y-40447007D01*
X83320000Y-40574174D01*
X83320000Y-40705826D01*
X83354075Y-40832993D01*
X83386988Y-40890000D01*
X82292769Y-40890000D01*
X82303242Y-40956126D01*
X82303242Y-40956129D01*
X82368904Y-41158217D01*
X82465379Y-41347557D01*
X82590272Y-41519459D01*
X82590276Y-41519464D01*
X82740535Y-41669723D01*
X82740540Y-41669727D01*
X82912444Y-41794622D01*
X82921495Y-41799234D01*
X82972292Y-41847208D01*
X82989087Y-41915029D01*
X82966550Y-41981164D01*
X82921499Y-42020202D01*
X82912182Y-42024949D01*
X82740213Y-42149890D01*
X82589890Y-42300213D01*
X82464951Y-42472179D01*
X82368444Y-42661585D01*
X82302753Y-42863760D01*
X82269500Y-43073713D01*
X82269500Y-43286286D01*
X82288483Y-43406144D01*
X82302754Y-43496243D01*
X82350654Y-43643664D01*
X82368444Y-43698414D01*
X82464951Y-43887820D01*
X82589890Y-44059786D01*
X82740213Y-44210109D01*
X82912182Y-44335050D01*
X82920946Y-44339516D01*
X82971742Y-44387491D01*
X82988536Y-44455312D01*
X82965998Y-44521447D01*
X82920946Y-44560484D01*
X82912182Y-44564949D01*
X82740213Y-44689890D01*
X82589890Y-44840213D01*
X82464951Y-45012179D01*
X82368444Y-45201585D01*
X82302753Y-45403760D01*
X82301291Y-45412993D01*
X82269500Y-45613713D01*
X82269500Y-45826287D01*
X82302754Y-46036243D01*
X82350598Y-46183492D01*
X82368444Y-46238414D01*
X82464951Y-46427820D01*
X82589890Y-46599786D01*
X82740213Y-46750109D01*
X82912182Y-46875050D01*
X82920946Y-46879516D01*
X82971742Y-46927491D01*
X82988536Y-46995312D01*
X82965998Y-47061447D01*
X82920946Y-47100484D01*
X82912182Y-47104949D01*
X82740213Y-47229890D01*
X82589890Y-47380213D01*
X82464951Y-47552179D01*
X82368444Y-47741585D01*
X82302753Y-47943760D01*
X82297863Y-47974637D01*
X82269500Y-48153713D01*
X82269500Y-48366287D01*
X82302754Y-48576243D01*
X82357415Y-48744472D01*
X82368444Y-48778414D01*
X82464951Y-48967820D01*
X82589890Y-49139786D01*
X82740213Y-49290109D01*
X82912182Y-49415050D01*
X82920946Y-49419516D01*
X82971742Y-49467491D01*
X82988536Y-49535312D01*
X82965998Y-49601447D01*
X82920946Y-49640484D01*
X82912182Y-49644949D01*
X82740213Y-49769890D01*
X82589890Y-49920213D01*
X82464951Y-50092179D01*
X82368444Y-50281585D01*
X82302753Y-50483760D01*
X82269500Y-50693713D01*
X82269500Y-50906286D01*
X82302753Y-51116239D01*
X82368444Y-51318414D01*
X82464951Y-51507820D01*
X82589890Y-51679786D01*
X82740213Y-51830109D01*
X82912182Y-51955050D01*
X82920946Y-51959516D01*
X82971742Y-52007491D01*
X82988536Y-52075312D01*
X82965998Y-52141447D01*
X82920946Y-52180484D01*
X82912182Y-52184949D01*
X82740213Y-52309890D01*
X82589890Y-52460213D01*
X82464951Y-52632179D01*
X82368444Y-52821585D01*
X82302753Y-53023760D01*
X82292088Y-53091096D01*
X82269500Y-53233713D01*
X82269500Y-53446287D01*
X82302754Y-53656243D01*
X82317688Y-53702206D01*
X82368444Y-53858414D01*
X82464951Y-54047820D01*
X82589890Y-54219786D01*
X82740213Y-54370109D01*
X82912179Y-54495048D01*
X82912181Y-54495049D01*
X82912184Y-54495051D01*
X83101588Y-54591557D01*
X83303757Y-54657246D01*
X83513713Y-54690500D01*
X83513714Y-54690500D01*
X84126286Y-54690500D01*
X84126287Y-54690500D01*
X84336243Y-54657246D01*
X84538412Y-54591557D01*
X84727816Y-54495051D01*
X84749789Y-54479086D01*
X84899786Y-54370109D01*
X84899788Y-54370106D01*
X84899792Y-54370104D01*
X85050104Y-54219792D01*
X85050106Y-54219788D01*
X85050109Y-54219786D01*
X85175048Y-54047820D01*
X85175047Y-54047820D01*
X85175051Y-54047816D01*
X85271557Y-53858412D01*
X85337246Y-53656243D01*
X85370500Y-53446287D01*
X85370500Y-53233713D01*
X85337246Y-53023757D01*
X85271557Y-52821588D01*
X85175051Y-52632184D01*
X85175049Y-52632181D01*
X85175048Y-52632179D01*
X85050109Y-52460213D01*
X84899786Y-52309890D01*
X84727820Y-52184951D01*
X84727115Y-52184591D01*
X84719054Y-52180485D01*
X84668259Y-52132512D01*
X84651463Y-52064692D01*
X84673999Y-51998556D01*
X84719054Y-51959515D01*
X84727816Y-51955051D01*
X84749789Y-51939086D01*
X84899786Y-51830109D01*
X84899788Y-51830106D01*
X84899792Y-51830104D01*
X85050104Y-51679792D01*
X85050106Y-51679788D01*
X85050109Y-51679786D01*
X85175048Y-51507820D01*
X85175047Y-51507820D01*
X85175051Y-51507816D01*
X85271557Y-51318412D01*
X85337246Y-51116243D01*
X85370500Y-50906287D01*
X85370500Y-50693713D01*
X85337246Y-50483757D01*
X85271557Y-50281588D01*
X85175051Y-50092184D01*
X85175049Y-50092181D01*
X85175048Y-50092179D01*
X85050109Y-49920213D01*
X84899786Y-49769890D01*
X84727820Y-49644951D01*
X84727115Y-49644591D01*
X84719054Y-49640485D01*
X84668259Y-49592512D01*
X84651463Y-49524692D01*
X84673999Y-49458556D01*
X84719054Y-49419515D01*
X84727816Y-49415051D01*
X84825547Y-49344046D01*
X84899786Y-49290109D01*
X84899788Y-49290106D01*
X84899792Y-49290104D01*
X85050104Y-49139792D01*
X85050106Y-49139788D01*
X85050109Y-49139786D01*
X85175048Y-48967820D01*
X85175047Y-48967820D01*
X85175051Y-48967816D01*
X85271557Y-48778412D01*
X85337246Y-48576243D01*
X85370500Y-48366287D01*
X85370500Y-48153713D01*
X85337246Y-47943757D01*
X85271557Y-47741588D01*
X85175051Y-47552184D01*
X85175049Y-47552181D01*
X85175048Y-47552179D01*
X85050109Y-47380213D01*
X84899786Y-47229890D01*
X84727820Y-47104951D01*
X84727115Y-47104591D01*
X84719054Y-47100485D01*
X84668259Y-47052512D01*
X84651463Y-46984692D01*
X84673999Y-46918556D01*
X84719054Y-46879515D01*
X84727816Y-46875051D01*
X84784587Y-46833805D01*
X84899786Y-46750109D01*
X84899788Y-46750106D01*
X84899792Y-46750104D01*
X85050104Y-46599792D01*
X85050106Y-46599788D01*
X85050109Y-46599786D01*
X85175048Y-46427820D01*
X85175047Y-46427820D01*
X85175051Y-46427816D01*
X85271557Y-46238412D01*
X85337246Y-46036243D01*
X85370500Y-45826287D01*
X85370500Y-45613713D01*
X85337246Y-45403757D01*
X85271557Y-45201588D01*
X85175051Y-45012184D01*
X85175049Y-45012181D01*
X85175048Y-45012179D01*
X85050109Y-44840213D01*
X84899786Y-44689890D01*
X84727820Y-44564951D01*
X84727115Y-44564591D01*
X84719054Y-44560485D01*
X84668259Y-44512512D01*
X84651463Y-44444692D01*
X84673999Y-44378556D01*
X84719054Y-44339515D01*
X84727816Y-44335051D01*
X84749789Y-44319086D01*
X84899786Y-44210109D01*
X84899788Y-44210106D01*
X84899792Y-44210104D01*
X85050104Y-44059792D01*
X85050106Y-44059788D01*
X85050109Y-44059786D01*
X85175048Y-43887820D01*
X85175047Y-43887820D01*
X85175051Y-43887816D01*
X85271557Y-43698412D01*
X85337246Y-43496243D01*
X85370500Y-43286287D01*
X85370500Y-43073713D01*
X85337246Y-42863757D01*
X85271557Y-42661588D01*
X85175051Y-42472184D01*
X85175049Y-42472181D01*
X85175048Y-42472179D01*
X85050109Y-42300213D01*
X84899786Y-42149890D01*
X84727817Y-42024949D01*
X84718504Y-42020204D01*
X84667707Y-41972230D01*
X84650912Y-41904409D01*
X84673449Y-41838274D01*
X84718507Y-41799232D01*
X84727558Y-41794620D01*
X84899459Y-41669727D01*
X84899464Y-41669723D01*
X85049723Y-41519464D01*
X85049727Y-41519459D01*
X85174620Y-41347557D01*
X85271095Y-41158217D01*
X85336757Y-40956129D01*
X85336757Y-40956126D01*
X85347231Y-40890000D01*
X84253012Y-40890000D01*
X84285925Y-40832993D01*
X84320000Y-40705826D01*
X84320000Y-40574174D01*
X84285925Y-40447007D01*
X84253012Y-40390000D01*
X85347231Y-40390000D01*
X85336757Y-40323873D01*
X85336757Y-40323870D01*
X85271095Y-40121782D01*
X85174620Y-39932442D01*
X85049727Y-39760540D01*
X85049723Y-39760535D01*
X84899464Y-39610276D01*
X84899459Y-39610272D01*
X84727555Y-39485377D01*
X84718500Y-39480763D01*
X84667706Y-39432788D01*
X84650912Y-39364966D01*
X84673451Y-39298832D01*
X84718508Y-39259793D01*
X84727816Y-39255051D01*
X84825174Y-39184317D01*
X84899786Y-39130109D01*
X84899788Y-39130106D01*
X84899792Y-39130104D01*
X85050104Y-38979792D01*
X85050106Y-38979788D01*
X85050109Y-38979786D01*
X85159086Y-38829789D01*
X85175051Y-38807816D01*
X85271557Y-38618412D01*
X85337246Y-38416243D01*
X85370500Y-38206287D01*
X85370500Y-37993713D01*
X85337246Y-37783757D01*
X85271557Y-37581588D01*
X85175051Y-37392184D01*
X85175049Y-37392181D01*
X85175048Y-37392179D01*
X85050109Y-37220213D01*
X84899786Y-37069890D01*
X84727820Y-36944951D01*
X84727115Y-36944591D01*
X84719054Y-36940485D01*
X84668259Y-36892512D01*
X84651463Y-36824692D01*
X84673999Y-36758556D01*
X84719054Y-36719515D01*
X84727816Y-36715051D01*
X84814138Y-36652335D01*
X84899786Y-36590109D01*
X84899788Y-36590106D01*
X84899792Y-36590104D01*
X85050104Y-36439792D01*
X85050106Y-36439788D01*
X85050109Y-36439786D01*
X85175048Y-36267820D01*
X85175047Y-36267820D01*
X85175051Y-36267816D01*
X85271557Y-36078412D01*
X85337246Y-35876243D01*
X85370500Y-35666287D01*
X85370500Y-35453713D01*
X85337246Y-35243757D01*
X85271557Y-35041588D01*
X85175051Y-34852184D01*
X85175049Y-34852181D01*
X85175048Y-34852179D01*
X85050109Y-34680213D01*
X84899786Y-34529890D01*
X84727820Y-34404951D01*
X84727115Y-34404591D01*
X84719054Y-34400485D01*
X84668259Y-34352512D01*
X84651463Y-34284692D01*
X84673999Y-34218556D01*
X84719054Y-34179515D01*
X84727816Y-34175051D01*
X84825174Y-34104317D01*
X84899786Y-34050109D01*
X84899788Y-34050106D01*
X84899792Y-34050104D01*
X85050104Y-33899792D01*
X85050106Y-33899788D01*
X85050109Y-33899786D01*
X85175048Y-33727820D01*
X85175047Y-33727820D01*
X85175051Y-33727816D01*
X85271557Y-33538412D01*
X85337246Y-33336243D01*
X85370500Y-33126287D01*
X85370500Y-32913713D01*
X85337246Y-32703757D01*
X85271557Y-32501588D01*
X85175051Y-32312184D01*
X85175049Y-32312181D01*
X85175048Y-32312179D01*
X85050109Y-32140213D01*
X84899786Y-31989890D01*
X84727820Y-31864951D01*
X84727115Y-31864591D01*
X84719054Y-31860485D01*
X84668259Y-31812512D01*
X84651463Y-31744692D01*
X84673999Y-31678556D01*
X84719054Y-31639515D01*
X84727816Y-31635051D01*
X84749789Y-31619086D01*
X84899786Y-31510109D01*
X84899788Y-31510106D01*
X84899792Y-31510104D01*
X85050104Y-31359792D01*
X85050106Y-31359788D01*
X85050109Y-31359786D01*
X85175048Y-31187820D01*
X85175047Y-31187820D01*
X85175051Y-31187816D01*
X85271557Y-30998412D01*
X85337246Y-30796243D01*
X85370500Y-30586287D01*
X85370500Y-30373713D01*
X85337246Y-30163757D01*
X85271557Y-29961588D01*
X85175051Y-29772184D01*
X85175049Y-29772181D01*
X85175048Y-29772179D01*
X85050109Y-29600213D01*
X84899786Y-29449890D01*
X84727820Y-29324951D01*
X84727115Y-29324591D01*
X84719054Y-29320485D01*
X84668259Y-29272512D01*
X84651463Y-29204692D01*
X84673999Y-29138556D01*
X84719054Y-29099515D01*
X84727816Y-29095051D01*
X84825547Y-29024046D01*
X84899786Y-28970109D01*
X84899788Y-28970106D01*
X84899792Y-28970104D01*
X85050104Y-28819792D01*
X85050106Y-28819788D01*
X85050109Y-28819786D01*
X85175048Y-28647820D01*
X85175047Y-28647820D01*
X85175051Y-28647816D01*
X85271557Y-28458412D01*
X85337246Y-28256243D01*
X85370500Y-28046287D01*
X85370500Y-27833713D01*
X85337246Y-27623757D01*
X85271557Y-27421588D01*
X85175051Y-27232184D01*
X85175049Y-27232181D01*
X85175048Y-27232179D01*
X85050109Y-27060213D01*
X84899786Y-26909890D01*
X84727820Y-26784951D01*
X84727115Y-26784591D01*
X84719054Y-26780485D01*
X84668259Y-26732512D01*
X84651463Y-26664692D01*
X84673999Y-26598556D01*
X84719054Y-26559515D01*
X84727816Y-26555051D01*
X84784587Y-26513805D01*
X84899786Y-26430109D01*
X84899788Y-26430106D01*
X84899792Y-26430104D01*
X85050104Y-26279792D01*
X85050106Y-26279788D01*
X85050109Y-26279786D01*
X85175048Y-26107820D01*
X85175047Y-26107820D01*
X85175051Y-26107816D01*
X85271557Y-25918412D01*
X85337246Y-25716243D01*
X85370500Y-25506287D01*
X85370500Y-25293713D01*
X85337246Y-25083757D01*
X85271557Y-24881588D01*
X85175051Y-24692184D01*
X85175049Y-24692181D01*
X85175048Y-24692179D01*
X85050109Y-24520213D01*
X84899786Y-24369890D01*
X84727820Y-24244951D01*
X84727115Y-24244591D01*
X84719054Y-24240485D01*
X84668259Y-24192512D01*
X84651463Y-24124692D01*
X84673999Y-24058556D01*
X84719054Y-24019515D01*
X84727816Y-24015051D01*
X84825174Y-23944317D01*
X84899786Y-23890109D01*
X84899788Y-23890106D01*
X84899792Y-23890104D01*
X85050104Y-23739792D01*
X85050106Y-23739788D01*
X85050109Y-23739786D01*
X85175048Y-23567820D01*
X85175047Y-23567820D01*
X85175051Y-23567816D01*
X85271557Y-23378412D01*
X85337246Y-23176243D01*
X85370500Y-22966287D01*
X85370500Y-22753713D01*
X85337246Y-22543757D01*
X85271557Y-22341588D01*
X85175051Y-22152184D01*
X85175049Y-22152181D01*
X85175048Y-22152179D01*
X85050109Y-21980213D01*
X84899786Y-21829890D01*
X84727820Y-21704951D01*
X84719600Y-21700763D01*
X84719054Y-21700485D01*
X84668259Y-21652512D01*
X84651463Y-21584692D01*
X84673999Y-21518556D01*
X84719054Y-21479515D01*
X84727816Y-21475051D01*
X84888239Y-21358498D01*
X84899786Y-21350109D01*
X84899788Y-21350106D01*
X84899792Y-21350104D01*
X85050104Y-21199792D01*
X85050106Y-21199788D01*
X85050109Y-21199786D01*
X85175048Y-21027820D01*
X85175047Y-21027820D01*
X85175051Y-21027816D01*
X85271557Y-20838412D01*
X85337246Y-20636243D01*
X85370500Y-20426287D01*
X85370500Y-20213713D01*
X85337246Y-20003757D01*
X85271557Y-19801588D01*
X85175051Y-19612184D01*
X85175049Y-19612181D01*
X85175048Y-19612179D01*
X85050109Y-19440213D01*
X84899786Y-19289890D01*
X84727820Y-19164951D01*
X84727115Y-19164591D01*
X84719054Y-19160485D01*
X84668259Y-19112512D01*
X84651463Y-19044692D01*
X84673999Y-18978556D01*
X84719054Y-18939515D01*
X84727816Y-18935051D01*
X84825174Y-18864317D01*
X84899786Y-18810109D01*
X84899788Y-18810106D01*
X84899792Y-18810104D01*
X85050104Y-18659792D01*
X85050106Y-18659788D01*
X85050109Y-18659786D01*
X85175048Y-18487820D01*
X85175047Y-18487820D01*
X85175051Y-18487816D01*
X85271557Y-18298412D01*
X85337246Y-18096243D01*
X85370500Y-17886287D01*
X85370500Y-17673713D01*
X85337246Y-17463757D01*
X85271557Y-17261588D01*
X85175051Y-17072184D01*
X85175049Y-17072181D01*
X85175048Y-17072179D01*
X85050109Y-16900213D01*
X84899786Y-16749890D01*
X84727820Y-16624951D01*
X84727115Y-16624591D01*
X84719054Y-16620485D01*
X84668259Y-16572512D01*
X84651463Y-16504692D01*
X84673999Y-16438556D01*
X84719054Y-16399515D01*
X84727816Y-16395051D01*
X84888239Y-16278498D01*
X84899786Y-16270109D01*
X84899788Y-16270106D01*
X84899792Y-16270104D01*
X85050104Y-16119792D01*
X85050106Y-16119788D01*
X85050109Y-16119786D01*
X85175048Y-15947820D01*
X85175047Y-15947820D01*
X85175051Y-15947816D01*
X85271557Y-15758412D01*
X85337246Y-15556243D01*
X85370500Y-15346287D01*
X85370500Y-15133713D01*
X85337246Y-14923757D01*
X85271557Y-14721588D01*
X85175051Y-14532184D01*
X85175049Y-14532181D01*
X85175048Y-14532179D01*
X85050109Y-14360213D01*
X84899786Y-14209890D01*
X84727820Y-14084951D01*
X84727115Y-14084591D01*
X84719054Y-14080485D01*
X84668259Y-14032512D01*
X84651463Y-13964692D01*
X84673999Y-13898556D01*
X84719054Y-13859515D01*
X84727816Y-13855051D01*
X84814138Y-13792335D01*
X84899786Y-13730109D01*
X84899788Y-13730106D01*
X84899792Y-13730104D01*
X85050104Y-13579792D01*
X85050106Y-13579788D01*
X85050109Y-13579786D01*
X85175048Y-13407820D01*
X85175047Y-13407820D01*
X85175051Y-13407816D01*
X85271557Y-13218412D01*
X85337246Y-13016243D01*
X85370500Y-12806287D01*
X85370500Y-12593713D01*
X85337246Y-12383757D01*
X85271557Y-12181588D01*
X85175051Y-11992184D01*
X85175049Y-11992181D01*
X85175048Y-11992179D01*
X85050109Y-11820213D01*
X84899786Y-11669890D01*
X84727820Y-11544951D01*
X84727115Y-11544591D01*
X84719054Y-11540485D01*
X84668259Y-11492512D01*
X84651463Y-11424692D01*
X84673999Y-11358556D01*
X84719054Y-11319515D01*
X84727816Y-11315051D01*
X84749789Y-11299086D01*
X84899786Y-11190109D01*
X84899788Y-11190106D01*
X84899792Y-11190104D01*
X85050104Y-11039792D01*
X85050106Y-11039788D01*
X85050109Y-11039786D01*
X85175048Y-10867820D01*
X85175047Y-10867820D01*
X85175051Y-10867816D01*
X85271557Y-10678412D01*
X85337246Y-10476243D01*
X85370500Y-10266287D01*
X85370500Y-10053713D01*
X85337246Y-9843757D01*
X85271557Y-9641588D01*
X85175051Y-9452184D01*
X85175049Y-9452181D01*
X85175048Y-9452179D01*
X85050109Y-9280213D01*
X84936569Y-9166673D01*
X84903084Y-9105350D01*
X84908068Y-9035658D01*
X84949940Y-8979725D01*
X84980915Y-8962810D01*
X85112331Y-8913796D01*
X85227546Y-8827546D01*
X85313796Y-8712331D01*
X85364091Y-8577483D01*
X85370500Y-8517873D01*
X85370499Y-6722128D01*
X85364091Y-6662517D01*
X85335923Y-6586994D01*
X85310697Y-6519359D01*
X85313639Y-6518261D01*
X85302090Y-6465141D01*
X85326514Y-6399679D01*
X85382452Y-6357814D01*
X85425773Y-6350000D01*
X108089615Y-6350000D01*
X108156654Y-6369685D01*
X108202409Y-6422489D01*
X108212353Y-6491647D01*
X108183328Y-6555203D01*
X108162500Y-6574319D01*
X108140533Y-6590278D01*
X107990276Y-6740535D01*
X107990272Y-6740540D01*
X107865379Y-6912442D01*
X107768904Y-7101782D01*
X107703242Y-7303870D01*
X107703242Y-7303873D01*
X107692769Y-7370000D01*
X108786988Y-7370000D01*
X108754075Y-7427007D01*
X108720000Y-7554174D01*
X108720000Y-7685826D01*
X108754075Y-7812993D01*
X108786988Y-7870000D01*
X107692769Y-7870000D01*
X107703242Y-7936126D01*
X107703242Y-7936129D01*
X107768904Y-8138217D01*
X107865379Y-8327557D01*
X107990272Y-8499459D01*
X107990276Y-8499464D01*
X108140535Y-8649723D01*
X108140540Y-8649727D01*
X108312444Y-8774622D01*
X108321495Y-8779234D01*
X108372292Y-8827208D01*
X108389087Y-8895029D01*
X108366550Y-8961164D01*
X108321499Y-9000202D01*
X108312182Y-9004949D01*
X108140213Y-9129890D01*
X107989890Y-9280213D01*
X107864951Y-9452179D01*
X107768444Y-9641585D01*
X107702753Y-9843760D01*
X107669500Y-10053713D01*
X107669500Y-10266286D01*
X107694910Y-10426722D01*
X107702754Y-10476243D01*
X107745155Y-10606740D01*
X107768444Y-10678414D01*
X107864951Y-10867820D01*
X107989890Y-11039786D01*
X108140213Y-11190109D01*
X108312182Y-11315050D01*
X108320946Y-11319516D01*
X108371742Y-11367491D01*
X108388536Y-11435312D01*
X108365998Y-11501447D01*
X108320946Y-11540484D01*
X108312182Y-11544949D01*
X108140213Y-11669890D01*
X107989890Y-11820213D01*
X107864951Y-11992179D01*
X107768444Y-12181585D01*
X107702753Y-12383760D01*
X107669500Y-12593713D01*
X107669500Y-12806286D01*
X107702753Y-13016239D01*
X107768444Y-13218414D01*
X107864951Y-13407820D01*
X107989890Y-13579786D01*
X108140213Y-13730109D01*
X108312182Y-13855050D01*
X108320946Y-13859516D01*
X108371742Y-13907491D01*
X108388536Y-13975312D01*
X108365998Y-14041447D01*
X108320946Y-14080484D01*
X108312182Y-14084949D01*
X108140213Y-14209890D01*
X107989890Y-14360213D01*
X107864951Y-14532179D01*
X107768444Y-14721585D01*
X107702753Y-14923760D01*
X107689952Y-15004586D01*
X107669500Y-15133713D01*
X107669500Y-15346287D01*
X107702754Y-15556243D01*
X107750654Y-15703664D01*
X107768444Y-15758414D01*
X107864951Y-15947820D01*
X107989890Y-16119786D01*
X108140213Y-16270109D01*
X108312182Y-16395050D01*
X108320946Y-16399516D01*
X108371742Y-16447491D01*
X108388536Y-16515312D01*
X108365998Y-16581447D01*
X108320946Y-16620484D01*
X108312182Y-16624949D01*
X108140213Y-16749890D01*
X107989890Y-16900213D01*
X107864951Y-17072179D01*
X107768444Y-17261585D01*
X107702753Y-17463760D01*
X107697874Y-17494566D01*
X107669500Y-17673713D01*
X107669500Y-17886287D01*
X107702754Y-18096243D01*
X107750654Y-18243664D01*
X107768444Y-18298414D01*
X107864951Y-18487820D01*
X107989890Y-18659786D01*
X108140213Y-18810109D01*
X108312182Y-18935050D01*
X108320946Y-18939516D01*
X108371742Y-18987491D01*
X108388536Y-19055312D01*
X108365998Y-19121447D01*
X108320946Y-19160484D01*
X108312182Y-19164949D01*
X108140213Y-19289890D01*
X107989890Y-19440213D01*
X107864951Y-19612179D01*
X107768444Y-19801585D01*
X107702753Y-20003760D01*
X107689952Y-20084586D01*
X107669500Y-20213713D01*
X107669500Y-20426287D01*
X107702754Y-20636243D01*
X107750654Y-20783664D01*
X107768444Y-20838414D01*
X107864951Y-21027820D01*
X107989890Y-21199786D01*
X108140213Y-21350109D01*
X108312179Y-21475048D01*
X108312181Y-21475049D01*
X108312184Y-21475051D01*
X108321493Y-21479794D01*
X108372290Y-21527766D01*
X108389087Y-21595587D01*
X108366552Y-21661722D01*
X108321502Y-21700762D01*
X108312443Y-21705378D01*
X108140540Y-21830272D01*
X108140535Y-21830276D01*
X107990276Y-21980535D01*
X107990272Y-21980540D01*
X107865379Y-22152442D01*
X107768904Y-22341782D01*
X107703242Y-22543870D01*
X107703242Y-22543873D01*
X107692769Y-22610000D01*
X108786988Y-22610000D01*
X108754075Y-22667007D01*
X108720000Y-22794174D01*
X108720000Y-22925826D01*
X108754075Y-23052993D01*
X108786988Y-23110000D01*
X107692769Y-23110000D01*
X107703242Y-23176126D01*
X107703242Y-23176129D01*
X107768904Y-23378217D01*
X107865379Y-23567557D01*
X107990272Y-23739459D01*
X107990276Y-23739464D01*
X108140535Y-23889723D01*
X108140540Y-23889727D01*
X108312444Y-24014622D01*
X108321495Y-24019234D01*
X108372292Y-24067208D01*
X108389087Y-24135029D01*
X108366550Y-24201164D01*
X108321499Y-24240202D01*
X108312182Y-24244949D01*
X108140213Y-24369890D01*
X107989890Y-24520213D01*
X107864951Y-24692179D01*
X107768444Y-24881585D01*
X107702753Y-25083760D01*
X107669500Y-25293713D01*
X107669500Y-25506286D01*
X107700441Y-25701644D01*
X107702754Y-25716243D01*
X107750654Y-25863664D01*
X107768444Y-25918414D01*
X107864951Y-26107820D01*
X107989890Y-26279786D01*
X108140213Y-26430109D01*
X108312182Y-26555050D01*
X108320946Y-26559516D01*
X108371742Y-26607491D01*
X108388536Y-26675312D01*
X108365998Y-26741447D01*
X108320946Y-26780484D01*
X108312182Y-26784949D01*
X108140213Y-26909890D01*
X107989890Y-27060213D01*
X107864951Y-27232179D01*
X107768444Y-27421585D01*
X107702753Y-27623760D01*
X107697863Y-27654637D01*
X107669500Y-27833713D01*
X107669500Y-28046287D01*
X107702754Y-28256243D01*
X107757415Y-28424472D01*
X107768444Y-28458414D01*
X107864951Y-28647820D01*
X107989890Y-28819786D01*
X108140213Y-28970109D01*
X108312182Y-29095050D01*
X108320946Y-29099516D01*
X108371742Y-29147491D01*
X108388536Y-29215312D01*
X108365998Y-29281447D01*
X108320946Y-29320484D01*
X108312182Y-29324949D01*
X108140213Y-29449890D01*
X107989890Y-29600213D01*
X107864951Y-29772179D01*
X107768444Y-29961585D01*
X107702753Y-30163760D01*
X107669500Y-30373713D01*
X107669500Y-30586287D01*
X107702754Y-30796243D01*
X107757863Y-30965851D01*
X107768444Y-30998414D01*
X107864951Y-31187820D01*
X107989890Y-31359786D01*
X108140213Y-31510109D01*
X108312182Y-31635050D01*
X108320946Y-31639516D01*
X108371742Y-31687491D01*
X108388536Y-31755312D01*
X108365998Y-31821447D01*
X108320946Y-31860484D01*
X108312182Y-31864949D01*
X108140213Y-31989890D01*
X107989890Y-32140213D01*
X107864951Y-32312179D01*
X107768444Y-32501585D01*
X107702753Y-32703760D01*
X107669500Y-32913713D01*
X107669500Y-33126286D01*
X107694910Y-33286722D01*
X107702754Y-33336243D01*
X107755751Y-33499351D01*
X107768444Y-33538414D01*
X107864951Y-33727820D01*
X107989890Y-33899786D01*
X108140213Y-34050109D01*
X108312182Y-34175050D01*
X108320946Y-34179516D01*
X108371742Y-34227491D01*
X108388536Y-34295312D01*
X108365998Y-34361447D01*
X108320946Y-34400484D01*
X108312182Y-34404949D01*
X108140213Y-34529890D01*
X107989890Y-34680213D01*
X107864951Y-34852179D01*
X107768444Y-35041585D01*
X107702753Y-35243760D01*
X107669500Y-35453713D01*
X107669500Y-35666286D01*
X107702753Y-35876239D01*
X107768444Y-36078414D01*
X107864951Y-36267820D01*
X107989890Y-36439786D01*
X108140213Y-36590109D01*
X108312182Y-36715050D01*
X108320946Y-36719516D01*
X108371742Y-36767491D01*
X108388536Y-36835312D01*
X108365998Y-36901447D01*
X108320946Y-36940484D01*
X108312182Y-36944949D01*
X108140213Y-37069890D01*
X107989890Y-37220213D01*
X107864951Y-37392179D01*
X107768444Y-37581585D01*
X107702753Y-37783760D01*
X107680495Y-37924292D01*
X107669500Y-37993713D01*
X107669500Y-38206287D01*
X107702754Y-38416243D01*
X107757863Y-38585851D01*
X107768444Y-38618414D01*
X107864951Y-38807820D01*
X107989890Y-38979786D01*
X108140213Y-39130109D01*
X108312182Y-39255050D01*
X108320946Y-39259516D01*
X108371742Y-39307491D01*
X108388536Y-39375312D01*
X108365998Y-39441447D01*
X108320946Y-39480484D01*
X108312182Y-39484949D01*
X108140213Y-39609890D01*
X107989890Y-39760213D01*
X107864951Y-39932179D01*
X107768444Y-40121585D01*
X107702753Y-40323760D01*
X107669500Y-40533713D01*
X107669500Y-40746286D01*
X107697307Y-40921857D01*
X107702754Y-40956243D01*
X107752749Y-41110112D01*
X107768444Y-41158414D01*
X107864951Y-41347820D01*
X107989890Y-41519786D01*
X108140213Y-41670109D01*
X108312182Y-41795050D01*
X108320946Y-41799516D01*
X108371742Y-41847491D01*
X108388536Y-41915312D01*
X108365998Y-41981447D01*
X108320946Y-42020484D01*
X108312182Y-42024949D01*
X108140213Y-42149890D01*
X107989890Y-42300213D01*
X107864951Y-42472179D01*
X107768444Y-42661585D01*
X107702753Y-42863760D01*
X107669500Y-43073713D01*
X107669500Y-43286286D01*
X107688483Y-43406144D01*
X107702754Y-43496243D01*
X107750654Y-43643664D01*
X107768444Y-43698414D01*
X107864951Y-43887820D01*
X107989890Y-44059786D01*
X108140213Y-44210109D01*
X108312182Y-44335050D01*
X108320946Y-44339516D01*
X108371742Y-44387491D01*
X108388536Y-44455312D01*
X108365998Y-44521447D01*
X108320946Y-44560484D01*
X108312182Y-44564949D01*
X108140213Y-44689890D01*
X107989890Y-44840213D01*
X107864951Y-45012179D01*
X107768444Y-45201585D01*
X107702753Y-45403760D01*
X107701291Y-45412993D01*
X107669500Y-45613713D01*
X107669500Y-45826287D01*
X107702754Y-46036243D01*
X107750598Y-46183492D01*
X107768444Y-46238414D01*
X107864951Y-46427820D01*
X107989890Y-46599786D01*
X108140213Y-46750109D01*
X108312182Y-46875050D01*
X108320946Y-46879516D01*
X108371742Y-46927491D01*
X108388536Y-46995312D01*
X108365998Y-47061447D01*
X108320946Y-47100484D01*
X108312182Y-47104949D01*
X108140213Y-47229890D01*
X107989890Y-47380213D01*
X107864951Y-47552179D01*
X107768444Y-47741585D01*
X107702753Y-47943760D01*
X107697863Y-47974637D01*
X107669500Y-48153713D01*
X107669500Y-48366287D01*
X107702754Y-48576243D01*
X107757415Y-48744472D01*
X107768444Y-48778414D01*
X107864951Y-48967820D01*
X107989890Y-49139786D01*
X108140213Y-49290109D01*
X108312182Y-49415050D01*
X108320946Y-49419516D01*
X108371742Y-49467491D01*
X108388536Y-49535312D01*
X108365998Y-49601447D01*
X108320946Y-49640484D01*
X108312182Y-49644949D01*
X108140213Y-49769890D01*
X107989890Y-49920213D01*
X107864951Y-50092179D01*
X107768444Y-50281585D01*
X107702753Y-50483760D01*
X107669500Y-50693713D01*
X107669500Y-50906286D01*
X107702753Y-51116239D01*
X107768444Y-51318414D01*
X107864951Y-51507820D01*
X107989890Y-51679786D01*
X108140213Y-51830109D01*
X108312182Y-51955050D01*
X108320946Y-51959516D01*
X108371742Y-52007491D01*
X108388536Y-52075312D01*
X108365998Y-52141447D01*
X108320946Y-52180484D01*
X108312182Y-52184949D01*
X108140213Y-52309890D01*
X107989890Y-52460213D01*
X107864951Y-52632179D01*
X107768444Y-52821585D01*
X107702753Y-53023760D01*
X107692088Y-53091096D01*
X107669500Y-53233713D01*
X107669500Y-53446287D01*
X107702754Y-53656243D01*
X107717688Y-53702206D01*
X107768444Y-53858414D01*
X107864951Y-54047820D01*
X107989890Y-54219786D01*
X108140213Y-54370109D01*
X108312179Y-54495048D01*
X108312181Y-54495049D01*
X108312184Y-54495051D01*
X108501588Y-54591557D01*
X108703757Y-54657246D01*
X108913713Y-54690500D01*
X108913714Y-54690500D01*
X109526286Y-54690500D01*
X109526287Y-54690500D01*
X109736243Y-54657246D01*
X109938412Y-54591557D01*
X110127816Y-54495051D01*
X110149789Y-54479086D01*
X110299786Y-54370109D01*
X110299788Y-54370106D01*
X110299792Y-54370104D01*
X110450104Y-54219792D01*
X110450106Y-54219788D01*
X110450109Y-54219786D01*
X110575048Y-54047820D01*
X110575047Y-54047820D01*
X110575051Y-54047816D01*
X110671557Y-53858412D01*
X110737246Y-53656243D01*
X110770500Y-53446287D01*
X110770500Y-53233713D01*
X110737246Y-53023757D01*
X110671557Y-52821588D01*
X110575051Y-52632184D01*
X110575049Y-52632181D01*
X110575048Y-52632179D01*
X110450109Y-52460213D01*
X110299786Y-52309890D01*
X110127820Y-52184951D01*
X110127115Y-52184591D01*
X110119054Y-52180485D01*
X110068259Y-52132512D01*
X110051463Y-52064692D01*
X110073999Y-51998556D01*
X110119054Y-51959515D01*
X110127816Y-51955051D01*
X110149789Y-51939086D01*
X110299786Y-51830109D01*
X110299788Y-51830106D01*
X110299792Y-51830104D01*
X110450104Y-51679792D01*
X110450106Y-51679788D01*
X110450109Y-51679786D01*
X110575048Y-51507820D01*
X110575047Y-51507820D01*
X110575051Y-51507816D01*
X110671557Y-51318412D01*
X110737246Y-51116243D01*
X110770500Y-50906287D01*
X110770500Y-50693713D01*
X110737246Y-50483757D01*
X110671557Y-50281588D01*
X110575051Y-50092184D01*
X110575049Y-50092181D01*
X110575048Y-50092179D01*
X110450109Y-49920213D01*
X110299786Y-49769890D01*
X110127820Y-49644951D01*
X110127115Y-49644591D01*
X110119054Y-49640485D01*
X110068259Y-49592512D01*
X110051463Y-49524692D01*
X110073999Y-49458556D01*
X110119054Y-49419515D01*
X110127816Y-49415051D01*
X110225547Y-49344046D01*
X110299786Y-49290109D01*
X110299788Y-49290106D01*
X110299792Y-49290104D01*
X110450104Y-49139792D01*
X110450106Y-49139788D01*
X110450109Y-49139786D01*
X110575048Y-48967820D01*
X110575047Y-48967820D01*
X110575051Y-48967816D01*
X110671557Y-48778412D01*
X110737246Y-48576243D01*
X110770500Y-48366287D01*
X110770500Y-48153713D01*
X110737246Y-47943757D01*
X110671557Y-47741588D01*
X110575051Y-47552184D01*
X110575049Y-47552181D01*
X110575048Y-47552179D01*
X110450109Y-47380213D01*
X110299786Y-47229890D01*
X110127820Y-47104951D01*
X110127115Y-47104591D01*
X110119054Y-47100485D01*
X110068259Y-47052512D01*
X110051463Y-46984692D01*
X110073999Y-46918556D01*
X110119054Y-46879515D01*
X110127816Y-46875051D01*
X110184587Y-46833805D01*
X110299786Y-46750109D01*
X110299788Y-46750106D01*
X110299792Y-46750104D01*
X110450104Y-46599792D01*
X110450106Y-46599788D01*
X110450109Y-46599786D01*
X110575048Y-46427820D01*
X110575047Y-46427820D01*
X110575051Y-46427816D01*
X110671557Y-46238412D01*
X110737246Y-46036243D01*
X110770500Y-45826287D01*
X110770500Y-45613713D01*
X110737246Y-45403757D01*
X110671557Y-45201588D01*
X110575051Y-45012184D01*
X110575049Y-45012181D01*
X110575048Y-45012179D01*
X110450109Y-44840213D01*
X110299786Y-44689890D01*
X110127820Y-44564951D01*
X110127115Y-44564591D01*
X110119054Y-44560485D01*
X110068259Y-44512512D01*
X110051463Y-44444692D01*
X110073999Y-44378556D01*
X110119054Y-44339515D01*
X110127816Y-44335051D01*
X110149789Y-44319086D01*
X110299786Y-44210109D01*
X110299788Y-44210106D01*
X110299792Y-44210104D01*
X110450104Y-44059792D01*
X110450106Y-44059788D01*
X110450109Y-44059786D01*
X110575048Y-43887820D01*
X110575047Y-43887820D01*
X110575051Y-43887816D01*
X110671557Y-43698412D01*
X110737246Y-43496243D01*
X110770500Y-43286287D01*
X110770500Y-43073713D01*
X110737246Y-42863757D01*
X110671557Y-42661588D01*
X110575051Y-42472184D01*
X110575049Y-42472181D01*
X110575048Y-42472179D01*
X110450109Y-42300213D01*
X110299786Y-42149890D01*
X110127820Y-42024951D01*
X110127115Y-42024591D01*
X110119054Y-42020485D01*
X110068259Y-41972512D01*
X110051463Y-41904692D01*
X110073999Y-41838556D01*
X110119054Y-41799515D01*
X110127816Y-41795051D01*
X110174893Y-41760848D01*
X110299786Y-41670109D01*
X110299788Y-41670106D01*
X110299792Y-41670104D01*
X110450104Y-41519792D01*
X110450106Y-41519788D01*
X110450109Y-41519786D01*
X110575048Y-41347820D01*
X110575047Y-41347820D01*
X110575051Y-41347816D01*
X110671557Y-41158412D01*
X110737246Y-40956243D01*
X110770500Y-40746287D01*
X110770500Y-40533713D01*
X110737246Y-40323757D01*
X110671557Y-40121588D01*
X110575051Y-39932184D01*
X110575049Y-39932181D01*
X110575048Y-39932179D01*
X110450109Y-39760213D01*
X110299786Y-39609890D01*
X110127820Y-39484951D01*
X110119600Y-39480763D01*
X110119054Y-39480485D01*
X110068259Y-39432512D01*
X110051463Y-39364692D01*
X110073999Y-39298556D01*
X110119054Y-39259515D01*
X110127816Y-39255051D01*
X110225174Y-39184317D01*
X110299786Y-39130109D01*
X110299788Y-39130106D01*
X110299792Y-39130104D01*
X110450104Y-38979792D01*
X110450106Y-38979788D01*
X110450109Y-38979786D01*
X110559086Y-38829789D01*
X110575051Y-38807816D01*
X110671557Y-38618412D01*
X110737246Y-38416243D01*
X110770500Y-38206287D01*
X110770500Y-38099999D01*
X125644341Y-38099999D01*
X125644341Y-38100000D01*
X125664936Y-38335403D01*
X125664938Y-38335413D01*
X125726094Y-38563655D01*
X125726096Y-38563659D01*
X125726097Y-38563663D01*
X125791698Y-38704345D01*
X125825965Y-38777830D01*
X125825967Y-38777834D01*
X125961501Y-38971395D01*
X125961506Y-38971402D01*
X126128597Y-39138493D01*
X126128603Y-39138498D01*
X126314158Y-39268425D01*
X126357783Y-39323002D01*
X126364977Y-39392500D01*
X126333454Y-39454855D01*
X126314158Y-39471575D01*
X126128597Y-39601505D01*
X125961505Y-39768597D01*
X125825965Y-39962169D01*
X125825964Y-39962171D01*
X125726098Y-40176335D01*
X125726094Y-40176344D01*
X125664938Y-40404586D01*
X125664936Y-40404596D01*
X125644341Y-40639999D01*
X125644341Y-40640000D01*
X125664936Y-40875403D01*
X125664938Y-40875413D01*
X125726094Y-41103655D01*
X125726096Y-41103659D01*
X125726097Y-41103663D01*
X125761461Y-41179501D01*
X125825965Y-41317830D01*
X125825967Y-41317834D01*
X125934281Y-41472521D01*
X125948459Y-41492770D01*
X125961501Y-41511395D01*
X125961506Y-41511402D01*
X126128597Y-41678493D01*
X126128603Y-41678498D01*
X126314158Y-41808425D01*
X126357783Y-41863002D01*
X126364977Y-41932500D01*
X126333454Y-41994855D01*
X126314158Y-42011575D01*
X126128597Y-42141505D01*
X125961505Y-42308597D01*
X125825965Y-42502169D01*
X125825964Y-42502171D01*
X125726098Y-42716335D01*
X125726094Y-42716344D01*
X125664938Y-42944586D01*
X125664936Y-42944596D01*
X125644341Y-43179999D01*
X125644341Y-43180000D01*
X125664936Y-43415403D01*
X125664938Y-43415413D01*
X125726094Y-43643655D01*
X125726096Y-43643659D01*
X125726097Y-43643663D01*
X125773369Y-43745037D01*
X125825965Y-43857830D01*
X125825967Y-43857834D01*
X125961501Y-44051395D01*
X125961506Y-44051402D01*
X126128597Y-44218493D01*
X126128603Y-44218498D01*
X126314594Y-44348730D01*
X126358219Y-44403307D01*
X126365413Y-44472805D01*
X126333890Y-44535160D01*
X126314595Y-44551880D01*
X126128922Y-44681890D01*
X126128920Y-44681891D01*
X125961891Y-44848920D01*
X125961886Y-44848926D01*
X125826400Y-45042420D01*
X125826399Y-45042422D01*
X125726570Y-45256507D01*
X125726567Y-45256513D01*
X125669364Y-45469999D01*
X125669364Y-45470000D01*
X126566988Y-45470000D01*
X126534075Y-45527007D01*
X126500000Y-45654174D01*
X126500000Y-45785826D01*
X126534075Y-45912993D01*
X126566988Y-45970000D01*
X125669364Y-45970000D01*
X125726567Y-46183486D01*
X125726570Y-46183492D01*
X125826399Y-46397578D01*
X125961894Y-46591082D01*
X126128917Y-46758105D01*
X126314595Y-46888119D01*
X126358219Y-46942696D01*
X126365412Y-47012195D01*
X126333890Y-47074549D01*
X126314595Y-47091269D01*
X126128594Y-47221508D01*
X125961505Y-47388597D01*
X125825965Y-47582169D01*
X125825964Y-47582171D01*
X125726098Y-47796335D01*
X125726094Y-47796344D01*
X125664938Y-48024586D01*
X125664936Y-48024596D01*
X125644341Y-48259999D01*
X125644341Y-48260000D01*
X125664936Y-48495403D01*
X125664938Y-48495413D01*
X125726094Y-48723655D01*
X125726096Y-48723659D01*
X125726097Y-48723663D01*
X125785163Y-48850330D01*
X125825965Y-48937830D01*
X125825967Y-48937834D01*
X125846961Y-48967816D01*
X125961505Y-49131401D01*
X126128599Y-49298495D01*
X126193641Y-49344038D01*
X126322165Y-49434032D01*
X126322167Y-49434033D01*
X126322170Y-49434035D01*
X126536337Y-49533903D01*
X126536343Y-49533904D01*
X126536344Y-49533905D01*
X126590602Y-49548443D01*
X126764592Y-49595063D01*
X126952918Y-49611539D01*
X126999999Y-49615659D01*
X127000000Y-49615659D01*
X127000001Y-49615659D01*
X127039234Y-49612226D01*
X127235408Y-49595063D01*
X127463663Y-49533903D01*
X127677830Y-49434035D01*
X127871401Y-49298495D01*
X128038495Y-49131401D01*
X128174035Y-48937830D01*
X128273903Y-48723663D01*
X128335063Y-48495408D01*
X128355659Y-48260000D01*
X128335063Y-48024592D01*
X128273903Y-47796337D01*
X128174035Y-47582171D01*
X128153035Y-47552179D01*
X128038494Y-47388597D01*
X127871402Y-47221506D01*
X127871401Y-47221505D01*
X127685405Y-47091269D01*
X127641781Y-47036692D01*
X127634588Y-46967193D01*
X127666110Y-46904839D01*
X127685405Y-46888119D01*
X127871082Y-46758105D01*
X128038105Y-46591082D01*
X128173600Y-46397578D01*
X128273429Y-46183492D01*
X128273432Y-46183486D01*
X128330636Y-45970000D01*
X127433012Y-45970000D01*
X127465925Y-45912993D01*
X127500000Y-45785826D01*
X127500000Y-45654174D01*
X127465925Y-45527007D01*
X127433012Y-45470000D01*
X128330636Y-45470000D01*
X128330635Y-45469999D01*
X128273432Y-45256513D01*
X128273429Y-45256507D01*
X128173600Y-45042422D01*
X128173599Y-45042420D01*
X128038113Y-44848926D01*
X128038108Y-44848920D01*
X127871078Y-44681890D01*
X127685405Y-44551879D01*
X127641780Y-44497302D01*
X127634588Y-44427804D01*
X127666110Y-44365449D01*
X127685406Y-44348730D01*
X127704946Y-44335048D01*
X127871401Y-44218495D01*
X128038495Y-44051401D01*
X128174035Y-43857830D01*
X128273903Y-43643663D01*
X128335063Y-43415408D01*
X128355659Y-43180000D01*
X128335063Y-42944592D01*
X128273903Y-42716337D01*
X128174035Y-42502171D01*
X128173682Y-42501666D01*
X128038494Y-42308597D01*
X127871402Y-42141506D01*
X127871396Y-42141501D01*
X127685842Y-42011575D01*
X127642217Y-41956998D01*
X127635023Y-41887500D01*
X127666546Y-41825145D01*
X127685842Y-41808425D01*
X127708026Y-41792891D01*
X127871401Y-41678495D01*
X128038495Y-41511401D01*
X128174035Y-41317830D01*
X128273903Y-41103663D01*
X128335063Y-40875408D01*
X128355659Y-40640000D01*
X128335063Y-40404592D01*
X128273903Y-40176337D01*
X128174035Y-39962171D01*
X128153035Y-39932179D01*
X128038494Y-39768597D01*
X127871402Y-39601506D01*
X127871396Y-39601501D01*
X127685842Y-39471575D01*
X127642217Y-39416998D01*
X127635023Y-39347500D01*
X127666546Y-39285145D01*
X127685842Y-39268425D01*
X127805963Y-39184315D01*
X127871401Y-39138495D01*
X128038495Y-38971401D01*
X128174035Y-38777830D01*
X128273903Y-38563663D01*
X128335063Y-38335408D01*
X128355659Y-38100000D01*
X128335063Y-37864592D01*
X128273903Y-37636337D01*
X128174035Y-37422171D01*
X128154335Y-37394037D01*
X128038496Y-37228600D01*
X127992131Y-37182235D01*
X127916567Y-37106671D01*
X127883084Y-37045351D01*
X127888068Y-36975659D01*
X127929939Y-36919725D01*
X127960915Y-36902810D01*
X128092331Y-36853796D01*
X128207546Y-36767546D01*
X128293796Y-36652331D01*
X128344091Y-36517483D01*
X128350500Y-36457873D01*
X128350499Y-34662128D01*
X128344091Y-34602517D01*
X128331173Y-34567883D01*
X128293797Y-34467671D01*
X128293793Y-34467664D01*
X128207547Y-34352455D01*
X128207544Y-34352452D01*
X128092335Y-34266206D01*
X128092328Y-34266202D01*
X127957482Y-34215908D01*
X127957483Y-34215908D01*
X127897883Y-34209501D01*
X127897881Y-34209500D01*
X127897873Y-34209500D01*
X127897864Y-34209500D01*
X126102129Y-34209500D01*
X126102123Y-34209501D01*
X126042516Y-34215908D01*
X125907671Y-34266202D01*
X125907664Y-34266206D01*
X125792455Y-34352452D01*
X125792452Y-34352455D01*
X125706206Y-34467664D01*
X125706202Y-34467671D01*
X125655908Y-34602517D01*
X125649501Y-34662116D01*
X125649501Y-34662123D01*
X125649500Y-34662135D01*
X125649500Y-36457870D01*
X125649501Y-36457876D01*
X125655908Y-36517483D01*
X125706202Y-36652328D01*
X125706206Y-36652335D01*
X125792452Y-36767544D01*
X125792455Y-36767547D01*
X125907664Y-36853793D01*
X125907671Y-36853797D01*
X126039081Y-36902810D01*
X126095015Y-36944681D01*
X126119432Y-37010145D01*
X126104580Y-37078418D01*
X126083430Y-37106673D01*
X125961503Y-37228600D01*
X125825965Y-37422169D01*
X125825964Y-37422171D01*
X125726098Y-37636335D01*
X125726094Y-37636344D01*
X125664938Y-37864586D01*
X125664937Y-37864594D01*
X125644341Y-38099999D01*
X110770500Y-38099999D01*
X110770500Y-37993713D01*
X110737246Y-37783757D01*
X110671557Y-37581588D01*
X110575051Y-37392184D01*
X110575049Y-37392181D01*
X110575048Y-37392179D01*
X110450109Y-37220213D01*
X110299786Y-37069890D01*
X110127820Y-36944951D01*
X110127115Y-36944591D01*
X110119054Y-36940485D01*
X110068259Y-36892512D01*
X110051463Y-36824692D01*
X110073999Y-36758556D01*
X110119054Y-36719515D01*
X110127816Y-36715051D01*
X110214138Y-36652335D01*
X110299786Y-36590109D01*
X110299788Y-36590106D01*
X110299792Y-36590104D01*
X110450104Y-36439792D01*
X110450106Y-36439788D01*
X110450109Y-36439786D01*
X110575048Y-36267820D01*
X110575047Y-36267820D01*
X110575051Y-36267816D01*
X110671557Y-36078412D01*
X110737246Y-35876243D01*
X110770500Y-35666287D01*
X110770500Y-35453713D01*
X110737246Y-35243757D01*
X110671557Y-35041588D01*
X110575051Y-34852184D01*
X110575049Y-34852181D01*
X110575048Y-34852179D01*
X110450109Y-34680213D01*
X110299786Y-34529890D01*
X110127820Y-34404951D01*
X110127115Y-34404591D01*
X110119054Y-34400485D01*
X110068259Y-34352512D01*
X110051463Y-34284692D01*
X110073999Y-34218556D01*
X110119054Y-34179515D01*
X110127816Y-34175051D01*
X110225174Y-34104317D01*
X110299786Y-34050109D01*
X110299788Y-34050106D01*
X110299792Y-34050104D01*
X110450104Y-33899792D01*
X110450106Y-33899788D01*
X110450109Y-33899786D01*
X110575048Y-33727820D01*
X110575047Y-33727820D01*
X110575051Y-33727816D01*
X110671557Y-33538412D01*
X110737246Y-33336243D01*
X110770500Y-33126287D01*
X110770500Y-32913713D01*
X110737246Y-32703757D01*
X110671557Y-32501588D01*
X110575051Y-32312184D01*
X110575049Y-32312181D01*
X110575048Y-32312179D01*
X110450109Y-32140213D01*
X110299786Y-31989890D01*
X110127820Y-31864951D01*
X110127115Y-31864591D01*
X110119054Y-31860485D01*
X110068259Y-31812512D01*
X110051463Y-31744692D01*
X110073999Y-31678556D01*
X110119054Y-31639515D01*
X110127816Y-31635051D01*
X110149789Y-31619086D01*
X110299786Y-31510109D01*
X110299788Y-31510106D01*
X110299792Y-31510104D01*
X110450104Y-31359792D01*
X110450106Y-31359788D01*
X110450109Y-31359786D01*
X110575048Y-31187820D01*
X110575047Y-31187820D01*
X110575051Y-31187816D01*
X110671557Y-30998412D01*
X110737246Y-30796243D01*
X110770500Y-30586287D01*
X110770500Y-30373713D01*
X110737246Y-30163757D01*
X110671557Y-29961588D01*
X110575051Y-29772184D01*
X110575049Y-29772181D01*
X110575048Y-29772179D01*
X110450109Y-29600213D01*
X110299786Y-29449890D01*
X110127820Y-29324951D01*
X110127115Y-29324591D01*
X110119054Y-29320485D01*
X110068259Y-29272512D01*
X110051463Y-29204692D01*
X110073999Y-29138556D01*
X110119054Y-29099515D01*
X110127816Y-29095051D01*
X110225547Y-29024046D01*
X110299786Y-28970109D01*
X110299788Y-28970106D01*
X110299792Y-28970104D01*
X110450104Y-28819792D01*
X110450106Y-28819788D01*
X110450109Y-28819786D01*
X110575048Y-28647820D01*
X110575047Y-28647820D01*
X110575051Y-28647816D01*
X110671557Y-28458412D01*
X110737246Y-28256243D01*
X110770500Y-28046287D01*
X110770500Y-27833713D01*
X110737246Y-27623757D01*
X110671557Y-27421588D01*
X110575051Y-27232184D01*
X110575049Y-27232181D01*
X110575048Y-27232179D01*
X110450109Y-27060213D01*
X110299786Y-26909890D01*
X110127820Y-26784951D01*
X110127115Y-26784591D01*
X110119054Y-26780485D01*
X110068259Y-26732512D01*
X110051463Y-26664692D01*
X110073999Y-26598556D01*
X110119054Y-26559515D01*
X110127816Y-26555051D01*
X110184587Y-26513805D01*
X110299786Y-26430109D01*
X110299788Y-26430106D01*
X110299792Y-26430104D01*
X110450104Y-26279792D01*
X110450106Y-26279788D01*
X110450109Y-26279786D01*
X110575048Y-26107820D01*
X110575047Y-26107820D01*
X110575051Y-26107816D01*
X110671557Y-25918412D01*
X110737246Y-25716243D01*
X110770500Y-25506287D01*
X110770500Y-25293713D01*
X110737246Y-25083757D01*
X110671557Y-24881588D01*
X110575051Y-24692184D01*
X110575049Y-24692181D01*
X110575048Y-24692179D01*
X110450109Y-24520213D01*
X110299786Y-24369890D01*
X110127817Y-24244949D01*
X110118504Y-24240204D01*
X110067707Y-24192230D01*
X110050912Y-24124409D01*
X110073449Y-24058274D01*
X110118507Y-24019232D01*
X110127558Y-24014620D01*
X110299459Y-23889727D01*
X110299464Y-23889723D01*
X110449723Y-23739464D01*
X110449727Y-23739459D01*
X110574620Y-23567557D01*
X110671095Y-23378217D01*
X110736757Y-23176129D01*
X110736757Y-23176126D01*
X110747231Y-23110000D01*
X109653012Y-23110000D01*
X109685925Y-23052993D01*
X109720000Y-22925826D01*
X109720000Y-22794174D01*
X109685925Y-22667007D01*
X109653012Y-22610000D01*
X110747231Y-22610000D01*
X110736757Y-22543873D01*
X110736757Y-22543870D01*
X110671095Y-22341782D01*
X110574620Y-22152442D01*
X110449727Y-21980540D01*
X110449723Y-21980535D01*
X110299464Y-21830276D01*
X110299459Y-21830272D01*
X110127555Y-21705377D01*
X110118500Y-21700763D01*
X110067706Y-21652788D01*
X110050912Y-21584966D01*
X110073451Y-21518832D01*
X110118508Y-21479793D01*
X110127816Y-21475051D01*
X110288243Y-21358495D01*
X110299786Y-21350109D01*
X110299788Y-21350106D01*
X110299792Y-21350104D01*
X110450104Y-21199792D01*
X110450106Y-21199788D01*
X110450109Y-21199786D01*
X110575048Y-21027820D01*
X110575047Y-21027820D01*
X110575051Y-21027816D01*
X110671557Y-20838412D01*
X110737246Y-20636243D01*
X110770500Y-20426287D01*
X110770500Y-20213713D01*
X110737246Y-20003757D01*
X110671557Y-19801588D01*
X110575051Y-19612184D01*
X110575049Y-19612181D01*
X110575048Y-19612179D01*
X110450109Y-19440213D01*
X110299786Y-19289890D01*
X110127820Y-19164951D01*
X110127115Y-19164591D01*
X110119054Y-19160485D01*
X110068259Y-19112512D01*
X110051463Y-19044692D01*
X110073999Y-18978556D01*
X110119054Y-18939515D01*
X110127816Y-18935051D01*
X110225174Y-18864317D01*
X110299786Y-18810109D01*
X110299788Y-18810106D01*
X110299792Y-18810104D01*
X110450104Y-18659792D01*
X110450106Y-18659788D01*
X110450109Y-18659786D01*
X110575048Y-18487820D01*
X110575047Y-18487820D01*
X110575051Y-18487816D01*
X110671557Y-18298412D01*
X110737246Y-18096243D01*
X110770500Y-17886287D01*
X110770500Y-17673713D01*
X110737246Y-17463757D01*
X110671557Y-17261588D01*
X110575051Y-17072184D01*
X110575049Y-17072181D01*
X110575048Y-17072179D01*
X110450109Y-16900213D01*
X110299786Y-16749890D01*
X110127820Y-16624951D01*
X110127115Y-16624591D01*
X110119054Y-16620485D01*
X110068259Y-16572512D01*
X110051463Y-16504692D01*
X110073999Y-16438556D01*
X110119054Y-16399515D01*
X110127816Y-16395051D01*
X110288239Y-16278498D01*
X110299786Y-16270109D01*
X110299788Y-16270106D01*
X110299792Y-16270104D01*
X110450104Y-16119792D01*
X110450106Y-16119788D01*
X110450109Y-16119786D01*
X110575048Y-15947820D01*
X110575047Y-15947820D01*
X110575051Y-15947816D01*
X110671557Y-15758412D01*
X110737246Y-15556243D01*
X110770500Y-15346287D01*
X110770500Y-15133713D01*
X110737246Y-14923757D01*
X110671557Y-14721588D01*
X110575051Y-14532184D01*
X110575049Y-14532181D01*
X110575048Y-14532179D01*
X110450109Y-14360213D01*
X110299786Y-14209890D01*
X110127820Y-14084951D01*
X110127115Y-14084591D01*
X110119054Y-14080485D01*
X110068259Y-14032512D01*
X110051463Y-13964692D01*
X110073999Y-13898556D01*
X110119054Y-13859515D01*
X110127816Y-13855051D01*
X110214138Y-13792335D01*
X110299786Y-13730109D01*
X110299788Y-13730106D01*
X110299792Y-13730104D01*
X110450104Y-13579792D01*
X110450106Y-13579788D01*
X110450109Y-13579786D01*
X110575048Y-13407820D01*
X110575047Y-13407820D01*
X110575051Y-13407816D01*
X110671557Y-13218412D01*
X110737246Y-13016243D01*
X110770500Y-12806287D01*
X110770500Y-12593713D01*
X110737246Y-12383757D01*
X110671557Y-12181588D01*
X110575051Y-11992184D01*
X110575049Y-11992181D01*
X110575048Y-11992179D01*
X110450109Y-11820213D01*
X110299786Y-11669890D01*
X110127820Y-11544951D01*
X110127115Y-11544591D01*
X110119054Y-11540485D01*
X110068259Y-11492512D01*
X110051463Y-11424692D01*
X110073999Y-11358556D01*
X110119054Y-11319515D01*
X110127816Y-11315051D01*
X110149789Y-11299086D01*
X110299786Y-11190109D01*
X110299788Y-11190106D01*
X110299792Y-11190104D01*
X110450104Y-11039792D01*
X110450106Y-11039788D01*
X110450109Y-11039786D01*
X110575048Y-10867820D01*
X110575047Y-10867820D01*
X110575051Y-10867816D01*
X110612153Y-10795000D01*
X112124540Y-10795000D01*
X112144326Y-10983256D01*
X112144327Y-10983259D01*
X112202818Y-11163277D01*
X112202821Y-11163284D01*
X112292887Y-11319284D01*
X112309500Y-11381282D01*
X112309500Y-27353716D01*
X112292887Y-27415716D01*
X112202821Y-27571715D01*
X112202818Y-27571722D01*
X112155187Y-27718316D01*
X112144326Y-27751744D01*
X112124540Y-27940000D01*
X112144326Y-28128256D01*
X112144327Y-28128259D01*
X112202818Y-28308277D01*
X112202821Y-28308284D01*
X112297467Y-28472216D01*
X112424129Y-28612888D01*
X112577265Y-28724148D01*
X112577270Y-28724151D01*
X112750192Y-28801142D01*
X112750197Y-28801144D01*
X112935354Y-28840500D01*
X112935355Y-28840500D01*
X113124644Y-28840500D01*
X113124646Y-28840500D01*
X113309803Y-28801144D01*
X113482730Y-28724151D01*
X113635871Y-28612888D01*
X113762533Y-28472216D01*
X113857179Y-28308284D01*
X113915674Y-28128256D01*
X113935460Y-27940000D01*
X113915674Y-27751744D01*
X113857179Y-27571716D01*
X113767113Y-27415716D01*
X113750500Y-27353716D01*
X113750500Y-15239999D01*
X125644341Y-15239999D01*
X125644341Y-15240000D01*
X125664936Y-15475403D01*
X125664938Y-15475413D01*
X125726094Y-15703655D01*
X125726096Y-15703659D01*
X125726097Y-15703663D01*
X125751627Y-15758412D01*
X125825965Y-15917830D01*
X125825967Y-15917834D01*
X125852436Y-15955635D01*
X125948459Y-16092770D01*
X125961501Y-16111395D01*
X125961506Y-16111402D01*
X126128597Y-16278493D01*
X126128603Y-16278498D01*
X126314158Y-16408425D01*
X126357783Y-16463002D01*
X126364977Y-16532500D01*
X126333454Y-16594855D01*
X126314158Y-16611575D01*
X126128597Y-16741505D01*
X125961505Y-16908597D01*
X125825965Y-17102169D01*
X125825964Y-17102171D01*
X125726098Y-17316335D01*
X125726094Y-17316344D01*
X125664938Y-17544586D01*
X125664936Y-17544596D01*
X125644341Y-17779999D01*
X125644341Y-17780000D01*
X125664936Y-18015403D01*
X125664938Y-18015413D01*
X125726094Y-18243655D01*
X125726096Y-18243659D01*
X125726097Y-18243663D01*
X125751627Y-18298412D01*
X125825965Y-18457830D01*
X125825967Y-18457834D01*
X125961501Y-18651395D01*
X125961506Y-18651402D01*
X126128597Y-18818493D01*
X126128603Y-18818498D01*
X126314158Y-18948425D01*
X126357783Y-19003002D01*
X126364977Y-19072500D01*
X126333454Y-19134855D01*
X126314158Y-19151575D01*
X126128597Y-19281505D01*
X125961505Y-19448597D01*
X125825965Y-19642169D01*
X125825964Y-19642171D01*
X125726098Y-19856335D01*
X125726094Y-19856344D01*
X125664938Y-20084586D01*
X125664936Y-20084596D01*
X125644341Y-20319999D01*
X125644341Y-20320000D01*
X125664936Y-20555403D01*
X125664938Y-20555413D01*
X125726094Y-20783655D01*
X125726096Y-20783659D01*
X125726097Y-20783663D01*
X125761461Y-20859501D01*
X125825965Y-20997830D01*
X125825967Y-20997834D01*
X125934281Y-21152521D01*
X125961505Y-21191401D01*
X126128599Y-21358495D01*
X126301830Y-21479793D01*
X126314594Y-21488730D01*
X126358219Y-21543307D01*
X126365413Y-21612805D01*
X126333890Y-21675160D01*
X126314595Y-21691880D01*
X126128922Y-21821890D01*
X126128920Y-21821891D01*
X125961891Y-21988920D01*
X125961886Y-21988926D01*
X125826400Y-22182420D01*
X125826399Y-22182422D01*
X125726570Y-22396507D01*
X125726567Y-22396513D01*
X125669364Y-22609999D01*
X125669364Y-22610000D01*
X126566988Y-22610000D01*
X126534075Y-22667007D01*
X126500000Y-22794174D01*
X126500000Y-22925826D01*
X126534075Y-23052993D01*
X126566988Y-23110000D01*
X125669364Y-23110000D01*
X125726567Y-23323486D01*
X125726570Y-23323492D01*
X125826399Y-23537578D01*
X125961894Y-23731082D01*
X126128917Y-23898105D01*
X126314595Y-24028119D01*
X126358219Y-24082696D01*
X126365412Y-24152195D01*
X126333890Y-24214549D01*
X126314595Y-24231269D01*
X126128594Y-24361508D01*
X125961505Y-24528597D01*
X125825965Y-24722169D01*
X125825964Y-24722171D01*
X125726098Y-24936335D01*
X125726094Y-24936344D01*
X125664938Y-25164586D01*
X125664936Y-25164596D01*
X125644341Y-25399999D01*
X125644341Y-25400000D01*
X125664936Y-25635403D01*
X125664938Y-25635413D01*
X125726094Y-25863655D01*
X125726096Y-25863659D01*
X125726097Y-25863663D01*
X125768828Y-25955300D01*
X125825965Y-26077830D01*
X125825967Y-26077834D01*
X125934281Y-26232521D01*
X125961505Y-26271401D01*
X126128599Y-26438495D01*
X126172606Y-26469309D01*
X126322165Y-26574032D01*
X126322167Y-26574033D01*
X126322170Y-26574035D01*
X126536337Y-26673903D01*
X126536343Y-26673904D01*
X126536344Y-26673905D01*
X126590602Y-26688443D01*
X126764592Y-26735063D01*
X126952918Y-26751539D01*
X126999999Y-26755659D01*
X127000000Y-26755659D01*
X127000001Y-26755659D01*
X127039234Y-26752226D01*
X127235408Y-26735063D01*
X127463663Y-26673903D01*
X127677830Y-26574035D01*
X127871401Y-26438495D01*
X128038495Y-26271401D01*
X128174035Y-26077830D01*
X128273903Y-25863663D01*
X128335063Y-25635408D01*
X128355659Y-25400000D01*
X128335063Y-25164592D01*
X128273903Y-24936337D01*
X128174035Y-24722171D01*
X128170798Y-24717547D01*
X128038494Y-24528597D01*
X127871402Y-24361506D01*
X127871401Y-24361505D01*
X127685405Y-24231269D01*
X127641781Y-24176692D01*
X127634588Y-24107193D01*
X127666110Y-24044839D01*
X127685405Y-24028119D01*
X127871082Y-23898105D01*
X128038105Y-23731082D01*
X128173600Y-23537578D01*
X128273429Y-23323492D01*
X128273432Y-23323486D01*
X128330636Y-23110000D01*
X127433012Y-23110000D01*
X127465925Y-23052993D01*
X127500000Y-22925826D01*
X127500000Y-22794174D01*
X127465925Y-22667007D01*
X127433012Y-22610000D01*
X128330636Y-22610000D01*
X128330635Y-22609999D01*
X128273432Y-22396513D01*
X128273429Y-22396507D01*
X128173600Y-22182422D01*
X128173599Y-22182420D01*
X128038113Y-21988926D01*
X128038108Y-21988920D01*
X127871078Y-21821890D01*
X127685405Y-21691879D01*
X127641780Y-21637302D01*
X127634588Y-21567804D01*
X127666110Y-21505449D01*
X127685406Y-21488730D01*
X127871401Y-21358495D01*
X128038495Y-21191401D01*
X128174035Y-20997830D01*
X128273903Y-20783663D01*
X128335063Y-20555408D01*
X128355659Y-20320000D01*
X128335063Y-20084592D01*
X128273903Y-19856337D01*
X128174035Y-19642171D01*
X128153035Y-19612179D01*
X128038494Y-19448597D01*
X127871402Y-19281506D01*
X127871396Y-19281501D01*
X127685842Y-19151575D01*
X127642217Y-19096998D01*
X127635023Y-19027500D01*
X127666546Y-18965145D01*
X127685842Y-18948425D01*
X127805963Y-18864315D01*
X127871401Y-18818495D01*
X128038495Y-18651401D01*
X128174035Y-18457830D01*
X128273903Y-18243663D01*
X128335063Y-18015408D01*
X128355659Y-17780000D01*
X128335063Y-17544592D01*
X128273903Y-17316337D01*
X128174035Y-17102171D01*
X128153035Y-17072179D01*
X128038494Y-16908597D01*
X127871402Y-16741506D01*
X127871396Y-16741501D01*
X127685842Y-16611575D01*
X127642217Y-16556998D01*
X127635023Y-16487500D01*
X127666546Y-16425145D01*
X127685842Y-16408425D01*
X127708026Y-16392891D01*
X127871401Y-16278495D01*
X128038495Y-16111401D01*
X128174035Y-15917830D01*
X128273903Y-15703663D01*
X128335063Y-15475408D01*
X128355659Y-15240000D01*
X128335063Y-15004592D01*
X128273903Y-14776337D01*
X128174035Y-14562171D01*
X128170797Y-14557547D01*
X128038496Y-14368600D01*
X128030104Y-14360208D01*
X127916567Y-14246671D01*
X127883084Y-14185351D01*
X127888068Y-14115659D01*
X127929939Y-14059725D01*
X127960915Y-14042810D01*
X128092331Y-13993796D01*
X128207546Y-13907546D01*
X128293796Y-13792331D01*
X128344091Y-13657483D01*
X128350500Y-13597873D01*
X128350499Y-11802128D01*
X128344091Y-11742517D01*
X128293796Y-11607669D01*
X128293795Y-11607668D01*
X128293793Y-11607664D01*
X128207547Y-11492455D01*
X128207544Y-11492452D01*
X128092335Y-11406206D01*
X128092328Y-11406202D01*
X127957482Y-11355908D01*
X127957483Y-11355908D01*
X127897883Y-11349501D01*
X127897881Y-11349500D01*
X127897873Y-11349500D01*
X127897864Y-11349500D01*
X126102129Y-11349500D01*
X126102123Y-11349501D01*
X126042516Y-11355908D01*
X125907671Y-11406202D01*
X125907664Y-11406206D01*
X125792455Y-11492452D01*
X125792452Y-11492455D01*
X125706206Y-11607664D01*
X125706202Y-11607671D01*
X125655908Y-11742517D01*
X125649501Y-11802116D01*
X125649501Y-11802123D01*
X125649500Y-11802135D01*
X125649500Y-13597870D01*
X125649501Y-13597876D01*
X125655908Y-13657483D01*
X125706202Y-13792328D01*
X125706206Y-13792335D01*
X125792452Y-13907544D01*
X125792455Y-13907547D01*
X125907664Y-13993793D01*
X125907671Y-13993797D01*
X126039081Y-14042810D01*
X126095015Y-14084681D01*
X126119432Y-14150145D01*
X126104580Y-14218418D01*
X126083430Y-14246673D01*
X125961503Y-14368600D01*
X125825965Y-14562169D01*
X125825964Y-14562171D01*
X125726098Y-14776335D01*
X125726094Y-14776344D01*
X125664938Y-15004586D01*
X125664936Y-15004596D01*
X125644341Y-15239999D01*
X113750500Y-15239999D01*
X113750500Y-11381282D01*
X113767112Y-11319284D01*
X113857179Y-11163284D01*
X113915674Y-10983256D01*
X113935460Y-10795000D01*
X113915674Y-10606744D01*
X113857179Y-10426716D01*
X113762533Y-10262784D01*
X113635871Y-10122112D01*
X113635870Y-10122111D01*
X113482734Y-10010851D01*
X113482729Y-10010848D01*
X113309807Y-9933857D01*
X113309802Y-9933855D01*
X113164001Y-9902865D01*
X113124646Y-9894500D01*
X112935354Y-9894500D01*
X112902897Y-9901398D01*
X112750197Y-9933855D01*
X112750192Y-9933857D01*
X112577270Y-10010848D01*
X112577265Y-10010851D01*
X112424129Y-10122111D01*
X112297466Y-10262785D01*
X112202821Y-10426715D01*
X112202818Y-10426722D01*
X112144327Y-10606740D01*
X112144326Y-10606744D01*
X112124540Y-10795000D01*
X110612153Y-10795000D01*
X110671557Y-10678412D01*
X110737246Y-10476243D01*
X110770500Y-10266287D01*
X110770500Y-10053713D01*
X110737246Y-9843757D01*
X110671557Y-9641588D01*
X110575051Y-9452184D01*
X110575049Y-9452181D01*
X110575048Y-9452179D01*
X110450109Y-9280213D01*
X110299786Y-9129890D01*
X110127817Y-9004949D01*
X110118504Y-9000204D01*
X110067707Y-8952230D01*
X110050912Y-8884409D01*
X110073449Y-8818274D01*
X110118507Y-8779232D01*
X110127558Y-8774620D01*
X110299459Y-8649727D01*
X110299464Y-8649723D01*
X110449723Y-8499464D01*
X110449727Y-8499459D01*
X110574620Y-8327557D01*
X110671095Y-8138217D01*
X110736757Y-7936129D01*
X110736757Y-7936126D01*
X110747231Y-7870000D01*
X109653012Y-7870000D01*
X109685925Y-7812993D01*
X109720000Y-7685826D01*
X109720000Y-7554174D01*
X109685925Y-7427007D01*
X109653012Y-7370000D01*
X110747231Y-7370000D01*
X110736757Y-7303873D01*
X110736757Y-7303870D01*
X110671095Y-7101782D01*
X110574620Y-6912442D01*
X110449727Y-6740540D01*
X110449723Y-6740535D01*
X110299466Y-6590278D01*
X110277500Y-6574319D01*
X110234834Y-6518989D01*
X110228855Y-6449376D01*
X110261460Y-6387580D01*
X110322299Y-6353223D01*
X110350385Y-6350000D01*
X116840000Y-6350000D01*
X116840000Y-5079999D01*
X128374922Y-5079999D01*
X128374922Y-5080000D01*
X128395219Y-5467287D01*
X128455886Y-5850323D01*
X128455887Y-5850330D01*
X128556262Y-6224936D01*
X128695244Y-6586994D01*
X128871310Y-6932543D01*
X129082523Y-7257783D01*
X129082525Y-7257785D01*
X129291096Y-7515348D01*
X130785747Y-6020697D01*
X130859588Y-6122330D01*
X131037670Y-6300412D01*
X131139301Y-6374251D01*
X129644650Y-7868902D01*
X129902214Y-8077475D01*
X129902216Y-8077476D01*
X130227456Y-8288689D01*
X130573005Y-8464755D01*
X130935063Y-8603737D01*
X131309669Y-8704112D01*
X131309676Y-8704113D01*
X131692712Y-8764780D01*
X132079999Y-8785078D01*
X132080001Y-8785078D01*
X132467287Y-8764780D01*
X132850323Y-8704113D01*
X132850330Y-8704112D01*
X133224936Y-8603737D01*
X133586994Y-8464755D01*
X133932543Y-8288689D01*
X134257771Y-8077484D01*
X134257784Y-8077474D01*
X134515348Y-7868902D01*
X133020698Y-6374252D01*
X133122330Y-6300412D01*
X133300412Y-6122330D01*
X133374252Y-6020698D01*
X134868902Y-7515348D01*
X135077474Y-7257784D01*
X135077484Y-7257771D01*
X135288689Y-6932543D01*
X135464755Y-6586994D01*
X135603737Y-6224936D01*
X135704112Y-5850330D01*
X135704113Y-5850323D01*
X135764780Y-5467287D01*
X135785078Y-5080000D01*
X135785078Y-5079999D01*
X135764780Y-4692712D01*
X135704113Y-4309676D01*
X135704112Y-4309669D01*
X135603737Y-3935063D01*
X135464755Y-3573005D01*
X135288689Y-3227456D01*
X135077476Y-2902216D01*
X135077475Y-2902214D01*
X134868902Y-2644650D01*
X133374251Y-4139301D01*
X133300412Y-4037670D01*
X133122330Y-3859588D01*
X133020698Y-3785748D01*
X134515349Y-2291096D01*
X134257785Y-2082525D01*
X134257783Y-2082523D01*
X133932543Y-1871310D01*
X133586994Y-1695244D01*
X133224936Y-1556262D01*
X132850330Y-1455887D01*
X132850323Y-1455886D01*
X132467287Y-1395219D01*
X132080001Y-1374922D01*
X132079999Y-1374922D01*
X131692712Y-1395219D01*
X131309676Y-1455886D01*
X131309669Y-1455887D01*
X130935063Y-1556262D01*
X130573005Y-1695244D01*
X130227456Y-1871310D01*
X129902206Y-2082531D01*
X129644649Y-2291095D01*
X129644649Y-2291096D01*
X131139301Y-3785748D01*
X131037670Y-3859588D01*
X130859588Y-4037670D01*
X130785748Y-4139301D01*
X129291096Y-2644649D01*
X129291095Y-2644649D01*
X129082531Y-2902206D01*
X128871310Y-3227456D01*
X128695244Y-3573005D01*
X128556262Y-3935063D01*
X128455887Y-4309669D01*
X128455886Y-4309676D01*
X128395219Y-4692712D01*
X128374922Y-5079999D01*
X116840000Y-5079999D01*
X116840000Y-624500D01*
X116859685Y-557461D01*
X116912489Y-511706D01*
X116964000Y-500500D01*
X132014108Y-500500D01*
X132077294Y-500500D01*
X132082702Y-500618D01*
X132095819Y-501190D01*
X132473742Y-517690D01*
X132484477Y-518630D01*
X132869859Y-569366D01*
X132880493Y-571241D01*
X133259990Y-655374D01*
X133270416Y-658168D01*
X133641135Y-775055D01*
X133651270Y-778744D01*
X134010383Y-927493D01*
X134020178Y-932061D01*
X134364942Y-1111534D01*
X134374309Y-1116941D01*
X134644434Y-1289030D01*
X134702130Y-1325786D01*
X134710991Y-1331991D01*
X135019353Y-1568605D01*
X135027640Y-1575559D01*
X135314204Y-1838146D01*
X135321853Y-1845795D01*
X135584440Y-2132359D01*
X135591394Y-2140646D01*
X135828008Y-2449008D01*
X135834213Y-2457869D01*
X136043057Y-2785689D01*
X136048465Y-2795057D01*
X136227935Y-3139814D01*
X136232507Y-3149618D01*
X136381249Y-3508714D01*
X136384949Y-3518879D01*
X136501828Y-3889572D01*
X136504628Y-3900021D01*
X136588756Y-4279498D01*
X136590634Y-4290151D01*
X136641367Y-4675499D01*
X136642310Y-4686276D01*
X136659382Y-5077297D01*
X136659500Y-5082706D01*
X136659500Y-55877293D01*
X136659382Y-55882702D01*
X136642310Y-56273723D01*
X136641367Y-56284500D01*
X136590634Y-56669848D01*
X136588756Y-56680501D01*
X136504628Y-57059978D01*
X136501828Y-57070427D01*
X136384949Y-57441120D01*
X136381249Y-57451285D01*
X136232507Y-57810381D01*
X136227935Y-57820185D01*
X136048465Y-58164942D01*
X136043057Y-58174310D01*
X135834213Y-58502130D01*
X135828008Y-58510991D01*
X135591394Y-58819353D01*
X135584440Y-58827640D01*
X135321853Y-59114204D01*
X135314204Y-59121853D01*
X135027640Y-59384440D01*
X135019353Y-59391394D01*
X134710991Y-59628008D01*
X134702130Y-59634213D01*
X134374310Y-59843057D01*
X134364942Y-59848465D01*
X134020185Y-60027935D01*
X134010381Y-60032507D01*
X133651285Y-60181249D01*
X133641120Y-60184949D01*
X133270427Y-60301828D01*
X133259978Y-60304628D01*
X132880501Y-60388756D01*
X132869848Y-60390634D01*
X132484500Y-60441367D01*
X132473723Y-60442310D01*
X132082703Y-60459382D01*
X132077294Y-60459500D01*
X5082706Y-60459500D01*
X5077297Y-60459382D01*
X4686276Y-60442310D01*
X4675501Y-60441367D01*
X4586792Y-60429688D01*
X4290151Y-60390634D01*
X4279498Y-60388756D01*
X3900021Y-60304628D01*
X3889572Y-60301828D01*
X3518879Y-60184949D01*
X3508714Y-60181249D01*
X3149618Y-60032507D01*
X3139814Y-60027935D01*
X2795057Y-59848465D01*
X2785689Y-59843057D01*
X2457869Y-59634213D01*
X2449008Y-59628008D01*
X2140646Y-59391394D01*
X2132359Y-59384440D01*
X1845795Y-59121853D01*
X1838146Y-59114204D01*
X1575559Y-58827640D01*
X1568605Y-58819353D01*
X1331991Y-58510991D01*
X1325786Y-58502130D01*
X1116942Y-58174310D01*
X1111534Y-58164942D01*
X932061Y-57820178D01*
X927492Y-57810381D01*
X837261Y-57592543D01*
X778744Y-57451270D01*
X775055Y-57441135D01*
X658168Y-57070416D01*
X655374Y-57059990D01*
X571241Y-56680493D01*
X569365Y-56669848D01*
X518630Y-56284477D01*
X517690Y-56273742D01*
X500618Y-55882701D01*
X500500Y-55877293D01*
X500500Y-55739999D01*
X1374922Y-55739999D01*
X1374922Y-55740000D01*
X1395219Y-56127287D01*
X1455886Y-56510323D01*
X1455887Y-56510330D01*
X1556262Y-56884936D01*
X1695244Y-57246994D01*
X1871310Y-57592543D01*
X2082523Y-57917783D01*
X2082525Y-57917785D01*
X2291096Y-58175348D01*
X3785747Y-56680697D01*
X3859588Y-56782330D01*
X4037670Y-56960412D01*
X4139301Y-57034251D01*
X2644650Y-58528902D01*
X2902214Y-58737475D01*
X2902216Y-58737476D01*
X3227456Y-58948689D01*
X3573005Y-59124755D01*
X3935063Y-59263737D01*
X4309669Y-59364112D01*
X4309676Y-59364113D01*
X4692712Y-59424780D01*
X5079999Y-59445078D01*
X5080001Y-59445078D01*
X5467287Y-59424780D01*
X5850323Y-59364113D01*
X5850330Y-59364112D01*
X6224936Y-59263737D01*
X6586994Y-59124755D01*
X6932543Y-58948689D01*
X7257771Y-58737484D01*
X7257784Y-58737474D01*
X7515348Y-58528902D01*
X6020698Y-57034252D01*
X6122330Y-56960412D01*
X6300412Y-56782330D01*
X6374252Y-56680698D01*
X7868902Y-58175348D01*
X8077474Y-57917784D01*
X8077484Y-57917771D01*
X8288689Y-57592543D01*
X8464755Y-57246994D01*
X8603737Y-56884936D01*
X8704112Y-56510330D01*
X8704113Y-56510323D01*
X8764780Y-56127287D01*
X8777741Y-55879999D01*
X128374922Y-55879999D01*
X128374922Y-55880000D01*
X128395219Y-56267287D01*
X128455886Y-56650323D01*
X128455887Y-56650330D01*
X128556262Y-57024936D01*
X128695244Y-57386994D01*
X128871310Y-57732543D01*
X129082523Y-58057783D01*
X129082525Y-58057785D01*
X129291096Y-58315348D01*
X130785747Y-56820697D01*
X130859588Y-56922330D01*
X131037670Y-57100412D01*
X131139301Y-57174251D01*
X129644650Y-58668902D01*
X129902214Y-58877475D01*
X129902216Y-58877476D01*
X130227456Y-59088689D01*
X130573005Y-59264755D01*
X130935063Y-59403737D01*
X131309669Y-59504112D01*
X131309676Y-59504113D01*
X131692712Y-59564780D01*
X132079999Y-59585078D01*
X132080001Y-59585078D01*
X132467287Y-59564780D01*
X132850323Y-59504113D01*
X132850330Y-59504112D01*
X133224936Y-59403737D01*
X133586994Y-59264755D01*
X133932543Y-59088689D01*
X134257771Y-58877484D01*
X134257784Y-58877474D01*
X134515348Y-58668902D01*
X133020698Y-57174252D01*
X133122330Y-57100412D01*
X133300412Y-56922330D01*
X133374252Y-56820698D01*
X134868902Y-58315348D01*
X135077474Y-58057784D01*
X135077484Y-58057771D01*
X135288689Y-57732543D01*
X135464755Y-57386994D01*
X135603737Y-57024936D01*
X135704112Y-56650330D01*
X135704113Y-56650323D01*
X135764780Y-56267287D01*
X135785078Y-55880000D01*
X135785078Y-55879999D01*
X135764780Y-55492712D01*
X135704113Y-55109676D01*
X135704112Y-55109669D01*
X135603737Y-54735063D01*
X135464755Y-54373005D01*
X135288689Y-54027456D01*
X135077476Y-53702216D01*
X135077475Y-53702214D01*
X134868902Y-53444650D01*
X133374251Y-54939301D01*
X133300412Y-54837670D01*
X133122330Y-54659588D01*
X133020698Y-54585748D01*
X134515349Y-53091096D01*
X134257785Y-52882525D01*
X134257783Y-52882523D01*
X133932543Y-52671310D01*
X133586994Y-52495244D01*
X133224936Y-52356262D01*
X132850330Y-52255887D01*
X132850323Y-52255886D01*
X132467287Y-52195219D01*
X132080001Y-52174922D01*
X132079999Y-52174922D01*
X131692712Y-52195219D01*
X131309676Y-52255886D01*
X131309669Y-52255887D01*
X130935063Y-52356262D01*
X130573005Y-52495244D01*
X130227456Y-52671310D01*
X129902206Y-52882531D01*
X129644649Y-53091095D01*
X129644649Y-53091096D01*
X131139301Y-54585748D01*
X131037670Y-54659588D01*
X130859588Y-54837670D01*
X130785748Y-54939301D01*
X129291096Y-53444649D01*
X129291095Y-53444649D01*
X129082531Y-53702206D01*
X128871310Y-54027456D01*
X128695244Y-54373005D01*
X128556262Y-54735063D01*
X128455887Y-55109669D01*
X128455886Y-55109676D01*
X128395219Y-55492712D01*
X128374922Y-55879999D01*
X8777741Y-55879999D01*
X8785078Y-55740000D01*
X8785078Y-55739999D01*
X8764780Y-55352712D01*
X8704113Y-54969676D01*
X8704112Y-54969669D01*
X8603737Y-54595063D01*
X8464755Y-54233005D01*
X8288689Y-53887456D01*
X8077476Y-53562216D01*
X8077475Y-53562214D01*
X7868902Y-53304650D01*
X6374251Y-54799301D01*
X6300412Y-54697670D01*
X6122330Y-54519588D01*
X6020698Y-54445748D01*
X7515349Y-52951096D01*
X7257785Y-52742525D01*
X7257783Y-52742523D01*
X6932543Y-52531310D01*
X6586994Y-52355244D01*
X6224936Y-52216262D01*
X5850330Y-52115887D01*
X5850323Y-52115886D01*
X5467287Y-52055219D01*
X5080001Y-52034922D01*
X5079999Y-52034922D01*
X4692712Y-52055219D01*
X4309676Y-52115886D01*
X4309669Y-52115887D01*
X3935063Y-52216262D01*
X3573005Y-52355244D01*
X3227456Y-52531310D01*
X2902206Y-52742531D01*
X2644649Y-52951095D01*
X2644649Y-52951096D01*
X4139301Y-54445748D01*
X4037670Y-54519588D01*
X3859588Y-54697670D01*
X3785748Y-54799301D01*
X2291096Y-53304649D01*
X2291095Y-53304649D01*
X2082531Y-53562206D01*
X1871310Y-53887456D01*
X1695244Y-54233005D01*
X1556262Y-54595063D01*
X1455887Y-54969669D01*
X1455886Y-54969676D01*
X1395219Y-55352712D01*
X1374922Y-55739999D01*
X500500Y-55739999D01*
X500500Y-48259998D01*
X11314891Y-48259998D01*
X11314891Y-48260001D01*
X11335300Y-48545362D01*
X11396109Y-48824895D01*
X11496091Y-49092958D01*
X11633191Y-49344038D01*
X11633196Y-49344046D01*
X11739882Y-49486562D01*
X11739883Y-49486563D01*
X12634768Y-48591678D01*
X12646497Y-48619995D01*
X12729670Y-48744472D01*
X12835528Y-48850330D01*
X12960005Y-48933503D01*
X12988320Y-48945231D01*
X12093435Y-49840115D01*
X12093436Y-49840116D01*
X12235953Y-49946803D01*
X12235961Y-49946808D01*
X12487042Y-50083908D01*
X12487041Y-50083908D01*
X12755104Y-50183890D01*
X13034637Y-50244699D01*
X13319999Y-50265109D01*
X13320001Y-50265109D01*
X13605362Y-50244699D01*
X13884895Y-50183890D01*
X14152958Y-50083908D01*
X14404038Y-49946808D01*
X14404039Y-49946807D01*
X14546563Y-49840115D01*
X13651679Y-48945231D01*
X13679995Y-48933503D01*
X13804472Y-48850330D01*
X13910330Y-48744472D01*
X13993503Y-48619995D01*
X14005231Y-48591679D01*
X14900115Y-49486563D01*
X15006807Y-49344039D01*
X15006808Y-49344038D01*
X15143908Y-49092958D01*
X15243890Y-48824895D01*
X15304699Y-48545362D01*
X15325109Y-48260001D01*
X15325109Y-48259998D01*
X18314891Y-48259998D01*
X18314891Y-48260001D01*
X18335300Y-48545362D01*
X18396109Y-48824895D01*
X18496091Y-49092958D01*
X18633191Y-49344038D01*
X18633196Y-49344046D01*
X18739882Y-49486562D01*
X18739883Y-49486563D01*
X19634768Y-48591678D01*
X19646497Y-48619995D01*
X19729670Y-48744472D01*
X19835528Y-48850330D01*
X19960005Y-48933503D01*
X19988320Y-48945231D01*
X19093435Y-49840115D01*
X19093436Y-49840116D01*
X19235953Y-49946803D01*
X19235961Y-49946808D01*
X19487042Y-50083908D01*
X19487041Y-50083908D01*
X19755104Y-50183890D01*
X20034637Y-50244699D01*
X20319999Y-50265109D01*
X20320001Y-50265109D01*
X20605362Y-50244699D01*
X20884895Y-50183890D01*
X21152958Y-50083908D01*
X21404038Y-49946808D01*
X21404039Y-49946807D01*
X21546563Y-49840115D01*
X20651679Y-48945231D01*
X20679995Y-48933503D01*
X20804472Y-48850330D01*
X20910330Y-48744472D01*
X20993503Y-48619995D01*
X21005231Y-48591679D01*
X21900115Y-49486563D01*
X22006807Y-49344039D01*
X22006808Y-49344038D01*
X22143908Y-49092958D01*
X22243890Y-48824895D01*
X22304699Y-48545362D01*
X22325109Y-48260001D01*
X22325109Y-48259998D01*
X22304699Y-47974637D01*
X22243890Y-47695104D01*
X22143908Y-47427041D01*
X22006808Y-47175961D01*
X22006803Y-47175953D01*
X21900116Y-47033436D01*
X21900115Y-47033435D01*
X21005231Y-47928320D01*
X20993503Y-47900005D01*
X20910330Y-47775528D01*
X20804472Y-47669670D01*
X20679995Y-47586497D01*
X20651678Y-47574767D01*
X21546563Y-46679883D01*
X21546562Y-46679882D01*
X21404046Y-46573196D01*
X21404038Y-46573191D01*
X21152957Y-46436091D01*
X21152958Y-46436091D01*
X20884895Y-46336109D01*
X20605362Y-46275300D01*
X20320001Y-46254891D01*
X20319999Y-46254891D01*
X20034637Y-46275300D01*
X19755104Y-46336109D01*
X19487041Y-46436091D01*
X19235961Y-46573191D01*
X19235953Y-46573196D01*
X19093435Y-46679882D01*
X19988321Y-47574767D01*
X19960005Y-47586497D01*
X19835528Y-47669670D01*
X19729670Y-47775528D01*
X19646497Y-47900005D01*
X19634768Y-47928321D01*
X18739882Y-47033435D01*
X18633196Y-47175953D01*
X18633191Y-47175961D01*
X18496091Y-47427041D01*
X18396109Y-47695104D01*
X18335300Y-47974637D01*
X18314891Y-48259998D01*
X15325109Y-48259998D01*
X15304699Y-47974637D01*
X15243890Y-47695104D01*
X15143908Y-47427041D01*
X15006808Y-47175961D01*
X15006803Y-47175953D01*
X14900116Y-47033436D01*
X14900115Y-47033435D01*
X14005231Y-47928320D01*
X13993503Y-47900005D01*
X13910330Y-47775528D01*
X13804472Y-47669670D01*
X13679995Y-47586497D01*
X13651678Y-47574767D01*
X14546563Y-46679883D01*
X14546562Y-46679882D01*
X14404046Y-46573196D01*
X14404038Y-46573191D01*
X14152957Y-46436091D01*
X14152958Y-46436091D01*
X13884895Y-46336109D01*
X13605362Y-46275300D01*
X13320001Y-46254891D01*
X13319999Y-46254891D01*
X13034637Y-46275300D01*
X12755104Y-46336109D01*
X12487041Y-46436091D01*
X12235961Y-46573191D01*
X12235953Y-46573196D01*
X12093435Y-46679882D01*
X12988321Y-47574767D01*
X12960005Y-47586497D01*
X12835528Y-47669670D01*
X12729670Y-47775528D01*
X12646497Y-47900005D01*
X12634768Y-47928321D01*
X11739882Y-47033435D01*
X11633196Y-47175953D01*
X11633191Y-47175961D01*
X11496091Y-47427041D01*
X11396109Y-47695104D01*
X11335300Y-47974637D01*
X11314891Y-48259998D01*
X500500Y-48259998D01*
X500500Y-45588872D01*
X32969500Y-45588872D01*
X32969500Y-45851127D01*
X32996123Y-46053339D01*
X33003730Y-46111116D01*
X33071602Y-46364418D01*
X33071605Y-46364428D01*
X33171953Y-46606690D01*
X33171958Y-46606700D01*
X33303075Y-46833803D01*
X33462718Y-47041851D01*
X33462726Y-47041860D01*
X33648140Y-47227274D01*
X33648148Y-47227281D01*
X33856196Y-47386924D01*
X34083299Y-47518041D01*
X34083309Y-47518046D01*
X34238121Y-47582171D01*
X34325581Y-47618398D01*
X34578884Y-47686270D01*
X34838880Y-47720500D01*
X34838887Y-47720500D01*
X36101113Y-47720500D01*
X36101120Y-47720500D01*
X36361116Y-47686270D01*
X36614419Y-47618398D01*
X36856697Y-47518043D01*
X37083803Y-47386924D01*
X37291851Y-47227282D01*
X37291855Y-47227277D01*
X37291860Y-47227274D01*
X37477274Y-47041860D01*
X37477277Y-47041855D01*
X37477282Y-47041851D01*
X37636924Y-46833803D01*
X37662613Y-46789307D01*
X37713179Y-46741093D01*
X37781786Y-46727869D01*
X37846651Y-46753837D01*
X37877388Y-46789309D01*
X37903077Y-46833805D01*
X38062718Y-47041851D01*
X38062726Y-47041860D01*
X38248140Y-47227274D01*
X38248148Y-47227281D01*
X38456196Y-47386924D01*
X38683299Y-47518041D01*
X38683309Y-47518046D01*
X38838121Y-47582171D01*
X38925581Y-47618398D01*
X39178884Y-47686270D01*
X39438880Y-47720500D01*
X39438887Y-47720500D01*
X40701113Y-47720500D01*
X40701120Y-47720500D01*
X40961116Y-47686270D01*
X41214419Y-47618398D01*
X41456697Y-47518043D01*
X41683803Y-47386924D01*
X41891851Y-47227282D01*
X41891855Y-47227277D01*
X41891860Y-47227274D01*
X42077274Y-47041860D01*
X42077277Y-47041855D01*
X42077282Y-47041851D01*
X42236924Y-46833803D01*
X42368043Y-46606697D01*
X42468398Y-46364419D01*
X42536270Y-46111116D01*
X42570500Y-45851120D01*
X42570500Y-45588880D01*
X42570499Y-45588872D01*
X48869500Y-45588872D01*
X48869500Y-45851127D01*
X48896123Y-46053339D01*
X48903730Y-46111116D01*
X48971602Y-46364418D01*
X48971605Y-46364428D01*
X49071953Y-46606690D01*
X49071958Y-46606700D01*
X49203075Y-46833803D01*
X49362718Y-47041851D01*
X49362726Y-47041860D01*
X49548140Y-47227274D01*
X49548148Y-47227281D01*
X49756196Y-47386924D01*
X49983299Y-47518041D01*
X49983309Y-47518046D01*
X50138121Y-47582171D01*
X50225581Y-47618398D01*
X50478884Y-47686270D01*
X50738880Y-47720500D01*
X50738887Y-47720500D01*
X52001113Y-47720500D01*
X52001120Y-47720500D01*
X52261116Y-47686270D01*
X52514419Y-47618398D01*
X52756697Y-47518043D01*
X52983803Y-47386924D01*
X53191851Y-47227282D01*
X53191855Y-47227277D01*
X53191860Y-47227274D01*
X53377274Y-47041860D01*
X53377277Y-47041855D01*
X53377282Y-47041851D01*
X53536924Y-46833803D01*
X53562613Y-46789307D01*
X53613179Y-46741093D01*
X53681786Y-46727869D01*
X53746651Y-46753837D01*
X53777388Y-46789309D01*
X53803077Y-46833805D01*
X53962718Y-47041851D01*
X53962726Y-47041860D01*
X54148140Y-47227274D01*
X54148148Y-47227281D01*
X54356196Y-47386924D01*
X54583299Y-47518041D01*
X54583309Y-47518046D01*
X54738121Y-47582171D01*
X54825581Y-47618398D01*
X55078884Y-47686270D01*
X55338880Y-47720500D01*
X55338887Y-47720500D01*
X56601113Y-47720500D01*
X56601120Y-47720500D01*
X56861116Y-47686270D01*
X57114419Y-47618398D01*
X57356697Y-47518043D01*
X57583803Y-47386924D01*
X57791851Y-47227282D01*
X57791855Y-47227277D01*
X57791860Y-47227274D01*
X57977274Y-47041860D01*
X57977277Y-47041855D01*
X57977282Y-47041851D01*
X58136924Y-46833803D01*
X58268043Y-46606697D01*
X58368398Y-46364419D01*
X58436270Y-46111116D01*
X58470500Y-45851120D01*
X58470500Y-45588880D01*
X58436270Y-45328884D01*
X58368398Y-45075581D01*
X58352644Y-45037547D01*
X58268046Y-44833309D01*
X58268041Y-44833299D01*
X58136924Y-44606196D01*
X57977281Y-44398148D01*
X57977274Y-44398140D01*
X57791860Y-44212726D01*
X57791851Y-44212718D01*
X57583803Y-44053075D01*
X57356700Y-43921958D01*
X57356690Y-43921953D01*
X57114428Y-43821605D01*
X57114421Y-43821603D01*
X57114419Y-43821602D01*
X56861116Y-43753730D01*
X56795088Y-43745037D01*
X56601127Y-43719500D01*
X56601120Y-43719500D01*
X55338880Y-43719500D01*
X55338872Y-43719500D01*
X55107772Y-43749926D01*
X55078884Y-43753730D01*
X54825581Y-43821602D01*
X54825571Y-43821605D01*
X54583309Y-43921953D01*
X54583299Y-43921958D01*
X54356196Y-44053075D01*
X54148148Y-44212718D01*
X53962718Y-44398148D01*
X53803075Y-44606196D01*
X53777387Y-44650691D01*
X53726820Y-44698907D01*
X53658213Y-44712130D01*
X53593348Y-44686162D01*
X53562613Y-44650691D01*
X53536924Y-44606196D01*
X53377281Y-44398148D01*
X53377274Y-44398140D01*
X53191860Y-44212726D01*
X53191851Y-44212718D01*
X52983803Y-44053075D01*
X52756700Y-43921958D01*
X52756690Y-43921953D01*
X52514428Y-43821605D01*
X52514421Y-43821603D01*
X52514419Y-43821602D01*
X52261116Y-43753730D01*
X52195088Y-43745037D01*
X52001127Y-43719500D01*
X52001120Y-43719500D01*
X50738880Y-43719500D01*
X50738872Y-43719500D01*
X50507772Y-43749926D01*
X50478884Y-43753730D01*
X50225581Y-43821602D01*
X50225571Y-43821605D01*
X49983309Y-43921953D01*
X49983299Y-43921958D01*
X49756196Y-44053075D01*
X49548148Y-44212718D01*
X49362718Y-44398148D01*
X49203075Y-44606196D01*
X49071958Y-44833299D01*
X49071953Y-44833309D01*
X48971605Y-45075571D01*
X48971602Y-45075581D01*
X48937840Y-45201585D01*
X48903730Y-45328885D01*
X48869500Y-45588872D01*
X42570499Y-45588872D01*
X42536270Y-45328884D01*
X42468398Y-45075581D01*
X42452644Y-45037547D01*
X42368046Y-44833309D01*
X42368041Y-44833299D01*
X42236924Y-44606196D01*
X42077281Y-44398148D01*
X42077274Y-44398140D01*
X41891860Y-44212726D01*
X41891851Y-44212718D01*
X41683803Y-44053075D01*
X41456700Y-43921958D01*
X41456690Y-43921953D01*
X41214428Y-43821605D01*
X41214421Y-43821603D01*
X41214419Y-43821602D01*
X40961116Y-43753730D01*
X40895088Y-43745037D01*
X40701127Y-43719500D01*
X40701120Y-43719500D01*
X39438880Y-43719500D01*
X39438872Y-43719500D01*
X39207772Y-43749926D01*
X39178884Y-43753730D01*
X38925581Y-43821602D01*
X38925571Y-43821605D01*
X38683309Y-43921953D01*
X38683299Y-43921958D01*
X38456196Y-44053075D01*
X38248148Y-44212718D01*
X38062718Y-44398148D01*
X37903075Y-44606196D01*
X37877387Y-44650691D01*
X37826820Y-44698907D01*
X37758213Y-44712130D01*
X37693348Y-44686162D01*
X37662613Y-44650691D01*
X37636924Y-44606196D01*
X37477281Y-44398148D01*
X37477274Y-44398140D01*
X37291860Y-44212726D01*
X37291851Y-44212718D01*
X37083803Y-44053075D01*
X36856700Y-43921958D01*
X36856690Y-43921953D01*
X36614428Y-43821605D01*
X36614421Y-43821603D01*
X36614419Y-43821602D01*
X36361116Y-43753730D01*
X36295088Y-43745037D01*
X36101127Y-43719500D01*
X36101120Y-43719500D01*
X34838880Y-43719500D01*
X34838872Y-43719500D01*
X34607772Y-43749926D01*
X34578884Y-43753730D01*
X34325581Y-43821602D01*
X34325571Y-43821605D01*
X34083309Y-43921953D01*
X34083299Y-43921958D01*
X33856196Y-44053075D01*
X33648148Y-44212718D01*
X33462718Y-44398148D01*
X33303075Y-44606196D01*
X33171958Y-44833299D01*
X33171953Y-44833309D01*
X33071605Y-45075571D01*
X33071602Y-45075581D01*
X33037840Y-45201585D01*
X33003730Y-45328885D01*
X32969500Y-45588872D01*
X500500Y-45588872D01*
X500500Y-41632135D01*
X11319500Y-41632135D01*
X11319500Y-44727870D01*
X11319501Y-44727876D01*
X11325908Y-44787483D01*
X11376202Y-44922328D01*
X11376206Y-44922335D01*
X11462452Y-45037544D01*
X11462455Y-45037547D01*
X11577664Y-45123793D01*
X11577671Y-45123797D01*
X11712517Y-45174091D01*
X11712516Y-45174091D01*
X11719444Y-45174835D01*
X11772127Y-45180500D01*
X14867872Y-45180499D01*
X14927483Y-45174091D01*
X15062331Y-45123796D01*
X15177546Y-45037546D01*
X15263796Y-44922331D01*
X15314091Y-44787483D01*
X15320500Y-44727873D01*
X15320499Y-43179998D01*
X18314390Y-43179998D01*
X18314390Y-43180001D01*
X18334804Y-43465433D01*
X18395628Y-43745037D01*
X18395630Y-43745043D01*
X18395631Y-43745046D01*
X18437699Y-43857834D01*
X18495635Y-44013166D01*
X18632770Y-44264309D01*
X18632775Y-44264317D01*
X18804254Y-44493387D01*
X18804270Y-44493405D01*
X19006594Y-44695729D01*
X19006612Y-44695745D01*
X19235682Y-44867224D01*
X19235690Y-44867229D01*
X19486833Y-45004364D01*
X19486832Y-45004364D01*
X19486836Y-45004365D01*
X19486839Y-45004367D01*
X19754954Y-45104369D01*
X19754960Y-45104370D01*
X19754962Y-45104371D01*
X20034566Y-45165195D01*
X20034568Y-45165195D01*
X20034572Y-45165196D01*
X20288220Y-45183337D01*
X20319999Y-45185610D01*
X20320000Y-45185610D01*
X20320001Y-45185610D01*
X20348595Y-45183564D01*
X20605428Y-45165196D01*
X20795742Y-45123796D01*
X20885037Y-45104371D01*
X20885037Y-45104370D01*
X20885046Y-45104369D01*
X21153161Y-45004367D01*
X21404315Y-44867226D01*
X21633395Y-44695739D01*
X21835739Y-44493395D01*
X22007226Y-44264315D01*
X22144367Y-44013161D01*
X22244369Y-43745046D01*
X22266423Y-43643664D01*
X22305195Y-43465433D01*
X22305195Y-43465432D01*
X22305196Y-43465428D01*
X22325610Y-43180000D01*
X22305196Y-42894572D01*
X22298493Y-42863760D01*
X22244371Y-42614962D01*
X22244370Y-42614960D01*
X22244369Y-42614954D01*
X22144367Y-42346839D01*
X22127099Y-42315216D01*
X22007229Y-42095690D01*
X22007224Y-42095682D01*
X21835745Y-41866612D01*
X21835729Y-41866594D01*
X21633405Y-41664270D01*
X21633387Y-41664254D01*
X21404317Y-41492775D01*
X21404309Y-41492770D01*
X21153166Y-41355635D01*
X21153167Y-41355635D01*
X21045915Y-41315632D01*
X20885046Y-41255631D01*
X20885043Y-41255630D01*
X20885037Y-41255628D01*
X20605433Y-41194804D01*
X20320001Y-41174390D01*
X20319999Y-41174390D01*
X20034566Y-41194804D01*
X19754962Y-41255628D01*
X19486833Y-41355635D01*
X19235690Y-41492770D01*
X19235682Y-41492775D01*
X19006612Y-41664254D01*
X19006594Y-41664270D01*
X18804270Y-41866594D01*
X18804254Y-41866612D01*
X18632775Y-42095682D01*
X18632770Y-42095690D01*
X18495635Y-42346833D01*
X18395628Y-42614962D01*
X18334804Y-42894566D01*
X18314390Y-43179998D01*
X15320499Y-43179998D01*
X15320499Y-41632128D01*
X15314091Y-41572517D01*
X15291296Y-41511401D01*
X15263797Y-41437671D01*
X15263793Y-41437664D01*
X15177547Y-41322455D01*
X15177544Y-41322452D01*
X15062335Y-41236206D01*
X15062328Y-41236202D01*
X14927482Y-41185908D01*
X14927483Y-41185908D01*
X14867883Y-41179501D01*
X14867881Y-41179500D01*
X14867873Y-41179500D01*
X14867864Y-41179500D01*
X11772129Y-41179500D01*
X11772123Y-41179501D01*
X11712516Y-41185908D01*
X11577671Y-41236202D01*
X11577664Y-41236206D01*
X11462455Y-41322452D01*
X11462452Y-41322455D01*
X11376206Y-41437664D01*
X11376202Y-41437671D01*
X11325908Y-41572517D01*
X11319501Y-41632116D01*
X11319501Y-41632123D01*
X11319500Y-41632135D01*
X500500Y-41632135D01*
X500500Y-38099998D01*
X11314390Y-38099998D01*
X11314390Y-38100001D01*
X11334804Y-38385433D01*
X11395628Y-38665037D01*
X11395630Y-38665043D01*
X11395631Y-38665046D01*
X11495633Y-38933161D01*
X11495635Y-38933166D01*
X11632770Y-39184309D01*
X11632775Y-39184317D01*
X11804254Y-39413387D01*
X11804270Y-39413405D01*
X12006594Y-39615729D01*
X12006612Y-39615745D01*
X12235682Y-39787224D01*
X12235690Y-39787229D01*
X12486833Y-39924364D01*
X12486832Y-39924364D01*
X12486836Y-39924365D01*
X12486839Y-39924367D01*
X12754954Y-40024369D01*
X12754960Y-40024370D01*
X12754962Y-40024371D01*
X13034566Y-40085195D01*
X13034568Y-40085195D01*
X13034572Y-40085196D01*
X13288220Y-40103337D01*
X13319999Y-40105610D01*
X13320000Y-40105610D01*
X13320001Y-40105610D01*
X13348595Y-40103564D01*
X13605428Y-40085196D01*
X13799916Y-40042888D01*
X13885037Y-40024371D01*
X13885037Y-40024370D01*
X13885046Y-40024369D01*
X14153161Y-39924367D01*
X14404315Y-39787226D01*
X14633395Y-39615739D01*
X14835739Y-39413395D01*
X15007226Y-39184315D01*
X15144367Y-38933161D01*
X15244369Y-38665046D01*
X15266423Y-38563664D01*
X15305195Y-38385433D01*
X15305195Y-38385432D01*
X15305196Y-38385428D01*
X15325610Y-38100000D01*
X15325610Y-38099998D01*
X18314390Y-38099998D01*
X18314390Y-38100001D01*
X18334804Y-38385433D01*
X18395628Y-38665037D01*
X18395630Y-38665043D01*
X18395631Y-38665046D01*
X18495633Y-38933161D01*
X18495635Y-38933166D01*
X18632770Y-39184309D01*
X18632775Y-39184317D01*
X18804254Y-39413387D01*
X18804270Y-39413405D01*
X19006594Y-39615729D01*
X19006612Y-39615745D01*
X19235682Y-39787224D01*
X19235690Y-39787229D01*
X19486833Y-39924364D01*
X19486832Y-39924364D01*
X19486836Y-39924365D01*
X19486839Y-39924367D01*
X19754954Y-40024369D01*
X19754960Y-40024370D01*
X19754962Y-40024371D01*
X20034566Y-40085195D01*
X20034568Y-40085195D01*
X20034572Y-40085196D01*
X20288220Y-40103337D01*
X20319999Y-40105610D01*
X20320000Y-40105610D01*
X20320001Y-40105610D01*
X20348595Y-40103564D01*
X20605428Y-40085196D01*
X20799916Y-40042888D01*
X20885037Y-40024371D01*
X20885037Y-40024370D01*
X20885046Y-40024369D01*
X21153161Y-39924367D01*
X21404315Y-39787226D01*
X21633395Y-39615739D01*
X21835739Y-39413395D01*
X22007226Y-39184315D01*
X22144367Y-38933161D01*
X22244369Y-38665046D01*
X22266423Y-38563664D01*
X22305195Y-38385433D01*
X22305195Y-38385432D01*
X22305196Y-38385428D01*
X22325610Y-38100000D01*
X22305196Y-37814572D01*
X22303394Y-37806290D01*
X22244371Y-37534962D01*
X22244370Y-37534960D01*
X22244369Y-37534954D01*
X22144367Y-37266839D01*
X22123486Y-37228599D01*
X22007229Y-37015690D01*
X22007224Y-37015682D01*
X21835745Y-36786612D01*
X21835729Y-36786594D01*
X21633405Y-36584270D01*
X21633387Y-36584254D01*
X21404317Y-36412775D01*
X21404309Y-36412770D01*
X21153166Y-36275635D01*
X21153167Y-36275635D01*
X21045915Y-36235632D01*
X20885046Y-36175631D01*
X20885043Y-36175630D01*
X20885037Y-36175628D01*
X20605433Y-36114804D01*
X20320001Y-36094390D01*
X20319999Y-36094390D01*
X20034566Y-36114804D01*
X19754962Y-36175628D01*
X19486833Y-36275635D01*
X19235690Y-36412770D01*
X19235682Y-36412775D01*
X19006612Y-36584254D01*
X19006594Y-36584270D01*
X18804270Y-36786594D01*
X18804254Y-36786612D01*
X18632775Y-37015682D01*
X18632770Y-37015690D01*
X18495635Y-37266833D01*
X18395628Y-37534962D01*
X18334804Y-37814566D01*
X18314390Y-38099998D01*
X15325610Y-38099998D01*
X15305196Y-37814572D01*
X15303394Y-37806290D01*
X15244371Y-37534962D01*
X15244370Y-37534960D01*
X15244369Y-37534954D01*
X15144367Y-37266839D01*
X15123486Y-37228599D01*
X15007229Y-37015690D01*
X15007224Y-37015682D01*
X14835745Y-36786612D01*
X14835729Y-36786594D01*
X14633405Y-36584270D01*
X14633387Y-36584254D01*
X14404317Y-36412775D01*
X14404309Y-36412770D01*
X14153166Y-36275635D01*
X14153167Y-36275635D01*
X14045915Y-36235632D01*
X13885046Y-36175631D01*
X13885043Y-36175630D01*
X13885037Y-36175628D01*
X13605433Y-36114804D01*
X13320001Y-36094390D01*
X13319999Y-36094390D01*
X13034566Y-36114804D01*
X12754962Y-36175628D01*
X12486833Y-36275635D01*
X12235690Y-36412770D01*
X12235682Y-36412775D01*
X12006612Y-36584254D01*
X12006594Y-36584270D01*
X11804270Y-36786594D01*
X11804254Y-36786612D01*
X11632775Y-37015682D01*
X11632770Y-37015690D01*
X11495635Y-37266833D01*
X11395628Y-37534962D01*
X11334804Y-37814566D01*
X11314390Y-38099998D01*
X500500Y-38099998D01*
X500500Y-31472135D01*
X11319500Y-31472135D01*
X11319500Y-34567870D01*
X11319501Y-34567876D01*
X11325908Y-34627483D01*
X11376202Y-34762328D01*
X11376206Y-34762335D01*
X11462452Y-34877544D01*
X11462455Y-34877547D01*
X11577664Y-34963793D01*
X11577671Y-34963797D01*
X11712517Y-35014091D01*
X11712516Y-35014091D01*
X11719444Y-35014835D01*
X11772127Y-35020500D01*
X14867872Y-35020499D01*
X14927483Y-35014091D01*
X15062331Y-34963796D01*
X15177546Y-34877546D01*
X15263796Y-34762331D01*
X15314091Y-34627483D01*
X15320500Y-34567873D01*
X15320499Y-33019998D01*
X18314390Y-33019998D01*
X18314390Y-33020001D01*
X18334804Y-33305433D01*
X18395628Y-33585037D01*
X18395630Y-33585043D01*
X18395631Y-33585046D01*
X18411648Y-33627989D01*
X18495635Y-33853166D01*
X18632770Y-34104309D01*
X18632775Y-34104317D01*
X18804254Y-34333387D01*
X18804270Y-34333405D01*
X19006594Y-34535729D01*
X19006612Y-34535745D01*
X19235682Y-34707224D01*
X19235690Y-34707229D01*
X19486833Y-34844364D01*
X19486832Y-34844364D01*
X19486836Y-34844365D01*
X19486839Y-34844367D01*
X19754954Y-34944369D01*
X19754960Y-34944370D01*
X19754962Y-34944371D01*
X20034566Y-35005195D01*
X20034568Y-35005195D01*
X20034572Y-35005196D01*
X20288220Y-35023337D01*
X20319999Y-35025610D01*
X20320000Y-35025610D01*
X20320001Y-35025610D01*
X20348595Y-35023564D01*
X20605428Y-35005196D01*
X20795742Y-34963796D01*
X20885037Y-34944371D01*
X20885037Y-34944370D01*
X20885046Y-34944369D01*
X21153161Y-34844367D01*
X21404315Y-34707226D01*
X21633395Y-34535739D01*
X21835739Y-34333395D01*
X22007226Y-34104315D01*
X22144367Y-33853161D01*
X22244369Y-33585046D01*
X22263011Y-33499348D01*
X22305195Y-33305433D01*
X22305195Y-33305432D01*
X22305196Y-33305428D01*
X22325610Y-33020000D01*
X22305196Y-32734572D01*
X22300982Y-32715200D01*
X58581340Y-32715200D01*
X58601126Y-32903456D01*
X58601127Y-32903459D01*
X58659618Y-33083477D01*
X58659621Y-33083484D01*
X58754267Y-33247416D01*
X58880929Y-33388088D01*
X59034065Y-33499348D01*
X59034070Y-33499351D01*
X59206992Y-33576342D01*
X59206997Y-33576344D01*
X59392154Y-33615700D01*
X59392155Y-33615700D01*
X59581444Y-33615700D01*
X59581446Y-33615700D01*
X59766603Y-33576344D01*
X59789339Y-33566220D01*
X59839776Y-33555500D01*
X59932432Y-33555500D01*
X59999471Y-33575185D01*
X60045226Y-33627989D01*
X60055752Y-33666535D01*
X60074326Y-33843256D01*
X60074327Y-33843259D01*
X60132818Y-34023277D01*
X60132821Y-34023284D01*
X60227467Y-34187216D01*
X60336621Y-34308443D01*
X60354129Y-34327888D01*
X60507265Y-34439148D01*
X60507270Y-34439151D01*
X60680192Y-34516142D01*
X60680197Y-34516144D01*
X60865354Y-34555500D01*
X60865355Y-34555500D01*
X61054644Y-34555500D01*
X61054646Y-34555500D01*
X61239803Y-34516144D01*
X61412730Y-34439151D01*
X61467743Y-34399181D01*
X61533549Y-34375702D01*
X61540628Y-34375500D01*
X67999372Y-34375500D01*
X68066411Y-34395185D01*
X68072248Y-34399175D01*
X68080198Y-34404951D01*
X68127270Y-34439151D01*
X68300192Y-34516142D01*
X68300197Y-34516144D01*
X68485354Y-34555500D01*
X68485355Y-34555500D01*
X68674644Y-34555500D01*
X68674646Y-34555500D01*
X68859803Y-34516144D01*
X69032730Y-34439151D01*
X69185871Y-34327888D01*
X69312533Y-34187216D01*
X69407179Y-34023284D01*
X69426409Y-33964101D01*
X69465846Y-33906425D01*
X69530204Y-33879226D01*
X69570121Y-33881128D01*
X69647990Y-33897679D01*
X69755354Y-33920500D01*
X69755355Y-33920500D01*
X69944644Y-33920500D01*
X69944646Y-33920500D01*
X70129803Y-33881144D01*
X70161129Y-33867196D01*
X70225064Y-33838731D01*
X70294314Y-33829446D01*
X70357591Y-33859074D01*
X70394804Y-33918209D01*
X70399500Y-33952010D01*
X70399500Y-37115196D01*
X70379815Y-37182235D01*
X70363181Y-37202877D01*
X65941108Y-41624949D01*
X65879785Y-41658434D01*
X65879209Y-41658558D01*
X65760196Y-41683856D01*
X65760192Y-41683857D01*
X65587270Y-41760848D01*
X65587265Y-41760851D01*
X65434129Y-41872111D01*
X65307466Y-42012785D01*
X65212821Y-42176715D01*
X65212818Y-42176722D01*
X65172694Y-42300213D01*
X65154326Y-42356744D01*
X65134540Y-42545000D01*
X65154326Y-42733256D01*
X65154327Y-42733259D01*
X65212818Y-42913277D01*
X65212821Y-42913284D01*
X65307467Y-43077216D01*
X65434129Y-43217888D01*
X65587265Y-43329148D01*
X65587270Y-43329151D01*
X65760192Y-43406142D01*
X65760193Y-43406142D01*
X65760197Y-43406144D01*
X65879207Y-43431440D01*
X65940689Y-43464632D01*
X65941108Y-43465049D01*
X66750351Y-44274292D01*
X66811107Y-44335048D01*
X66850709Y-44374650D01*
X66968708Y-44453495D01*
X66968715Y-44453499D01*
X67034276Y-44480655D01*
X67099838Y-44507812D01*
X67237328Y-44535160D01*
X67239032Y-44535499D01*
X67239036Y-44535500D01*
X67239037Y-44535500D01*
X78810964Y-44535500D01*
X78810965Y-44535499D01*
X78950162Y-44507812D01*
X79004470Y-44485315D01*
X79004473Y-44485315D01*
X79081278Y-44453502D01*
X79081278Y-44453501D01*
X79081285Y-44453499D01*
X79199292Y-44374649D01*
X79299649Y-44274292D01*
X80108892Y-43465047D01*
X80170213Y-43431564D01*
X80170595Y-43431481D01*
X80289803Y-43406144D01*
X80289806Y-43406142D01*
X80289808Y-43406142D01*
X80348058Y-43380206D01*
X80462730Y-43329151D01*
X80615871Y-43217888D01*
X80742533Y-43077216D01*
X80837179Y-42913284D01*
X80895674Y-42733256D01*
X80915460Y-42545000D01*
X80895674Y-42356744D01*
X80837179Y-42176716D01*
X80742533Y-42012784D01*
X80615871Y-41872112D01*
X80608301Y-41866612D01*
X80462734Y-41760851D01*
X80462729Y-41760848D01*
X80289807Y-41683857D01*
X80289802Y-41683855D01*
X80134859Y-41650922D01*
X80104646Y-41644500D01*
X79915354Y-41644500D01*
X79885141Y-41650922D01*
X79730197Y-41683855D01*
X79730192Y-41683857D01*
X79557270Y-41760848D01*
X79557265Y-41760851D01*
X79404129Y-41872111D01*
X79277466Y-42012785D01*
X79182821Y-42176715D01*
X79182818Y-42176722D01*
X79124325Y-42356744D01*
X79122456Y-42374526D01*
X79095869Y-42439140D01*
X79086817Y-42449240D01*
X78477878Y-43058181D01*
X78416555Y-43091666D01*
X78390197Y-43094500D01*
X67659803Y-43094500D01*
X67592764Y-43074815D01*
X67572122Y-43058181D01*
X67146622Y-42632681D01*
X67113137Y-42571358D01*
X67118121Y-42501666D01*
X67146622Y-42457319D01*
X67820941Y-41783000D01*
X68690540Y-41783000D01*
X68710326Y-41971256D01*
X68710327Y-41971259D01*
X68768818Y-42151277D01*
X68768821Y-42151284D01*
X68863467Y-42315216D01*
X68975049Y-42439140D01*
X68990129Y-42455888D01*
X69143265Y-42567148D01*
X69143270Y-42567151D01*
X69316192Y-42644142D01*
X69316197Y-42644144D01*
X69501354Y-42683500D01*
X69501355Y-42683500D01*
X69690644Y-42683500D01*
X69690646Y-42683500D01*
X69875803Y-42644144D01*
X70048730Y-42567151D01*
X70201871Y-42455888D01*
X70328533Y-42315216D01*
X70423179Y-42151284D01*
X70481674Y-41971256D01*
X70483542Y-41953480D01*
X70510124Y-41888866D01*
X70519173Y-41878766D01*
X72271122Y-40126819D01*
X72332445Y-40093334D01*
X72358803Y-40090500D01*
X74984372Y-40090500D01*
X75051411Y-40110185D01*
X75057248Y-40114175D01*
X75067447Y-40121585D01*
X75112270Y-40154151D01*
X75285192Y-40231142D01*
X75285197Y-40231144D01*
X75470354Y-40270500D01*
X75470355Y-40270500D01*
X75659644Y-40270500D01*
X75659646Y-40270500D01*
X75844803Y-40231144D01*
X76017730Y-40154151D01*
X76170871Y-40042888D01*
X76297533Y-39902216D01*
X76392179Y-39738284D01*
X76450674Y-39558256D01*
X76470460Y-39370000D01*
X76450674Y-39181744D01*
X76392179Y-39001716D01*
X76297533Y-38837784D01*
X76170871Y-38697112D01*
X76143448Y-38677188D01*
X76017734Y-38585851D01*
X76017729Y-38585848D01*
X75844807Y-38508857D01*
X75844802Y-38508855D01*
X75699001Y-38477865D01*
X75659646Y-38469500D01*
X75470354Y-38469500D01*
X75437897Y-38476398D01*
X75285197Y-38508855D01*
X75285192Y-38508857D01*
X75112270Y-38585848D01*
X75073070Y-38614329D01*
X75057256Y-38625818D01*
X74991451Y-38649298D01*
X74984372Y-38649500D01*
X71938032Y-38649500D01*
X71798845Y-38677186D01*
X71798837Y-38677188D01*
X71733276Y-38704345D01*
X71733275Y-38704345D01*
X71667721Y-38731497D01*
X71667709Y-38731504D01*
X71581264Y-38789266D01*
X71581263Y-38789267D01*
X71549705Y-38810352D01*
X69497108Y-40862949D01*
X69435785Y-40896434D01*
X69435209Y-40896558D01*
X69316196Y-40921856D01*
X69316192Y-40921857D01*
X69143270Y-40998848D01*
X69143265Y-40998851D01*
X68990129Y-41110111D01*
X68863466Y-41250785D01*
X68768821Y-41414715D01*
X68768818Y-41414722D01*
X68717548Y-41572516D01*
X68710326Y-41594744D01*
X68690540Y-41783000D01*
X67820941Y-41783000D01*
X71679648Y-37924293D01*
X71679649Y-37924292D01*
X71719539Y-37864592D01*
X71758499Y-37806285D01*
X71790314Y-37729474D01*
X71812812Y-37675162D01*
X71840500Y-37535963D01*
X71840500Y-37394037D01*
X71840500Y-34823803D01*
X71860185Y-34756764D01*
X71912989Y-34711009D01*
X71982147Y-34701065D01*
X72045703Y-34730090D01*
X72052181Y-34736122D01*
X72700351Y-35384292D01*
X72769772Y-35453713D01*
X72800709Y-35484650D01*
X72918710Y-35563496D01*
X72918711Y-35563496D01*
X72918715Y-35563499D01*
X72970117Y-35584790D01*
X73049838Y-35617812D01*
X73189032Y-35645499D01*
X73189036Y-35645500D01*
X73189037Y-35645500D01*
X73330963Y-35645500D01*
X74349372Y-35645500D01*
X74416411Y-35665185D01*
X74422248Y-35669175D01*
X74477266Y-35709148D01*
X74477270Y-35709151D01*
X74650192Y-35786142D01*
X74650197Y-35786144D01*
X74835354Y-35825500D01*
X74835355Y-35825500D01*
X75024644Y-35825500D01*
X75024646Y-35825500D01*
X75209803Y-35786144D01*
X75382730Y-35709151D01*
X75535871Y-35597888D01*
X75662533Y-35457216D01*
X75757179Y-35293284D01*
X75815674Y-35113256D01*
X75835460Y-34925000D01*
X75815674Y-34736744D01*
X75757179Y-34556716D01*
X75662533Y-34392784D01*
X75535871Y-34252112D01*
X75535870Y-34252111D01*
X75382734Y-34140851D01*
X75382729Y-34140848D01*
X75209807Y-34063857D01*
X75209802Y-34063855D01*
X75064001Y-34032865D01*
X75024646Y-34024500D01*
X74835354Y-34024500D01*
X74802897Y-34031398D01*
X74650197Y-34063855D01*
X74650192Y-34063857D01*
X74477270Y-34140848D01*
X74439651Y-34168181D01*
X74422256Y-34180818D01*
X74356451Y-34204298D01*
X74349372Y-34204500D01*
X73609803Y-34204500D01*
X73542764Y-34184815D01*
X73522122Y-34168181D01*
X72913182Y-33559241D01*
X72879697Y-33497918D01*
X72877542Y-33484518D01*
X72875674Y-33466745D01*
X72817181Y-33286722D01*
X72817180Y-33286721D01*
X72817179Y-33286716D01*
X72722533Y-33122784D01*
X72595871Y-32982112D01*
X72595870Y-32982111D01*
X72442896Y-32870969D01*
X72400230Y-32815639D01*
X72394251Y-32746026D01*
X72426857Y-32684231D01*
X72487695Y-32649874D01*
X72489829Y-32649398D01*
X72669803Y-32611144D01*
X72669807Y-32611142D01*
X72669808Y-32611142D01*
X72728058Y-32585206D01*
X72842730Y-32534151D01*
X72897743Y-32494181D01*
X72963549Y-32470702D01*
X72970628Y-32470500D01*
X74984372Y-32470500D01*
X75051411Y-32490185D01*
X75057248Y-32494175D01*
X75112266Y-32534148D01*
X75112270Y-32534151D01*
X75285192Y-32611142D01*
X75285197Y-32611144D01*
X75470354Y-32650500D01*
X75470355Y-32650500D01*
X75659644Y-32650500D01*
X75659646Y-32650500D01*
X75844803Y-32611144D01*
X76017730Y-32534151D01*
X76170871Y-32422888D01*
X76297533Y-32282216D01*
X76392179Y-32118284D01*
X76450674Y-31938256D01*
X76470460Y-31750000D01*
X76450674Y-31561744D01*
X76392179Y-31381716D01*
X76297533Y-31217784D01*
X76170871Y-31077112D01*
X76169624Y-31076206D01*
X76017734Y-30965851D01*
X76017729Y-30965848D01*
X75844807Y-30888857D01*
X75844802Y-30888855D01*
X75699001Y-30857865D01*
X75659646Y-30849500D01*
X75470354Y-30849500D01*
X75437897Y-30856398D01*
X75285197Y-30888855D01*
X75285192Y-30888857D01*
X75112270Y-30965848D01*
X75073070Y-30994329D01*
X75057256Y-31005818D01*
X74991451Y-31029298D01*
X74984372Y-31029500D01*
X72970628Y-31029500D01*
X72903589Y-31009815D01*
X72897751Y-31005824D01*
X72842730Y-30965849D01*
X72842729Y-30965848D01*
X72669807Y-30888857D01*
X72669802Y-30888855D01*
X72524001Y-30857865D01*
X72484646Y-30849500D01*
X72295354Y-30849500D01*
X72262897Y-30856398D01*
X72110197Y-30888855D01*
X72110192Y-30888857D01*
X71937270Y-30965848D01*
X71937265Y-30965851D01*
X71784129Y-31077111D01*
X71657466Y-31217785D01*
X71562821Y-31381715D01*
X71562819Y-31381719D01*
X71530313Y-31481764D01*
X71490875Y-31539439D01*
X71426516Y-31566637D01*
X71357670Y-31554722D01*
X71324701Y-31531126D01*
X64891819Y-25098244D01*
X64858334Y-25036921D01*
X64855500Y-25010563D01*
X64855500Y-24081282D01*
X64872112Y-24019284D01*
X64962179Y-23863284D01*
X65020674Y-23683256D01*
X65040460Y-23495000D01*
X65020674Y-23306744D01*
X64962179Y-23126716D01*
X64867533Y-22962784D01*
X64740871Y-22822112D01*
X64740870Y-22822111D01*
X64587734Y-22710851D01*
X64587729Y-22710848D01*
X64414807Y-22633857D01*
X64414802Y-22633855D01*
X64269001Y-22602865D01*
X64229646Y-22594500D01*
X64040354Y-22594500D01*
X64007897Y-22601398D01*
X63855197Y-22633855D01*
X63855192Y-22633857D01*
X63682270Y-22710848D01*
X63682265Y-22710851D01*
X63529129Y-22822111D01*
X63402466Y-22962785D01*
X63307821Y-23126715D01*
X63307818Y-23126722D01*
X63249327Y-23306740D01*
X63249326Y-23306744D01*
X63229540Y-23495000D01*
X63249326Y-23683256D01*
X63249327Y-23683259D01*
X63307818Y-23863277D01*
X63307821Y-23863284D01*
X63397887Y-24019284D01*
X63414500Y-24081282D01*
X63414500Y-25431333D01*
X63442186Y-25570520D01*
X63442188Y-25570528D01*
X63464685Y-25624840D01*
X63464685Y-25624841D01*
X63496497Y-25701644D01*
X63496501Y-25701651D01*
X63556280Y-25791116D01*
X63565784Y-25805340D01*
X63575351Y-25819659D01*
X63575353Y-25819661D01*
X69658512Y-31902819D01*
X69691997Y-31964142D01*
X69687013Y-32033834D01*
X69645141Y-32089767D01*
X69579677Y-32114184D01*
X69570831Y-32114500D01*
X60212878Y-32114500D01*
X60145839Y-32094815D01*
X60120729Y-32073473D01*
X60092671Y-32042312D01*
X60092664Y-32042306D01*
X59939534Y-31931051D01*
X59939529Y-31931048D01*
X59766607Y-31854057D01*
X59766602Y-31854055D01*
X59613188Y-31821447D01*
X59581446Y-31814700D01*
X59392154Y-31814700D01*
X59360412Y-31821447D01*
X59206997Y-31854055D01*
X59206992Y-31854057D01*
X59034070Y-31931048D01*
X59034065Y-31931051D01*
X58880929Y-32042311D01*
X58754266Y-32182985D01*
X58659621Y-32346915D01*
X58659618Y-32346922D01*
X58601127Y-32526940D01*
X58601126Y-32526944D01*
X58581340Y-32715200D01*
X22300982Y-32715200D01*
X22298493Y-32703760D01*
X22244371Y-32454962D01*
X22244370Y-32454960D01*
X22244369Y-32454954D01*
X22144367Y-32186839D01*
X22118904Y-32140208D01*
X22007229Y-31935690D01*
X22007224Y-31935682D01*
X21835745Y-31706612D01*
X21835729Y-31706594D01*
X21633405Y-31504270D01*
X21633387Y-31504254D01*
X21404317Y-31332775D01*
X21404309Y-31332770D01*
X21153166Y-31195635D01*
X21153167Y-31195635D01*
X21045915Y-31155632D01*
X20885046Y-31095631D01*
X20885043Y-31095630D01*
X20885037Y-31095628D01*
X20605433Y-31034804D01*
X20320001Y-31014390D01*
X20319999Y-31014390D01*
X20034566Y-31034804D01*
X19754962Y-31095628D01*
X19486833Y-31195635D01*
X19235690Y-31332770D01*
X19235682Y-31332775D01*
X19006612Y-31504254D01*
X19006594Y-31504270D01*
X18804270Y-31706594D01*
X18804254Y-31706612D01*
X18632775Y-31935682D01*
X18632770Y-31935690D01*
X18495635Y-32186833D01*
X18395628Y-32454962D01*
X18334804Y-32734566D01*
X18314390Y-33019998D01*
X15320499Y-33019998D01*
X15320499Y-31472128D01*
X15314091Y-31412517D01*
X15302605Y-31381722D01*
X15263797Y-31277671D01*
X15263793Y-31277664D01*
X15177547Y-31162455D01*
X15177544Y-31162452D01*
X15062335Y-31076206D01*
X15062328Y-31076202D01*
X14927482Y-31025908D01*
X14927483Y-31025908D01*
X14867883Y-31019501D01*
X14867881Y-31019500D01*
X14867873Y-31019500D01*
X14867864Y-31019500D01*
X11772129Y-31019500D01*
X11772123Y-31019501D01*
X11712516Y-31025908D01*
X11577671Y-31076202D01*
X11577664Y-31076206D01*
X11462455Y-31162452D01*
X11462452Y-31162455D01*
X11376206Y-31277664D01*
X11376202Y-31277671D01*
X11325908Y-31412517D01*
X11319501Y-31472116D01*
X11319501Y-31472123D01*
X11319500Y-31472135D01*
X500500Y-31472135D01*
X500500Y-27939998D01*
X11314891Y-27939998D01*
X11314891Y-27940001D01*
X11335300Y-28225362D01*
X11396109Y-28504895D01*
X11496091Y-28772958D01*
X11633191Y-29024038D01*
X11633196Y-29024046D01*
X11739882Y-29166562D01*
X11739883Y-29166563D01*
X12634767Y-28271678D01*
X12646497Y-28299995D01*
X12729670Y-28424472D01*
X12835528Y-28530330D01*
X12960005Y-28613503D01*
X12988320Y-28625231D01*
X12093435Y-29520115D01*
X12093436Y-29520116D01*
X12235953Y-29626803D01*
X12235961Y-29626808D01*
X12487042Y-29763908D01*
X12487041Y-29763908D01*
X12755104Y-29863890D01*
X13034637Y-29924699D01*
X13319999Y-29945109D01*
X13320001Y-29945109D01*
X13605362Y-29924699D01*
X13884895Y-29863890D01*
X14152958Y-29763908D01*
X14404038Y-29626808D01*
X14404039Y-29626807D01*
X14546563Y-29520115D01*
X13651679Y-28625231D01*
X13679995Y-28613503D01*
X13804472Y-28530330D01*
X13910330Y-28424472D01*
X13993503Y-28299995D01*
X14005231Y-28271679D01*
X14900115Y-29166563D01*
X15006807Y-29024039D01*
X15006808Y-29024038D01*
X15143908Y-28772958D01*
X15243890Y-28504895D01*
X15304699Y-28225362D01*
X15325109Y-27940001D01*
X15325109Y-27939998D01*
X18314891Y-27939998D01*
X18314891Y-27940001D01*
X18335300Y-28225362D01*
X18396109Y-28504895D01*
X18496091Y-28772958D01*
X18633191Y-29024038D01*
X18633196Y-29024046D01*
X18739882Y-29166562D01*
X18739883Y-29166563D01*
X19634767Y-28271678D01*
X19646497Y-28299995D01*
X19729670Y-28424472D01*
X19835528Y-28530330D01*
X19960005Y-28613503D01*
X19988320Y-28625231D01*
X19093435Y-29520115D01*
X19093436Y-29520116D01*
X19235953Y-29626803D01*
X19235961Y-29626808D01*
X19487042Y-29763908D01*
X19487041Y-29763908D01*
X19755104Y-29863890D01*
X20034637Y-29924699D01*
X20319999Y-29945109D01*
X20320001Y-29945109D01*
X20605362Y-29924699D01*
X20884895Y-29863890D01*
X21152958Y-29763908D01*
X21404038Y-29626808D01*
X21404039Y-29626807D01*
X21546563Y-29520115D01*
X20651679Y-28625231D01*
X20679995Y-28613503D01*
X20804472Y-28530330D01*
X20910330Y-28424472D01*
X20993503Y-28299995D01*
X21005231Y-28271679D01*
X21900115Y-29166563D01*
X22006807Y-29024039D01*
X22006808Y-29024038D01*
X22143908Y-28772958D01*
X22243890Y-28504895D01*
X22304699Y-28225362D01*
X22325109Y-27940001D01*
X22325109Y-27939998D01*
X22304699Y-27654637D01*
X22243890Y-27375104D01*
X22143908Y-27107041D01*
X22006808Y-26855961D01*
X22006803Y-26855953D01*
X21900116Y-26713436D01*
X21900115Y-26713435D01*
X21005231Y-27608320D01*
X20993503Y-27580005D01*
X20910330Y-27455528D01*
X20804472Y-27349670D01*
X20679995Y-27266497D01*
X20651678Y-27254767D01*
X21546563Y-26359883D01*
X21546562Y-26359882D01*
X21404046Y-26253196D01*
X21404038Y-26253191D01*
X21152957Y-26116091D01*
X21152958Y-26116091D01*
X20884895Y-26016109D01*
X20605362Y-25955300D01*
X20320001Y-25934891D01*
X20319999Y-25934891D01*
X20034637Y-25955300D01*
X19755104Y-26016109D01*
X19487041Y-26116091D01*
X19235961Y-26253191D01*
X19235953Y-26253196D01*
X19093435Y-26359882D01*
X19988321Y-27254767D01*
X19960005Y-27266497D01*
X19835528Y-27349670D01*
X19729670Y-27455528D01*
X19646497Y-27580005D01*
X19634768Y-27608321D01*
X18739882Y-26713435D01*
X18633196Y-26855953D01*
X18633191Y-26855961D01*
X18496091Y-27107041D01*
X18396109Y-27375104D01*
X18335300Y-27654637D01*
X18314891Y-27939998D01*
X15325109Y-27939998D01*
X15304699Y-27654637D01*
X15243890Y-27375104D01*
X15143908Y-27107041D01*
X15006808Y-26855961D01*
X15006803Y-26855953D01*
X14900116Y-26713436D01*
X14900115Y-26713435D01*
X14005231Y-27608320D01*
X13993503Y-27580005D01*
X13910330Y-27455528D01*
X13804472Y-27349670D01*
X13679995Y-27266497D01*
X13651678Y-27254767D01*
X14546563Y-26359883D01*
X14546562Y-26359882D01*
X14404046Y-26253196D01*
X14404038Y-26253191D01*
X14152957Y-26116091D01*
X14152958Y-26116091D01*
X13884895Y-26016109D01*
X13605362Y-25955300D01*
X13320001Y-25934891D01*
X13319999Y-25934891D01*
X13034637Y-25955300D01*
X12755104Y-26016109D01*
X12487041Y-26116091D01*
X12235961Y-26253191D01*
X12235953Y-26253196D01*
X12093435Y-26359882D01*
X12988321Y-27254767D01*
X12960005Y-27266497D01*
X12835528Y-27349670D01*
X12729670Y-27455528D01*
X12646497Y-27580005D01*
X12634768Y-27608321D01*
X11739882Y-26713435D01*
X11633196Y-26855953D01*
X11633191Y-26855961D01*
X11496091Y-27107041D01*
X11396109Y-27375104D01*
X11335300Y-27654637D01*
X11314891Y-27939998D01*
X500500Y-27939998D01*
X500500Y-25268872D01*
X32969500Y-25268872D01*
X32969500Y-25531127D01*
X32996123Y-25733339D01*
X33003730Y-25791116D01*
X33071602Y-26044418D01*
X33071605Y-26044428D01*
X33171953Y-26286690D01*
X33171958Y-26286700D01*
X33303075Y-26513803D01*
X33462718Y-26721851D01*
X33462726Y-26721860D01*
X33648140Y-26907274D01*
X33648148Y-26907281D01*
X33856196Y-27066924D01*
X34083299Y-27198041D01*
X34083309Y-27198046D01*
X34248565Y-27266497D01*
X34325581Y-27298398D01*
X34578884Y-27366270D01*
X34838880Y-27400500D01*
X34838887Y-27400500D01*
X36101113Y-27400500D01*
X36101120Y-27400500D01*
X36361116Y-27366270D01*
X36614419Y-27298398D01*
X36856697Y-27198043D01*
X37083803Y-27066924D01*
X37291851Y-26907282D01*
X37291855Y-26907277D01*
X37291860Y-26907274D01*
X37477274Y-26721860D01*
X37477277Y-26721855D01*
X37477282Y-26721851D01*
X37636924Y-26513803D01*
X37662613Y-26469307D01*
X37713179Y-26421093D01*
X37781786Y-26407869D01*
X37846651Y-26433837D01*
X37877388Y-26469309D01*
X37903077Y-26513805D01*
X38062718Y-26721851D01*
X38062726Y-26721860D01*
X38248140Y-26907274D01*
X38248148Y-26907281D01*
X38456196Y-27066924D01*
X38683299Y-27198041D01*
X38683309Y-27198046D01*
X38848565Y-27266497D01*
X38925581Y-27298398D01*
X39178884Y-27366270D01*
X39438880Y-27400500D01*
X39438887Y-27400500D01*
X40701113Y-27400500D01*
X40701120Y-27400500D01*
X40961116Y-27366270D01*
X41214419Y-27298398D01*
X41456697Y-27198043D01*
X41683803Y-27066924D01*
X41891851Y-26907282D01*
X41891855Y-26907277D01*
X41891860Y-26907274D01*
X42077274Y-26721860D01*
X42077277Y-26721855D01*
X42077282Y-26721851D01*
X42236924Y-26513803D01*
X42368043Y-26286697D01*
X42468398Y-26044419D01*
X42536270Y-25791116D01*
X42570500Y-25531120D01*
X42570500Y-25268880D01*
X42570499Y-25268872D01*
X48869500Y-25268872D01*
X48869500Y-25531127D01*
X48896123Y-25733339D01*
X48903730Y-25791116D01*
X48971602Y-26044418D01*
X48971605Y-26044428D01*
X49071953Y-26286690D01*
X49071958Y-26286700D01*
X49203075Y-26513803D01*
X49362718Y-26721851D01*
X49362726Y-26721860D01*
X49548140Y-26907274D01*
X49548148Y-26907281D01*
X49756196Y-27066924D01*
X49983299Y-27198041D01*
X49983309Y-27198046D01*
X50148565Y-27266497D01*
X50225581Y-27298398D01*
X50478884Y-27366270D01*
X50738880Y-27400500D01*
X50738887Y-27400500D01*
X52001113Y-27400500D01*
X52001120Y-27400500D01*
X52261116Y-27366270D01*
X52514419Y-27298398D01*
X52756697Y-27198043D01*
X52983803Y-27066924D01*
X53191851Y-26907282D01*
X53191855Y-26907277D01*
X53191860Y-26907274D01*
X53377274Y-26721860D01*
X53377277Y-26721855D01*
X53377282Y-26721851D01*
X53536924Y-26513803D01*
X53562613Y-26469307D01*
X53613179Y-26421093D01*
X53681786Y-26407869D01*
X53746651Y-26433837D01*
X53777388Y-26469309D01*
X53803077Y-26513805D01*
X53962718Y-26721851D01*
X53962726Y-26721860D01*
X54148140Y-26907274D01*
X54148148Y-26907281D01*
X54356196Y-27066924D01*
X54583299Y-27198041D01*
X54583309Y-27198046D01*
X54748565Y-27266497D01*
X54825581Y-27298398D01*
X55078884Y-27366270D01*
X55338880Y-27400500D01*
X55338887Y-27400500D01*
X56601113Y-27400500D01*
X56601120Y-27400500D01*
X56861116Y-27366270D01*
X57114419Y-27298398D01*
X57356697Y-27198043D01*
X57583803Y-27066924D01*
X57791851Y-26907282D01*
X57791855Y-26907277D01*
X57791860Y-26907274D01*
X57977274Y-26721860D01*
X57977277Y-26721855D01*
X57977282Y-26721851D01*
X58136924Y-26513803D01*
X58268043Y-26286697D01*
X58368398Y-26044419D01*
X58436270Y-25791116D01*
X58470500Y-25531120D01*
X58470500Y-25268880D01*
X58436270Y-25008884D01*
X58368398Y-24755581D01*
X58352644Y-24717547D01*
X58268046Y-24513309D01*
X58268041Y-24513299D01*
X58136924Y-24286196D01*
X57999568Y-24107193D01*
X57977282Y-24078149D01*
X57977281Y-24078148D01*
X57977274Y-24078140D01*
X57791860Y-23892726D01*
X57791851Y-23892718D01*
X57583803Y-23733075D01*
X57356700Y-23601958D01*
X57356690Y-23601953D01*
X57114428Y-23501605D01*
X57114421Y-23501603D01*
X57114419Y-23501602D01*
X56861116Y-23433730D01*
X56795088Y-23425037D01*
X56601127Y-23399500D01*
X56601120Y-23399500D01*
X55338880Y-23399500D01*
X55338872Y-23399500D01*
X55107772Y-23429926D01*
X55078884Y-23433730D01*
X54850220Y-23495000D01*
X54825581Y-23501602D01*
X54825571Y-23501605D01*
X54583309Y-23601953D01*
X54583299Y-23601958D01*
X54356196Y-23733075D01*
X54148148Y-23892718D01*
X53962718Y-24078148D01*
X53803075Y-24286196D01*
X53777387Y-24330691D01*
X53726820Y-24378907D01*
X53658213Y-24392130D01*
X53593348Y-24366162D01*
X53562613Y-24330691D01*
X53536924Y-24286196D01*
X53399568Y-24107193D01*
X53377282Y-24078149D01*
X53377281Y-24078148D01*
X53377274Y-24078140D01*
X53191860Y-23892726D01*
X53191851Y-23892718D01*
X52983803Y-23733075D01*
X52756700Y-23601958D01*
X52756690Y-23601953D01*
X52514428Y-23501605D01*
X52514421Y-23501603D01*
X52514419Y-23501602D01*
X52261116Y-23433730D01*
X52195088Y-23425037D01*
X52001127Y-23399500D01*
X52001120Y-23399500D01*
X50738880Y-23399500D01*
X50738872Y-23399500D01*
X50507772Y-23429926D01*
X50478884Y-23433730D01*
X50250220Y-23495000D01*
X50225581Y-23501602D01*
X50225571Y-23501605D01*
X49983309Y-23601953D01*
X49983299Y-23601958D01*
X49756196Y-23733075D01*
X49548148Y-23892718D01*
X49362718Y-24078148D01*
X49203075Y-24286196D01*
X49071958Y-24513299D01*
X49071953Y-24513309D01*
X48971605Y-24755571D01*
X48971602Y-24755581D01*
X48923170Y-24936335D01*
X48903730Y-25008885D01*
X48869500Y-25268872D01*
X42570499Y-25268872D01*
X42536270Y-25008884D01*
X42468398Y-24755581D01*
X42452644Y-24717547D01*
X42368046Y-24513309D01*
X42368041Y-24513299D01*
X42236924Y-24286196D01*
X42099568Y-24107193D01*
X42077282Y-24078149D01*
X42077281Y-24078148D01*
X42077274Y-24078140D01*
X41891860Y-23892726D01*
X41891851Y-23892718D01*
X41683803Y-23733075D01*
X41456700Y-23601958D01*
X41456690Y-23601953D01*
X41214428Y-23501605D01*
X41214421Y-23501603D01*
X41214419Y-23501602D01*
X40961116Y-23433730D01*
X40895088Y-23425037D01*
X40701127Y-23399500D01*
X40701120Y-23399500D01*
X39438880Y-23399500D01*
X39438872Y-23399500D01*
X39207772Y-23429926D01*
X39178884Y-23433730D01*
X38950220Y-23495000D01*
X38925581Y-23501602D01*
X38925571Y-23501605D01*
X38683309Y-23601953D01*
X38683299Y-23601958D01*
X38456196Y-23733075D01*
X38248148Y-23892718D01*
X38062718Y-24078148D01*
X37903075Y-24286196D01*
X37877387Y-24330691D01*
X37826820Y-24378907D01*
X37758213Y-24392130D01*
X37693348Y-24366162D01*
X37662613Y-24330691D01*
X37636924Y-24286196D01*
X37499568Y-24107193D01*
X37477282Y-24078149D01*
X37477281Y-24078148D01*
X37477274Y-24078140D01*
X37291860Y-23892726D01*
X37291851Y-23892718D01*
X37083803Y-23733075D01*
X36856700Y-23601958D01*
X36856690Y-23601953D01*
X36614428Y-23501605D01*
X36614421Y-23501603D01*
X36614419Y-23501602D01*
X36361116Y-23433730D01*
X36295088Y-23425037D01*
X36101127Y-23399500D01*
X36101120Y-23399500D01*
X34838880Y-23399500D01*
X34838872Y-23399500D01*
X34607772Y-23429926D01*
X34578884Y-23433730D01*
X34350220Y-23495000D01*
X34325581Y-23501602D01*
X34325571Y-23501605D01*
X34083309Y-23601953D01*
X34083299Y-23601958D01*
X33856196Y-23733075D01*
X33648148Y-23892718D01*
X33462718Y-24078148D01*
X33303075Y-24286196D01*
X33171958Y-24513299D01*
X33171953Y-24513309D01*
X33071605Y-24755571D01*
X33071602Y-24755581D01*
X33023170Y-24936335D01*
X33003730Y-25008885D01*
X32969500Y-25268872D01*
X500500Y-25268872D01*
X500500Y-21312135D01*
X11319500Y-21312135D01*
X11319500Y-24407870D01*
X11319501Y-24407876D01*
X11325908Y-24467483D01*
X11376202Y-24602328D01*
X11376206Y-24602335D01*
X11462452Y-24717544D01*
X11462455Y-24717547D01*
X11577664Y-24803793D01*
X11577671Y-24803797D01*
X11712517Y-24854091D01*
X11712516Y-24854091D01*
X11719444Y-24854835D01*
X11772127Y-24860500D01*
X14867872Y-24860499D01*
X14927483Y-24854091D01*
X15062331Y-24803796D01*
X15177546Y-24717546D01*
X15263796Y-24602331D01*
X15314091Y-24467483D01*
X15320500Y-24407873D01*
X15320499Y-22859998D01*
X18314390Y-22859998D01*
X18314390Y-22860001D01*
X18334804Y-23145433D01*
X18395628Y-23425037D01*
X18395630Y-23425043D01*
X18395631Y-23425046D01*
X18448785Y-23567557D01*
X18495635Y-23693166D01*
X18632770Y-23944309D01*
X18632775Y-23944317D01*
X18804254Y-24173387D01*
X18804270Y-24173405D01*
X19006594Y-24375729D01*
X19006612Y-24375745D01*
X19235682Y-24547224D01*
X19235690Y-24547229D01*
X19486833Y-24684364D01*
X19486832Y-24684364D01*
X19486836Y-24684365D01*
X19486839Y-24684367D01*
X19754954Y-24784369D01*
X19754960Y-24784370D01*
X19754962Y-24784371D01*
X20034566Y-24845195D01*
X20034568Y-24845195D01*
X20034572Y-24845196D01*
X20288220Y-24863337D01*
X20319999Y-24865610D01*
X20320000Y-24865610D01*
X20320001Y-24865610D01*
X20348595Y-24863564D01*
X20605428Y-24845196D01*
X20795742Y-24803796D01*
X20885037Y-24784371D01*
X20885037Y-24784370D01*
X20885046Y-24784369D01*
X21153161Y-24684367D01*
X21404315Y-24547226D01*
X21633395Y-24375739D01*
X21835739Y-24173395D01*
X22007226Y-23944315D01*
X22144367Y-23693161D01*
X22244369Y-23425046D01*
X22298493Y-23176243D01*
X22305195Y-23145433D01*
X22305195Y-23145432D01*
X22305196Y-23145428D01*
X22325610Y-22860000D01*
X22305196Y-22574572D01*
X22298517Y-22543870D01*
X22244371Y-22294962D01*
X22244370Y-22294960D01*
X22244369Y-22294954D01*
X22144367Y-22026839D01*
X22118904Y-21980208D01*
X22007229Y-21775690D01*
X22007224Y-21775682D01*
X21835745Y-21546612D01*
X21835729Y-21546594D01*
X21633405Y-21344270D01*
X21633387Y-21344254D01*
X21404317Y-21172775D01*
X21404309Y-21172770D01*
X21153166Y-21035635D01*
X21153167Y-21035635D01*
X21045915Y-20995632D01*
X20885046Y-20935631D01*
X20885043Y-20935630D01*
X20885037Y-20935628D01*
X20605433Y-20874804D01*
X20320001Y-20854390D01*
X20319999Y-20854390D01*
X20034566Y-20874804D01*
X19754962Y-20935628D01*
X19486833Y-21035635D01*
X19235690Y-21172770D01*
X19235682Y-21172775D01*
X19006612Y-21344254D01*
X19006594Y-21344270D01*
X18804270Y-21546594D01*
X18804254Y-21546612D01*
X18632775Y-21775682D01*
X18632770Y-21775690D01*
X18495635Y-22026833D01*
X18395628Y-22294962D01*
X18334804Y-22574566D01*
X18314390Y-22859998D01*
X15320499Y-22859998D01*
X15320499Y-21312128D01*
X15314091Y-21252517D01*
X15291296Y-21191401D01*
X15263797Y-21117671D01*
X15263793Y-21117664D01*
X15177547Y-21002455D01*
X15177544Y-21002452D01*
X15062335Y-20916206D01*
X15062328Y-20916202D01*
X14927482Y-20865908D01*
X14927483Y-20865908D01*
X14867883Y-20859501D01*
X14867881Y-20859500D01*
X14867873Y-20859500D01*
X14867864Y-20859500D01*
X11772129Y-20859500D01*
X11772123Y-20859501D01*
X11712516Y-20865908D01*
X11577671Y-20916202D01*
X11577664Y-20916206D01*
X11462455Y-21002452D01*
X11462452Y-21002455D01*
X11376206Y-21117664D01*
X11376202Y-21117671D01*
X11325908Y-21252517D01*
X11319501Y-21312116D01*
X11319501Y-21312123D01*
X11319500Y-21312135D01*
X500500Y-21312135D01*
X500500Y-17779998D01*
X11314390Y-17779998D01*
X11314390Y-17780001D01*
X11334804Y-18065433D01*
X11395628Y-18345037D01*
X11395630Y-18345043D01*
X11395631Y-18345046D01*
X11437699Y-18457834D01*
X11495635Y-18613166D01*
X11632770Y-18864309D01*
X11632775Y-18864317D01*
X11804254Y-19093387D01*
X11804270Y-19093405D01*
X12006594Y-19295729D01*
X12006612Y-19295745D01*
X12235682Y-19467224D01*
X12235690Y-19467229D01*
X12486833Y-19604364D01*
X12486832Y-19604364D01*
X12486836Y-19604365D01*
X12486839Y-19604367D01*
X12754954Y-19704369D01*
X12754960Y-19704370D01*
X12754962Y-19704371D01*
X13034566Y-19765195D01*
X13034568Y-19765195D01*
X13034572Y-19765196D01*
X13288220Y-19783337D01*
X13319999Y-19785610D01*
X13320000Y-19785610D01*
X13320001Y-19785610D01*
X13348595Y-19783564D01*
X13605428Y-19765196D01*
X13885046Y-19704369D01*
X14153161Y-19604367D01*
X14404315Y-19467226D01*
X14633395Y-19295739D01*
X14835739Y-19093395D01*
X15007226Y-18864315D01*
X15144367Y-18613161D01*
X15244369Y-18345046D01*
X15266423Y-18243664D01*
X15305195Y-18065433D01*
X15305195Y-18065432D01*
X15305196Y-18065428D01*
X15325610Y-17780000D01*
X15325610Y-17779998D01*
X18314390Y-17779998D01*
X18314390Y-17780001D01*
X18334804Y-18065433D01*
X18395628Y-18345037D01*
X18395630Y-18345043D01*
X18395631Y-18345046D01*
X18437699Y-18457834D01*
X18495635Y-18613166D01*
X18632770Y-18864309D01*
X18632775Y-18864317D01*
X18804254Y-19093387D01*
X18804270Y-19093405D01*
X19006594Y-19295729D01*
X19006612Y-19295745D01*
X19235682Y-19467224D01*
X19235690Y-19467229D01*
X19486833Y-19604364D01*
X19486832Y-19604364D01*
X19486836Y-19604365D01*
X19486839Y-19604367D01*
X19754954Y-19704369D01*
X19754960Y-19704370D01*
X19754962Y-19704371D01*
X20034566Y-19765195D01*
X20034568Y-19765195D01*
X20034572Y-19765196D01*
X20288220Y-19783337D01*
X20319999Y-19785610D01*
X20320000Y-19785610D01*
X20320001Y-19785610D01*
X20348595Y-19783564D01*
X20605428Y-19765196D01*
X20885046Y-19704369D01*
X21153161Y-19604367D01*
X21404315Y-19467226D01*
X21633395Y-19295739D01*
X21835739Y-19093395D01*
X22007226Y-18864315D01*
X22144367Y-18613161D01*
X22244369Y-18345046D01*
X22266423Y-18243664D01*
X22305195Y-18065433D01*
X22305195Y-18065432D01*
X22305196Y-18065428D01*
X22325610Y-17780000D01*
X22305196Y-17494572D01*
X22298493Y-17463760D01*
X22244371Y-17214962D01*
X22244370Y-17214960D01*
X22244369Y-17214954D01*
X22144367Y-16946839D01*
X22123486Y-16908599D01*
X22007229Y-16695690D01*
X22007224Y-16695682D01*
X21835745Y-16466612D01*
X21835729Y-16466594D01*
X21633405Y-16264270D01*
X21633387Y-16264254D01*
X21404317Y-16092775D01*
X21404309Y-16092770D01*
X21153166Y-15955635D01*
X21153167Y-15955635D01*
X21045915Y-15915632D01*
X20885046Y-15855631D01*
X20885043Y-15855630D01*
X20885037Y-15855628D01*
X20605433Y-15794804D01*
X20320001Y-15774390D01*
X20319999Y-15774390D01*
X20034566Y-15794804D01*
X19754962Y-15855628D01*
X19486833Y-15955635D01*
X19235690Y-16092770D01*
X19235682Y-16092775D01*
X19006612Y-16264254D01*
X19006594Y-16264270D01*
X18804270Y-16466594D01*
X18804254Y-16466612D01*
X18632775Y-16695682D01*
X18632770Y-16695690D01*
X18495635Y-16946833D01*
X18395628Y-17214962D01*
X18334804Y-17494566D01*
X18314390Y-17779998D01*
X15325610Y-17779998D01*
X15305196Y-17494572D01*
X15298493Y-17463760D01*
X15244371Y-17214962D01*
X15244370Y-17214960D01*
X15244369Y-17214954D01*
X15144367Y-16946839D01*
X15123486Y-16908599D01*
X15007229Y-16695690D01*
X15007224Y-16695682D01*
X14835745Y-16466612D01*
X14835729Y-16466594D01*
X14633405Y-16264270D01*
X14633387Y-16264254D01*
X14404317Y-16092775D01*
X14404309Y-16092770D01*
X14153166Y-15955635D01*
X14153167Y-15955635D01*
X14045915Y-15915632D01*
X13885046Y-15855631D01*
X13885043Y-15855630D01*
X13885037Y-15855628D01*
X13605433Y-15794804D01*
X13320001Y-15774390D01*
X13319999Y-15774390D01*
X13034566Y-15794804D01*
X12754962Y-15855628D01*
X12486833Y-15955635D01*
X12235690Y-16092770D01*
X12235682Y-16092775D01*
X12006612Y-16264254D01*
X12006594Y-16264270D01*
X11804270Y-16466594D01*
X11804254Y-16466612D01*
X11632775Y-16695682D01*
X11632770Y-16695690D01*
X11495635Y-16946833D01*
X11395628Y-17214962D01*
X11334804Y-17494566D01*
X11314390Y-17779998D01*
X500500Y-17779998D01*
X500500Y-11152135D01*
X11319500Y-11152135D01*
X11319500Y-14247870D01*
X11319501Y-14247876D01*
X11325908Y-14307483D01*
X11376202Y-14442328D01*
X11376206Y-14442335D01*
X11462452Y-14557544D01*
X11462455Y-14557547D01*
X11577664Y-14643793D01*
X11577671Y-14643797D01*
X11712517Y-14694091D01*
X11712516Y-14694091D01*
X11719444Y-14694835D01*
X11772127Y-14700500D01*
X14867872Y-14700499D01*
X14927483Y-14694091D01*
X15062331Y-14643796D01*
X15177546Y-14557546D01*
X15263796Y-14442331D01*
X15314091Y-14307483D01*
X15320500Y-14247873D01*
X15320499Y-12699998D01*
X18314390Y-12699998D01*
X18314390Y-12700001D01*
X18334804Y-12985433D01*
X18395628Y-13265037D01*
X18495635Y-13533166D01*
X18632770Y-13784309D01*
X18632775Y-13784317D01*
X18804254Y-14013387D01*
X18804270Y-14013405D01*
X19006594Y-14215729D01*
X19006612Y-14215745D01*
X19235682Y-14387224D01*
X19235690Y-14387229D01*
X19486833Y-14524364D01*
X19486832Y-14524364D01*
X19486836Y-14524365D01*
X19486839Y-14524367D01*
X19754954Y-14624369D01*
X19754960Y-14624370D01*
X19754962Y-14624371D01*
X20034566Y-14685195D01*
X20034568Y-14685195D01*
X20034572Y-14685196D01*
X20288220Y-14703337D01*
X20319999Y-14705610D01*
X20320000Y-14705610D01*
X20320001Y-14705610D01*
X20348595Y-14703564D01*
X20605428Y-14685196D01*
X20795742Y-14643796D01*
X20885037Y-14624371D01*
X20885037Y-14624370D01*
X20885046Y-14624369D01*
X21153161Y-14524367D01*
X21404315Y-14387226D01*
X21633395Y-14215739D01*
X21835739Y-14013395D01*
X22007226Y-13784315D01*
X22144367Y-13533161D01*
X22244369Y-13265046D01*
X22298493Y-13016243D01*
X22305195Y-12985433D01*
X22305195Y-12985432D01*
X22305196Y-12985428D01*
X22325610Y-12700000D01*
X22305196Y-12414572D01*
X22298493Y-12383760D01*
X22244371Y-12134962D01*
X22244370Y-12134960D01*
X22244369Y-12134954D01*
X22144367Y-11866839D01*
X22118904Y-11820208D01*
X22007229Y-11615690D01*
X22007224Y-11615682D01*
X21835745Y-11386612D01*
X21835729Y-11386594D01*
X21633405Y-11184270D01*
X21633387Y-11184254D01*
X21404317Y-11012775D01*
X21404309Y-11012770D01*
X21153166Y-10875635D01*
X21153167Y-10875635D01*
X20936976Y-10795000D01*
X20885046Y-10775631D01*
X20885043Y-10775630D01*
X20885037Y-10775628D01*
X20605433Y-10714804D01*
X20320001Y-10694390D01*
X20319999Y-10694390D01*
X20034566Y-10714804D01*
X19754962Y-10775628D01*
X19486833Y-10875635D01*
X19235690Y-11012770D01*
X19235682Y-11012775D01*
X19006612Y-11184254D01*
X19006594Y-11184270D01*
X18804270Y-11386594D01*
X18804254Y-11386612D01*
X18632775Y-11615682D01*
X18632770Y-11615690D01*
X18495635Y-11866833D01*
X18395628Y-12134962D01*
X18334804Y-12414566D01*
X18314390Y-12699998D01*
X15320499Y-12699998D01*
X15320499Y-11152128D01*
X15314091Y-11092517D01*
X15284347Y-11012770D01*
X15263797Y-10957671D01*
X15263793Y-10957664D01*
X15177547Y-10842455D01*
X15177544Y-10842452D01*
X15062335Y-10756206D01*
X15062328Y-10756202D01*
X14927482Y-10705908D01*
X14927483Y-10705908D01*
X14867883Y-10699501D01*
X14867881Y-10699500D01*
X14867873Y-10699500D01*
X14867864Y-10699500D01*
X11772129Y-10699500D01*
X11772123Y-10699501D01*
X11712516Y-10705908D01*
X11577671Y-10756202D01*
X11577664Y-10756206D01*
X11462455Y-10842452D01*
X11462452Y-10842455D01*
X11376206Y-10957664D01*
X11376202Y-10957671D01*
X11325908Y-11092517D01*
X11319501Y-11152116D01*
X11319501Y-11152123D01*
X11319500Y-11152135D01*
X500500Y-11152135D01*
X500500Y-5082706D01*
X500618Y-5077297D01*
X505998Y-4954077D01*
X506613Y-4939999D01*
X1374922Y-4939999D01*
X1374922Y-4940000D01*
X1395219Y-5327287D01*
X1455886Y-5710323D01*
X1455887Y-5710330D01*
X1556262Y-6084936D01*
X1695244Y-6446994D01*
X1871310Y-6792543D01*
X2082523Y-7117783D01*
X2082525Y-7117785D01*
X2291096Y-7375348D01*
X3785747Y-5880697D01*
X3859588Y-5982330D01*
X4037670Y-6160412D01*
X4139301Y-6234251D01*
X2644650Y-7728902D01*
X2902214Y-7937475D01*
X2902216Y-7937476D01*
X3227456Y-8148689D01*
X3573005Y-8324755D01*
X3935063Y-8463737D01*
X4309669Y-8564112D01*
X4309676Y-8564113D01*
X4692712Y-8624780D01*
X5079999Y-8645078D01*
X5080001Y-8645078D01*
X5467287Y-8624780D01*
X5850323Y-8564113D01*
X5850330Y-8564112D01*
X6224936Y-8463737D01*
X6586994Y-8324755D01*
X6932543Y-8148689D01*
X7257771Y-7937484D01*
X7257784Y-7937474D01*
X7515348Y-7728902D01*
X6020698Y-6234252D01*
X6122330Y-6160412D01*
X6300412Y-5982330D01*
X6374252Y-5880698D01*
X7868902Y-7375348D01*
X8077474Y-7117784D01*
X8077484Y-7117771D01*
X8288689Y-6792543D01*
X8464755Y-6446994D01*
X8603737Y-6084936D01*
X8704112Y-5710330D01*
X8704113Y-5710323D01*
X8764780Y-5327287D01*
X8785078Y-4940000D01*
X8785078Y-4939999D01*
X8764780Y-4552712D01*
X8704113Y-4169676D01*
X8704112Y-4169669D01*
X8603737Y-3795063D01*
X8464755Y-3433005D01*
X8288689Y-3087456D01*
X8077476Y-2762216D01*
X8077475Y-2762214D01*
X7868902Y-2504650D01*
X6374251Y-3999301D01*
X6300412Y-3897670D01*
X6122330Y-3719588D01*
X6020698Y-3645748D01*
X7515349Y-2151096D01*
X7257785Y-1942525D01*
X7257783Y-1942523D01*
X6932543Y-1731310D01*
X6586994Y-1555244D01*
X6224936Y-1416262D01*
X5850330Y-1315887D01*
X5850323Y-1315886D01*
X5467287Y-1255219D01*
X5080001Y-1234922D01*
X5079999Y-1234922D01*
X4692712Y-1255219D01*
X4309676Y-1315886D01*
X4309669Y-1315887D01*
X3935063Y-1416262D01*
X3573005Y-1555244D01*
X3227456Y-1731310D01*
X2902206Y-1942531D01*
X2644649Y-2151095D01*
X2644649Y-2151096D01*
X4139301Y-3645748D01*
X4037670Y-3719588D01*
X3859588Y-3897670D01*
X3785748Y-3999301D01*
X2291096Y-2504649D01*
X2291095Y-2504649D01*
X2082531Y-2762206D01*
X1871310Y-3087456D01*
X1695244Y-3433005D01*
X1556262Y-3795063D01*
X1455887Y-4169669D01*
X1455886Y-4169676D01*
X1395219Y-4552712D01*
X1374922Y-4939999D01*
X506613Y-4939999D01*
X517691Y-4686255D01*
X518631Y-4675522D01*
X569367Y-4290140D01*
X571240Y-4279510D01*
X655374Y-3900009D01*
X658172Y-3889571D01*
X667626Y-3859588D01*
X775052Y-3518874D01*
X778749Y-3508718D01*
X778751Y-3508714D01*
X927499Y-3149603D01*
X932057Y-3139829D01*
X1111551Y-2795024D01*
X1116933Y-2785703D01*
X1325788Y-2457867D01*
X1331979Y-2449024D01*
X1568613Y-2140638D01*
X1575551Y-2132369D01*
X1838158Y-1845784D01*
X1845784Y-1838158D01*
X2132369Y-1575551D01*
X2140638Y-1568613D01*
X2449024Y-1331979D01*
X2457867Y-1325788D01*
X2785703Y-1116933D01*
X2795024Y-1111551D01*
X3139829Y-932057D01*
X3149603Y-927499D01*
X3508727Y-778745D01*
X3518874Y-775052D01*
X3889580Y-658169D01*
X3900009Y-655374D01*
X4279510Y-571240D01*
X4290140Y-569367D01*
X4675522Y-518631D01*
X4686255Y-517691D01*
X5077297Y-500617D01*
X5082706Y-500500D01*
X5145892Y-500500D01*
X76076000Y-500500D01*
X76143039Y-520185D01*
G37*
G04 #@! TD.AperFunction*
M02*
